/* XPM */
static char *Enemy_1[] = {
/* columns rows colors chars-per-pixel */
"64 64 4 1 ",
"  c None",
". c black",
"X c #CE0000",
"o c white",
/* pixels */
"                                                                ",
"                                                                ",
"                                                                ",
"                                                                ",
"            XXXXXXXXXXXXXXXXXXXXXXXXXXXXXXXXXXXXXXXX            ",
"            XXXXXXXXXXXXXXXXXXXXXXXXXXXXXXXXXXXXXXXX            ",
"            XXXXXXXXXXXXXXXXXXXXXXXXXXXXXXXXXXXXXXXX            ",
"            XXXXXXXXXXXXXXXXXXXXXXXXXXXXXXXXXXXXXXXX            ",
"        XXXXXXXX                                XXXXXXXX        ",
"        XXXXXXXX                                XXXXXXXX        ",
"        XXXXXXXX                                XXXXXXXX        ",
"        XXXXXXXX                                XXXXXXXX        ",
"        XXXX        XXXXXXXXXXXXXXXXXXXXXXXX        XXXX        ",
"        XXXX        XXXXXXXXXXXXXXXXXXXXXXXX        XXXX        ",
"        XXXX        XXXXXXXXXXXXXXXXXXXXXXXX        XXXX        ",
"        XXXX        XXXXXXXXXXXXXXXXXXXXXXXX        XXXX        ",
"    XXXXXXXX    XXXXXXXXXXXX                        XXXXXXXX    ",
"    XXXXXXXX    XXXXXXXXXXXX                        XXXXXXXX    ",
"    XXXXXXXX    XXXXXXXXXXXX                        ............",
"    XXXXXXXX    XXXXXXXXXXXX                        ............",
"XXXXXXXX        XXXXXXXX        ................    ............",
"XXXXXXXX        XXXXXXXX        ................    ............",
"XXXXXXXX        XXXXXXXX        ....................oooooooo....",
"XXXXXXXX        XXXXXXXX        ....................oooooooo....",
"XXXX        XXXXXXXXXXXX    ....oooooooooooooooo....oooooooo....",
"XXXX        XXXXXXXXXXXX    ....oooooooooooooooo....oooooooo....",
"XXXX        XXXXXXXXXXXX    ....oooooooooooo....oooooooooooo....",
"XXXX        XXXXXXXXXXXX    ....oooooooooooo....oooooooooooo....",
"XXXX    XXXXXXXXXXXXXXXX        ................oooooooooooo....",
"XXXX    XXXXXXXXXXXXXXXX        ................oooooooooooo....",
"XXXX    XXXXXXXXXXXXXXXX        ............oooooooooooo....    ",
"XXXX    XXXXXXXXXXXXXXXX        ............oooooooooooo....    ",
"XXXX    XXXXXXXXXXXXXXXXXXXX            ....oooooooooooo....    ",
"XXXX    XXXXXXXXXXXXXXXXXXXX            ....oooooooooooo....    ",
"XXXX    XXXXXXXXXXXXXXXXXXXX        ............oooo....XXXX    ",
"XXXX    XXXXXXXXXXXXXXXXXXXX        ............oooo....XXXX    ",
"XXXX    XXXXXXXXXXXXXXXXXXXXXXXXXXXX............oooo....        ",
"XXXX    XXXXXXXXXXXXXXXXXXXXXXXXXXXX.....oooo...oooo....        ",
"XXXX    XXXXXXXXXXXXXXXXXXXXXXXX.........oooo.......XXXX        ",
"XXXX    XXXXXXXXXXXXXXXXXXXXXXXX.........oooo.......XXXX        ",
"XXXX        XXXXXXXXXXXXXXXXXXXX.........oooo.......XXXX        ",
"XXXX        XXXXXXXXXXXXXXXXXXXX.....oooo...........XXXX        ",
"XXXX        XXXXXXXXXXXXXXXXXXXX.....oooo.......    XXXX        ",
"XXXX        XXXXXXXXXXXXXXXXXXXX.....oooo.......    XXXX        ",
"XXXXXXXX        XXXXXXXXXXXXXXXX.....oooo.......    XXXX        ",
"XXXXXXXX        XXXXXXXXXXXXXXXX................    XXXX        ",
"XXXXXXXX        XXXXXXXXXXXXXXXX.............XXX    XXXX        ",
"XXXXXXXX        XXXXXXXXXXXXXXXX.............XXX    XXXX        ",
"    XXXXXXXX    XXXXXXXXXXXXXX  .............XXX    XXXX        ",
"    XXXXXXXX    XXXXXXXXXXXXXX  .............XXX    XXXX        ",
"    XXXXXXXX    XXXXXXXXXXXXXX    XXXXXXXXXXXXXX    XXXX        ",
"    XXXXXXXX    XXXXXXXXXXXXXX    XXXXXXXXXXXXXX    XXXX        ",
"        XXXX                                        XXXX        ",
"        XXXX                                        XXXX        ",
"        XXXX                                        XXXX        ",
"        XXXX                                        XXXX        ",
"        XXXXXXXXXXXXXXXXXXXXXXXXXXXXXXXXXXXXXXXXXXXXXXXX        ",
"        XXXXXXXXXXXXXXXXXXXXXXXXXXXXXXXXXXXXXXXXXXXXXXXX        ",
"        XXXXXXXXXXXXXXXXXXXXXXXXXXXXXXXXXXXXXXXXXXXXXXXX        ",
"        XXXXXXXXXXXXXXXXXXXXXXXXXXXXXXXXXXXXXXXXXXXXXXXX        ",
"                                                                ",
"                                                                ",
"                                                                ",
"                                                                "
};
