/* XPM */
static char *Enemy_3[] = {
/* columns rows colors chars-per-pixel */
"64 64 4 1 ",
"  c None",
". c black",
"X c #CE0000",
"o c white",
/* pixels */
"                                                                ",
"                                                                ",
"                                                                ",
"                                                                ",
"            XXXXXXXXXXXXXXXXXXXXXXXXXXXXXXXXXXXXXXXX            ",
"            XXXXXXXXXXXXXXXXXXXXXXXXXXXXXXXXXXXXXXXX            ",
"            XXXXXXXXXXXXXXXXXXXXXXXXXXXXXXXXXXXXXXXX            ",
"            XXXXXXXXXXXXXXXXXXXXXXXXXXXXXXXXXXXXXXXX            ",
"        XXXXXXXX                                XXXXXXXX        ",
"        XXXXXXXX                                XXXXXXXX        ",
"        XXXXXXXX                                XXXXXXXX        ",
"        XXXXXXXX                                XXXXXXXX        ",
"        XXXX        XXXXXXXXXXXXXXXXXXXXXXXX        XXXX        ",
"        XXXX        XXXXXXXXXXXXXXXXXXXXXXXX        XXXX        ",
"        XXXX        XXXXXXXXXXXXXXXXXXXXXXXX        XXXX        ",
"        XXXX        XXXXXXXXXXXXXXXXXXXXXXXX        XXXX        ",
"    XXXXXXXX    XXXXXXXXXXXX                        XXXXXXXX    ",
"    XXXXXXXX    XXXXXXXXXXXX                        XXXXXXXX    ",
"    XXXXXXXX    XXXXXXXXXXXX                        XXXXXXXX    ",
"    XXXXXXXX    XXXXXXXXXXXX                        XXXXXXXX    ",
"XXXXXXXX        XXXXXXXX        ................        XXXX    ",
"XXXXXXXX        XXXXXXXX        ................    ........    ",
"XXXXXXXX        XXXXXXXX        ................    ........    ",
"XXXXXXXX        XXXXXXXX        ................    ........    ",
"XXXX        XXXXXXXXXXXX    ....oooooooooooooooo............    ",
"XXXX        XXXXXXXXXXXX    ....oooooooooooooooo....oooooooo    ",
"XXXX        XXXXXXXXXXXX    ....oooooooooooooooo....oooooooo    ",
"XXXX        XXXXXXXXXXXX    ....oooooooooooooooo....oooooooo    ",
"XXXX    XXXXXXXXXXXXXXXX    ....oooooooooooooooo....oooooooo    ",
"XXXX    XXXXXXXXXXXXXXXX    ....oooooooooooo....oooooooooooo    ",
"XXXX    XXXXXXXXXXXXXXXX    ....oooooooooooo....oooooooooooo    ",
"XXXX    XXXXXXXXXXXXXXXX    ....oooooooooooo....oooooooooooo    ",
"XXXX    XXXXXXXXXXXXXXXX        ................oooooooooooo    ",
"XXXX    XXXXXXXXXXXXXXXX        ............oooooooooooo....    ",
"XXXX    XXXXXXXXXXXXXXXX        ............oooooooooooo....    ",
"XXXX    XXXXXXXXXXXXXXXX        ............oooooooooooo....    ",
"XXXX    XXXXXXXXXXXXXXXXXXXX            ....oooooooooooo....    ",
"XXXX    XXXXXXXXXXXXXXXXXXXX        ............oooo....XXXX    ",
"XXXX    XXXXXXXXXXXXXXXXXXXX        ............oooo....XXXX    ",
"XXXX    XXXXXXXXXXXXXXXXXXXX        ............oooo....XXXX    ",
"XXXX        XXXXXXXXXXXXXXXXXXXXXXXX.....oooo...oooo....        ",
"XXXX        XXXXXXXXXXXXXXXXXXXX.........oooo.......XXXX        ",
"XXXX        XXXXXXXXXXXXXXXXXXXX.........oooo.......XXXX        ",
"XXXX        XXXXXXXXXXXXXXXXXXXX.........oooo.......XXXX        ",
"XXXXXXXX        XXXXXXXXXXXXXXXX.....oooo...........XXXX        ",
"XXXXXXXX        XXXXXXXXXXXXXXXX.....oooo.......    XXXX        ",
"XXXXXXXX        XXXXXXXXXXXXXXXX.....oooo.......    XXXX        ",
"XXXXXXXX        XXXXXXXXXXXXXXXX.....oooo.......    XXXX        ",
"    XXXXXXXX    XXXXXXXXXXXXXX  ................    XXXX        ",
"    XXXXXXXX    XXXXXXXXXXXXXX  .............XXX    XXXX        ",
"    XXXXXXXX    XXXXXXXXXXXXXX  .............XXX    XXXX        ",
"    XXXXXXXX    XXXXXXXXXXXXXX  .............XXX    XXXX        ",
"        XXXX                    .............       XXXX        ",
"        XXXX                                        XXXX        ",
"        XXXX                                        XXXX        ",
"        XXXX                                        XXXX        ",
"        XXXXXXXXXXXXXXXXXXXXXXXXXXXXXXXXXXXXXXXXXXXXXXXX        ",
"        XXXXXXXXXXXXXXXXXXXXXXXXXXXXXXXXXXXXXXXXXXXXXXXX        ",
"        XXXXXXXXXXXXXXXXXXXXXXXXXXXXXXXXXXXXXXXXXXXXXXXX        ",
"        XXXXXXXXXXXXXXXXXXXXXXXXXXXXXXXXXXXXXXXXXXXXXXXX        ",
"                                                                ",
"                                                                ",
"                                                                ",
"                                                                "
};
