/* XPM */
static char *Enemy_2[] = {
/* columns rows colors chars-per-pixel */
"64 64 4 1 ",
"  c None",
". c black",
"X c #CE0000",
"o c white",
/* pixels */
"                                                                ",
"                                                                ",
"                                                                ",
"                                                                ",
"                                                                ",
"                                                                ",
"                                                                ",
"                                                                ",
"            XXXXXXXXXXXXXXXXXXXXXXXXXXXXXXXXXXXXXXXX            ",
"            XXXXXXXXXXXXXXXXXXXXXXXXXXXXXXXXXXXXXXXX            ",
"            XXXXXXXXXXXXXXXXXXXXXXXXXXXXXXXXXXXXXXXX            ",
"            XXXXXXXXXXXXXXXXXXXXXXXXXXXXXXXXXXXXXXXX            ",
"        XXXXXXXX                                XXXXXXXX        ",
"        XXXXXXXX                                XXXXXXXX        ",
"        XXXXXXXX                                XXXXXXXX        ",
"        XXXXXXXX                                XXXXXXXX        ",
"        XXXX        XXXXXXXXXXXXXXXXXXXXXXXX        XXXXXXXX    ",
"        XXXX        XXXXXXXXXXXXXXXXXXXXXXXX        XXXXXXXX    ",
"        XXXX        XXXXXXXXXXXXXXXXXXXXXXXX        XXXXXXXX    ",
"        XXXX        XXXXXXXXXXXXXXXXXXXXXXXX        XXXXXXXX    ",
"    XXXXXXXX    XXXXXXXXXXXX                            XXXX    ",
"    XXXXXXXX    XXXXXXXXXXXX                            XXXX    ",
"    XXXXXXXX    XXXXXXXXXXXX                            XXXX    ",
"    XXXXXXXX    XXXXXXXXXXXX                            XXXX    ",
"XXXXXXXX        XXXXXXXX        ................        XXXX    ",
"XXXXXXXX        XXXXXXXX        ................        XXXX    ",
"XXXXXXXX        XXXXXXXX        ................        XXXX    ",
"XXXXXXXX        XXXXXXXX        ................ ............   ",
"XXXX        XXXXXXXXXXXX    ....oooooooooooooooo.............   ",
"XXXX        XXXXXXXXXXXX    ....oooooooooooooooo.............   ",
"XXXX        XXXXXXXXXXXX    ....oooooooooooooooo.............   ",
"XXXX    XXXXXXXXXXXXXXXX    ....ooooooooooooo....oooooooo....   ",
"XXXX    XXXXXXXXXXXXXXXX    ....ooooooooooooo....oooooooo....   ",
"XXXX    XXXXXXXXXXXXXXXX    ....ooooooooooooo....oooooooo....   ",
"XXXX    XXXXXXXXXXXXXXXX    ....ooooooooooooo....oooooooo....   ",
"XXXX    XXXXXXXXXXXXXXXX    ....ooooooooo....oooooooooooo....   ",
"XXXX    XXXXXXXXXXXXXXXX        .............oooooooooooo....   ",
"XXXX    XXXXXXXXXXXXXXXX        .............oooooooooooo....   ",
"XXXX    XXXXXXXXXXXXXXXX        .............oooooooooooo....   ",
"XXXX    XXXXXXXXXXXXXXXX        .........oooooooooooo....XXX    ",
"XXXX    XXXXXXXXXXXXXXXXXXXX         ....oooooooooooo....       ",
"XXXX    XXXXXXXXXXXXXXXXXXXX         ....oooooooooooo....       ",
"XXXX    XXXXXXXXXXXXXXXXXXXX         ....oooooooooooo....       ",
"XXXX    XXXXXXXXXXXXXXXXXXXX     ............oooo....XXX        ",
"XXXX        XXXXXXXXXXXXXXXXXXXXX............oooo....XXX        ",
"XXXX        XXXXXXXXXXXXXXXXXXXXX............oooo....XXX        ",
"XXXX        XXXXXXXXXXXXXXXXXXXXX.....oooo...oooo....XXX        ",
"XXXX        XXXXXXXXXXXXXXXXX.........oooo.......   XXXX        ",
"XXXXXXXX        XXXXXXXXXXXXX.........oooo.......   XXXX        ",
"XXXXXXXX        XXXXXXXXXXXXX.........oooo.......   XXXX        ",
"XXXXXXXX        XXXXXXXXXXXXX.....oooo...........   XXXX        ",
"XXXXXXXX        XXXXXXXXXXXXX.....oooo.......XXX    XXXX        ",
"    XXXXXXXX                 .....oooo.......       XXXX        ",
"    XXXXXXXX                 .....oooo.......       XXXX        ",
"    XXXXXXXX                 ................       XXXX        ",
"    XXXXXXXX                 .............          XXXX        ",
"        XXXXXXXXXXXXXXXXXXXXX.............XXXXXXXXXXXXXX        ",
"        XXXXXXXXXXXXXXXXXXXXX.............XXXXXXXXXXXXXX        ",
"        XXXXXXXXXXXXXXXXXXXXX.............XXXXXXXXXXXXXX        ",
"        XXXXXXXXXXXXXXXXXXXXXXXXXXXXXXXXXXXXXXXXXXXXXXXX        ",
"                                                                ",
"                                                                ",
"                                                                ",
"                                                                "
};
