/* XPM */
static char *Enemy_4[] = {
/* columns rows colors chars-per-pixel */
"64 64 4 1 ",
"  c None",
". c black",
"X c #CE0000",
"o c white",
/* pixels */
"                                                                ",
"                                                                ",
"                                                                ",
"                                                                ",
"                                                                ",
"                                                                ",
"                                                                ",
"                                                                ",
"            XXXXXXXXXXXXXXXXXXXXXXXXXXXXXXXXXXXXXXXX            ",
"            XXXXXXXXXXXXXXXXXXXXXXXXXXXXXXXXXXXXXXXX            ",
"            XXXXXXXXXXXXXXXXXXXXXXXXXXXXXXXXXXXXXXXX            ",
"            XXXXXXXXXXXXXXXXXXXXXXXXXXXXXXXXXXXXXXXX            ",
"        XXXX                                        XXXX        ",
"        XXXX                                        XXXX        ",
"        XXXX                                        XXXX        ",
"        XXXX                                        XXXX        ",
"    XXXXXXXX        XXXXXXXXXXXXXXXXXXXXXXXX        XXXXXXXX    ",
"    XXXXXXXX        XXXXXXXXXXXXXXXXXXXXXXXX        XXXXXXXX    ",
"    XXXXXXXX        XXXXXXXXXXXXXXXXXXXXXXXX        XXXXXXXX    ",
"    XXXXXXXX        XXXXXXXXXXXXXXXXXXXXXXXX        XXXXXXXX    ",
"XXXXXXXX        XXXXXXXX                                XXXX    ",
"XXXXXXXX        XXXXXXXX                         ............   ",
"XXXXXXXX        XXXXXXXX                         ............   ",
"XXXXXXXX        XXXXXXXX                         ............   ",
"XXXX        XXXXXXXXXXXX        ................ ............   ",
"XXXX        XXXXXXXXXXXX        .................oooooooo....   ",
"XXXX        XXXXXXXXXXXX        .................oooooooo....   ",
"XXXX        XXXXXXXXXXXX        .................oooooooo....   ",
"XXXX    XXXXXXXXXXXXXXXX    ....ooooooooooooo....oooooooo....   ",
"XXXX    XXXXXXXXXXXXXXXX    ....ooooooooo....oooooooooooo....   ",
"XXXX    XXXXXXXXXXXXXXXX    ....ooooooooo....oooooooooooo....   ",
"XXXX    XXXXXXXXXXXXXXXX    ....ooooooooo....oooooooooooo....   ",
"XXXX    XXXXXXXXXXXXXXXX        .............oooooooooooo....   ",
"XXXX    XXXXXXXXXXXXXXXX        .........oooooooooooo....XXX    ",
"XXXX    XXXXXXXXXXXXXXXX        .........oooooooooooo....XXX    ",
"XXXX    XXXXXXXXXXXXXXXX        .........oooooooooooo....XXX    ",
"XXXX    XXXXXXXXXXXXXXXXXXXX         ....oooooooooooo....XXX    ",
"XXXX    XXXXXXXXXXXXXXXXXXXX     ............oooo....XXXXXXX    ",
"XXXX    XXXXXXXXXXXXXXXXXXXX     ............oooo....XXXXXXX    ",
"XXXX    XXXXXXXXXXXXXXXXXXXX     ............oooo....XXXXXXX    ",
"XXXX        XXXXXXXXXXXXXXXXXXXXX.....oooo...oooo....XXX        ",
"XXXX        XXXXXXXXXXXXXXXXX.........oooo.......   XXXX        ",
"XXXX        XXXXXXXXXXXXXXXXX.........oooo.......   XXXX        ",
"XXXX        XXXXXXXXXXXXXXXXX.........oooo.......   XXXX        ",
"XXXXXXXX        XXXXXXXXXXXXX.....oooo...........   XXXX        ",
"XXXXXXXX        XXXXXXXXXXXXX.....oooo.......XXX    XXXX        ",
"XXXXXXXX        XXXXXXXXXXXXX.....oooo.......XXX    XXXX        ",
"XXXXXXXX        XXXXXXXXXXXXX.....oooo.......XXX    XXXX        ",
"    XXXXXXXX    XXXXXXXXXXXXX................XXX    XXXX        ",
"    XXXXXXXX    XXXXXXXXXXXXX.............XXXXXX    XXXX        ",
"    XXXXXXXX    XXXXXXXXXXXXX.............XXXXXX    XXXX        ",
"    XXXXXXXX    XXXXXXXXXXXXX.............XXXXXX    XXXX        ",
"        XXXX                 .............          XXXX        ",
"        XXXX                                        XXXX        ",
"        XXXX                                        XXXX        ",
"        XXXX                                        XXXX        ",
"        XXXXXXXXXXXXXXXXXXXXXXXXXXXXXXXXXXXXXXXXXXXXXXXX        ",
"        XXXXXXXXXXXXXXXXXXXXXXXXXXXXXXXXXXXXXXXXXXXXXXXX        ",
"        XXXXXXXXXXXXXXXXXXXXXXXXXXXXXXXXXXXXXXXXXXXXXXXX        ",
"        XXXXXXXXXXXXXXXXXXXXXXXXXXXXXXXXXXXXXXXXXXXXXXXX        ",
"                                                                ",
"                                                                ",
"                                                                ",
"                                                                "
};
