/* XPM */
static char *Border3_4[] = {
/* columns rows colors chars-per-pixel */
"64 64 2 1 ",
"  c None",
". c white",
/* pixels */
"    ....                                                        ",
"    ....                                                        ",
"    ....                                                        ",
"    ....                                                        ",
"    ....                                                        ",
"    ....                                                        ",
"    ....                                                        ",
"    ....                                                        ",
"....        ....                                                ",
"....        ....                                                ",
"....        ....                                                ",
"....        ....                                                ",
"....        ....                                                ",
"....        ....                                                ",
"....        ....                                                ",
"....        ....                                                ",
"    ....                                                        ",
"    ....                                                        ",
"    ....                                                        ",
"    ....                                                        ",
"    ....                                                        ",
"    ....                                                        ",
"    ....                                                        ",
"    ....                                                        ",
"....        ....                                                ",
"....        ....                                                ",
"....        ....                                                ",
"....        ....                                                ",
"....        ....                                                ",
"....        ....                                                ",
"....        ....                                                ",
"....        ....                                                ",
"    ....                                                        ",
"    ....                                                        ",
"    ....                                                        ",
"    ....                                                        ",
"    ....                                                        ",
"    ....                                                        ",
"    ....                                                        ",
"    ....                                                        ",
"....        ....                                                ",
"....        ....                                                ",
"....        ....                                                ",
"....        ....                                                ",
"....        ....                                                ",
"....        ....                                                ",
"....        ....                                                ",
"....        ....                                                ",
"    ....                                                        ",
"    ....                                                        ",
"    ....                                                        ",
"    ....                                                        ",
"    ....                                                        ",
"    ....                                                        ",
"    ....                                                        ",
"    ....                                                        ",
"....        ....                                                ",
"....        ....                                                ",
"....        ....                                                ",
"....        ....                                                ",
"....        ....                                                ",
"....        ....                                                ",
"....        ....                                                ",
"....        ....                                                "
};
