/* XPM */
static char *Player_1[] = {
/* columns rows colors chars-per-pixel */
"64 64 4 1 ",
"  c None",
". c black",
"X c #96FF18",
"o c white",
/* pixels */
"                                                                ",
"                                                                ",
"                                                                ",
"                                                                ",
"              oooooooooooooooooooooooooooooooooooooooo          ",
"              oooooooooooooooooooooooooooooooooooooooo          ",
"              oooooooooooooooooooooooooooooooooooooooo          ",
"              oooooooooooooooooooooooooooooooooooooooo          ",
"          oooooooo                                oooooooo      ",
"          oooooooo                                oooooooo      ",
"          oooooooo                                oooooooo      ",
"          oooooooo                                oooooooo      ",
"          oooo        XXXXXXXXXXXXXXXXXXXXXXXX        oooo      ",
"          oooo        XXXXXXXXXXXXXXXXXXXXXXXX        oooo      ",
"          oooo        XXXXXXXXXXXXXXXXXXXXXXXX        oooo      ",
"          oooo        XXXXXXXXXXXXXXXXXXXXXXXX        oooo      ",
"      oooooooo    XXXXXXXXXXXX                        oooooooo  ",
"      oooooooo    XXXXXXXXXXXX                        oooooooo  ",
"      oooooooo    XXXXXXXXXXXX                        oooooooo  ",
"      oooooooo    XXXXXXXXXXXX                        oooooooo  ",
"  oooooooo        XXXXXXXX        ................        oooo  ",
"  oooooooo        XXXXXXXX        ................        oooo  ",
"  oooooooo        XXXXXXXX        ................        oooo  ",
"  oooooooo        XXXXXXXX        ................        oooo  ",
"  oooo        XXXXXXXXXXXX    ....oooooooooooooooo....    oooo  ",
"  oooo        XXXXXXXXXXXX    ....oooooooooooooooo....    oooo  ",
"  oooo        XXXXXXXXXXXX    ....oooooooooooooooo....    oooo  ",
"  oooo        XXXXXXXXXXXX    ....oooooooooooooooo....    oooo  ",
"  oooo    XXXXXXXXXXXXXXXX        ................        oooo  ",
"  oooo    XXXXXXXXXXXXXXXX        ................        oooo  ",
"  oooo    XXXXXXXXXXXXXXXX        ................        oooo  ",
"  oooo    XXXXXXXXXXXXXXXX        ................        oooo  ",
"  oooo    XXXXXXXXXXXXXXXXXXXX                        oooooooo  ",
"  oooo    XXXXXXXXXXXXXXXXXXXX                        oooooooo  ",
"  oooo    XXXXXXXXXXXXXXXXXXXX                        oooooooo  ",
"  oooo    XXXXXXXXXXXXXXXXXXXX                        oooooooo  ",
"  oooo    XXXXXXXXXXXXXXXXXXXXXXXXXXXXXXXXXXXXXXXX    oooo      ",
"  oooo    XXXXXXXXXXXXXXXXXXXXXXXXXXXXXXXXXXXXXXXX    oooo      ",
"  oooo    XXXXXXXXXXXXXXXXXXXXXXXXXXXXXXXXXXXXXXXX    oooo      ",
"  oooo    XXXXXXXXXXXXXXXXXXXXXXXXXXXXXXXXXXXXXXXX    oooo      ",
"  oooo        XXXXXXXXXXXXXXXXXXXXXXXXXXXXXXXXXXXX    oooo      ",
"  oooo        XXXXXXXXXXXXXXXXXXXXXXXXXXXXXXXXXXXX    oooo      ",
"  oooo        XXXXXXXXXXXXXXXXXXXXXXXXXXXXXXXXXXXX    oooo      ",
"  oooo        XXXXXXXXXXXXXXXXXXXXXXXXXXXXXXXXXXXX    oooo      ",
"  oooooooo        XXXXXXXXXXXXXXXXXXXXXXXXXXXXXXXX    oooo      ",
"  oooooooo        XXXXXXXXXXXXXXXXXXXXXXXXXXXXXXXX    oooo      ",
"  oooooooo        XXXXXXXXXXXXXXXXXXXXXXXXXXXXXXXX    oooo      ",
"  oooooooo        XXXXXXXXXXXXXXXXXXXXXXXXXXXXXXXX    oooo      ",
"      oooooooo    XXXXXXXXXXXXXX    XXXXXXXXXXXXXX    oooo      ",
"      oooooooo    XXXXXXXXXXXXXX    XXXXXXXXXXXXXX    oooo      ",
"      oooooooo    XXXXXXXXXXXXXX    XXXXXXXXXXXXXX    oooo      ",
"      oooooooo    XXXXXXXXXXXXXX    XXXXXXXXXXXXXX    oooo      ",
"          oooo                                        oooo      ",
"          oooo                                        oooo      ",
"          oooo                                        oooo      ",
"          oooo                                        oooo      ",
"          oooooooooooooooooooooooooooooooooooooooooooooooo      ",
"          oooooooooooooooooooooooooooooooooooooooooooooooo      ",
"          oooooooooooooooooooooooooooooooooooooooooooooooo      ",
"          oooooooooooooooooooooooooooooooooooooooooooooooo      ",
"                                                                ",
"                                                                ",
"                                                                ",
"                                                                "
};
