/* XPM */
static char *Player_2[] = {
/* columns rows colors chars-per-pixel */
"64 64 4 1 ",
"  c None",
". c black",
"X c #96FF18",
"o c white",
/* pixels */
"                                                                ",
"                                                                ",
"                                                                ",
"                                                                ",
"                                                                ",
"                                                                ",
"                                                                ",
"                                                                ",
"              oooooooooooooooooooooooooooooooooooooooo          ",
"              oooooooooooooooooooooooooooooooooooooooo          ",
"              oooooooooooooooooooooooooooooooooooooooo          ",
"              oooooooooooooooooooooooooooooooooooooooo          ",
"          oooooooo                                oooooooo      ",
"          oooooooo                                oooooooo      ",
"          oooooooo                                oooooooo      ",
"          oooooooo                                oooooooo      ",
"          oooo        XXXXXXXXXXXXXXXXXXXXXXXX        oooooooo  ",
"          oooo        XXXXXXXXXXXXXXXXXXXXXXXX        oooooooo  ",
"          oooo        XXXXXXXXXXXXXXXXXXXXXXXX        oooooooo  ",
"          oooo        XXXXXXXXXXXXXXXXXXXXXXXX        oooooooo  ",
"      oooooooo    XXXXXXXXXXXX                            oooo  ",
"      oooooooo    XXXXXXXXXXXX                            oooo  ",
"      oooooooo    XXXXXXXXXXXX                            oooo  ",
"      oooooooo    XXXXXXXXXXXX                            oooo  ",
"  oooooooo        XXXXXXXX        ................        oooo  ",
"  oooooooo        XXXXXXXX        ................        oooo  ",
"  oooooooo        XXXXXXXX        ................        oooo  ",
"  oooooooo        XXXXXXXX        ................        oooo  ",
"  oooo        XXXXXXXXXXXX    ....oooooooooooooooo....    oooo  ",
"  oooo        XXXXXXXXXXXX    ....oooooooooooooooo....    oooo  ",
"  oooo        XXXXXXXXXXXX    ....oooooooooooooooo....    oooo  ",
"  oooo    XXXXXXXXXXXXXXXX    ....oooooooooooooooo....    oooo  ",
"  oooo    XXXXXXXXXXXXXXXX    ....oooooooooooooooo....    oooo  ",
"  oooo    XXXXXXXXXXXXXXXX    ....oooooooooooooooo....    oooo  ",
"  oooo    XXXXXXXXXXXXXXXX    ....oooooooooooooooo....    oooo  ",
"  oooo    XXXXXXXXXXXXXXXX    ....oooooooooooooooo....    oooo  ",
"  oooo    XXXXXXXXXXXXXXXX        ................        oooo  ",
"  oooo    XXXXXXXXXXXXXXXX        ................        oooo  ",
"  oooo    XXXXXXXXXXXXXXXX        ................        oooo  ",
"  oooo    XXXXXXXXXXXXXXXX        ................        oooo  ",
"  oooo    XXXXXXXXXXXXXXXXXXXX                        oooo      ",
"  oooo    XXXXXXXXXXXXXXXXXXXX                        oooo      ",
"  oooo    XXXXXXXXXXXXXXXXXXXX                        oooo      ",
"  oooo    XXXXXXXXXXXXXXXXXXXX                        oooo      ",
"  oooo        XXXXXXXXXXXXXXXXXXXXXXXXXXXXXXXXXXXX    oooo      ",
"  oooo        XXXXXXXXXXXXXXXXXXXXXXXXXXXXXXXXXXXX    oooo      ",
"  oooo        XXXXXXXXXXXXXXXXXXXXXXXXXXXXXXXXXXXX    oooo      ",
"  oooo        XXXXXXXXXXXXXXXXXXXXXXXXXXXXXXXXXXXX    oooo      ",
"  oooooooo        XXXXXXXXXXXXXX    XXXXXXXXXXXXXX    oooo      ",
"  oooooooo        XXXXXXXXXXXXXX    XXXXXXXXXXXXXX    oooo      ",
"  oooooooo        XXXXXXXXXXXXXX    XXXXXXXXXXXXXX    oooo      ",
"  oooooooo        XXXXXXXXXXXXXX    XXXXXXXXXXXXXX    oooo      ",
"      oooooooo                                        oooo      ",
"      oooooooo                                        oooo      ",
"      oooooooo                                        oooo      ",
"      oooooooo                                        oooo      ",
"          oooooooooooooooooooooooooooooooooooooooooooooooo      ",
"          oooooooooooooooooooooooooooooooooooooooooooooooo      ",
"          oooooooooooooooooooooooooooooooooooooooooooooooo      ",
"          oooooooooooooooooooooooooooooooooooooooooooooooo      ",
"                                                                ",
"                                                                ",
"                                                                ",
"                                                                "
};
