/* XPM */
static char *Player_4[] = {
/* columns rows colors chars-per-pixel */
"64 64 4 1 ",
"  c None",
". c black",
"X c #96FF18",
"o c white",
/* pixels */
"                                                                ",
"                                                                ",
"                                                                ",
"                                                                ",
"                                                                ",
"                                                                ",
"                                                                ",
"                                                                ",
"              oooooooooooooooooooooooooooooooooooooooo          ",
"              oooooooooooooooooooooooooooooooooooooooo          ",
"              oooooooooooooooooooooooooooooooooooooooo          ",
"              oooooooooooooooooooooooooooooooooooooooo          ",
"          oooo                                        oooo      ",
"          oooo                                        oooo      ",
"          oooo                                        oooo      ",
"          oooo                                        oooo      ",
"      oooooooo        XXXXXXXXXXXXXXXXXXXXXXXX        oooooooo  ",
"      oooooooo        XXXXXXXXXXXXXXXXXXXXXXXX        oooooooo  ",
"      oooooooo        XXXXXXXXXXXXXXXXXXXXXXXX        oooooooo  ",
"      oooooooo        XXXXXXXXXXXXXXXXXXXXXXXX        oooooooo  ",
"  oooooooo        XXXXXXXX                                oooo  ",
"  oooooooo        XXXXXXXX                                oooo  ",
"  oooooooo        XXXXXXXX                                oooo  ",
"  oooooooo        XXXXXXXX                                oooo  ",
"  oooo        XXXXXXXXXXXX        ................        oooo  ",
"  oooo        XXXXXXXXXXXX        ................        oooo  ",
"  oooo        XXXXXXXXXXXX        ................        oooo  ",
"  oooo        XXXXXXXXXXXX        ................        oooo  ",
"  oooo    XXXXXXXXXXXXXXXX    ....oooooooooooooooo....    oooo  ",
"  oooo    XXXXXXXXXXXXXXXX    ....oooooooooooooooo....    oooo  ",
"  oooo    XXXXXXXXXXXXXXXX    ....oooooooooooooooo....    oooo  ",
"  oooo    XXXXXXXXXXXXXXXX    ....oooooooooooooooo....    oooo  ",
"  oooo    XXXXXXXXXXXXXXXX        ................        oooo  ",
"  oooo    XXXXXXXXXXXXXXXX        ................        oooo  ",
"  oooo    XXXXXXXXXXXXXXXX        ................        oooo  ",
"  oooo    XXXXXXXXXXXXXXXX        ................        oooo  ",
"  oooo    XXXXXXXXXXXXXXXXXXXX                        oooooooo  ",
"  oooo    XXXXXXXXXXXXXXXXXXXX                        oooooooo  ",
"  oooo    XXXXXXXXXXXXXXXXXXXX                        oooooooo  ",
"  oooo    XXXXXXXXXXXXXXXXXXXX                        oooooooo  ",
"  oooo        XXXXXXXXXXXXXXXXXXXXXXXXXXXXXXXXXXXX    oooo      ",
"  oooo        XXXXXXXXXXXXXXXXXXXXXXXXXXXXXXXXXXXX    oooo      ",
"  oooo        XXXXXXXXXXXXXXXXXXXXXXXXXXXXXXXXXXXX    oooo      ",
"  oooo        XXXXXXXXXXXXXXXXXXXXXXXXXXXXXXXXXXXX    oooo      ",
"  oooooooo        XXXXXXXXXXXXXXXXXXXXXXXXXXXXXXXX    oooo      ",
"  oooooooo        XXXXXXXXXXXXXXXXXXXXXXXXXXXXXXXX    oooo      ",
"  oooooooo        XXXXXXXXXXXXXXXXXXXXXXXXXXXXXXXX    oooo      ",
"  oooooooo        XXXXXXXXXXXXXXXXXXXXXXXXXXXXXXXX    oooo      ",
"      oooooooo    XXXXXXXXXXXXXX    XXXXXXXXXXXXXX    oooo      ",
"      oooooooo    XXXXXXXXXXXXXX    XXXXXXXXXXXXXX    oooo      ",
"      oooooooo    XXXXXXXXXXXXXX    XXXXXXXXXXXXXX    oooo      ",
"      oooooooo    XXXXXXXXXXXXXX    XXXXXXXXXXXXXX    oooo      ",
"          oooo                                        oooo      ",
"          oooo                                        oooo      ",
"          oooo                                        oooo      ",
"          oooo                                        oooo      ",
"          oooooooooooooooooooooooooooooooooooooooooooooooo      ",
"          oooooooooooooooooooooooooooooooooooooooooooooooo      ",
"          oooooooooooooooooooooooooooooooooooooooooooooooo      ",
"          oooooooooooooooooooooooooooooooooooooooooooooooo      ",
"                                                                ",
"                                                                ",
"                                                                ",
"                                                                "
};
