/* XPM */
static char *_22e5abda65744c4e1abe2df3813c8f0syOckkrVS4rNuv8D[] = {
/* columns rows colors chars-per-pixel */
"64 64 2 1 ",
"  c black",
". c white",
/* pixels */
"                                                                ",
"                                                                ",
"                           ..........                           ",
"                         ..............                         ",
"                        ................                        ",
"                       ..................                       ",
"                       ...            ...                       ",
"                      ...              ...                      ",
"                      ...              ...                      ",
"                      ..                ..                      ",
"                      ..                ..                      ",
"                      ..                ..                      ",
"                       ..              ..                       ",
"                       ...            ...                       ",
"                         ..          ..                         ",
"                          ............                          ",
"                                                                ",
"                              ....                              ",
"                                                                ",
"                         . .......... .                         ",
"                       ... .......... ...                       ",
"                      .... .......... ....                      ",
"                      .... .......... ....                      ",
"                     ..... .......... .....                     ",
"                     ..... .......... .....                     ",
"                    .....  ..........  .....                    ",
"                    ....   ..........   ....                    ",
"                    ....   ..........   ....                    ",
"                   .....   ..........   .....                   ",
"                   ....    ..........    ....                   ",
"                   ....    ..........    ....                   ",
"                  ....     ..........     ....                  ",
"                  ....     ..........     ....                  ",
"                  ....     ..........     ....                  ",
"                  ....     ..........     ....                  ",
"                  ...      ..........      ...                  ",
"                           ..........                           ",
"                  ....                    ....                  ",
"                  .....    ..........    .....                  ",
"                  ... .   ............   . ...                  ",
"                  ...     ............     ...                  ",
"                  ...    ..............    ...                  ",
"                   ..    ..............    ..                   ",
"                         ......  ......                         ",
"                        ......    ......                        ",
"                       ......      ......                       ",
"                       ......      ......                       ",
"                       .....        .....                       ",
"                      ......        ......                      ",
"                      ......        ......                      ",
"                      .....          .....                      ",
"                     ......          ......                     ",
"                     .....            .....                     ",
"                     .....            .....                     ",
"                     .....            .....                     ",
"                    .....              .....                    ",
"                    .....              .....                    ",
"                    .....              .....                    ",
"                    .....              .....                    ",
"                    .....              .....                    ",
"                                                                ",
"                   .......            .......                   ",
"                   .......            .......                   ",
"                   .......            .......                   "
};
