/* XPM */
static char *result[] = {
/* columns rows colors chars-per-pixel */
"64 64 4 1 ",
"  c black",
". c #FFA226",
"X c #2093FF",
"o c white",
/* pixels */
"                                                                ",
"                           oooooooooo                           ",
"                         oooooooooooooo                         ",
"                        oooooooooooooooo                        ",
"                       oooooooooooooooooo                       ",
"                       ooo            ooo                       ",
"                      ooo              ooo                      ",
"                      ooo              ooo                      ",
"                      oo                oo                      ",
"                      oo                oo                      ",
"                      oo                oo                      ",
"                       oo              oo                       ",
"                       ooo            ooo                       ",
"                         oo          oo                         ",
"                          oooooooooooo                          ",
"                                                                ",
"                            ........                            ",
"                      ....................                      ",
"                   . .......XXXXXXXXXX..... .                   ",
"                .... ......XXooXoooooX..... ....                ",
"               ..... .....XXooXXoXXooX..... .....               ",
"              ...... ....XXooXXXXXooXX..... ......              ",
"              ...... ....XooXXXXXooXXX..... ......              ",
"              ......  ...XoooooXooXXoX....  ......              ",
"               ....    ..XXXXooXoooooX...    ....               ",
"               ...      ....XooXXXXXXX..      ...               ",
"              ....       ...XXXX.......       ....              ",
"             .....        ............        .....             ",
"            .....       o ............ o       .....            ",
"            .....       o ............ o       .....            ",
"            ....        o ............ o        ....            ",
"            ....        o  ..........  o        ....            ",
"            ....        oo .......... oo        ....            ",
"            ...         oo .......... oo         ...            ",
"            ...         oo .......... oo         ...            ",
"                         o .......... o                         ",
"            oooo                                oooo            ",
"            ooooo          ..........          ooooo            ",
"            ooo o          ..........          o ooo            ",
"            ooo           ............           ooo            ",
"            ooo           .....  .....           ooo            ",
"             oo           .....  .....           oo             ",
"                          .....  .....                          ",
"                          ....    ....                          ",
"                          ...      ...                          ",
"                          ...      ...                          ",
"                         ...        ...                         ",
"                         ....      ....                         ",
"                        ......    ......                        ",
"                        ......    ......                        ",
"                        ......    ......                        ",
"                        ......    ......                        ",
"                       .......    .......                       ",
"                       .......    .......                       ",
"                       .......    .......                       ",
"                       ......      ......                       ",
"                       .....        .....                       ",
"                                                                ",
"                      ooooooo      oooooo                       ",
"                    ooooooooo      ooooooooo                    ",
"                    ooooooooo      ooooooooo                    ",
"                                                                ",
"                                                                ",
"                                                                "
};
