/* XPM */
static char *_63dbb6159f34620daf94161a1d240f4FHbOT4RwpMpguYBX[] = {
/* columns rows colors chars-per-pixel */
"64 64 3 1 ",
"  c black",
". c #7C7C7C",
"X c white",
/* pixels */
"                                                                ",
"                                                                ",
"                                                                ",
"                               XXX                              ",
"                              XXXX                 XXXXXX       ",
"       XXXXXXX               XXXXX               XXXX...XXX     ",
"     XXX.....XXXX            XXXX.              XXXX.XX..XX     ",
"    XX...XXX..XXXX           XXX..            XXXXXX.XXX.XXX    ",
"    XX..XXXX..XXXXX                         XXXXXXXX.XXX.XXX    ",
"   XXXXX.....XXXXXX                        XXXXXXXXXX.XX.XXX    ",
"   XXXXXXXXXXXXXXXXX                      XXXXXXXXXXXX..XXXX    ",
"   XXXXXXXXXXXXXXXXX                     XXXXXXXXXXXXXXXXXXX    ",
"   XXXXXXXXXXXXXXXXX                 XXXXXXXXXXXXXXXXXXXXXX     ",
"   XXXXXXXXXXXXXXXXXX                X..XXXXXXXXXXXXXXXXXXX     ",
"   XXXXXXXXXXXXXXXXXX               X.X.XXXXXXXXXXXXXXXXXXX     ",
"   XXXXXXXXXXXX...XXX               X.XX.XXXXXXXXXXXXXXXXX      ",
"   X..XXXXXXXX..X..X                X.X.XXXXXXXXXXXXXXXXXX      ",
"   X.X.XXXXXXX.XXX.X                 X..XXXXXXXXXX....XXX       ",
"   X.X..XXXXX.XXXX.X                 XXXXXXXXXXX...XX.XX        ",
"    ..X.XXXXX.XXXX.X                  XXXXXXXX...XXX..X         ",
"    XX..XXXX.XXXXX.X                  XXXXXXXX.XXXX..X          ",
"     XXXXXXX.XXXXX.X                   XXXXXX..X....X           ",
"      XXXXXX.XXXX.X                     XXXXXX...XXX            ",
"      XXXXXX.XXX..X                      XXXXXXXXX              ",
"       XXXXXX...XX                                              ",
"        XXXXXXXXXX                                              ",
"        XXXXXXXXX                                               ",
"          XXXXXX                                                ",
"                                                                ",
"                                                                ",
"                                                                ",
"                                                           XX   ",
"                                                         XXX..  ",
"                                                        XXXX..  ",
"                                                         XXXX.  ",
"                                                         XXXXX  ",
"                                                          XXX   ",
"                                         XXXXXXXXXXX            ",
"                                       XXXXXXXXXXXXXXX          ",
"                    XXX               XXX.....XXXXXXXXX         ",
"                   ..XXX              XX..XXX..XXXXXXXXXX       ",
"                  ..XXXXX            XX..XXXXX.XXXXXXXXXXX      ",
"                 X.XXXXXX            XX.XXXXX..XXXX....XXX      ",
"                 XXXXXXXX            XX..XX...XXXXX..X..XXX     ",
"                 XXXXXXXX            XXX....XXXXXXXX....XXX     ",
"    XXXXX         XXXXXXX            XXXXXXXXXXXXXXXXXXXXXX     ",
"   XXXXXXX         XXXXX              XXXXXXXXXXXXXXXXXXXXX     ",
"  XX....XXX                           XXXXXXXXXXXXXXXXXXXXXX    ",
"  X.XXXX.XXX                          XXXXXXXXXXXXXXXXXXXXXX    ",
"  X......XXXX                          XXXXXXXXXXXXXXXXXXXXX    ",
"  XXXXXXXXXXXX                          XXXXXXXXXXXXXXXXXXXX    ",
"  XXXXXXXXXXXXXX                        XXXXXXXXXXXXXXX...XX    ",
"  XXXXXXXXXXXXXXXXX                     XXXXXXXXXXXXXX..X..X    ",
"  XXXXXXXXXXXXXXXXXXX                   XXXXXXXXXXXXXX.XXX.X    ",
"  XXXXXXXXXXXXXXXXXXXX                  XXXXXXXXXXXXX.XXXX.X    ",
"  XXXXXXXXXXXXXXXXXXXXX                  XXXXXXXXXXX..XXXX.X    ",
"   XXXX.......XXXXXXX..X                 XX...XXXXXX.XXXX.X     ",
"   XXX..XXXXX...XXXX...X                 XX.XX..XXXX..XX..X     ",
"    XXX.XXXXXXX.XXXX.X.X                  X..XX..XXXX....XX     ",
"    XXX.XXXXXXX.XXXX.X.X                  XX..XX.XXXXXXXXX      ",
"     XXX.XXXXX..XXXX...X                    X....XXXXXXXX       ",
"      XXX......XXXXXXXX                       XXXXXXXXXX        ",
"        XXXXXXXXXXXXXX                           XXXXX          ",
"                                                                "
};
