/* XPM */
static char *fcf5e1209a264ebc9dda0be0e42ff0eblcxWs1EvKcJHHKid[] = {
/* columns rows colors chars-per-pixel */
"64 64 4 1 ",
"  c black",
". c gray17",
"X c gray50",
"o c white",
/* pixels */
"                                                                ",
"                                                                ",
"                                XXo                             ",
"                               XXXo                             ",
"                              XXXXo                XXXXXX       ",
"       XXXXXXX                XXX.o              XXXXXXXXXX     ",
"     XXXXXXXXXXXo             XXooo             XXXXXXXXXXX     ",
"    XXXXXXXXXXXXoo                            XXXXXXXXXXXXXX    ",
"    XXXXXXXXXXooooo                         XXXXXXXXXXXXXXXX    ",
"   XXXXXXXXXooooooo                        XXXXXXXXXXXXXXXXX    ",
"   XXXXXXXXooooooooo                      XXXXXXXXXXXXXXXXXo    ",
"   XXXXXXXoooooooooo                     XXXXXXXXXXXXXXXXooo    ",
"   XXXXXXoooooo..ooo                 XXXXXXXXXXXXXXXXXooooo     ",
"   XXXXXooooooo..oooo                XXXXXXXXXXoooooooooooo     ",
"   XXXXXoooooo..ooooo               XXXXXXXoooooooooooooooo     ",
"   XXXXooooooo..ooooo               XXXXXooooooooo.ooooooo      ",
"   XXXXooooooooooooo                XXXooooooooooo.ooooooo      ",
"   XXXXooooooooooooo                 Xooooooooooo.ooooooo       ",
"   XXXXooooooooooooo                 oooooooooooo.oooooo        ",
"    XXXooooooooooooo                  ooooooooooooooooo         ",
"    XXXooooooooooooo                  oooooooooooooooo          ",
"     XXooooooooooooo                   oooooooooooooo           ",
"      Xoooo..oooooo                     oooooooooooo            ",
"      XXooo...ooooo                      ooooooooo              ",
"       oooo...oooo           XXXX                               ",
"        oooooooooo         XXXXXXoo                             ",
"        ooooooooo          XXXXXXooo                            ",
"          oooooo          XXXXXXXooo                            ",
"                          XXXXXXooooo                           ",
"                         XXXXXXo.oooo                           ",
"                         XXXXXooooooo                           ",
"                        XXXXXoooooooo                           ",
"                        XXXoooooooooo                           ",
"                        XXXoo...oooo                        XX  ",
"                         Xooo...ooo                       XXXXo ",
"                         Xooo..ooo                       XXXXXo ",
"                          ooooooo                         XXXoo ",
"                           ooooo                          XXo.o ",
"                           oo          XXXXXXXXXXX         Xoo  ",
"                                     XXXXXXXXXXXXXXo            ",
"                                    XXXXXXXXXXXXXXXoo           ",
"                                    XXXXXXXXXXXXXXXoooo         ",
"                  XXX              XXXXXXXXXXXXXXXoooooo        ",
"                 XXXXo             XXXXXXXXXXXXXXooooooo        ",
"                XXXXooo            XXXXXXXXXXXXoooooooooo       ",
"    XXXXX      XXXXoooo            XXXXXXXXXooooooooooooo       ",
"   XXXXXXo     XXXoo..o            XXXXXXXXoooooooooooooo       ",
"  XXXXXXXoo    XXoooooo             XXXXXXooooooooooooooo       ",
"  XXXXXXXooo    Xoooooo             XXXXXooooooooooooooooo      ",
"  XXXXXXXoooo    ooooo              XXXXoooooooooooooooooo      ",
"  XXXXXXXooooo                       XXXoooooooooooooooooo      ",
"  XXXXXXoooooooo                      Xoooo...oooooooooooo      ",
"  XXXXXXooooooooooo                   Xoooo...oooooooooooo      ",
"  XXXXXo...oooooooooo                 Xoooo..ooooooooooooo      ",
"  XXXXoo...ooooooooooo                Xooooooooooooooooooo      ",
"  XXXXoo...oooooooooooo               oooooooooooooooooooo      ",
"   XXoooo.oooooooooooooo               ooooooooooooooooooo      ",
"   XXooooooooooooooooooo               oooooooooooooooooo       ",
"    XXooooooooooo.oooooo               oooooooooooooooooo       ",
"    XXoooooooooo..oooooo                ooooooooooo..oooo       ",
"     XXooooooooo..oooooo                ooooooooooo..ooo        ",
"      Xoooooooooooooooo                   ooooooooooooo         ",
"        oooooooooooooo                      oooooooooo          ",
"                                               ooooo            "
};
