/* XPM */
static char *Border1_4[] = {
/* columns rows colors chars-per-pixel */
"64 64 2 1 ",
"  c None",
". c white",
/* pixels */
"                                                                ",
"                                                                ",
"                                                                ",
"                                                                ",
"                                                                ",
"                                                                ",
"                                                                ",
"                                                                ",
"                                                                ",
"                                                                ",
"                                                                ",
"                                                                ",
"                                                                ",
"                                                                ",
"                                                                ",
"                                                                ",
"                                                                ",
"                                                                ",
"                                                                ",
"                                                                ",
"                                                                ",
"                                                                ",
"                                                                ",
"                                                                ",
"                                                                ",
"                                                                ",
"                                                                ",
"                                                                ",
"                                                                ",
"                                                                ",
"                                                                ",
"                                                                ",
"                                                                ",
"                                                                ",
"                                                                ",
"                                                                ",
"                                                                ",
"                                                                ",
"                                                                ",
"                                                                ",
"                                                                ",
"                                                                ",
"                                                                ",
"                                                                ",
"                                                                ",
"                                                                ",
"                                                                ",
"                                                                ",
"        ........        ........        ........        ........",
"        ........        ........        ........        ........",
"        ........        ........        ........        ........",
"        ........        ........        ........        ........",
"                                                                ",
"                                                                ",
"                                                                ",
"                                                                ",
"........        ........        ........        ........        ",
"........        ........        ........        ........        ",
"........        ........        ........        ........        ",
"........        ........        ........        ........        ",
"        ........        ........        ........        ........",
"        ........        ........        ........        ........",
"        ........        ........        ........        ........",
"        ........        ........        ........        ........"
};
