/* XPM */
static char *result[] = {
/* columns rows colors chars-per-pixel */
"64 64 4 1 ",
"  c black",
". c gray33",
"X c #8D8D8D",
"o c white",
/* pixels */
"                                                                ",
"                                                                ",
"                                                ......          ",
"                   XXXXXXXXXXX                  .oooo..         ",
"                XXXXoooooooooXXX                .oo oo..        ",
"              XXXooooooooooooooXX               .oo  oo.        ",
"            XXXooooooooooooooooooXX              .ooooo.        ",
"            XXooooooooooooooooooooXX             ..ooooo.       ",
"           XXoooooo....oooooooooooooXXXX          ......        ",
"          XXoooo....XX...oooooooooooooooXX         .            ",
"         XXoooo..XXXXXXX.oooooo.....ooooooX                     ",
"       XXXoooo..XXXXXXXX..ooooo.   ..oooooXX                    ",
"      XXooooo..XXXXXXXXXX.oooo.     ..oooooXX                   ",
"      Xooooo..XXXXXX   XX.oooo.      .ooooooXX                  ",
"      Xooooo.XXXX       ..oooo.      .oooooooXX                 ",
"      Xoooo..XX         .oooooo.     .ooooooooXX                ",
"      Xoooo.XX          .oooooo...   .ooooooooooXX              ",
"      Xoooo.X          .ooooooooo.....oooooooooooXXX            ",
"      Xoooo.          ..oooooooooooooooooooooooooooXXX          ",
"      XoXoo.         ..ooooooooooooooooooooooooooooooX          ",
"      XoXoo..      ...ooooooooooooooooooooooooooooooooX         ",
"     XooXooo..   ...ooooooooooooooo........ooooooooooooX        ",
"     XoooXooo.....oooooooooooooooo..XXXXXX...ooooooooooX        ",
"     XoooXooooooooooooooooooooooo.XXXXXXXXXX..oooooooooX        ",
"     XooooXXooooooooooXXXXooooooo.XXXXXXXXXXX..oooooooooX       ",
"     XooooooooooooooooooooXoooooo.XXXXXXXXXXXX..ooooooooX       ",
"     XXoooooooooooooooooooXXoooo..XXXXXXXXXXXXX..oooooooX       ",
"      Xoooooooooooo.....oooXXooo.XXXXX          ..ooooooX       ",
"      XXoooooooooo..   ..oooXooo.XXX             ..oooooX       ",
"       Xooooooooo..     ..oooooo.XX               .oooooX       ",
"       XXooooooo..       .oooooo.X                .oooooX       ",
"        Xooooooo.        .oooooo.X                ..ooooX       ",
"        Xooooooo.        .oooooo..                 .oooXX       ",
"        Xooooooo.        .ooooooo.                 .oooX        ",
"        Xooooooo.        .ooooooo..                .oooX        ",
"        XXoooooo.        .oooooooo..               .oooX        ",
"         Xoooooo..      ..ooooooooo..              .oooX        ",
"         Xooooooo..     .ooooooXoooo...            .oooX        ",
"          Xooooooo..   ..oooooooXXoooo...         ..oooX        ",
"          XooooXXoo.....oooooooooXXooooo....      .ooooX        ",
"          XoooooXooooooooooooooooooXXXoooooo.......ooooX        ",
"           XooooXXooooooooooXXXoooooooXXXoooooo..ooooooX        ",
"           XoooooXXXXXoooooXoooooooooooooXXXoooooooooooX        ",
"            XoooooooooooooXoo......ooooooooooooooooooooX        ",
"            XXooooooooooooXo..XXXXX.....oooooooooooooooX        ",
"              XoooooooooooXo.XXXXXXXXXX..ooooooooooooooX        ",
"               Xooooooooooo..XXXXXXXXXXX..oooooooooXoooX        ",
"                XXooooooooo.XXXXX        .oooooooooXoooX        ",
"                  Xoooooooo.XXX          .oooooooXXoooX         ",
"                   XXoooooo.XX           .oooooooXooooX         ",
"                    XXooooo.X            .ooooooXXoooXX         ",
"       ...           XXoooo.             .ooooXXooooXX          ",
"     ...o..           Xoooo..            .oooXXooooXX           ",
"     .oooo.           Xooooo..           .ooooooooXX            ",
"     .o  o.           Xoooooo..         ..ooooooXX              ",
"     .o oo.           XXoooooo.....    ..ooooooXX               ",
"     ..ooo.            XXooooooooo......oooooXX                 ",
"      .ooo.              XXoooooooooooooooooX                   ",
"      ....                 XXXoooooooooooooX                    ",
"                              XXXXXoooooooX                     ",
"                                   XXXXXXXX                     ",
"                                                                ",
"                                                                ",
"                                                                "
};
