/* XPM */
static char *result[] = {
/* columns rows colors chars-per-pixel */
"64 64 4 1 ",
"  c black",
". c gray33",
"X c #8D8D8D",
"o c white",
/* pixels */
"                                                                ",
"                                                                ",
"                                                                ",
"                                                                ",
"                                                                ",
"                                                                ",
"                                                                ",
"                                                                ",
"                                                                ",
"                                                                ",
"                                                                ",
"                                                                ",
"                                                                ",
"                                                                ",
"                                                                ",
"                                                                ",
"                                                                ",
"                                                                ",
"                                                                ",
"                                                                ",
"                                    .............               ",
"                          ...........ooooooooooo...             ",
"                ...........ooooooooooooooooooooooo..            ",
"              ..oooooooooooooooooooooooooooooooooooo..          ",
"             ..oooooooooooooooooooooooooooooooooooooo..         ",
"            ..ooooooooooXXXooooooooooooooooooooooooooo..        ",
"            .ooooo....ooooXXoooooooooooooooo.......oooo..       ",
"            .ooooo.XXX..oooXXoooooooooooooo.XXXXXXX.oooo.       ",
"            .ooooo.XXXXX.oooXoooooooooooo..XXXXXXXX.oooo..      ",
"            ..oooo.X    ..ooooooooooooooo.XXXXXXXXXX.oooo.      ",
"             .oooo.X     .oooooooooooooo.XXXXXXXXXXX.oooo.      ",
"             ..ooo.      .oooooooooooooo.XXXXXX    XX.ooo.      ",
"              .ooo.      .oooooooooooooo.XXXX        .ooo.      ",
"              ..oo..     .oooooooooooooo.XX          .ooo.      ",
"               .ooo..  ...oooooooooooooo.            .ooo.      ",
"               .oooo....oooooooooooooooo.           ..oo..      ",
"               .oooooooooooooooooooooooo.           ..oo.       ",
"               .oooooooooooooooooooooooo..         ..ooo.       ",
"               .ooooooooooooooooooooooXoo..       ..ooo..       ",
"               .ooooooooooooooooooooooXXooo...  ...ooo..        ",
"               .oooXXXXXXXXooooooooooooXXooooo...ooooo.         ",
"               .ooXooooooooXooooooooooooXXooooooooooo.          ",
"              ..oooooooooooooooooooooooooXXooooooooo.           ",
"              .oooooooooooooooooooooooooooooooooooo..           ",
"              .ooooooooooooooooooooooooooooooooooo..            ",
"              .ooooo.....oooooooooooooooooooooooo..             ",
"              ..oooo.XXXX.oooooooooooooooooooooo..              ",
"               .oooo.XXXXX.ooooooooooooooooooooo.               ",
"               .oooo.XXXXX .ooooooooooooooooooo..               ",
"               .oooo.XXX   ..ooooooooooooooXoo..                ",
"                .oooo.X     .oooooooooooooXXoo.                 ",
"                 .oooo..    .ooooooooooooXXoo..                 ",
"                  ..ooo......oooooooooooXXoo..                  ",
"                   .oooooo..ooooooooooXXooo..                   ",
"                   ....ooooooooooooooooooo..                    ",
"                      ....................                      ",
"                                                                ",
"                                                                ",
"                                                                ",
"                                                                ",
"                                                                ",
"                                                                ",
"                                                                ",
"                                                                "
};
