/* XPM */
static char *eb59e8eb35ff4e879ab028acc856f08bgwI5e4YJ1Vk7Xu7e[] = {
/* columns rows colors chars-per-pixel */
"64 64 3 1 ",
"  c black",
". c #7C7C7C",
"X c white",
/* pixels */
"                                                                ",
"                                                                ",
"                                                                ",
"                                                                ",
"                 XXX              XXXXXXXXXXXXXX                ",
"                XXXX             XXXXXXXX......XXX              ",
"               XXXXX            X...XXXX..XXXXX.XXX             ",
"               XXXX.            X.X.XXXX.XXXXXXX.XXX            ",
"               XXX..            X.X.XXXX.XXXXXXX.XXX            ",
"                                X...XXXX...XXXXX..XXX           ",
"                                X..XXXXXXX.......XXXX           ",
"                                 XXXXXXXXXXXXXXXXXXXXX          ",
"                                  XXXXXXXXXXXXXXXXXXXX          ",
"                                   XXXXXXXXXXXXXXXXXXX          ",
"             XXXXXXX                 XXXXXXXXXXXXXXXXX          ",
"           XXX.....XXXX                 XXXXXXXXXXXXXX          ",
"          XX...XXX..XXXX                  XXXXXXXXXXXX          ",
"          XX..XXXX..XXXXX                  XXXX......X          ",
"         XXXXX.....XXXXXX                   XXX.XXXX.X          ",
"         XXXXXXXXXXXXXXXXX                   XXX....XX          ",
"         XXXXXXXXXXXXXXXXX                    XXXXXXX           ",
"         XXXXXXXXXXXXXXXXX                     XXXXX            ",
"         XXXXXXXXXXXXXXXXXX                                     ",
"         XXXXXXXXXXXXXXXXXX                                     ",
"         XXXXXXXXXXXX...XXX                                     ",
"         X..XXXXXXXX..X..X                                      ",
"         X.X.XXXXXXX.XXX.X                                      ",
"         X.X..XXXXX.XXXX.X                                      ",
"          ..X.XXXXX.XXXX.X                                      ",
"          XX..XXXX.XXXXX.X                                      ",
"           XXXXXXX.XXXXX.X                               XX     ",
"            XXXXXX.XXXX.X                              XXX..    ",
"            XXXXXX.XXX..X                             XXXX..    ",
"             XXXXXX...XX                               XXXX.    ",
"              XXXXXXXXXX                               XXXXX    ",
"              XXXXXXXXX                                 XXX     ",
"                XXXXXX                                          ",
"                                                                ",
"                                                XXXXX           ",
"                                             XXXXXXXXXX         ",
"                                            XXXXXX...XXX        ",
"                                       XXXXXXXXXX..X..XX        ",
"                                    XXXXXXXXXXXXX.XXX..XX       ",
"                                  XXXXXXXXXXXXXXX.XXXX.XX       ",
"                                  X...XXXXXXXXXXX..XXX.XX       ",
"                                 X..X.XXXXXXXXXXXX.XXX.XX       ",
"                                 ..XX.XXXXXXXXXXXX..X..XX       ",
"                                X.XX.XXXXXXXXXXXXXX...XXX       ",
"                                X.X..XXXXXXXXXXXXXXXXXXXX       ",
"                                X...XXXXXXXXXXXXXXXXXXXXX       ",
"           XXX                 XXXXXXXXXXXXXXXXXXXXXXXXXX       ",
"          ..XXX                XXXXXXXXXXXXXXXXXXXXXXXXXX       ",
"         ..XXXXX               XXXXXXXXXXXXXXXXXXX..XXXXX       ",
"        X.XXXXXX               XXXXX...XXXXXXXXXX...XXXX        ",
"        XXXXXXXX               XXXX..X..XXXXXXXXX.X.XXXX        ",
"        XXXXXXXX                XXX.XXXX..XXXXXXX...XXX         ",
"         XXXXXXX                XXX.XXXXX..XXXXXX..XXX          ",
"          XXXXX                  XX..XXXXX.XXXXXXXXXXX          ",
"                                  XX..XXX..XXXXXXXXXX           ",
"                                   XXX....XXXXXXXXX             ",
"                                      XXXXXXXXX                 ",
"                                                                ",
"                                                                ",
"                                                                "
};
