/* XPM */
static char *_27ef3191dfb429cd4b0dfd121fce23eDckXR3WoIUNYaGbO[] = {
/* columns rows colors chars-per-pixel */
"64 64 3 1 ",
"  c black",
". c #7C7C7C",
"X c white",
/* pixels */
"                                                                ",
"                                                                ",
"                                                                ",
"         XXX                                                    ",
"        XXXX                                                    ",
"       XXXXX                 XXXXXXX                            ",
"       XXXX.               XXX.....XXXX                         ",
"       XXX..              XX...XXX..XXXX           XX           ",
"                          XX..XXXX..XXXXX        XXX..          ",
"                         XXXXX.....XXXXXX       XXXX..          ",
"                         XXXXXXXXXXXXXXXXX       XXXX.          ",
"                         XXXXXXXXXXXXXXXXX       XXXXX          ",
"                         XXXXXXXXXXXXXXXXX        XXX           ",
"                         XXXXXXXXXXXXXXXXXX                     ",
"                         XXXXXXXXXXXXXXXXXX                     ",
"                         XXXXXXXXXXXX...XXX                     ",
"                         X..XXXXXXXX..X..X                      ",
"                         X.X.XXXXXXX.XXX.X                      ",
"                         X.X..XXXXX.XXXX.X                      ",
"                          ..X.XXXXX.XXXX.X                      ",
"                          XX..XXXX.XXXXX.X                      ",
"                           XXXXXXX.XXXXX.X                      ",
"                            XXXXXX.XXXX.X                       ",
"                            XXXXXX.XXX..X                       ",
"                             XXXXXX...XX                        ",
"                              XXXXXXXXXX                        ",
"                              XXXXXXXXX                         ",
"                                XXXXXX                          ",
"                                                                ",
"        XXXXXXXXXXXXXX                                          ",
"       XXXXXXXX......XXX                                        ",
"      X...XXXX..XXXXX.XXX                                       ",
"      X.X.XXXX.XXXXXXX.XXX                                      ",
"      X.X.XXXX.XXXXXXX.XXX                                      ",
"      X...XXXX...XXXXX..XXX                                     ",
"      X..XXXXXXX.......XXXX                                     ",
"       XXXXXXXXXXXXXXXXXXXXX                                    ",
"        XXXXXXXXXXXXXXXXXXXX                                    ",
"         XXXXXXXXXXXXXXXXXXX                                    ",
"           XXXXXXXXXXXXXXXXX                                    ",
"              XXXXXXXXXXXXXX                                    ",
"                XXXXXXXXXXXX                                    ",
"                 XXXX......X                                    ",
"                  XXX.XXXX.X                                    ",
"                   XXX....XX                                    ",
"                    XXXXXXX                                     ",
"                     XXXXX                                      ",
"                                                                ",
"                                                    XXX         ",
"                                                   ..XXX        ",
"                                                  ..XXXXX       ",
"                                                 X.XXXXXX       ",
"                                                 XXXXXXXX       ",
"                                                 XXXXXXXX       ",
"                                                  XXXXXXX       ",
"                                                   XXXXX        ",
"                                                                ",
"                                                                ",
"                                                                ",
"                                                                ",
"                                                                ",
"                                                                ",
"                                                                ",
"                                                                "
};
