/* XPM */
static char *_2ef9f74373a4f13f0aec3dc6841a25b9DnSDm0t1Sx2LPkI[] = {
/* columns rows colors chars-per-pixel */
"64 64 3 1 ",
"  c black",
". c #7C7C7C",
"X c white",
/* pixels */
"                                                                ",
"                                                                ",
"                                                                ",
"      XXXXXXXXXXX              XXX                              ",
"    XXXXXXXXXXXXXXX           XXXX                              ",
"   XXX.....XXXXXXXXX         XXXXX                              ",
"   XX..XXX..XXXXXXXXXX       XXXX.                              ",
"  XX..XXXXX.XXXXXXXXXXX      XXX..                              ",
"  XX.XXXXX..XXXX....XXX                                         ",
"  XX..XX...XXXXX..X..XXX                                        ",
"  XXX....XXXXXXXX....XXX                                        ",
"  XXXXXXXXXXXXXXXXXXXXXX                                        ",
"   XXXXXXXXXXXXXXXXXXXXX                                        ",
"   XXXXXXXXXXXXXXXXXXXXXX                                       ",
"   XXXXXXXXXXXXXXXXXXXXXX                                       ",
"    XXXXXXXXXXXXXXXXXXXXX                                       ",
"     XXXXXXXXXXXXXXXXXXXX                                       ",
"     XXXXXXXXXXXXXXX...XX                            XX         ",
"     XXXXXXXXXXXXXX..X..X                          XXX..        ",
"     XXXXXXXXXXXXXX.XXX.X                         XXXX..        ",
"     XXXXXXXXXXXXX.XXXX.X                          XXXX.        ",
"      XXXXXXXXXXX..XXXX.X                          XXXXX        ",
"      XX...XXXXXX.XXXX.X                            XXX         ",
"      XX.XX..XXXX..XX..X                                        ",
"       X..XX..XXXX....XX                                        ",
"       XX..XX.XXXXXXXXX                                         ",
"         X....XXXXXXXX                                          ",
"           XXXXXXXXXX                                           ",
"              XXXXX                                             ",
"                                                                ",
"                                                XXXXXXX         ",
"                                              XXX.....XXXX      ",
"                                             XX...XXX..XXXX     ",
"                                             XX..XXXX..XXXXX    ",
"                                            XXXXX.....XXXXXX    ",
"                                            XXXXXXXXXXXXXXXXX   ",
"                                            XXXXXXXXXXXXXXXXX   ",
"                                            XXXXXXXXXXXXXXXXX   ",
"                                            XXXXXXXXXXXXXXXXXX  ",
"                                            XXXXXXXXXXXXXXXXXX  ",
"                         XXX                XXXXXXXXXXXX...XXX  ",
"                        ..XXX               X..XXXXXXXX..X..X   ",
"                       ..XXXXX              X.X.XXXXXXX.XXX.X   ",
"     XXXXX            X.XXXXXX              X.X..XXXXX.XXXX.X   ",
"    XXXXXXX           XXXXXXXX               ..X.XXXXX.XXXX.X   ",
"   XX....XXX          XXXXXXXX               XX..XXXX.XXXXX.X   ",
"   X.XXXX.XXX          XXXXXXX                XXXXXXX.XXXXX.X   ",
"   X......XXXX          XXXXX                  XXXXXX.XXXX.X    ",
"   XXXXXXXXXXXX                                XXXXXX.XXX..X    ",
"   XXXXXXXXXXXXXX                               XXXXXX...XX     ",
"   XXXXXXXXXXXXXXXXX                             XXXXXXXXXX     ",
"   XXXXXXXXXXXXXXXXXXX                           XXXXXXXXX      ",
"   XXXXXXXXXXXXXXXXXXXX                            XXXXXX       ",
"   XXXXXXXXXXXXXXXXXXXXX                                        ",
"    XXXX.......XXXXXXX..X                                       ",
"    XXX..XXXXX...XXXX...X                                       ",
"     XXX.XXXXXXX.XXXX.X.X                                       ",
"     XXX.XXXXXXX.XXXX.X.X                                       ",
"      XXX.XXXXX..XXXX...X                                       ",
"       XXX......XXXXXXXX                                        ",
"         XXXXXXXXXXXXXX                                         ",
"                                                                ",
"                                                                ",
"                                                                "
};
