/* XPM */
static char *Exit_1[] = {
/* columns rows colors chars-per-pixel */
"64 64 4 1 ",
"  c None",
". c #7F35EA",
"X c #8D41FB",
"o c white",
/* pixels */
"                oooooooooooooooooooooooooooooooo                ",
"                oooooooooooooooooooooooooooooooo                ",
"                oooooooooooooooooooooooooooooooo                ",
"                oooooooooooooooooooooooooooooooo                ",
"        oooooooo                                oooooooo        ",
"        oooooooo                                oooooooo        ",
"        oooooooo                                oooooooo        ",
"        oooooooo                                oooooooo        ",
"    oooooooo        XXXXXXXX........XXXXXXXX        oooooooo    ",
"    oooooooo        XXXXXXXX........XXXXXXXX        oooooooo    ",
"    oooooooo        XXXXXXXX........XXXXXXXX        oooooooo    ",
"    oooooooo        XXXXXXXX........XXXXXXXX        oooooooo    ",
"    oooo        XXXX........XXXXXXXX........XXXX        oooo    ",
"    oooo        XXXX........XXXXXXXX........XXXX        oooo    ",
"    oooo        XXXX........XXXXXXXX........XXXX        oooo    ",
"    oooo        XXXX........XXXXXXXX........XXXX        oooo    ",
"oooo        XXXXXXXX........XXXXXXXX........XXXXXXXX        oooo",
"oooo        XXXXXXXX........XXXXXXXX........XXXXXXXX        oooo",
"oooo        XXXXXXXX........XXXXXXXX........XXXXXXXX        oooo",
"oooo        XXXXXXXX........XXXXXXXX........XXXXXXXX        oooo",
"oooo    XXXX........XXXXXXXX........XXXXXXXX........XXXX    oooo",
"oooo    XXXX........XXXXXXXX........XXXXXXXX........XXXX    oooo",
"oooo    XXXX........XXXXXXXX........XXXXXXXX........XXXX    oooo",
"oooo    XXXX........XXXXXXXX........XXXXXXXX........XXXX    oooo",
"oooo    XXXX........XXXXXXXX........XXXXXXXX........XXXX    oooo",
"oooo    XXXX........XXXXXXXX........XXXXXXXX........XXXX    oooo",
"oooo    XXXX........XXXXXXXX........XXXXXXXX........XXXX    oooo",
"oooo    XXXX........XXXXXXXX........XXXXXXXX........XXXX    oooo",
"oooo    ....XXXXXXXX........XXXXXXXX........XXXXXXXX....    oooo",
"oooo    ....XXXXXXXX........XXXXXXXX........XXXXXXXX....    oooo",
"oooo    ....XXXXXXXX........XXXXXXXX........XXXXXXXX....    oooo",
"oooo    ....XXXXXXXX........XXXXXXXX........XXXXXXXX....    oooo",
"oooo    ....XXXXXXXX........XXXXXXXX........XXXXXXXX....    oooo",
"oooo    ....XXXXXXXX........XXXXXXXX........XXXXXXXX....    oooo",
"oooo    ....XXXXXXXX........XXXXXXXX........XXXXXXXX....    oooo",
"oooo    ....XXXXXXXX........XXXXXXXX........XXXXXXXX....    oooo",
"oooo    XXXX........XXXXXXXX........XXXXXXXX........XXXX    oooo",
"oooo    XXXX........XXXXXXXX........XXXXXXXX........XXXX    oooo",
"oooo    XXXX........XXXXXXXX........XXXXXXXX........XXXX    oooo",
"oooo    XXXX........XXXXXXXX........XXXXXXXX........XXXX    oooo",
"oooo    XXXX........XXXXXXXX........XXXXXXXX........XXXX    oooo",
"oooo    XXXX........XXXXXXXX........XXXXXXXX........XXXX    oooo",
"oooo    XXXX........XXXXXXXX........XXXXXXXX........XXXX    oooo",
"oooo    XXXX........XXXXXXXX........XXXXXXXX........XXXX    oooo",
"oooo        XXXXXXXX........XXXXXXXX........XXXXXXXX        oooo",
"oooo        XXXXXXXX........XXXXXXXX........XXXXXXXX        oooo",
"oooo        XXXXXXXX........XXXXXXXX........XXXXXXXX        oooo",
"oooo        XXXXXXXX........XXXXXXXX........XXXXXXXX        oooo",
"    oooo        XXXX........XXXXXXXX........XXXX        oooo    ",
"    oooo        XXXX........XXXXXXXX........XXXX        oooo    ",
"    oooo        XXXX........XXXXXXXX........XXXX        oooo    ",
"    oooo        XXXX........XXXXXXXX........XXXX        oooo    ",
"    oooooooo        XXXXXXXX........XXXXXXXX        oooooooo    ",
"    oooooooo        XXXXXXXX........XXXXXXXX        oooooooo    ",
"    oooooooo        XXXXXXXX........XXXXXXXX        oooooooo    ",
"    oooooooo        XXXXXXXX........XXXXXXXX        oooooooo    ",
"        oooooooo                                oooooooo        ",
"        oooooooo                                oooooooo        ",
"        oooooooo                                oooooooo        ",
"        oooooooo                                oooooooo        ",
"                oooooooooooooooooooooooooooooooo                ",
"                oooooooooooooooooooooooooooooooo                ",
"                oooooooooooooooooooooooooooooooo                ",
"                oooooooooooooooooooooooooooooooo                "
};
