/* XPM */
static char *Exit_2[] = {
/* columns rows colors chars-per-pixel */
"64 64 4 1 ",
"  c None",
". c #8D41FB",
"X c #A467FB",
"o c white",
/* pixels */
"                oooooooooooooooooooooooooooooooo                ",
"                oooooooooooooooooooooooooooooooo                ",
"                oooooooooooooooooooooooooooooooo                ",
"                oooooooooooooooooooooooooooooooo                ",
"        oooooooo                                oooooooo        ",
"        oooooooo                                oooooooo        ",
"        oooooooo                                oooooooo        ",
"        oooooooo                                oooooooo        ",
"    oooooooo        ........XXXXXXXX........        oooooooo    ",
"    oooooooo        ........XXXXXXXX........        oooooooo    ",
"    oooooooo        ........XXXXXXXX........        oooooooo    ",
"    oooooooo        ........XXXXXXXX........        oooooooo    ",
"    oooo        ....XXXXXXXX........XXXXXXXX....        oooo    ",
"    oooo        ....XXXXXXXX........XXXXXXXX....        oooo    ",
"    oooo        ....XXXXXXXX........XXXXXXXX....        oooo    ",
"    oooo        ....XXXXXXXX........XXXXXXXX....        oooo    ",
"oooo        ........XXXXXXXX........XXXXXXXX........        oooo",
"oooo        ........XXXXXXXX........XXXXXXXX........        oooo",
"oooo        ........XXXXXXXX........XXXXXXXX........        oooo",
"oooo        ........XXXXXXXX........XXXXXXXX........        oooo",
"oooo    ....XXXXXXXX........XXXXXXXX........XXXXXXXX....    oooo",
"oooo    ....XXXXXXXX........XXXXXXXX........XXXXXXXX....    oooo",
"oooo    ....XXXXXXXX........XXXXXXXX........XXXXXXXX....    oooo",
"oooo    ....XXXXXXXX........XXXXXXXX........XXXXXXXX....    oooo",
"oooo    ....XXXXXXXX........XXXXXXXX........XXXXXXXX....    oooo",
"oooo    ....XXXXXXXX........XXXXXXXX........XXXXXXXX....    oooo",
"oooo    ....XXXXXXXX........XXXXXXXX........XXXXXXXX....    oooo",
"oooo    ....XXXXXXXX........XXXXXXXX........XXXXXXXX....    oooo",
"oooo    XXXX........XXXXXXXX........XXXXXXXX........XXXX    oooo",
"oooo    XXXX........XXXXXXXX........XXXXXXXX........XXXX    oooo",
"oooo    XXXX........XXXXXXXX........XXXXXXXX........XXXX    oooo",
"oooo    XXXX........XXXXXXXX........XXXXXXXX........XXXX    oooo",
"oooo    XXXX........XXXXXXXX........XXXXXXXX........XXXX    oooo",
"oooo    XXXX........XXXXXXXX........XXXXXXXX........XXXX    oooo",
"oooo    XXXX........XXXXXXXX........XXXXXXXX........XXXX    oooo",
"oooo    XXXX........XXXXXXXX........XXXXXXXX........XXXX    oooo",
"oooo    ....XXXXXXXX........XXXXXXXX........XXXXXXXX....    oooo",
"oooo    ....XXXXXXXX........XXXXXXXX........XXXXXXXX....    oooo",
"oooo    ....XXXXXXXX........XXXXXXXX........XXXXXXXX....    oooo",
"oooo    ....XXXXXXXX........XXXXXXXX........XXXXXXXX....    oooo",
"oooo    ....XXXXXXXX........XXXXXXXX........XXXXXXXX....    oooo",
"oooo    ....XXXXXXXX........XXXXXXXX........XXXXXXXX....    oooo",
"oooo    ....XXXXXXXX........XXXXXXXX........XXXXXXXX....    oooo",
"oooo    ....XXXXXXXX........XXXXXXXX........XXXXXXXX....    oooo",
"oooo        ........XXXXXXXX........XXXXXXXX........        oooo",
"oooo        ........XXXXXXXX........XXXXXXXX........        oooo",
"oooo        ........XXXXXXXX........XXXXXXXX........        oooo",
"oooo        ........XXXXXXXX........XXXXXXXX........        oooo",
"    oooo        ....XXXXXXXX........XXXXXXXX....        oooo    ",
"    oooo        ....XXXXXXXX........XXXXXXXX....        oooo    ",
"    oooo        ....XXXXXXXX........XXXXXXXX....        oooo    ",
"    oooo        ....XXXXXXXX........XXXXXXXX....        oooo    ",
"    oooooooo        ........XXXXXXXX........        oooooooo    ",
"    oooooooo        ........XXXXXXXX........        oooooooo    ",
"    oooooooo        ........XXXXXXXX........        oooooooo    ",
"    oooooooo        ........XXXXXXXX........        oooooooo    ",
"        oooooooo                                oooooooo        ",
"        oooooooo                                oooooooo        ",
"        oooooooo                                oooooooo        ",
"        oooooooo                                oooooooo        ",
"                oooooooooooooooooooooooooooooooo                ",
"                oooooooooooooooooooooooooooooooo                ",
"                oooooooooooooooooooooooooooooooo                ",
"                oooooooooooooooooooooooooooooooo                "
};
