/* XPM */
static char *Exit_4[] = {
/* columns rows colors chars-per-pixel */
"64 64 3 1 ",
"  c None",
". c #8D41FB",
"X c white",
/* pixels */
"                XXXXXXXXXXXXXXXXXXXXXXXXXXXXXXXX                ",
"                XXXXXXXXXXXXXXXXXXXXXXXXXXXXXXXX                ",
"                XXXXXXXXXXXXXXXXXXXXXXXXXXXXXXXX                ",
"                XXXXXXXXXXXXXXXXXXXXXXXXXXXXXXXX                ",
"        XXXXXXXX                                XXXXXXXX        ",
"        XXXXXXXX                                XXXXXXXX        ",
"        XXXXXXXX                                XXXXXXXX        ",
"        XXXXXXXX                                XXXXXXXX        ",
"    XXXXXXXX        ........................        XXXXXXXX    ",
"    XXXXXXXX        ........................        XXXXXXXX    ",
"    XXXXXXXX        ........................        XXXXXXXX    ",
"    XXXXXXXX        ........................        XXXXXXXX    ",
"    XXXX        ................................        XXXX    ",
"    XXXX        ................................        XXXX    ",
"    XXXX        ................................        XXXX    ",
"    XXXX        ................................        XXXX    ",
"XXXX        ........................................        XXXX",
"XXXX        ........................................        XXXX",
"XXXX        ........................................        XXXX",
"XXXX        ........................................        XXXX",
"XXXX    ................................................    XXXX",
"XXXX    ................................................    XXXX",
"XXXX    ................................................    XXXX",
"XXXX    ................................................    XXXX",
"XXXX    ................................................    XXXX",
"XXXX    ................................................    XXXX",
"XXXX    ................................................    XXXX",
"XXXX    ................................................    XXXX",
"XXXX    ................................................    XXXX",
"XXXX    ................................................    XXXX",
"XXXX    ................................................    XXXX",
"XXXX    ................................................    XXXX",
"XXXX    ................................................    XXXX",
"XXXX    ................................................    XXXX",
"XXXX    ................................................    XXXX",
"XXXX    ................................................    XXXX",
"XXXX    ................................................    XXXX",
"XXXX    ................................................    XXXX",
"XXXX    ................................................    XXXX",
"XXXX    ................................................    XXXX",
"XXXX    ................................................    XXXX",
"XXXX    ................................................    XXXX",
"XXXX    ................................................    XXXX",
"XXXX    ................................................    XXXX",
"XXXX        ........................................        XXXX",
"XXXX        ........................................        XXXX",
"XXXX        ........................................        XXXX",
"XXXX        ........................................        XXXX",
"    XXXX        ................................        XXXX    ",
"    XXXX        ................................        XXXX    ",
"    XXXX        ................................        XXXX    ",
"    XXXX        ................................        XXXX    ",
"    XXXXXXXX        ........................        XXXXXXXX    ",
"    XXXXXXXX        ........................        XXXXXXXX    ",
"    XXXXXXXX        ........................        XXXXXXXX    ",
"    XXXXXXXX        ........................        XXXXXXXX    ",
"        XXXXXXXX                                XXXXXXXX        ",
"        XXXXXXXX                                XXXXXXXX        ",
"        XXXXXXXX                                XXXXXXXX        ",
"        XXXXXXXX                                XXXXXXXX        ",
"                XXXXXXXXXXXXXXXXXXXXXXXXXXXXXXXX                ",
"                XXXXXXXXXXXXXXXXXXXXXXXXXXXXXXXX                ",
"                XXXXXXXXXXXXXXXXXXXXXXXXXXXXXXXX                ",
"                XXXXXXXXXXXXXXXXXXXXXXXXXXXXXXXX                "
};
