/* XPM */
static char *Alien2[] = {
/* columns rows colors chars-per-pixel */
"64 64 3 1 ",
"  c black",
". c #040404",
"X c #9EEE15",
/* pixels */
"                                                                ",
"                                                                ",
"                                                                ",
"                                                                ",
"                                                                ",
"                                                                ",
"                                                                ",
"                                                                ",
"                                                                ",
"                            XXXXXXX                             ",
"                          XXXXXXXXXXXX                          ",
"                        XXXXXXXXXXXXXXX                         ",
"                       XXXXXXXXXXXXXXXXX                        ",
"                      XXXXXXXXXXXXXXXXXXX                       ",
"                     XXXXXXXXXXXXXXXXXXXXX                      ",
"                     XXXXXXXXXXXXXXXXXXXXXX                     ",
"                    XXXXXXXXXXXXXXXXXXXXXXX                     ",
"                   XXXXXXXXXXXXXXXXXXXXXXXXX                    ",
"                   XXXX     XXXXX    XXXXXXX                    ",
"                   XXX      XXXX       XXXXXX                   ",
"                  XXXX       XXX       XXXXXX                   ",
"                  XXXX       XXX       XXXXXX                   ",
"                 XXXXX       XXXX  X   XXXXXX                   ",
"                 XXXXX   X  XXXXX  X   XXXXXX                   ",
"                 XXXXXX    XXXXXX     XXXXXXX                   ",
"                 XXXXXXXXXXXXXXXXXXXXXXXXXXXX                   ",
"                 XXXXXXXXXXXXXXXXXXXXXXXXXXXX                   ",
"                 XXXXXXXXXXXXXXXXXXXXXXXXXXXX                   ",
"                 XXXXXX         .     XXXXXXX                   ",
"                 XXXXX       X         XXXXXX                   ",
"                 XXXXX            XX    XXXXX                   ",
"                 XXXXX             X    XXXXX                   ",
"                 XXXXX             X    XXXXXX                  ",
"                 XXXXX                  XXXXXX                  ",
"                XXXXXX                  XXXXXX                  ",
"                XXXXXX                  XXXXXX                  ",
"                XXXXXX                 XXXXXXXX                 ",
"                XXXXXXX               XXXXXXXXX                 ",
"                XXXXXXXX             XXXXXXXXXX                 ",
"               XXXXXXXXXXXX       XXXXXXXXXXXXX                 ",
"              XXXXXXXXXXXXXXXXXXXXXXXXXXXXXXXXXX                ",
"              XXXXXXXXXXXXXXXXXXXXXXXXXXXXXXXXXXX               ",
"             XXXXXXXXXXXXXXXXXXXXXXXXXXXXXXXXXXXX               ",
"             XXXXXXXXXXXXXXXXXXXXXXXXXXXXXXXXXXXXX              ",
"            XXXXXXXXXXXXXXXXXXXXXXXXXXXXXXXXXXXXXXX             ",
"           XXXXXXXXXXXXXXXXXXXXXXXXXXXXXXXXXXXXXXXXX            ",
"           XXXXXXXXXXXXXXXXXXXXXXXXXXXXXXXXXXXXXXXXXX           ",
"          XXXXXXXXXXXXXXXXXXXXXXXXXXXXXXXXXXXXXXXXXXXX          ",
"         XXXXXXXXXXXXXXXXXXXXXXXXXXXXXXXXXXXXXXXXXXXXXX         ",
"        XXXXXXXXXXXXXXXXXXXXXXXXXXXXXXXXXXXXXXXXXXXXXXXXX       ",
"      XXXXXXXXXXXXXXXXXXXXXXXXXXXXXXXXXXXXXXXXXXXXXXXXXXXX      ",
"     XXXXXXXXXXXXXXXXXXXXXXXXXXXXXXXXXXXXXXXXXXXXXXXXXXXXXX     ",
"    XXXXXXXXXXXXXXXXXXXXXXXXXXXXXXXXXXXXXXXXXXXXXXXXXXXXXXXX    ",
"    XXXXXXXXXXXX    XXXXXXXXXXXXXXXXXX           XXXXXXXXXXX    ",
"    XXXXXXXXXX       XXXXXXXXXXXXXXXX              XXXXXXXXX    ",
"    XXXXXXXXX        XXXXXXXXXXXXX                  XXXXXXXX    ",
"     XXXXXXX         XXXXXXXXXXXX                      XXXX     ",
"      XXXX            XXXXXXXXXXX                               ",
"                      XXXXXXXXXX                                ",
"                        XXXXXXX                                 ",
"                                                                ",
"                                                                ",
"                                                                ",
"                                                                "
};
