/* XPM */
static char *Collectible_1[] = {
/* columns rows colors chars-per-pixel */
"64 64 4 1 ",
"  c None",
". c #FFD600",
"X c #FFE144",
"o c white",
/* pixels */
"                                                                ",
"                                                                ",
"                                                                ",
"                                                                ",
"                                                                ",
"                                                                ",
"                                                                ",
"                                                                ",
"                                                                ",
"                                                                ",
"                                                                ",
"                                                                ",
"                                                                ",
"                                                                ",
"                      ....................                      ",
"                      ....................                      ",
"                      ....................                      ",
"                      ....................                      ",
"                  ....                    ....                  ",
"                  ....                    ....                  ",
"                  ....                    ....                  ",
"                  ....                    ....                  ",
"              ....        oooooooooooo        ....              ",
"              ....        oooooooooooo        ....              ",
"              ....        oooooooooooo        ....              ",
"              ....        oooooooooooo        ....              ",
"              ....    oooo            oooo    ....              ",
"              ....    oooo            oooo    ....              ",
"              ....    oooo            oooo    ....              ",
"              ....    oooo            oooo    ....              ",
"              ....    oooo    XXXX    oooo    ....              ",
"              ....    oooo    XXXX    oooo    ....              ",
"              ....    oooo    XXXX    oooo    ....              ",
"              ....    oooo    XXXX    oooo    ....              ",
"              ....    oooo            oooo    ....              ",
"              ....    oooo            oooo    ....              ",
"              ....    oooo            oooo    ....              ",
"              ....    oooo            oooo    ....              ",
"              ....        oooooooooooo        ....              ",
"              ....        oooooooooooo        ....              ",
"              ....        oooooooooooo        ....              ",
"              ....        oooooooooooo        ....              ",
"                  ....                    ....                  ",
"                  ....                    ....                  ",
"                  ....                    ....                  ",
"                  ....                    ....                  ",
"                      ....................                      ",
"                      ....................                      ",
"                      ....................                      ",
"                      ....................                      ",
"                                                                ",
"                                                                ",
"                                                                ",
"                                                                ",
"                                                                ",
"                                                                ",
"                                                                ",
"                                                                ",
"                                                                ",
"                                                                ",
"                                                                ",
"                                                                ",
"                                                                ",
"                                                                "
};
