/* XPM */
static char *Collectible_2[] = {
/* columns rows colors chars-per-pixel */
"64 64 3 1 ",
"  c None",
". c #FFD600",
"X c white",
/* pixels */
"                                                                ",
"                                                                ",
"                                                                ",
"                                                                ",
"                                                                ",
"                                                                ",
"                                                                ",
"                                                                ",
"                                                                ",
"                                                                ",
"                                                                ",
"                                                                ",
"                                                                ",
"                                                                ",
"                                                                ",
"                                                                ",
"                             ......                             ",
"                             ......                             ",
"                             ......                             ",
"                             ......                             ",
"                             ......                             ",
"                             ......                             ",
"                             ......                             ",
"                             ......                             ",
"                             ......                             ",
"                             ......                             ",
"                          XXX......XXX                          ",
"                          XXX......XXX                          ",
"                          XXX......XXX                          ",
"                          XXX......XXX                          ",
"                      XXXX   ......   XXXX                      ",
"                      XXXX   ......   XXXX                      ",
"                      XXXX   ......   XXXX                      ",
"                      XXXX   ......   XXXX                      ",
"                      XXXX   ......   XXXX                      ",
"                      XXXX   ......   XXXX                      ",
"                      XXXX   ......   XXXX                      ",
"                      XXXX   ......   XXXX                      ",
"                      XXXX   ......   XXXX                      ",
"                      XXXX   ......   XXXX                      ",
"                      XXXX   ......   XXXX                      ",
"                      XXXX   ......   XXXX                      ",
"                      XXXX   ......   XXXX                      ",
"                          XXX......XXX                          ",
"                          XXX......XXX                          ",
"                          XXX......XXX                          ",
"                          XXX......XXX                          ",
"                             ......                             ",
"                             ......                             ",
"                             ......                             ",
"                             ......                             ",
"                             ......                             ",
"                                                                ",
"                                                                ",
"                                                                ",
"                                                                ",
"                                                                ",
"                                                                ",
"                                                                ",
"                                                                ",
"                                                                ",
"                                                                ",
"                                                                ",
"                                                                "
};
