/* XPM */
static char *Collectible0[] = {
/* columns rows colors chars-per-pixel */
"64 64 3 1 ",
"  c black",
". c #9EEE15",
"X c white",
/* pixels */
"                                                                ",
"                                                                ",
"                                                                ",
"                                                                ",
"                                                                ",
"                                                                ",
"                                                                ",
"                                                                ",
"                                                                ",
"                                                                ",
"                                                                ",
"                                                                ",
"                                                                ",
"                                                                ",
"                                                                ",
"                                                                ",
"                                                                ",
"                                                                ",
"                                                                ",
"                            XXXXXXXX                            ",
"                          XXXXXXXXXXXX                          ",
"                        XXXXXXXXXXXXXXXX                        ",
"                       XXXXX        XXXXX                       ",
"                      XXXX            XXXX                      ",
"                     XXXX              XXXX                     ",
"                     XXX                XXX                     ",
"                    XXX                  XXX                    ",
"                    XXX    ...    ...    XXX                    ",
"                   XXX     . ...... .     XXX                   ",
"                   XXX     ... .. ...     XXX                   ",
"                   XXX     ..........     XXX                   ",
"                   XXX      ...  ...      XXX                   ",
"                   XXX      ...  ...      XXX                   ",
"                   XXX     ..........     XXX                   ",
"                   XXX     ... .. ...     XXX                   ",
"                   XXX     . ...... .     XXX                   ",
"                    XXX    ...    ...    XXX                    ",
"                    XXX                  XXX                    ",
"                     XXX                XXX                     ",
"                     XXXX              XXXX                     ",
"                      XXXX            XXXX                      ",
"                       XXXXX        XXXXX                       ",
"                        XXXXXXXXXXXXXXXX                        ",
"                          XXXXXXXXXXXX                          ",
"                            XXXXXXXX                            ",
"                                                                ",
"                                                                ",
"                                                                ",
"                                                                ",
"                                                                ",
"                                                                ",
"                                                                ",
"                                                                ",
"                                                                ",
"                                                                ",
"                                                                ",
"                                                                ",
"                                                                ",
"                                                                ",
"                                                                ",
"                                                                ",
"                                                                ",
"                                                                ",
"                                                                "
};
