/* XPM */
static char *Collectible3[] = {
/* columns rows colors chars-per-pixel */
"64 64 3 1 ",
"  c black",
". c #9EEE15",
"X c white",
/* pixels */
"                                                                ",
"                                                                ",
"                                                                ",
"                                                                ",
"                                                                ",
"                                                                ",
"                                                                ",
"                                                                ",
"                                                                ",
"                                                                ",
"                                                                ",
"                                                                ",
"                                                                ",
"                                                                ",
"                                                                ",
"                                                                ",
"                                                                ",
"                                                                ",
"                                                                ",
"                                                                ",
"                                                                ",
"                               XX                               ",
"                               XX                               ",
"                              XXXX                              ",
"                              XXXX                              ",
"                              XXXX                              ",
"                              XXXX                              ",
"                              XXXX                              ",
"                              XXXX                              ",
"                           ...XXXX...                           ",
"                           . .XXXX. .                           ",
"                           ...XXXX...                           ",
"                           ...XXXX...                           ",
"                            ..XXXX..                            ",
"                            ..XXXX..                            ",
"                           ...XXXX...                           ",
"                           ...XXXX...                           ",
"                           . .XXXX. .                           ",
"                           ...XXXX...                           ",
"                              XXXX                              ",
"                              XXXX                              ",
"                              XXXX                              ",
"                              XXXX                              ",
"                              XXXX                              ",
"                              XXXX                              ",
"                               XX                               ",
"                               XX                               ",
"                                                                ",
"                                                                ",
"                                                                ",
"                                                                ",
"                                                                ",
"                                                                ",
"                                                                ",
"                                                                ",
"                                                                ",
"                                                                ",
"                                                                ",
"                                                                ",
"                                                                ",
"                                                                ",
"                                                                ",
"                                                                ",
"                                                                "
};
