/* XPM */
static char *result[] = {
/* columns rows colors chars-per-pixel */
"64 64 3 1 ",
"  c black",
". c #11DFFF",
"X c white",
/* pixels */
"                                                                ",
"                                                                ",
"                                                                ",
"                                                                ",
"                                                                ",
"                                                                ",
"                                                                ",
"                                                                ",
"                                                                ",
"                                                                ",
"                                                                ",
"                                                                ",
"                                                                ",
"                                                                ",
"                                                                ",
"                                                                ",
"                                                                ",
"                                                                ",
"                                                                ",
"                            XXXXXXXX                            ",
"                           XXXXXXXXXX                           ",
"                           XXXXXXXXXX                           ",
"                           XX      XX                           ",
"                           XX      XX                           ",
"                          XXX      XXX                          ",
"                          XXX      XXX                          ",
"                          XX        XX                          ",
"                         XXX        XXX                         ",
"                         XXX..    . XXX                         ",
"                         XXX ...... XXX                         ",
"                         XXX.. .. . XXX                         ",
"                         XXX....... XXX                         ",
"                         XXX...  .. XXX                         ",
"                         XXX...  .. XXX                         ",
"                         XXX....... XXX                         ",
"                         XXX.. .. . XXX                         ",
"                         XXX ...... XXX                         ",
"                          XX..     .XX                          ",
"                          XXX      XXX                          ",
"                          XXX      XXX                          ",
"                           XX      XX                           ",
"                           XX      XX                           ",
"                            XXXXXXXXX                           ",
"                            XXXXXXXXX                           ",
"                            XXXXXXXX                            ",
"                                                                ",
"                                                                ",
"                                                                ",
"                                                                ",
"                                                                ",
"                                                                ",
"                                                                ",
"                                                                ",
"                                                                ",
"                                                                ",
"                                                                ",
"                                                                ",
"                                                                ",
"                                                                ",
"                                                                ",
"                                                                ",
"                                                                ",
"                                                                ",
"                                                                "
};
