/* XPM */
static char *result[] = {
/* columns rows colors chars-per-pixel */
"64 64 3 1 ",
"  c black",
". c #11DFFF",
"X c white",
/* pixels */
"                                                                ",
"                                                                ",
"                                                                ",
"                                                                ",
"                                                                ",
"                                                                ",
"                                                                ",
"                                                                ",
"                                                                ",
"                                                                ",
"                                                                ",
"                                                                ",
"                                                                ",
"                                                                ",
"                                                                ",
"                                                                ",
"                                                                ",
"                                                                ",
"                                                                ",
"                                                                ",
"                            XXXXXXXX                            ",
"                          XXXXXXXXXXXX                          ",
"                         XXXXXXXXXXXXXX                         ",
"                        XXXX        XXXX                        ",
"                       XXX            XXX                       ",
"                      XXX              XXX                      ",
"                     XXX                XXX                     ",
"                     XXX                XXX                     ",
"                     XXX   ...    ...   XXX                     ",
"                    XXX    . ...... .    XXX                    ",
"                    XXX    ... .. ...    XXX                    ",
"                    XXX    ..........    XXX                    ",
"                    XXX     ...  ...     XXX                    ",
"                    XXX     ...  ...     XXX                    ",
"                    XXX    ..........    XXX                    ",
"                    XXX    ... .. ...    XXX                    ",
"                    XXX    . ...... .    XXX                    ",
"                     XXX   ...    ...   XXX                     ",
"                     XXX                XXX                     ",
"                     XXX                XXX                     ",
"                      XXX              XXX                      ",
"                       XXX            XXX                       ",
"                        XXXX        XXXX                        ",
"                         XXXXXXXXXXXXXX                         ",
"                          XXXXXXXXXXXX                          ",
"                            XXXXXXXX                            ",
"                                                                ",
"                                                                ",
"                                                                ",
"                                                                ",
"                                                                ",
"                                                                ",
"                                                                ",
"                                                                ",
"                                                                ",
"                                                                ",
"                                                                ",
"                                                                ",
"                                                                ",
"                                                                ",
"                                                                ",
"                                                                ",
"                                                                ",
"                                                                "
};
