/* XPM */
static char *result[] = {
/* columns rows colors chars-per-pixel */
"64 64 130 2 ",
"   c gray87",
".  c LightGray",
"X  c gray84",
"o  c #B4B4B4",
"O  c gray65",
"+  c #A2A2A2",
"@  c gray64",
"#  c #CECECE",
"$  c gray86",
"%  c #DFDFDF",
"&  c #E1E1E1",
"*  c gainsboro",
"=  c #AEAEAE",
"-  c gray80",
";  c gray88",
":  c #CBCBCB",
">  c #D2D2D2",
",  c gray70",
"<  c gray69",
"1  c #C8C8C8",
"2  c gray78",
"3  c #DADADA",
"4  c gray91",
"5  c white",
"6  c gray96",
"7  c #A9A9A9",
"8  c #A5A5A5",
"9  c #A4A4A4",
"0  c gray92",
"q  c gray99",
"w  c gray68",
"e  c #FEFEFE",
"r  c gray89",
"t  c gray94",
"y  c #F8F8F8",
"u  c #CACACA",
"i  c #D5D5D5",
"p  c #DDDDDD",
"a  c gray98",
"s  c gray76",
"d  c #ACACAC",
"f  c #A7A7A7",
"g  c #B7B7B7",
"h  c #B2B2B2",
"j  c gray85",
"k  c #F9F9F9",
"l  c #FBFBFB",
"z  c #F4F4F4",
"x  c gray72",
"c  c #BCBCBC",
"v  c #F3F3F3",
"b  c #E9E9E9",
"n  c gray93",
"m  c #D8D8D8",
"M  c gray67",
"N  c #D7D7D7",
"B  c gray79",
"V  c #CDCDCD",
"C  c #B1B1B1",
"Z  c gray95",
"A  c #F1F1F1",
"S  c gray83",
"D  c #AFAFAF",
"F  c gray81",
"G  c #FDFDFD",
"H  c gray",
"J  c gray77",
"K  c gray82",
"L  c #B6B6B6",
"P  c gray71",
"I  c #D0D0D0",
"U  c #818181",
"Y  c #414141",
"T  c #2C2C2C",
"R  c #090909",
"E  c gray50",
"W  c gray60",
"Q  c black",
"!  c #222222",
"~  c #C5C5C5",
"^  c #767676",
"/  c gray56",
"(  c #232323",
")  c #323232",
"_  c #585858",
"`  c #E4E4E4",
"'  c gray14",
"]  c #252525",
"[  c #515151",
"{  c #888888",
"}  c #E6E6E6",
"|  c #B5B8E8",
" . c #7176EC",
".. c #5B62EF",
"X. c #B1B4E4",
"o. c #484848",
"O. c #B7B9E3",
"+. c #565DF0",
"@. c gray90",
"#. c #747AEB",
"$. c #AAAAAA",
"%. c gray5",
"&. c #5E65EF",
"*. c #C0C0C0",
"=. c #9A9A9A",
"-. c #3A3A3A",
";. c gray75",
":. c #EAEAEA",
">. c #B3B4D9",
",. c gray48",
"<. c gray31",
"1. c #EFEFEF",
"2. c #5A60EE",
"3. c #6E74EA",
"4. c #ABAEDE",
"5. c gray74",
"6. c #ECECEC",
"7. c #C6C6C6",
"8. c #2D2D2D",
"9. c gray57",
"0. c #929292",
"q. c gray16",
"w. c gray97",
"e. c #3F3F3F",
"r. c gray45",
"t. c #F6F6F6",
"y. c #C1C1C1",
"u. c gray73",
"i. c #B9B9B9",
"p. c #C3C3C3",
/* pixels */
"                                                                                                                                ",
"                                                                                                            . X                 ",
"                                                                                                  o o o o o O + + @ # $         ",
"      % & %                                                                                 * = o o o o o o o + + + + + -       ",
"      & ;   : >                                                                             , < o o o o o o o + + + + + 1       ",
"      & # 2 2 3                             % 4                                           5 6 7 o o o o o o o 8 + + + + + 9     ",
"      & 2 2 2 % %                         ; 0 5                                           5 q 8 o o o o o o o o o , + + + w     ",
"        2 2 2 ,                         & 5 e 5 5                                     r t e 5 o o o o o o o o o o o o o o o     ",
"        : 2 2 o                         y e 5 5 5 2 2 2 2 2 2 2 u i p                 5 a e 5 s o o o o o 8 , o o o o o o o     ",
"          2 2 d                   $ : > 5 5 e q 5 i .                                 e q e 5 5 ; o o o o f + + O o o o o o     ",
"          g h O o             # 2 2 - j q 5 5 5 5 k 2 2 :                               l z z 5 5 6 2 2 o o o + + o o o o 8 *   ",
"          # x x c         > 2 u 3 2 2       v 5 b     p - 2                                 n 5 5 m 1 2 2 o o h + o o o M + N   ",
"                    X 2 2 B N $ 1 V       : > 5           # 2 .                               5 5 2 2 2 2 o o o o o o C + +     ",
"                  $ 2 $       1 .         p 2 b             * 2 X                             Z A m 2 2 2 , o o o o o 7 + N     ",
"                i 2 .       V 2             S #               $ -                                   2 2 2 + C o o o D O         ",
"              * 2 X       V 1                 j                 m *                                 * 1 2 + + + + + + 2         ",
"            p . S       p 2                   p                                                         B F + + + + + $         ",
"                        j j                                         p                 G q               $ 1 1 2 2 2             ",
"                                                            j > > X p $ p           5 5 &                 2 2 2 2               ",
"                                                            i 1 2 B 2 N # .           2 -                 m 2 2 2               ",
"                                    H J   K 1 F 3               * 2 2 1   2         2 2 j                                       ",
"                                  V o o * 2 1 2 - K > K *         B 2 1 j           1 p                                         ",
"                                  i g c 2 2 2 2 2 1 1 F 2 p       3 - 2 .                                                       ",
"    p                           3 2 2 2 2 2 2 2 2 B B 1 2 $       p > 2 1 j p 3                                                 ",
"  *                             j 2 2 2 2 2 L o o P I   U Y T R T Y E B 2 1 . 2 :                                               ",
"  .       u K                   p B # . o o o o o P W T Q Q Q Q Q Q Q ! 7 B 2 - 2 *                                             ",
"X u     p 2 2     $             p - F ~ o o o F o ^ Q Q T / h i h / T Q ( E 2 1 2 $                                             ",
"2 3     - 2 2     #                     c x N   , ) Q _ ` r         P ' Q Q J N j                                               ",
">       u 2 2                                   ) Q ]   5 5           o [ Q )                                                   ",
"        V 2 K l 5 6                           { Q ] >   } |  ... .X.    > ] Q {                                                 ",
"        p 2 X G 5 5 z                         o.Q {     O.+.+.+.+.+.O.    { Q o.                                                ",
"        > B V @.5 5                           ) Q M     #.+.+.+.+.+.#.    $.Q )                                                 ",
"        S 1 1 2 u $.<                         %.Q K     &.+.+.+.+.+.&.    *.Q %.5                                               ",
"        p 2 2 2 2 o h                     ; % ) Q M     #.+.+.+.+.+.#.  u =.Q -.5 a                                             ",
"        e e 5 X ;.o i                   :.5 b o.Q {     O.+.+.+.+.+.>.1 2 ,.Q <.5 1.                                            ",
"        5 5 G N + S                     5 @.  { Q ] >     X. .2.3.4.2 2 5.! Q { 6.                                              ",
"        5 5 @.+ @                               ) Q ]       5.o o + 7.  _ Q 8.m                                                 ",
"        5 5 5 H                                 J ) Q _ j   J o o o 7.T Q Q J                                 o g               ",
"        5 5 5 u                                   9.Q Q T / h i h / T Q ) 0.                                  o o J             ",
"      % 5 5                                         5.T Q Q Q Q Q Q Q q.i 6                                   g o o             ",
"      Z 5 w.                                            U Y T R T e.r.2 t.y                                   * o               ",
"        Z                                               w.  u       2 2 4 q                                   *.P               ",
"                                                  4 l 5 5   2 N     * 2 F                                   ~ L o L             ",
"                                          3 2 2 2 X 5 - B 2 2 3       N K                                   o o o o H           ",
"                                        N 2 ~ h H 2 2 2 2 2 F                                                   o o o           ",
"                                      V 2 @ D < x x y.j                                                         u o 5.          ",
"                                      > w o o o o o u.                                                                          ",
"                                    $ L o o o o P o                                                                             ",
"                                    s o o o S                                   m K .                                           ",
"                                o o o o ;.                                      2 V I 2 K                                       ",
"                              u P o j                                           2 r t I 2 p                                     ",
"                              o x g                                             2 r @.I u >                                     ",
"                              u.o                                                 1 2 2 2 i                                     ",
"                                                                                  - 2 2 7.x o                                   ",
"                                                                                  2 1 # 1 o P                                   ",
"                                                                                y @.l V s g i.                                  ",
"                    u u                                                       r 5 @.r 2 u.o u.                                  ",
"            B 2 2 2 2 N                                                           :.: F 2 g p                                   ",
"          V 1 g + P 2                                                                   3 2                                     ",
"        : 2 h o w i                                                                     # 2 N                                   ",
"      3 s , o p.*                                                                                                               ",
"                                                                                                                                ",
"                                                                                                                                ",
"                                                                                                                                "
};
