/* XPM */
static char *result[] = {
/* columns rows colors chars-per-pixel */
"64 64 3 1 ",
"  c black",
". c #7C7C7C",
"X c white",
/* pixels */
"  XXXXX              XXXXX                XXXXX            ..XXX",
"  XXXX.             XXXXXXX     XXX      XXXXXXX           .XXXX",
" XXXX..            XXXXXXXX    XXXXX     XXXXXXXX          XXXXX",
"  XXX..            XXXXXXXX    .XXXX     XXXXXXXX          XXXX ",
"    XX             X.XXXXXX    ..XXXX    XXXXXX.X   XXX    XXX  ",
"                    ..XXXXX    ..XXX     XXXXX..   XXXXX        ",
"            XXX      ..XXX      XX        XXX..    .XXXX        ",
"           XXXX       XXX                  XXX     ..XXXX       ",
"          XXXXX                                    ..XXX        ",
"          XXXX.                                     XX          ",
"          XXX..                                                 ",
"                                                                ",
"                                                                ",
"                                                                ",
"                                                                ",
"                                                                ",
"                                                   XXXXX        ",
"                                                  XXXXXXX       ",
"                                                  XXXXXXXX      ",
"                                                  XXXXXXXX      ",
"                     XXX                          XXXXXX.X      ",
"                    XXXX                          XXXXX..       ",
"                   XXXXX                           XXX..        ",
"                   XXXX.                            XXX         ",
"                   XXX..                                        ",
"                                                                ",
"                                                                ",
"      XXX                                                       ",
"     XXXXX                                                      ",
"     .XXXX                            XXX                       ",
"     ..XXXX                          XXXXX                      ",
"     ..XXX                           .XXXX                      ",
"      XX                             ..XXXX                     ",
"                                     ..XXX                      ",
"                                      XX                        ",
"                                                                ",
"                                                                ",
"                                                                ",
"                                                                ",
"                                                                ",
"                                                                ",
"                                                                ",
"                                                                ",
"                                                                ",
"                          XXX                                   ",
"                         XXXX                                   ",
"                        XXXXX                    XXXXX          ",
"                        XXXX.                   XXX...X         ",
"                        XXX..                  XXXXX..X         ",
"                                               XXXXXX.X         ",
"                                               X.XXXXXX         ",
"                                                ..XXXXX         ",
"                                                 ..XXX          ",
"                                                  XXX           ",
"                                                                ",
"                                                                ",
"                                                                ",
"                                                                ",
"                                                                ",
"                                                                ",
"                                                                ",
"                                                                ",
"                                                                ",
"                                                                "
};
