/* XPM */
static char *result[] = {
/* columns rows colors chars-per-pixel */
"64 64 3 1 ",
"  c black",
". c #7C7C7C",
"X c white",
/* pixels */
"XXX                                                             ",
"XXXX                                                            ",
"XXXXX                                                           ",
".XXXX                                                           ",
"..XXX                                                           ",
"                                                                ",
"                  XXX                                           ",
"       X         XXX..                                          ",
"     XXXX       XXXXX..                                         ",
"    XXXXX       XXXXXX.X                       XXXXX            ",
"    XXXXXX      XXXXXXXX                      X...XXX           ",
"    XXX..X      XXXXXXXX                      X..XXXXX          ",
"     X...       XXXXXXX                       X.XXXXXX          ",
"                 XXXXX                        XXXXXX.X          ",
"                                              XXXXX..           ",
"  XXX                                          XXX..            ",
" XXX..                                          XXX             ",
"XXXXX..                                                         ",
"XXXXXX.X                                                        ",
"XXXXXXXX                                                        ",
"XXXXXXXX                                                        ",
"XXXXXXX                         X                               ",
" XXXXX                        XXXX                              ",
"                             XXXXX                              ",
"                             XXXXXX                             ",
"                             XXX..X                             ",
"                              X...                              ",
"    X                                                           ",
"  XXXX                                                          ",
" XXXXX                                                          ",
" XXXXXX                                                         ",
" XXX..X                                                         ",
"  X...                                                          ",
"                                                                ",
"                                                                ",
"                                            XXX..               ",
"                                            XXXX.               ",
" XXXXX                                      XXXXX               ",
"XXXXXXX                                      XXXX               ",
"XXXXXXXX                                      XXX               ",
"XXXXXXXX            XXX..                                       ",
"XXXXXX.X            XXXX.                                       ",
"XXXXX..             XXXXX                                       ",
" XXX..               XXXX                                       ",
"  XXX                 XXX                                       ",
"                                                                ",
"                                                                ",
"                                                                ",
"                                                                ",
"      XXX..                                                     ",
"      XXXX.                                                     ",
"      XXXXX                                                     ",
"       XXXX                                                     ",
"        XXX                   X                                 ",
"                            XXXX                                ",
"                           XXXXX                                ",
"                           XXXXXX                               ",
"X...                       XXX..X                               ",
"XX..X                       X...                                ",
"XXXXX                                                           ",
"XXXX                                                            ",
"XXXX                                                            ",
"  X                                                             ",
"                                                                "
};
