/* XPM */
static char *result[] = {
/* columns rows colors chars-per-pixel */
"64 64 3 1 ",
"  c black",
". c #7C7C7C",
"X c white",
/* pixels */
"                                                                ",
"                                                                ",
"                                                                ",
"                                                                ",
"                                                                ",
"                                                                ",
"                                                                ",
"                                                                ",
"                                                                ",
"                                                                ",
"           XXX                                                  ",
"          XXX..                                                 ",
"         XXXXX..                                                ",
"         XXXXXX.X                                               ",
"         X.XXXXXX                                               ",
"         X..XXXXX                  ..XXX                        ",
"         X...XXX                   .XXXX                        ",
"          XXXXX                    XXXXX                        ",
"                                   XXXX                         ",
"                                   XXX                          ",
"                                                                ",
"                                                                ",
"                                                                ",
"                                                                ",
"                                                                ",
"                                                                ",
"                                                                ",
"                                                                ",
"                                                                ",
"                        XX                                      ",
"                      XXX..                                     ",
"                     XXXX..                             XX      ",
"                      XXXX.                           XXX..     ",
"                      XXXXX                          XXXX..     ",
"                       XXX                            XXXX.     ",
"                                                      XXXXX     ",
"                                                       XXX      ",
"                                                                ",
"                                                                ",
"                                        ..XXX                   ",
"         XXX                            .XXXX                   ",
"        ..XXX                           XXXXX                   ",
"       ..XXXXX                          XXXX                    ",
"      X.XXXXXX                          XXX                     ",
"      XXXXXXXX                                                  ",
"      XXXXXXXX                                                  ",
"       XXXXXXX                                                  ",
"        XXXXX                                                   ",
"                                                                ",
"                                                                ",
"                                                                ",
"                                                                ",
"                                                                ",
"                                                 ..XXX          ",
"          XX                                     .XXXX          ",
"        XXX..                                    XXXXX          ",
"       XXXX..     XXX                  XXX       XXXX           ",
"        XXXX.    ..XXX        XX      XXX..      XXX            ",
"        XXXXX   ..XXXXX     XXX..    XXXXX..                    ",
"  XXX    XXX   X.XXXXXX    XXXX..    XXXXXX.X             XX    ",
" XXXX          XXXXXXXX     XXXX.    XXXXXXXX            ..XXX  ",
"XXXXX          XXXXXXXX     XXXXX    XXXXXXXX            ..XXXX ",
"XXXX.           XXXXXXX      XXX     XXXXXXX             .XXXX  ",
"XXX..            XXXXX                XXXXX              XXXXX  "
};
