/* XPM */
static char *result[] = {
/* columns rows colors chars-per-pixel */
"64 64 119 2 ",
"   c #0B0B0B",
".  c #0C1117",
"X  c #1C1C1C",
"o  c #252626",
"O  c #2E2D2E",
"+  c #2E2F31",
"@  c #2F3132",
"#  c #333435",
"$  c #363738",
"%  c #383738",
"&  c #373839",
"*  c #3A3B3C",
"=  c #0C2943",
"-  c #1D364C",
";  c #0A3C5F",
":  c #183751",
">  c #173A55",
",  c #3E3E41",
"<  c #253D52",
"1  c #413F42",
"2  c #3E4041",
"3  c #174463",
"4  c #0A4B71",
"5  c #094F78",
"6  c #095079",
"7  c #1F5B7E",
"8  c #434345",
"9  c #464649",
"0  c #48474B",
"q  c #47484B",
"w  c #4A4A4D",
"e  c #4E4E51",
"r  c #4F5053",
"t  c #41525F",
"y  c #525255",
"u  c #555659",
"i  c #56595B",
"p  c #5A5B5E",
"a  c #5C5E61",
"s  c #5F6163",
"d  c #54606A",
"f  c #5E656A",
"g  c #546774",
"h  c #5D6872",
"j  c #5C727F",
"k  c #616466",
"l  c #646669",
"z  c #66696B",
"x  c #696C6E",
"c  c #6C6E71",
"v  c #6E7173",
"b  c #717476",
"n  c #747679",
"m  c #76797B",
"M  c #797C7E",
"N  c #095983",
"B  c #096895",
"V  c #096B98",
"C  c #0A719E",
"Z  c #0A74A2",
"A  c #0D7DAA",
"S  c #1076A3",
"D  c #6B7D84",
"F  c #727A81",
"G  c #7C7E80",
"H  c #0E83AF",
"J  c #0D86B3",
"K  c #1485B1",
"L  c #1488B4",
"P  c #1C8EB5",
"I  c #138DB8",
"U  c #198DB8",
"Y  c #1591BC",
"T  c #2283A8",
"R  c #358CAA",
"E  c #2E94B4",
"W  c #2595BE",
"Q  c #2B97B9",
"!  c #2E9ABB",
"~  c #3C96B2",
"^  c #48829A",
"/  c #58889B",
"(  c #6E858E",
")  c #7E8183",
"_  c #77888F",
"`  c #738890",
"'  c #74919F",
"]  c #7E929D",
"[  c #1E9BC4",
"{  c #2697C0",
"}  c #2E97C0",
"|  c #299CC4",
" . c #29A2CA",
".. c #3CA0C7",
"X. c #33A3CA",
"o. c #3DA6CC",
"O. c #49A1C6",
"+. c #43A5CA",
"@. c #56A7CB",
"#. c #5BA7C9",
"$. c #6BAECE",
"%. c #828485",
"&. c #848788",
"*. c #86898A",
"=. c #8A8C8D",
"-. c #8D8F90",
";. c #8E9192",
":. c #809199",
">. c #929395",
",. c #959798",
"<. c #97999A",
"1. c #9A9B9C",
"2. c #9E9FA1",
"3. c #9FA0A1",
"4. c #A3A4A5",
"5. c #A6A7A8",
"6. c #A7A8A8",
"7. c #ACACAC",
"8. c #B1B2B2",
/* pixels */
"c x z z =.c 8 c b x l m c &.c k c c k c a i a a c c z a b ) a z x c v p x v %.;.m c c z z m b c s v *.M v m x z x k s x m s %.M ",
"x a z l -.x * c b x k c b M n x z z k z a u e w c c z z v m x z v v z i a x m >.c v c M m l z x z v %.) c b z c c v x v ) x n G ",
"c * u b b x a n c x l s *.&.x z c z c z k i q # b n c v b c c z b v k e s b m -.&.v a c v x v x m b *.G M b z s v c n n M m x ) ",
"c w y n n z l b b l a l *.%.b c c z b c k a q , c c c b v c c k n b l p w *.M =.-.l s l c b ) e *.M M M b n x k c n v *.m n l v ",
"z p p l v x c b v l p x z %.c b v x z k a i u a a b c v m u v c n b c s i ) m ) ) c z v e c *.n c v b m m v b k z b b -.=.i k x ",
"z s l l z z x c x z a i c *.n c z l z k a i n a e z m c n b n b v v ) c c v m ) l z c m u b &.n x x b n ) n v k z v ) =.>.y p x ",
"z b i z x l c x c l k e c >.m n z l c s e M n z e , M n G b c c v v G l n n v b k a n &.) ) n e =.b v b G n l l v n %.&.M c v x ",
"m M x y b v b &.a b s e n v M v z z k s r -.b z k & G G G n c c b n v z b z l &.i l n &.-.v M u ;.v c b b b s v b ) %.c G b G ) ",
"%.c z x v n c v x n a s l x n m k c z f e =.=.b a 8 G =.G G c b v m v x v l G *.z l c n -.b G b b z x v b b z l x ) c y M &.b =.",
"m b k b -.) a w b c z k m u x x b m G z a c *.G z z m =.,.G b b M G s n c z m *.b b u c ;.F b m x x v v b m v y x &.m s %.M M =.",
"M b c l >.*.z 8 b b x l b l x s m c G z n c e n n m ) G *.&.F G &.x z ) x x G G M G l v %.b b G b c m v m b c k M ) M m l b ) =.",
"c G v p b ) v s M m m c l l x s b m m c a b c c z F &.M G ) m *.-.c m *.x m %.v G a &.v n m m c n n b m b z v &.x ) M M n G M %.",
"G b m b v l z x v G n b x x a a c *.c u c k v z a &.%.G v G &.G G G m n x b n v c m m z *.G b n M M n b m l *.p p G &.M n M m %.",
"=.i b b b x l z v n n n x k i x &.-.b a 8 c z z b *.G G %.m c b m ) m %.c v v v c n b n m *.G b m G b &.v z M 0 x v &.=.v n x =.",
"&.k x x n v k z c M m b a l k x -.-.b c $ -.v a G %.&.G *.m c c m ) y n &.*.z c r m G G G %.m v m &.=.M x v z w v v *.) b M b *.",
"M c b x &.n l x v n m n a s G b z &.b a c &.m l >.>.&.,.*.m G G G y s x m 5.k c a b %.&.G G G -.v ) =.x p x a v b M *.M G M m %.",
"x b v k %.) v M b x v &.k G *.v l x l n %.m 3.v u 5.-.5.=.G m G M c 9 b M 5.z b l m &.*.-.G ) ;.M ) b s l c z %.G v l v ) >.%.) ",
"b v v x m M c ;.b y v G s G *.b x v y x ) b 4.M + 2.>.=.,.=.&.` _ -.p G -.%.a F z b &.,.;.%.-.=.l z M c x c v M G s l b %.=.) G ",
"M z z v n x z *.n s v b s c ) m m z p %.c m 4.n p 4.4.G %./ E Q ! ~ ( &.b a b G b G &.2.&.&.G ,.v M ) v x c b m G a k &.%.M m b ",
"b p i y n b v v G n c v x x n b b p x %.n m &.M ) ,.,.G ^ P [ X.o. .Q D c m ) ) ) =.*.,.n v &.,.*.%.m l m m x m n x k ) M y v l ",
"m k i w p ) n M G n c l x s z M c x M G m >.M m v m =.D T Y | #.$.+.| R G &.-.*.&.=.=.b G x G >.-.1.k y v ,.b b n n m G w 1 c k ",
"M v s 9 8 m n m G ) n v z p l b n M n M M b v M M c n D A I { O.#...[ U :.-.<.-.) >.m n G G %.=.>.,.%.9 b -.v b G %.n M # y x x ",
") G p 2 2 n %.x M x G v k 1 z x M n *.*.M m 9 x m -.b g C J U W } W I J ' 2.G -.%.-.f ) n %.-.G >.=.=.v M y b =.G %.b v O w x c ",
"M l p w 8 ) b n c x &.b z y a s n m =.%.c m 1 p *.-.m d N V A K L L H Z :.G ,.&.%.>.c G a F *.-.*.=.=.m ) k m &.%.c b c 1 9 x x ",
"b s r i u %.x v c m M m v p p 1 c M -.&.F b # x %.%.M f > 6 B C Z Z B 7 <.-.>.<.2.b z z z b %.,.&.&.>.M M M b b c c a l z 9 l x ",
"c s y l k b l c m *.) c =.z s 0 u %.%.n n c l b =.m M v t : ; 4 5 4 3 F -.>.<.6.1.x z b c m -.-.%.<.&.n m z M x z 9 u v z M x m ",
"n p y b n l c l ) l m v x x a p 9 %.&.b z c v c <.p b n m h - = = < F M %.1.5.5.2.G b G M m *.%.>.>.b x v n M x p % a v x n ) *.",
"c u c n l i l k c m b x x l u i u G &.m k l v z %.m *.b x ) * . . %.>.u %.>.4.<.8.;.b %.G M *.m &.n x m b %.m x 1 , r c v b v *.",
"b l c x k s p i y v b c x z a p v ) ) v f c v c z =.&.m c G %     %.*.e M =.5.-.,.8.,.G &.G b u &.n G G M =.m v O O u x v b c %.",
"n x l x l x p r 9 k b c v n v x v m v z n n z a u >.=.n G &.%     G *.z n >.>.*.-.1.8.>.%.F a a -.b %.G G ) b z , @ s x x v b %.",
"m x c c b m s 8 9 x M x v v n v v n v v z m x a a =.;.%.c M *     %.%.b G =.m =.*.-.2.8.=.n a z ;.m G G m m x l k 1 a x v x x %.",
"M x x x l l p y w G b n b v b n m n v v c m c z x G *.) x &.*     G %.b M M G %.=.&.&.4.1.%.n b %.&.) ) m G a c x n x n M c n %.",
"=.l c k l z a s s &.b x n c c c %.m v v b v z b m M M b b =.%     %.=.m n m %.=.=.m 1.>.2.-.) n G %.&.%.G %.x n c n %.b n ) b %.",
";.x c b v v z b x G n x ) c c b -.&.G b v z r c M n c b m &.*     &.&.x n M =.3.-.b %.M 1.>.*.%.n %.%.%.%.G m G b b %.n n =.c =.",
"G G G l v m v m n n b c c m x b ;.<.z v v l 8 l *.l n n n =.*     G n b n ) ;.M 1.l m %.,.*.) M c ) =.M %.m m m b m ) n %.b c *.",
"%.m x p n ) m G n n b b z &.x y =.&.M n v a 8 z %.M M b x =.%     ) M x n G ;.2.*.s b %.M -.M n n G M m ;.b m n c x z G 1.n n %.",
"=.n b u l b %.&.M m v b z &.s z >.v G b z s i v n G m M l M *     ) %.n n M ,.>.) b n m M *.&.x G ) m %.M ) %.v n # c n 2.%.c n ",
"G n n l v i l %.M n b b b b z s %.m G n b x y p y i i y c &.%     ) *.c b *.=.M n n v G ) M m b %.) ) G m b %.%.M 1 k M 2.%.y %.",
"G b n b c k a n G n b b v v c c z v z b p 2 * $ * & & $ 2 p O     G ;.>.b =.n c z ) x ) *.x m &.c -.M M m b m =.%.w m M 5.x r &.",
"v c n M z z y x ) n n m c b b ) v l i 2 * * * $ * * * $ * o X     m =.1.=.c G n v n c M %.&.b &.l =.b %.m b b *.%.0 =.>.&.r a m ",
"0 1 G m x s y k ) M v b b n G ) v c p O * $ $ # % # * * & @ X     M &.=.1.b n c n b b b m *.k *.%.M M =.b b M %.%.G n M b e b u ",
"p p %.M b x u p m G M v c l M &.c l z o 2 * # @ % % * $ 2 8 X     m =.>.&.l G b M n b v M &.b *.G M -.m k c l b =.,.b m x y G l ",
"c M =.x b b p 1 x ) G b y z n ) v z z $ * & @ * % % % % 2 @ X     ) ;.%.M c M v b n b c M -.M ,.n M n s s m u n 1.%.G ;.x s l &.",
"n v G n G b p u f G M c c b z M M i s q $ * O $ % # # % * o X     %.&.M G G b c m m M b ) ) %.=.M M k p x n x n ,.3.b *.n s e %.",
"b M &.b b m c l z M M b m v x c M i b s 2 & @ # % O % % % O o   X -.%.b m M b M x M M m M ) M ) %.b p k c b M %.1.>.%.=.n c k G ",
"&.>.%.G c l r b M m b m v l v b l v b c m 8 @ # O % O % % u %.%.%.=.v k n M M %.l &.M m m G b m %.c e l b G b %.=.>.v %.-.b M =.",
"1.2.M n x c e s M v v b b v ) c i q m x c v r 2 8 8 w w z *.%.*.G G u z m %.*.>.) n x =.v b M n G b y s b n M M =.>.c &.=.M %.-.",
"=.-.&.v b l a y G b m M z *.M c s $ x m x l x v s v v x n c m b l x p z M M ) =.) M p x ) b x &.) c c u b b M %.=.&.M M G &.M -.",
"*.p ) n n x s 2 %.v M m v %.%.v u 9 b k b x c c M b x k a z m c c M s s b m %.=.M x w x %.M l %.G G G p m m G =.;.%.%.v G %.%.n ",
"%.n m m M b 9 p M b b c x x G b u c z z y b z G =.x z p u l l z c c M u b b =.&.b b y x %.n c m M m M v %.G G ;.%.m G z m m %.%.",
"G -.%.M m z x x b v x x l z b l b n x z s k M %.m x b z p p p k b M b c n c ) M x b x m m l b b n n n M %.%.%.%.v v n k z n n ,.",
"p y &.&.m l p M n m x x x c v z l v x x l %.%.M %.v c c x s y a c M n b b m M m b x x x x x n v b n m G ) &.%.n z x a a l n M >.",
"l 1 y &.n l x ) n n b v c v v k k z z c c 1.%.%.c l c x c c e u x x G ) b c m z M p b k x b x b b G n M %.&.%.z a k e k x b m ;.",
"u p 1 b b m a M z G k z v c m z v p s v %.%.;.G u u k M m c u w s l n &.M b n z n x M l v k x m M G m M G %.) x y 1 p x c b b =.",
"k w 9 a b M c p z M l x c v c v c k p l M ,.G %.k 1 y *.M x p w u p m =.b c M b x b b x k k x b &.n G n G %.) n O y l x c ) c *.",
"x p 2 u M %.b k i l v l v c k c l v s p k ;.%.%.n l l n v x y u k k m G b b b b M x x b a p M M b b b M G M %.G 1 w l x b m M ) ",
"x y * c n M M k l c l k z x z l l l p k x *.G G &.c v b c k e l z b c c n M m m k b y n v l x x m c z G M ) G ) e 1 s z c b b %.",
"x r * k M n v x G z s 8 s l b l s z p s c *.G M b M c c c y u b m b M z M c m c p x %.v k x l v v c b G z ) n G 0 e p z x x b %.",
"p i y k v m v x %.z c 2 y v x l p s l l l x M n M M b c k s y x M G 8 n 1.l c ) p m m l b x x b c z c n v G c v w x 0 k c x b %.",
"i w x x n v v z %.v c * l b z s p x l x z v s c G b b c c k b b x ) 8 %.,.l b %.v b l l m v x v b s v c M c G z x s u k x b c %.",
"k k v c c c x k v M r w l l z s s c b x x x l x b x b M k k c b z b b %.c m ) %.M x x v k b b l c s z n n m n b z x p a p M M %.",
"v z k k v c k l l c z s i v z 8 p n k p l x l z x x s M b k l v z x c b M M %.m %.v x 0 u b l a &.z k c G M c v c x x z x b M =.",
"v z l l z r c i l l s a i m c w k c p u y p z z l k u l l p b k b 0 =.x b M M x n c p % k x M b b l z x x v M x z x k k b %.n ) ",
"b k a b z i ) c n M n M v &.m v b %.n M z x b ) M m m x %.M =.%.%.M &.%.%.=.=.b =.-.b k m %.-.=.M M M ) M =.%.M m %.%.m =.&.=.=."
};
