/* XPM */
static char *result[] = {
/* columns rows colors chars-per-pixel */
"64 64 3 1 ",
"  c black",
". c #7C7C7C",
"X c white",
/* pixels */
"                                                                ",
"                                                                ",
"                                                                ",
"                                                                ",
"                                                                ",
"                                                                ",
"                                                                ",
"                                                                ",
"                                                                ",
"                                                                ",
"                                                                ",
"                              ...X                              ",
"                             X..XXX                             ",
"                             XXXXXX                             ",
"                              XXXXX                             ",
"                              XXXX                              ",
"                               X                                ",
"                                                                ",
"                                                                ",
"                                                                ",
"                                               XXXXX            ",
"                                              XXXXXXX           ",
"                                             XXXXXXXX           ",
"                                             XXXXXXXX           ",
"                                             X.XXXXXX           ",
"                                              ..XXXXX           ",
"                                               ..XXX            ",
"                                                XXX             ",
"                                                                ",
"                                                                ",
"             XXX                                                ",
"             XXXX                                               ",
"             XXXXX                                              ",
"             .XXXX                                              ",
"             ..XXX                                              ",
"                                                                ",
"                                                                ",
"                                                                ",
"                                                                ",
"                                                                ",
"                                   XXX                          ",
"                                   XXXX                         ",
"                                   XXXXX                        ",
"                                   .XXXX                        ",
"                                   ..XXX                        ",
"                                                                ",
"                                                                ",
"            XXX                                                 ",
"           ..XXX                                                ",
"          ..XXXXX                                               ",
"         X.XXXXXX                                               ",
"         XXXXXX.X                                               ",
"         XXXXX..X                                               ",
"          XXX...X                                               ",
"           XXXXX                                                ",
"                                                                ",
"                                                                ",
"                                                                ",
"                                                                ",
"                                                                ",
"                                                                ",
"                                                                ",
"                                                                ",
"                                                                "
};
