/* XPM */
static char *result[] = {
/* columns rows colors chars-per-pixel */
"64 64 3 1 ",
"  c black",
". c #7C7C7C",
"X c white",
/* pixels */
"                                                                ",
"                                                             X  ",
"                                                            XXXX",
"                                                            XXXX",
"                                                           XXXXX",
"                                ...X                       X..XX",
"                               X..XXX                       ...X",
"                               XXXXXX                           ",
"                                XXXXX                           ",
"                                XXXX                            ",
"                                 X                   XXX        ",
"                                                     XXXX       ",
"                                                     XXXXX      ",
"                                                     .XXXX      ",
"                                                     ..XXX      ",
"                                                                ",
"                                                                ",
"                                                                ",
"                                                                ",
"                                       XXX                 XXX  ",
"                                       XXXX               ..XXX ",
"                                       XXXXX             ..XXXXX",
"                                       .XXXX            X.XXXXXX",
"                                       ..XXX            XXXXXXXX",
"               XXX                                      XXXXXXXX",
"               XXXX                                      XXXXXXX",
"               XXXXX                                      XXXXX ",
"               .XXXX                                            ",
"               ..XXX                                            ",
"                                                                ",
"                                                                ",
"                                                          ...X  ",
"                                                         X..XXX ",
"                                                         XXXXXX ",
"                                                          XXXXX ",
"                                                          XXXX  ",
"                                                           X    ",
"                              ...X                              ",
"                             X..XXX                             ",
"                             XXXXXX                             ",
"                              XXXXX                             ",
"                              XXXX                        XXXXX ",
"                               X                         XXXXXXX",
"                                                        XXXXXXXX",
"                                                        XXXXXXXX",
"                                                        X.XXXXXX",
"                                                         ..XXXXX",
"             XXX                                          ..XXX ",
"            ..XXX                                          XXX  ",
"           ..XXXXX                                              ",
"          X.XXXXXX                        XXXXX                 ",
"          XXXXXX.X                       XXXXXXX       ...X     ",
"          XXXXX..X                      XXXXXXXX      X..XXX    ",
"           XXX...X                      XXXXXXXX      XXXXXX    ",
"            XXXXX                       X.XXXXXX       XXXXX    ",
"                                         ..XXXXX       XXXX     ",
"                                          ..XXX         X       ",
"                                           XXX                  ",
"                                                                ",
"                                                           XXX..",
"                                                           XXXX.",
"                                                           XXXXX",
"                                                            XXXX",
"                                                             XXX"
};
