/* XPM */
static char *result[] = {
/* columns rows colors chars-per-pixel */
"32 32 86 1 ",
"  c gray87",
". c #FDFDFD",
"X c gray99",
"o c #D7D7D7",
"O c #D2D2D2",
"+ c gray84",
"@ c gainsboro",
"# c white",
"$ c #E1E1E1",
"% c gray83",
"& c #C8C8C8",
"* c gray78",
"= c gray79",
"- c gray80",
"; c #AAAAAA",
": c #B4B4B4",
"> c gray82",
", c gray85",
"< c gray76",
"1 c #9B9B9B",
"2 c #DDDDDD",
"3 c #D0D0D0",
"4 c #A0A0A0",
"5 c #AFAFAF",
"6 c gray81",
"7 c #DADADA",
"8 c LightGray",
"9 c gray86",
"0 c #9D9D9D",
"q c gray61",
"w c #CBCBCB",
"e c #CECECE",
"r c gray59",
"t c #B6B6B6",
"y c #C6C6C6",
"u c #A9A9A9",
"i c #D8D8D8",
"p c gray74",
"a c #A7A7A7",
"s c gray63",
"d c #C0C0C0",
"f c #EAEAEA",
"g c gray89",
"h c gray64",
"j c black",
"k c gray1",
"l c #E6E6E6",
"z c #5F5F5F",
"x c #010101",
"c c #6A6A6A",
"v c #080918",
"b c #535AE8",
"n c #5057E0",
"m c gray3",
"M c #0B0C1F",
"N c #565DF0",
"B c #4D53D7",
"V c #CACACA",
"C c #101010",
"Z c #010102",
"A c #565DEF",
"S c gray88",
"D c #DFDFDF",
"F c #8B8B8B",
"G c #04040A",
"H c #4A50CB",
"J c gray98",
"K c #E9E9E9",
"L c gray42",
"P c #727272",
"I c #F4F4F4",
"U c #EFEFEF",
"Y c gray90",
"T c #929292",
"R c #181818",
"E c gray11",
"W c #ECECEC",
"Q c gray73",
"! c #FEFEFE",
"~ c gray96",
"^ c #F6F6F6",
"/ c #F8F8F8",
"( c gray97",
") c gray91",
"_ c #FBFBFB",
"` c #CDCDCD",
/* pixels */
"                                ",
"                           .X   ",
"              oOO+@       ##$   ",
"              %&*=*+       *-   ",
"  ;: >&&&o      @**&      **,   ",
" <11@*&****&@    =*&,     &2    ",
" 345*******6*2   7-*8           ",
"7********==&*9   2O*&,27        ",
",*****011q*       9=*&8*w       ",
"2=e-1111111        r*=*-*@      ",
"2-6t111y11u       i11p*&*9      ",
"    asO d9  fg    h1q5 o,       ",
"            ## jk  1<           ",
"            lzxjjjc             ",
"            wjvbnjj             ",
"            mMNNNBjj @V         ",
"            CZNNNAjx -* #       ",
"     SD     FjGNHjj V*=##J      ",
"    f#K      LjjkjP&**7I#U      ",
"    #Y        TREO**&** W       ",
"              u11FQ   *i        ",
"              :111d             ",
"                   g!D          ",
"                 9*>J~          ",
"                 o**^/          ",
"            ( V   **)X          ",
"         )_## *o  @*6           ",
"     7***+#-=**7   o>           ",
"    o*&&&*****6                 ",
"   `**i,,,,,                    ",
"   OO                           ",
"                                "
};
