/* XPM */
static char *result[] = {
/* columns rows colors chars-per-pixel */
"32 32 159 2 ",
"   c gray87",
".  c #FDFDFD",
"X  c gray99",
"o  c gray82",
"O  c #A2A2A2",
"+  c gray53",
"@  c #686868",
"#  c gray35",
"$  c gray64",
"%  c white",
"&  c #E1E1E1",
"*  c gray77",
"=  c gray50",
"-  c #535353",
";  c #838383",
":  c gray69",
">  c #BBBBBB",
",  c #CACACA",
"<  c #808080",
"1  c gray26",
"2  c gray40",
"3  c #9D9D9D",
"4  c #B2B2B2",
"5  c gray78",
"6  c gray80",
"7  c #AAAAAA",
"8  c #B4B4B4",
"9  c #C8C8C8",
"0  c gray56",
"q  c gray88",
"w  c #F4F4F4",
"e  c #EFEFEF",
"r  c #DADADA",
"t  c #929292",
"y  c gray30",
"u  c #727272",
"i  c gray85",
"p  c gray76",
"a  c #9B9B9B",
"s  c gainsboro",
"d  c #606060",
"f  c #AEAEAE",
"g  c #FBFBFB",
"h  c gray97",
"j  c #888888",
"k  c #505050",
"l  c gray73",
"z  c #DDDDDD",
"x  c #D0D0D0",
"c  c #A0A0A0",
"v  c #AFAFAF",
"b  c #6A6A6A",
"n  c #C3C3C3",
"m  c gray90",
"M  c #D2D2D2",
"N  c #9A9A9A",
"B  c #585858",
"V  c #5F5F5F",
"C  c #F3F3F3",
"Z  c #FEFEFE",
"A  c #EEEEEE",
"S  c gray52",
"D  c #E2E2E2",
"F  c gray95",
"G  c #F1F1F1",
"H  c gray91",
"J  c #676767",
"K  c gray9",
"L  c gray37",
"P  c #CDCDCD",
"I  c gray79",
"U  c #CECECE",
"Y  c gray71",
"T  c #5D5D5D",
"R  c gray93",
"E  c #F6F6F6",
"W  c #E9E9E9",
"Q  c #797979",
"!  c gray39",
"~  c gray4",
"^  c #252525",
"/  c #909090",
"(  c gray81",
")  c gray46",
"_  c gray74",
"`  c #F8F8F8",
"'  c gray89",
"]  c #DFDFDF",
"[  c #7E7E7E",
"{  c #070707",
"}  c #222222",
"|  c #555555",
" . c #ACACAC",
".. c #E7E7E7",
"X. c gray98",
"o. c gray68",
"O. c #151515",
"+. c gray5",
"@. c gray16",
"#. c #818181",
"$. c gray18",
"%. c gray1",
"&. c gray17",
"*. c #444444",
"=. c #9F9F9F",
"-. c #494949",
";. c gray2",
":. c #2C2C2C",
">. c DimGray",
",. c gray94",
"<. c #5B5B5B",
"1. c #060606",
"2. c gray19",
"3. c #5A5A5A",
"4. c #343434",
"5. c #1E1E1E",
"6. c gray96",
"7. c #E4E4E4",
"8. c #3E3E3E",
"9. c #040404",
"0. c gray20",
"q. c #323232",
"w. c #939393",
"e. c #EAEAEA",
"r. c #E6E6E6",
"t. c #2F2F2F",
"y. c gray29",
"u. c gray92",
"i. c gray59",
"p. c #232323",
"a. c #020202",
"s. c #272727",
"d. c #B7B7B7",
"f. c gray62",
"g. c gray3",
"h. c #4C4C4C",
"j. c #C6C6C6",
"k. c gray8",
"l. c #161616",
"z. c gray33",
"x. c #F9F9F9",
"c. c #0E0E0E",
"v. c gray44",
"b. c #646464",
"n. c #ECECEC",
"m. c #515151",
"M. c #848484",
"N. c #B6B6B6",
"B. c gray57",
"V. c #D7D7D7",
"C. c gray70",
"Z. c gray72",
"A. c gray49",
"S. c #414141",
"D. c #D8D8D8",
"F. c #A4A4A4",
"G. c #6C6C6C",
"H. c #A5A5A5",
"J. c LightGray",
/* pixels */
"                                                                ",
"                                                      . X       ",
"                      o O + @ # # @ + $ o           % % &       ",
"                  * = - ; : > , , > : < 1 2 3 4       5 6       ",
"    7 8   o 9 9 + 0 q w e             r 4 t y u 4   5 5 i       ",
"  p a a s 5 9 d f e g % h             r 4 4 4 j k l 9 z         ",
"  x c v 5 5 b n m h % % h               M 4 4 4 N B p           ",
"r 5 5 5 5 V * m C . Z h A               M 4 4 4 4 N k ,         ",
"i 5 5 5 S f D F X % . G H                 , 4 4 J B K L P       ",
"z I U Y T q R X % Z E W D                 , 4 4 Q ! ~ ^ / r     ",
"z 6 ( ) _ H ` Z % . A ' ]                   p 4 N [ { } |  .    ",
"    o ! ..E Z % % X.W q                     p 4 o./ O.+.@.#.    ",
"    O a A Z % % % E m                         l 4 N $.%.&.*.    ",
"    + p e Z % % Z G &                         l 4 =.-.;.$.:.    ",
"    >.P G Z % % Z ,.&                         l 4 $ <.1.2.}     ",
"    3.i F Z % % Z ,.&                         l 4 $ <.1.4.5.    ",
"    3.i F Z % % Z ,.&                         l 4 $ <.1.4.5.    ",
"    b P G Z % % Z G &                         l 4 c y ;.2.}     ",
"    + p e Z % % % 6.7.]                       l 4 3 8.9.0.q.    ",
"    O w.e.h Z % % ` r.]                     p 4 4 a 4.%.t.y.    ",
"    o B & u.X % % X.H ]                     p 4 : i.p.a.s.=     ",
"      [ d.' h % % g u.& ]                   p 4 f.; +.g.h.j.    ",
"      * V & G Z % . ,.7.q                   p 4 Q ! { k.S M     ",
"        0 o.u.X.% % E e.'                 , 4 4 J B l.z.I       ",
"          2 I A x.Z Z E R                 , 4 4 J y.c.; I       ",
"            v.j.R x.% % h               M 4 4 4 i.3.4 4 M       ",
"              b.f n.w E G             r 4 4 4 + m.4 p           ",
"          r 5 5 M.L N.                r 4 B.y.u 4 l             ",
"        V.5 9 9 9 C.Q k = v Z.9 9 Z.f A.S.J =.4                 ",
"      P 5 5 D.i i i i ( F.j G.T T G.j H.J.                      ",
"      M M                                                       ",
"                                                                "
};
