/* XPM */
static char *result[] = {
/* columns rows colors chars-per-pixel */
"64 64 188 2 ",
"   c gray87",
".  c LightGray",
"X  c gray84",
"o  c #B4B4B4",
"O  c gray65",
"+  c #A2A2A2",
"@  c gray64",
"#  c #CECECE",
"$  c gray86",
"%  c #DFDFDF",
"&  c #E1E1E1",
"*  c gainsboro",
"=  c #AEAEAE",
"-  c gray80",
";  c gray88",
":  c #CBCBCB",
">  c #D2D2D2",
",  c gray70",
"<  c gray69",
"1  c #C8C8C8",
"2  c gray78",
"3  c #DADADA",
"4  c gray91",
"5  c white",
"6  c gray96",
"7  c #A9A9A9",
"8  c #A5A5A5",
"9  c #A4A4A4",
"0  c gray92",
"q  c gray99",
"w  c gray68",
"e  c #FEFEFE",
"r  c gray89",
"t  c gray94",
"y  c #F8F8F8",
"u  c #CACACA",
"i  c #D5D5D5",
"p  c #DDDDDD",
"a  c gray98",
"s  c gray76",
"d  c #ACACAC",
"f  c #A7A7A7",
"g  c #B7B7B7",
"h  c #B2B2B2",
"j  c gray85",
"k  c #F9F9F9",
"l  c #FBFBFB",
"z  c #F4F4F4",
"x  c gray72",
"c  c #BCBCBC",
"v  c #F3F3F3",
"b  c #E9E9E9",
"n  c gray93",
"m  c #D8D8D8",
"M  c gray67",
"N  c #D7D7D7",
"B  c gray79",
"V  c #CDCDCD",
"C  c #B1B1B1",
"Z  c gray95",
"A  c #F1F1F1",
"S  c gray83",
"D  c #AFAFAF",
"F  c gray81",
"G  c #989898",
"H  c #FDFDFD",
"J  c #939393",
"K  c #646464",
"L  c gray28",
"P  c #656565",
"I  c #959595",
"U  c gray31",
"Y  c #686868",
"T  c #7B7B7B",
"R  c #8B8B8B",
"E  c gray40",
"W  c #464646",
"Q  c #393939",
"!  c #3F3F3F",
"~  c #767676",
"^  c gray",
"/  c gray77",
"(  c gray82",
")  c #C1C1C1",
"_  c #494949",
"`  c #7E7E7E",
"'  c gray34",
"]  c #5D5D5D",
"[  c gray33",
"{  c gray97",
"}  c #888888",
"|  c #414141",
" . c gray32",
".. c gray74",
"X. c #C3C3C3",
"o. c #606060",
"O. c #5A5A5A",
"+. c gray62",
"@. c #444444",
"#. c gray35",
"$. c gray44",
"%. c #EEEEEE",
"&. c #717171",
"*. c #9A9A9A",
"=. c #C5C5C5",
"-. c #676767",
";. c gray4",
":. c #2F2F2F",
">. c #9F9F9F",
",. c #F6F6F6",
"<. c #E2E2E2",
"1. c #797979",
"2. c gray39",
"3. c #060606",
"4. c gray11",
"5. c #626262",
"6. c gray90",
"7. c #070707",
"8. c #101010",
"9. c gray19",
"0. c gray54",
"q. c #7C7C7C",
"w. c gray71",
"e. c #909090",
"r. c #151515",
"t. c gray3",
"y. c gray14",
"u. c #4E4E4E",
"i. c #6A6A6A",
"p. c #E4E4E4",
"a. c gray73",
"s. c gray18",
"d. c #020202",
"f. c #181818",
"g. c gray13",
"h. c #868686",
"j. c #EFEFEF",
"k. c gray2",
"l. c #191919",
"z. c gray9",
"x. c gray63",
"c. c #5B5B5B",
"v. c #202020",
"b. c gray66",
"n. c #222222",
"m. c #AAAAAA",
"M. c #979797",
"N. c #A0A0A0",
"B. c gray30",
"V. c #1D1D1D",
"C. c gray75",
"Z. c #9D9D9D",
"A. c #3E3E3E",
"S. c #040404",
"D. c gray10",
"F. c #4B4B4B",
"G. c #E6E6E6",
"H. c #9B9B9B",
"J. c #343434",
"K. c gray1",
"L. c gray59",
"P. c #232323",
"I. c #010101",
"U. c #484848",
"Y. c #838383",
"T. c #0C0C0C",
"R. c gray17",
"E. c #565656",
"W. c gray6",
"Q. c #3A3A3A",
"!. c #EAEAEA",
"~. c #2A2A2A",
"^. c #6D6D6D",
"/. c #5F5F5F",
"(. c #090909",
"). c #C0C0C0",
"_. c #515151",
"`. c #6F6F6F",
"'. c #B6B6B6",
"]. c #555555",
"[. c gray42",
"{. c gray61",
"}. c #898989",
"|. c gray56",
" X c gray52",
".X c #D0D0D0",
"XX c #C6C6C6",
"oX c #B9B9B9",
/* pixels */
"                                                                                                                                ",
"                                                                                                            . X                 ",
"                                                                                                  o o o o o O + + @ # $         ",
"      % & %                                                                                 * = o o o o o o o + + + + + -       ",
"      & ;   : >                                                                             , < o o o o o o o + + + + + 1       ",
"      & # 2 2 3                             % 4                                           5 6 7 o o o o o o o 8 + + + + + 9     ",
"      & 2 2 2 % %                         ; 0 5                                           5 q 8 o o o o o o o o o , + + + w     ",
"        2 2 2 ,                         & 5 e 5 5                                     r t e 5 o o o o o o o o o o o o o o o     ",
"        : 2 2 o                         y e 5 5 5 2 2 2 2 2 2 2 u i p                 5 a e 5 s o o o o o 8 , o o o o o o o     ",
"          2 2 d                   $ : > 5 5 e q 5 i .                                 e q e 5 5 ; o o o o f + + O o o o o o     ",
"          g h O o             # 2 2 - j q 5 5 5 5 k 2 2 :                               l z z 5 5 6 2 2 o o o + + o o o o 8 *   ",
"          # x x c         > 2 u 3 2 2       v 5 b     p - 2                                 n 5 5 m 1 2 2 o o h + o o o M + N   ",
"                    X 2 2 B N $ 1 V       : > 5           # 2 .                               5 5 2 2 2 2 o o o o o o C + +     ",
"                  $ 2 $       1 .         p 2 b             * 2 X                             Z A m 2 2 2 , o o o o o 7 + N     ",
"                i 2 .       V 2             S #               $ -                                   2 2 2 + C o o o D O         ",
"              * 2 X       V 1                 j                 m *                                 * 1 2 + + + + + + 2         ",
"            p . S       p 2                   p                                                         B F + + + + + $         ",
"                        j j                             > o 8 G G 8 , >               H q               $ 1 1 2 2 2             ",
"                                                  S J K L L L L L L L L P I S       5 5 &                 2 2 2 2               ",
"                                              j J U L L L Y T R R T E W Q Q ! ~ $     2 -                 m 2 2 2               ",
"                                    ^ /   ( ) Y _ ` x % 4             - ` _ Q Q ' X 2 2 j                                       ",
"                                  V o o * c ] L [ X l 5 {             3 h < } | Q  ...p                                         ",
"                                  i g c X.o.L O.S { 5 5 {               > h h +.@.Q #.j                                         ",
"    p                           3 2 2 2 $.L [ N v H e { %.              > h h h @ | Q &.                                        ",
"  *                             j 2 2 *.L _ =.Z q 5 H A 4                 u h h -._ ;.:.>.                                      ",
"  .       u (                   p B - #.L *.n q 5 e ,.b <.                u h h 1.2.3.4.@.N                                     ",
"X u     p 2 2     $             p - 9 _ 5.6.y e 5 H %.r %                   s h *.` 7.8.9.0.                                    ",
"2 3     - 2 2     #                 q.' w.,.e 5 5 a b ;                     s h w e.r.t.y.u.                                    ",
">       u 2 2                     $ U i.p.e 5 5 5 ,.6.                        a.h *.s.d.f.g.$                                   ",
"        V 2 ( l 5 6               ) L h.j.e 5 5 e A &                         a.h >._ k.l.z./                                   ",
"        p 2 X H 5 5 z             , L x.A e 5 5 e t &                         a.h @ c.3.v.z.g                                   ",
"        > B V 6.5 5               9 L b.Z e 5 5 e t &                         a.h @ c.3.n.z.7                                   ",
"        S 1 1 2 u m.<             O L @ Z e 5 5 e t &                         a.h @ c.3.g.z.O                                   ",
"        p 2 2 2 2 o h             , L M.A e 5 5 e A &                         a.h N.B.k.V.z.w.                                  ",
"        e e 5 X C.o i             C.L T j.e 5 5 5 6 p.%                       a.h Z.A.S.f.D.X.                                  ",
"        5 5 H N + S               3 F.5.3 { e 5 5 y G.%                     s h h H.J.K.D.n.3                                   ",
"        5 5 6.+ @                   ~ B.7 0 q 5 5 a 4 %                     s h < L.P.I.P.U.                                    ",
"        5 5 5 ^                     8 L o.r { 5 5 l 0 & %                   s h +.Y.T.S.R.I                   o g               ",
"        5 5 5 u                     N E.L f A e 5 H t p.;                   s h 1.2.k.W.Q.V                   o o /             ",
"      % 5 5                           M L [ j a 5 5 ,.!.r                 u h h -.B.;.~.Z.                    g o o             ",
"      Z 5 {                             ` _ ^.6.k e e ,.n                 u h h /.n.(.F.B                     * o               ",
"        Z                               j P U.2.j k 5 5 {               > h h J | Q  .D >                     ).w.              ",
"                                          ( -.L _.^ Z ,.A             3 h w `.Q Q [ '.                      =.'.o '.            ",
"                                          3 =.q.L L ].>.>             - ` @.Q Q [.x                         o o o o ^           ",
"                                        N 2 =.h {.].L L L Y T R }.T E W Q Q L |.                                o o o           ",
"                                      V 2 @ D < x o  XK L L L L L L L L E L.j                                   u o ..          ",
"                                      > w o o o o o a.  > o 8 M.G 8 w..                                                         ",
"                                    $ '.o o o o w.o                                                                             ",
"                                    s o o o S                                   m ( .                                           ",
"                                o o o o C.                                      2 V .X2 (                                       ",
"                              u w.o j                                           2 r t .X2 p                                     ",
"                              o x g                                             2 r 6..Xu >                                     ",
"                              a.o                                                 1 2 2 2 i                                     ",
"                                                                                  - 2 2 XXx o                                   ",
"                                                                                  2 1 # 1 o w.                                  ",
"                                                                                y 6.l V s g oX                                  ",
"                    u u                                                       r 5 6.r 2 a.o a.                                  ",
"            B 2 2 2 2 N                                                           !.: F 2 g p                                   ",
"          V 1 g + w.2                                                                   3 2                                     ",
"        : 2 h o w i                                                                     # 2 N                                   ",
"      3 s , o X.*                                                                                                               ",
"                                                                                                                                ",
"                                                                                                                                ",
"                                                                                                                                "
};
