/* XPM */
static char *result[] = {
/* columns rows colors chars-per-pixel */
"32 32 65 1 ",
"  c gray87",
". c #FDFDFD",
"X c gray99",
"o c #D7D7D7",
"O c #D2D2D2",
"+ c gray84",
"@ c gainsboro",
"# c white",
"$ c #E1E1E1",
"% c gray83",
"& c #C8C8C8",
"* c gray78",
"= c gray79",
"- c gray80",
"; c #AAAAAA",
": c #B4B4B4",
"> c gray82",
", c gray85",
"< c gray76",
"1 c #9B9B9B",
"2 c #DDDDDD",
"3 c #D0D0D0",
"4 c #A0A0A0",
"5 c #AFAFAF",
"6 c gray81",
"7 c #DADADA",
"8 c LightGray",
"9 c gray86",
"0 c #9D9D9D",
"q c gray61",
"w c #CBCBCB",
"e c #CECECE",
"r c gray59",
"t c #B6B6B6",
"y c #C6C6C6",
"u c #A9A9A9",
"i c #D8D8D8",
"p c gray74",
"a c #A7A7A7",
"s c gray63",
"d c #C0C0C0",
"f c #EAEAEA",
"g c gray89",
"h c gray64",
"j c #E6E6E6",
"k c #E4E4E4",
"l c #CACACA",
"z c gray88",
"x c #DFDFDF",
"c c gray98",
"v c #E9E9E9",
"b c #F4F4F4",
"n c #EFEFEF",
"m c gray90",
"M c #ECECEC",
"N c #8B8B8B",
"B c gray73",
"V c #FEFEFE",
"C c gray96",
"Z c #F6F6F6",
"A c #F8F8F8",
"S c gray97",
"D c gray91",
"F c #FBFBFB",
"G c #CDCDCD",
/* pixels */
"                                ",
"                           .X   ",
"              oOO+@       ##$   ",
"              %&*=*+       *-   ",
"  ;: >&&&o      @**&      **,   ",
" <11@*&****&@    =*&,     &2    ",
" 345*******6*2   7-*8           ",
"7********==&*9   2O*&,27        ",
",*****011q*       9=*&8*w       ",
"2=e-1111111        r*=*-*@      ",
"2-6t111y11u       i11p*&*9      ",
"    asO d9  fg    h1q5 o,       ",
"            ##     1<           ",
"            jk                  ",
"                                ",
"                     @l         ",
"                     -* #       ",
"     zx             l*=##c      ",
"    f#v           >&**7b#n      ",
"    #m         1&O**&** M       ",
"              u11NB   *i        ",
"              :111d             ",
"                   gVx          ",
"                 9*>cC          ",
"                 o**ZA          ",
"            S l   **DX          ",
"         DF## *o  @*6           ",
"     7***+#-=**7   o>           ",
"    o*&&&*****6                 ",
"   G**i,,,,,                    ",
"   OO                           ",
"                                "
};
