/* XPM */
static char *_9e0b3ba06974b99f5523f57543f94cdr3ZBq8T52cvvx4Sf[] = {
/* columns rows colors chars-per-pixel */
"64 64 150 2 ",
"   c #282627",
".  c #2F2D2E",
"X  c #343233",
"o  c #383738",
"O  c #3C3C3D",
"+  c #3E3E40",
"@  c #413F42",
"#  c #434345",
"$  c #464649",
"%  c #48474B",
"&  c #47484B",
"*  c #4A4A4D",
"=  c #4E4E51",
"-  c #4F5053",
";  c #525255",
":  c #555659",
">  c #57595B",
",  c #5A5B5E",
"<  c #5C5E61",
"1  c #5F6163",
"2  c #616466",
"3  c #646669",
"4  c #66696B",
"5  c #696C6E",
"6  c #6C6E71",
"7  c #6E7173",
"8  c #737477",
"9  c #727577",
"0  c #737577",
"q  c #727476",
"w  c #737677",
"e  c #717476",
"r  c #747577",
"t  c #717476",
"y  c #737578",
"u  c #737678",
"i  c #747678",
"p  c #747679",
"a  c #747779",
"s  c #757779",
"d  c #75777A",
"f  c #747679",
"g  c #757879",
"h  c #75787A",
"j  c #76787A",
"k  c #76797A",
"l  c #76787B",
"z  c #76797B",
"x  c #77797B",
"c  c #777A7C",
"v  c #777A7D",
"b  c #76797B",
"n  c #78797B",
"m  c #787A7C",
"M  c #787B7C",
"N  c #787A7D",
"B  c #797A7D",
"V  c #787B7D",
"C  c #797B7D",
"Z  c #7A7B7D",
"A  c #797C7E",
"S  c #7A7C7E",
"D  c #7B7C7E",
"F  c #7B7C7F",
"G  c #7A7D7F",
"H  c #7B7D7F",
"J  c #797C7E",
"K  c #7B7E80",
"L  c #7B7E81",
"P  c #7C7E80",
"I  c #7D7E80",
"U  c #7C7F80",
"Y  c #7C7F81",
"T  c #7D7F81",
"R  c #7E7F81",
"E  c #7C7E80",
"W  c #7D8081",
"Q  c #7D8082",
"!  c #7E8082",
"~  c #7E8183",
"^  c #7F8183",
"/  c #7F8284",
"(  c #7E8183",
")  c #808183",
"_  c #808184",
"`  c #808284",
"'  c #818284",
"]  c #808385",
"[  c #818385",
"{  c #818386",
"}  c #818485",
"|  c #838485",
" . c #818486",
".. c #828486",
"X. c #828587",
"o. c #838587",
"O. c #838687",
"+. c #818486",
"@. c #838688",
"#. c #848688",
"$. c #858688",
"%. c #858789",
"&. c #848788",
"*. c #878888",
"=. c #85888A",
"-. c #86888A",
";. c #86898A",
":. c #87898A",
">. c #86898B",
",. c #87898B",
"<. c #878A8C",
"1. c #86898A",
"2. c #88898B",
"3. c #888A8C",
"4. c #888B8C",
"5. c #888B8D",
"6. c #898C8E",
"7. c #8A8C8E",
"8. c #8B8C8E",
"9. c #8A8D8E",
"0. c #8B8C8F",
"q. c #8A8D8F",
"w. c #8C8D8F",
"e. c #8C8E8F",
"r. c #898C8D",
"t. c #8C8E90",
"y. c #8D8E90",
"u. c #8C8F90",
"i. c #8C8F90",
"p. c #8E9091",
"a. c #8E9092",
"s. c #8F9092",
"d. c #8F9193",
"f. c #909294",
"g. c #929395",
"h. c #949596",
"j. c #949697",
"k. c #929495",
"l. c #959799",
"z. c #969798",
"x. c #959798",
"c. c #97999A",
"v. c #9A9B9C",
"b. c #9E9FA1",
"n. c #9FA0A1",
"m. c #A3A4A5",
"M. c #A6A7A8",
"N. c #A7A8A8",
"B. c #ACACAC",
"V. c #B1B2B2",
/* pixels */
"5 4 2 2 z.5   5 7 3 1 j 4 5.4 , 5 5 3 t 1 : < 2 6 5 5 < 0 ) , 4 5 6 7 , 5 7 ] p.c 5 6 5 4 s t 6 1 7 ,.V 6 V 5 4 5 2 1 5 V 1 ..S ",
"4 < 4 2 e.6 O 6 t 4 2 7 t S s 5 4 4 3 3 1 : ; * 5 7 2 4 7 n 5 4 7 7 4 > < 5 j h.6 7 5 V c 2 4 5 4 7 ..W 6 0 4 5 6 t 5 t Y 4 u Y ",
"4 O : 7 0 5 < 0 7 5 3 1 $.@.5 4 5 4 7 4 2 > % X 0 u 6 t 0 5 6 4 t 7 2 = 1 0 j y...0 1 6 7 5 7 5 s 0 ,.Y V 0 4 1 7 7 s 0 V n 5 W ",
"4 = ; j 0 4 4 0 t 3 < 3 ,...7 7 5 4 0 5 2 < % + 7 6 5 0 7 7 5 2 s 0 2 , * $.V 0.0.3 1 3 6 t W = ,.S V S 0 u 5 2 7 u 7 ,.s u 4 7 ",
"< > , 3 7 5 6 7 7 4 , 5 3 ..7 t 7 4 4 2 1 > : 1 , 0 6 t c : 7 5 u 0 6 1 , Y V / / 5 4 7 = 5 ,.j 6 7 t j c t t 2 4 0 0 p.0., 2 5 ",
"< 1 3 3 4 4 5 6 4 4 1 > t ,.0 6 4 3 4 2 , > 0 < = 4 c 5 s 0 s 7 0 6 ..5 6 7 j W 3 5 6 j : t $.u 5 5 0 u W u t 2 4 7 W 2.h.; , 5 ",
"2 0 > 4 6 3 7 6 6 4 2 = 6 g.j s 5 2 5 1 = S s 4 = O V s S u 7 7 t 6 S 3 s s 6 0 2 < 0 $.] W 0 ; 0.t 7 0 K s 3 3 7 s ] $.S 5 7 5 ",
"j V 5 ; 7 7 7 $.2 t 1 = s t c 7 4 4 2 1 ; 0.t 4 2 o Y S Y s 5 7 t u 7 4 0 5 2 .., 3 u $.e.7 S ; p.t 6 t 0 t 2 6 t W ] 6 Y t Y W ",
"..6 4 5 7 u 6 7 5 u < 1 3 5 j c 3 7 4 2 ; 0.5.t , # Y 0.W S 6 t t c 6 5 7 2 K <.3 3 5 j y.0 Y 0 0 4 6 7 0 0 4 3 5 ] 6 - Y $.u ,.",
"V t 2 7 y./ < * 0 6 4 2 j : 5 4 t u S 3 1 5 ,.W 5 4 j 5.z.W 7 t c S 2 u 6 5 c 5.0 t : 7 g.c t j 5 5 7 7 0 s 7 : 5 ..j 1 ] S V 5.",
"V 7 6 3 g.,.3 # 0 0 4 3 0 2 4 2 u 7 ] 4 0 6 = s s j / K ,.$.S Y @.5 3 ] 5 5 Y S V Y 3 7 ] 7 7 Y 7 6 s 7 u t 7 2 c / Y j 3 t W ,.",
"7 W 7 , t W 7 1 j S j 7 3 3 5 2 0 j j 5 < 0 5 6 3 c @.V K W j ,.y.5 n ,.5 j ] t Y < ..7 u V j 7 s u 0 s s 4 7 @.5 W V c 0 S S K ",
"Y t j 7 7 3 4 5 7 K s t 5 5 < < 6 ,.5 ; 5 2 7 4 < @...Y 7 S @.W Y K j u 5 0 s 7 7 s j 4 $.W s u V c s u c 2 $., , Y ..S s K j S ",
"5., t 0 0 4 3 5 7 s j u 4 2 , 5 $.0.u 1 # 6 4 4 0 5.K W ] j 7 7 c / j ..6 7 7 7 6 s 0 s j $.S t j Y r ..7 5 V * 5 7 $.0.7 u 5 ] ",
"$.2 6 5 s 7 2 4 7 V j t , 3 2 5 p.y.0 6 o 0.7 < W ..$.W ,.c 6 7 V W ; s ..2.4 6 ; s W S S $.s 0 j ..,.V 5 7 4 * 6 7 ,.] 0 V 0 W ",
"S 6 7 5 $.s 3 5 7 s V j , 1 W 7 4 ,.0 < 5 ,.V 3 f.g...z.,.j K K V : 2 5 j N.2 6 , s ..@.W W K 0.7 W 5.6 > 6 < t t S ,.S Y S j j ",
"6 0 6 2 ../ 6 V 0 5 7 $.2 Y ,.7 3 6 3 u @.V b.7 : M.y.M.0.Y s 0 s 5 % 0 V M.3 0 3 s $.5.0.W W g.K Y t 2 3 5 4 ..Y 7 3 7 Y g...7 ",
"6 6 7 5 s S 6 p.t ; 7 S < Y ,.t 5 7 ; 6 W t m.S . v.f.e.k.5.j j j $., S p.) 1 j 5 0 @.c.p.] y.5.4 4 V 6 5 6 7 V Y < 3 u ..5.W 7 ",
"7 3 4 7 u 5 4 ,.j < 7 t 1 7 W j j 4 , W 7 s m.s > M.m./ S W ..j W ..V @.t 1 0 W t S ,.b.$.$.Y z.t V W 7 5 6 0 j Y < 2 $.@.j s 7 ",
"4 , : ; s 0 7 7 W 0 7 7 5 5 u 0 0 < 5 ] s j ,.c / c.c.W W s j 0 S ..S 0 7 s / ] ] 5.,.k.u 7 ,.k.$...s 4 c j 5 j j 5 2 W V ; 7 3 ",
"5 2 : * , Y s V W u 6 3 6 1 4 j 5 5 V K j p.Y j 7 c 5.S $.K j s Y S t W Y ] y.,.@.0.5.t Y 5 W g.y.v.2 ; 7 k.7 0 0 c j S * # 6 3 ",
"6 7 2 % # j s j K / 0 7 4 , 3 7 0 S j S S 0 6 K S 7 u j S / V V c 1 s $.p.y.c.5...p.j u K K ] 0.k.k.] % 0 y.7 0 W / u S X ; 4 5 ",
"V Y , + + u ] 5 j 5 Y 7 1 + 5 6 V j ,.,.S j # 6 j t.t t S < Y 7 3 4 j d.v.n.W 0...p.2 W s / y.Y g.0.,.t S : 0 5.W ] 7 7 . * 5 7 ",
"5 4 , * # W t s 6 5 $.7 4 : < < s j t...7 j O , <.0.s 6 j 5 5.7 3 5 V k.M.5 v.$...g.6 S , c 5.0.,.0.0.j W 2 j $.W 6 0 6 + # 5 6 ",
"3 1 = , : ] 6 6 7 c S j t > , # 6 c y.,.V t X 5 @./ V 2 j g.,.7 s V V 0.v.5.p.v.v.u 4 4 3 s $.k.@.$.g.V K c t 0 7 6 < 3 3 % 4 6 ",
"1 < ; 3 2 0 4 6 u 2.] 5 <.4 1 * : / ] s j 7 2 0 5.j Y 2 7 p.t.s 7 W s $...p.c.N.v.5 4 0 6 j p.0...c.$.0 s 4 c 5 4 % : 7 4 V 5 t ",
"4 , ; 0 0 2 6 3 W 4 j 6 5 6 < , # ..,.t 4 6 t 6 c., 0 6 3 W p.c 7 t c 5 S v.m.M.n.Y 0 S V j ,...k.k.0 5 7 u V 6 , O , 7 4 s W Y ",
", : 6 0 4 , 3 2 6 s 0 6 5 3 : , : K $.j 2 3 7 4 ] c $.0 2 < $.Y 0 ..W * ] z.m.v.V.f.0 / W j ,.j @.s 5 j t ..u 5 # + ; 6 7 t 7 S ",
"2 3 6 4 3 1 , > ; 7 0 6 6 4 < : t W K 7 2 7 7 6 3 y.,.j 5 > t W 7 W c ; Y 0.M.y.z.B.v.W ..W u ; $.u S W S 0.s 7 . . : 5 7 7 6 0 ",
"3 5 4 4 4 4 , = % 2 t 7 7 0 7 5 7 j t 4 u s 4 < : k.5.j S 2 6 K t 7 S 5 j k.p.5.0.c.V.g...c 1 < t.u ] W K W t 4 O X 1 5 6 7 t 7 ",
"3 6 6 6 0 u 1 # # 6 S 5 t 7 0 7 7 u t 7 4 j 5 1 , 0.p.] 7 : ..s 7 0 7 t Y 0.V 0.,.p.n.V.5.u , 5 p.V Y K j j 5 3 2 # < 6 7 6 5 0 ",
"5 5 5 5 3 4 , ; * Y t t t t 0 u j s 6 7 6 j 7 4 5 S ,.W 5 7 c c c 6 0 7 c S W W 5.$.,.m.v...u 7 ....W W V K 1 6 4 j 5 u S 6 u 0 ",
"] 3 7 2 3 4 , 1 < @.0 5 s 7 6 6 ..j 7 6 t 6 5 t j S S 0 0 0 7 7 6 K S c u V ..0.<.V v.k.v.p.W j K @.$./ K W 6 j 7 u ] 0 s Y 0 0 ",
"5.5 6 t 7 7 5 7 5 S u 5 Y 6 6 t y.,.W 7 7 4 ; 5 S j 6 7 n 7 7 6 t W 0 6 s V 0.b.y.0 ..S c.k.,.] s / @.] / Y V S 0 t ] s j ,.5 K ",
"j Y S 4 7 j 7 c j u t 6 6 j 5 t g.c.4 7 7 4 # 3 ,.3 u j u S 6 4 s 4 < 7 j W p.D v.3 j W c.,.Y V 6 W 5.V ..j c c 0 j W s / 0 6 c ",
"..j 5 , s W c K u j 0 0 4 $.5 ; 0.$.S u 7 < # 5 W V Y 7 5 S 7 3 4 0 1 6 u Y d.v.,.1 t ..V p.S u j W V V d.t s u 7 5 4 S v.j j 7 ",
"0.0 0 : 3 7 ] ,.S j t 0 5 $.2 3 g.t K 0 4 1 > 7 j Y c V 3 4 0 6 t u 5 s s S z.g.W t s j Y $.$.5 K W c ] K Y ..7 s o 6 s m...4 < ",
"Y u u 3 t > 4 / V s 0 t 7 t 5 1 ] c Y 0 0 0 7 j 7 0 0 5 6 6 t 6 7 6 c 7 7 ,.0.V s u 7 K W V V t ] W W K j u ..] K O 2 V m...: 6 ",
"W 7 u 0 6 2 < j S 0 0 0 7 7 6 5 4 7 5 7 0 j 0 7 u 0 u 7 6 6 s s j 5 $.g.7 5.j 6 4 / 5 W $.5 j ..7 0.S S j t s ,.W * n S M.5 - u ",
"7 6 j V 4 4 ; 5 / u s s 6 t 7 / 7 3 , , s j j 7 0 7 s 7 u 5 S / 5 : c v.5.6 Y s 7 s 6 V ....u ,.3 0.0 ] j 0 0 ,.$.% 5.g.$.; , 2 ",
"% @ Y j 6 1 ; 2 W V 7 t u s S ..7 5 , * u 7 6 4 6 5 j 0 0 / u j 5 < u 0.v.0 j 6 j u t 0 j $.2 2.] V c 0.t t c ....S s j 0 = 7 X ",
"> , ..S t 5 : : j Y V 7 5 4 V ..6 3 5 O s 0 3 3 7 6 j 5 W y.7 5 V > S h.$.3 S 7 c s t 7 S @.t ,.W S y.j 3 5 3 7 0.h.0 j 5 : Y # ",
"7 j 5.5 0 0 , @ 6 ..K u ; 5 0 ..7 4 4 : t 7 3 7 0 6 7 6 ] s 0 6 c u ] W V 6 K 7 0 s 0 6 K 0.V k.j S s 1 1 j , 0 v...S p.5 < 3 0 ",
"s 7 W s W t , : 2 Y j 6 7 t 3 S S > 2 5 6 s < 5 6 4 5 6 s u s s j S S S Y Y 7 7 s j V 0 W W ..0.S V 2 , 4 j 5 s h.m.t ,.j 1 = 7 ",
"u S $.0 0 j 5 4 5 S j t c 6 5 6 V : 7 5 s 7 1 3 3 1 6 5 7 s 0 7 j ..K 0 j S u j 6 V S j S W V W $.t , 2 6 t V ] v.g.] ,.u 6 2 5 ",
"$.g...S 5 3 ; 7 V s 0 j 7 4 7 t 4 7 0 6 c 4 2 4 < 5 < 5 c c 6 c 6 ,.7 2 s V V ] 2 ..K j s K 0 c ..6 = 3 t K 0 ..0.g.t ] 0.t c j ",
"v.v.V j 5 6 = 1 c 0 t t t 7 / 6 > % j 5 6 6 3 4 3 3 5 4 6 0 7 K j S > 3 s $.,.g.W j 5 ,.7 t S s K 0 ; 1 0 s V S 0.k.6 $.0.S ] o.",
"0.y...7 0 4 , : S u s c 4 5.S 6 3 X 5 j 5 4 5 6 1 7 6 5 7 4 s 0 4 5 , 3 c S W 0.] V , 6 W 0 6 ..W 6 5 > t 0 V ..<.$.V V S $.S W ",
"$., / u s 5 2 # ] 6 V s 6 ....7 > % 7 2 t 5 6 6 S t 5 2 < 4 j 6 6 j 1 < 0 j ..0.S 5 * 6 W S 4 W Y K Y , j c K ,.k.W ..7 S ..W , ",
"..s j j V 0 % > K 0 u 6 5 5 S 0 : 7 5 5 ; t 4 W 0.5 4 < > 2 3 4 7 t V , t s ,...7 7 : 6 ..u 5 c j c S t ..S V g.$.V K 5 V c ..5 ",
"S 0...S j 4 5 5 t 7 5 5 3 4 0 4 7 s 5 4 1 2 S W j 5 t 4 , , , 2 t c 0 6 s 6 W Y 6 t 5 s j 4 0 0 s u j V / $...] 7 7 0 2 4 s s 0.",
", : ,...u 4 , S u s 6 5 5 6 7 4 3 6 5 5 4 ] ] S $.7 6 5 5 1 - < 7 c u 0 0 s c s t 5 5 5 5 5 s 7 0 u j Y Y $.$.t 4 4 < , 3 j S $.",
"2 + ; $.s 3 5 / 0 j 0 6 6 t 7 2 2 4 4 6 6 c.$.W 6 2 5 5 6 6 = > 5 5 Y W t 7 j 4 H < 0 2 4 0 6 t 7 W j V ..$.$.4 < < = 2 6 t j ] ",
": , O t u j < V 4 Y 2 5 6 6 j 4 6 , 1 6 ] ] p.Y > : 2 S j 6 ; = 1 3 s $.j 0 s 4 s 5 c 2 t 1 5 j S Y c V K ..W 6 - % , 4 6 t 0 j ",
"3 = # , 0 S 7 , 4 S 2 5 7 7 5 7 6 2 , 3 V z.Y ..2 # ; ,.S 5 , * > , j 0.7 7 j 7 5 0 u 6 2 2 6 t @.j Y s Y W W s . ; 4 5 6 W 7 0 ",
"5 > # : c ] 7 2 > 4 t 3 7 6 2 6 4 7 1 , 2 g...] s 2 3 s 7 5 : : 2 2 j Y t j t s j 4 5 0 < < V j 0 7 t S S S / Y O * 4 5 7 j V 5 ",
"5 ; O 6 u V c 2 3 6 4 2 4 6 4 2 3 3 , 2 6 ,.Y Y $.6 7 7 6 2 ; 3 3 t 7 5 s c j s 2 0 : s 7 3 4 6 j 7 5 S j Y K ) ; # 1 4 6 0 0 6 ",
"5 = O 2 S s t 5 S 4 1 # < 4 7 3 1 4 , 1 7 ,.Y S j V 6 6 5 ; : 0 j 0 V 5 V 7 s 7 , 5 W 7 2 5 4 7 7 6 t S 4 ] j S * = , 4 5 5 7 6 ",
"< > : 2 7 j t 5 ..5 5 O ; 7 5 3 > 1 2 4 3 5 V s c V u 5 3 1 : 5 c K # u v.3 7 Y , j u 4 t 6 4 t 6 4 6 s 7 Y 5 t * 5 * 2 6 4 t t ",
", & 5 5 s 6 t 4 ..7 5 O 3 7 5 1 < 5 4 5 4 7 2 6 S 0 0 6 6 2 t t 5 W # ] c.3 0 ] 7 0 4 3 j 7 5 7 t < 0 6 V 6 S 4 4 1 > 1 5 t 7 6 ",
"2 2 7 5 6 6 5 2 7 V = = 3 3 5 1 1 6 7 4 5 5 3 5 7 5 0 j 2 3 5 t 4 7 0 W 7 j W ] S 5 6 7 2 u 7 3 5 1 4 s j j s 0 4 6 , < < V V t ",
"7 4 2 2 7 6 2 4 4 7 4 1 : 7 5 # , s 3 < 2 5 3 4 5 5 2 V 7 2 3 7 5 6 7 u j S ] j ] 7 5 & > t 4 1 $.5 2 7 Y V 6 7 6 5 5 4 4 t S S ",
"7 4 3 4 4 = 6 > 3 3 1 < > j 5 * 2 6 < : ; , 4 3 4 2 > 3 5 , 0 4 t % 0.6 t V V 5 j 6 , O 1 5 S 7 t 3 4 4 5 7 V 5 4 5 3 2 s ] s 4 ",
"7 2 < 0 4 - 6 : < 2 < 3 > s 1 > > 7 , 2 & * : 5 3 < < * 4 4 s 5 5 < s 5 6 S H ; s S > + 1 5 W S 2 2 3 5 4 j 6 2 1 5 5 2 j 0 n 2 "
};
