/* XPM */
static char *result[] = {
/* columns rows colors chars-per-pixel */
"64 64 89 1 ",
"  c gray87",
". c LightGray",
"X c gray84",
"o c #B4B4B4",
"O c gray65",
"+ c #A2A2A2",
"@ c gray64",
"# c #CECECE",
"$ c gray86",
"% c #DFDFDF",
"& c #E1E1E1",
"* c gainsboro",
"= c #AEAEAE",
"- c gray80",
"; c gray88",
": c #CBCBCB",
"> c #D2D2D2",
", c gray70",
"< c gray69",
"1 c #C8C8C8",
"2 c gray78",
"3 c #DADADA",
"4 c gray91",
"5 c white",
"6 c gray96",
"7 c #A9A9A9",
"8 c #A5A5A5",
"9 c #A4A4A4",
"0 c gray92",
"q c gray99",
"w c gray68",
"e c #FEFEFE",
"r c gray89",
"t c gray94",
"y c #F8F8F8",
"u c #CACACA",
"i c #D5D5D5",
"p c #DDDDDD",
"a c gray98",
"s c gray76",
"d c #ACACAC",
"f c #A7A7A7",
"g c #B7B7B7",
"h c #B2B2B2",
"j c gray85",
"k c #F9F9F9",
"l c #FBFBFB",
"z c #F4F4F4",
"x c gray72",
"c c #BCBCBC",
"v c #F3F3F3",
"b c #E9E9E9",
"n c gray93",
"m c #D8D8D8",
"M c gray67",
"N c #D7D7D7",
"B c gray79",
"V c #CDCDCD",
"C c #B1B1B1",
"Z c gray95",
"A c #F1F1F1",
"S c gray83",
"D c #AFAFAF",
"F c gray81",
"G c #FDFDFD",
"H c gray",
"J c gray77",
"K c gray82",
"L c #B6B6B6",
"P c gray71",
"I c #D0D0D0",
"U c #C5C5C5",
"Y c gray74",
"T c #EAEAEA",
"R c #B9B9B9",
"E c #C1C1C1",
"W c #E6E6E6",
"Q c #E4E4E4",
"! c gray90",
"~ c #AAAAAA",
"^ c gray75",
"/ c #EFEFEF",
"( c #ECECEC",
") c #C6C6C6",
"_ c gray97",
"` c #F6F6F6",
"' c #C0C0C0",
"] c gray73",
"[ c #C3C3C3",
/* pixels */
"                                                                ",
"                                                      .X        ",
"                                                 oooooO++@#$    ",
"   %&%                                        *=ooooooo+++++-   ",
"   &; :>                                      ,<ooooooo+++++1   ",
"   &#223              %4                     567ooooooo8+++++9  ",
"   &222%%            ;05                     5q8ooooooooo,+++w  ",
"    222,            &5e55                  rte5ooooooooooooooo  ",
"    :22o            ye5552222222uip        5ae5sooooo8,ooooooo  ",
"     22d         $:>55eq5i.                eqe55;oooof++Oooooo  ",
"     ghOo      #22-jq5555k22:               lzz55622ooo++oooo8* ",
"     #xxc    >2u322   v5b  p-2                n55m122ooh+oooM+N ",
"          X22BN$1V   :>5     #2.               552222ooooooC++  ",
"         $2$   1.    p2b      *2X              ZAm222,ooooo7+N  ",
"        i2.   V2      S#       $-                 222+CoooDO    ",
"       *2X   V1        j        m*                *12++++++2    ",
"      p.S   p2         p                            BF+++++$    ",
"            jj                    p        Gq       $11222      ",
"                              j>>Xp$p     55&        2222       ",
"                              i12B2N#.     2-        m222       ",
"                  HJ K1F3       *221 2    22j                   ",
"                 Voo*212-K>K*    B21j     1p                    ",
"                 igc2222211F2p   3-2.                           ",
"  p             322222222BB12$   p>21jp3                        ",
" *              j22222LooPI       $B21.2:                       ",
" .   uK         pB#.oooooPo        D2B2-2*                      ",
"Xu  p22  $      p-FUoooFooY       3oos212$                      ",
"23  -22  #          cxN :*  Tr    RoPE Nj                       ",
">   u22                     55     o-                           ",
"    V2Kl56                  WQ                                  ",
"    p2XG55z                                                     ",
"    >BV!55                           *u                         ",
"    S112u~<                          -2 5                       ",
"    p2222oh          ;%             u2B55a                      ",
"    ee5X^oi         T5b           K1223z5/                      ",
"    55GN+S          5!         oIi22122 (                       ",
"    55!+@                     Yoo+)   2m                        ",
"    555H                      Jooo:                    og       ",
"    555u                           re%                 ooJ      ",
"   %55                           $2Ka6                 goo      ",
"   Z5_                           N22`y                 *o       ",
"    Z                       _ u   224q                 'P       ",
"                         4l55 2N  *2F                 ULoL      ",
"                     3222X5-B223   NK                 ooooH     ",
"                    N2UhH22222F                         ooo     ",
"                   V2@D<xxEj                            uoY     ",
"                   >wooooo]                                     ",
"                  $LooooPo                                      ",
"                  soooS                 mK.                     ",
"                oooo^                   2VI2K                   ",
"               uPoj                     2rtI2p                  ",
"               oxg                      2r!Iu>                  ",
"               ]o                        1222i                  ",
"                                         -22)xo                 ",
"                                         21#1oP                 ",
"                                        y!lVsgR                 ",
"          uu                           r5!r2]o]                 ",
"      B2222N                             T:F2gp                 ",
"     V1g+P2                                 32                  ",
"    :2howi                                  #2N                 ",
"   3s,o[*                                                       ",
"                                                                ",
"                                                                ",
"                                                                "
};
