/* XPM */
static char *eaa5d925e59b4787c9e0017ba6b72d30P3LMEUAcllJzGv8e[] = {
/* columns rows colors chars-per-pixel */
"64 64 4 1 ",
"  c black",
". c #585858",
"X c gray53",
"o c white",
/* pixels */
"                          oooooooooooo                          ",
"                      oooooooooooooooooooo                      ",
"                   oooooooooooooooooooooooooo                   ",
"                 oooooooooooooooooooooooooooooo                 ",
"               oooooooooooooooooooooooooooooooooo               ",
"              oooooooooooo            oooooooooooo              ",
"             oooooooooo                  oooooooooo             ",
"           ooooooooo                        ooooooooo           ",
"          oooooooo                      oo    oooooooo          ",
"         oooooooo                       oooo   oooooooo         ",
"        ooooooo                           oooo   ooooooo        ",
"       ooooooo                              ooo   ooooooo       ",
"       oooooo                                ooo   oooooo       ",
"      oooooo                                  ooo   oooooo      ",
"     oooooo                                    ooo   oooooo     ",
"    oooooo                                      ooo   oooooo    ",
"    oooooo                                       ooo  oooooo    ",
"   oooooo                                         ooo  oooooo   ",
"   ooooo                                           oo   ooooo   ",
"  oooooo                                            oo  oooooo  ",
"  ooooo                                             ooo  ooooo  ",
"  ooooo                                              oo  ooooo  ",
" oooooo                                                  oooooo ",
" ooooo                                                    ooooo ",
" ooooo                                                    ooooo ",
" ooooo                                                    ooooo ",
"ooooo                                                      ooooo",
"ooooo                                                      ooooo",
"ooooo                                                      ooooo",
"ooooo                                                      ooooo",
"oooooo                                                    oooooo",
"oooooooooooooooooooooooooooooooooooooooooooooooooooooooooooooooo",
"oooooo                                                    oooooo",
"oooo  oooooooooooooooooooooooooooooooooooooooooooooooooooo  oooo",
"ooo ooooooooooooooooooooooooooooooooooooooooooo  o      oooo ooo",
"ooo oooooooooooooooooooooooooooooooooooooooooo   o  oo  oooo ooo",
"ooo ooooooooooooooooooooooooooooooooooooooooo   oo oo   oooo ooo",
"ooo oooooooooooooooooooooooooooooooooooooooo   ooooo   ooooo ooo",
" ooo oooooooooooooooooooooooooooooooooooooo   ooooo   ooooo ooo ",
" ooo oooooooooooooooooooooooo     ooooooooo      o   oo ooo ooo ",
" ooo oooooooooooooooooooooo         ooooooo      o  oo  ooo ooo ",
" ooo  oooooooooooooooooooo       oo  ooooooooo   o      oo  ooo ",
"  ooo ooooooooooooooooooo         oo  oooooooo   ooooooooo ooo  ",
"  ooo ooooooooooooooooooo          o  oooooooooooooooooooo ooo  ",
"  oooo ooooooooooooooooo               oooooooooooooooooo oooo  ",
"   ooo oooooooooooooooo .             . ooooooooooooooooo ooo   ",
"   oooo ooooooooooooooo ............... oooooooooooooooo oooo   ",
"    ooo  oooooooooooooo .             . ooooooooooooooo  ooo    ",
"    oooo ooooooooooooooo XXXXXXXXXXXXX oooooooooooooooo oooo    ",
"     oooo ooooooooooooooo XXXXXXXXXXX oooooooooooooooo oooo     ",
"      ooo  oooooooooooooo XXXXXXXXXXX ooooooooooooooo  ooo      ",
"       ooo  oooooooooooooo XXXXXXXXX ooooooooooooooo  ooo       ",
"       oooo  oooooooooooooo  XXXXX  ooooooooooooooo  oooo       ",
"        oooo  ooooooooooooooo     oooooooooooooooo  oooo        ",
"         oooo  oooooooooooooooooooooooooooooooooo  oooo         ",
"          ooooo  oooooooooooooooooooooooooooooo  ooooo          ",
"           oooooo oooooooooooooooooooooooooooo oooooo           ",
"             oooooo oooooooooooooooooooooooo oooooo             ",
"              oooooo   oooooooooooooooooo   oooooo              ",
"               oooooooo   oooooooooooo   oooooooo               ",
"                 ooooooooo            ooooooooo                 ",
"                   oooooooooooooooooooooooooo                   ",
"                      oooooooooooooooooooo                      ",
"                          oooooooooooo                          "
};
