/* XPM */
static char *_2546ce4b16e46978a932f969c8cc6ecNsYf5x5yC2cZ09Go[] = {
/* columns rows colors chars-per-pixel */
"64 64 195 2 ",
"   c #070808",
".  c #0A0A0C",
"X  c #0C0E12",
"o  c #0E1013",
"O  c #0D111D",
"+  c #131315",
"@  c #141519",
"#  c #15191D",
"$  c #1A1A1B",
"%  c #121820",
"&  c #1D1F24",
"*  c #141A28",
"=  c #1F2025",
"-  c #16243F",
";  c #19223C",
":  c #222425",
">  c #24262B",
",  c #27282C",
"<  c #2C2C2E",
"1  c #282627",
"2  c #3B382C",
"3  c #2B2E32",
"4  c #252C37",
"5  c #2E3135",
"6  c #2D323B",
"7  c #22313F",
"8  c #333436",
"9  c #34363A",
"0  c #383738",
"q  c #36383B",
"w  c #3A3B3D",
"e  c #0F2D48",
"r  c #132A42",
"t  c #1C2E42",
"y  c #112641",
"u  c #232E40",
"i  c #2B3442",
"p  c #273646",
"a  c #363A42",
"s  c #3B3E42",
"d  c #393F48",
"f  c #2B3E53",
"g  c #413F42",
"h  c #3E4043",
"j  c #3D424A",
"k  c #3C4451",
"l  c #3B4D5E",
"z  c #124A66",
"x  c #1D5771",
"c  c #335165",
"v  c #264B73",
"b  c #2E5873",
"n  c #424345",
"m  c #43454A",
"M  c #46494D",
"N  c #4A4B4D",
"B  c #494848",
"V  c #464A51",
"C  c #4C4E52",
"Z  c #454F5A",
"A  c #4E5053",
"S  c #4B515B",
"D  c #525255",
"F  c #54565A",
"G  c #56585B",
"H  c #5A5B5E",
"J  c #5F605E",
"K  c #7C7A5C",
"L  c #65675B",
"P  c #555961",
"I  c #5C5E61",
"U  c #4D5866",
"Y  c #5E6163",
"T  c #5D6169",
"R  c #616466",
"E  c #646669",
"W  c #66696B",
"Q  c #696C6E",
"!  c #797867",
"~  c #666A72",
"^  c #6C6E71",
"/  c #656770",
"(  c #6E7173",
")  c #6E727A",
"_  c #717476",
"`  c #747679",
"'  c #76797B",
"]  c #7B7D7F",
"[  c #797C7E",
"{  c #797B7E",
"}  c #7F817F",
"|  c #B1AB5C",
" . c #86826D",
".. c #999467",
"X. c #99966C",
"o. c #8B8B77",
"O. c #A6A46C",
"+. c #A8A465",
"@. c #B2AF69",
"#. c #B9B66F",
"$. c #A4A278",
"%. c #BCB976",
"&. c #3B738A",
"*. c #296BA0",
"=. c #54758E",
"-. c #507F99",
";. c #517597",
":. c #496983",
">. c #757981",
",. c #7B7E80",
"<. c #7C7F81",
"1. c #7B7E81",
"2. c #7A7F88",
"3. c #3E94BB",
"4. c #2B85B9",
"5. c #7E8183",
"6. c #7D8082",
"7. c #7F8284",
"8. c #7E8183",
"9. c #7D8189",
"0. c #64899E",
"q. c #77889E",
"w. c #4E8BAD",
"e. c #518DAF",
"r. c #5695B6",
"t. c #818385",
"y. c #818285",
"u. c #828586",
"i. c #818486",
"p. c #838689",
"a. c #858789",
"s. c #838689",
"d. c #86898A",
"f. c #878888",
"g. c #86898C",
"h. c #888A8C",
"j. c #8A8C8E",
"k. c #898C8D",
"l. c #868883",
"z. c #8F9088",
"x. c #919181",
"c. c #858A92",
"v. c #8C8E90",
"b. c #8B8D92",
"n. c #8B8F99",
"m. c #858791",
"M. c #8E9193",
"N. c #8E929A",
"B. c #919294",
"V. c #929496",
"C. c #93969B",
"Z. c #96999D",
"A. c #9A9B9D",
"S. c #969A90",
"D. c #A09E82",
"F. c #AAA894",
"G. c #BBBE9D",
"H. c #8F97A4",
"J. c #9296A0",
"K. c #969AA3",
"L. c #9A9DA3",
"P. c #9C9FA9",
"I. c #9DA2A9",
"U. c #9FA0A1",
"Y. c #A2A3A3",
"T. c #A1A5AD",
"R. c #A5A8AC",
"E. c #B4B5A7",
"W. c #A3A7B0",
"Q. c #A5AAB3",
"!. c #AAAEB6",
"~. c #ABAFB8",
"^. c #AEB2BA",
"/. c #B1B1B2",
"(. c #B1B5BC",
"). c #B4B9BF",
"_. c #BFC3BE",
"`. c #C6C58F",
"'. c #C2C097",
"]. c #C4C7B8",
"[. c #B3B7C1",
"{. c #B5BAC2",
"}. c #B9BDC5",
"|. c #BABFC9",
" X c #BDC2CA",
".X c #BCC0C7",
"XX c #C2C5CC",
"oX c #C4C8CF",
"OX c #C1C5C3",
"+X c #C6C9D1",
"@X c #CACED4",
"#X c #CDD1D7",
"$X c #CED2D8",
"%X c #D2D5DA",
"&X c #D5D8DD",
/* pixels */
"Q W R R C.Q 1 Q ( E Y ' W h.W H Q Q E _ Y F I R ^ Q Q I _ t.H W Q ^ ( H Q ( t.M.' Q ^ Q W ` _ ^ Y ( d.{ ^ { Q W Q R Y Q { Y u.] ",
"W I W R j.^ w ^ _ W R ( _ ] ` Q W W E E Y F D N Q ( R W ( ' Q W ( ( W G I Q ' V.^ ( Q { ' R W Q W ( u.6.^ _ W Q ^ _ Q _ <.W ` <.",
"W w F ( _ Q I _ ( Q E Y a.p.Q W Q W ( W R G M 8 _ ` ^ _ _ Q ^ W _ ( R C Y _ ' v.u._ Y ^ ( Q ( Q ` _ d.<.{ _ W Y ( ( ` _ { ' Q 6.",
"W C D ' _ W W _ _ E I E d.u.( ( Q W _ Q R I B s ( ^ Q _ ( ( Q R ` _ R H N a.{ j.j.E Y E ^ _ 6.C d.] { ] _ ` Q R ( ` ( d.` ` W ( ",
"I G H E ( Q ^ ( ( W H Q E u.( _ ( W W R Y G F Y H _ ^ _ ' F ( Q ` _ ^ Y H <.{ 7.7.Q W ( C Q d.' ^ ( _ ' ' _ _ R W _ _ M.j.H R Q ",
"I Y E E W W Q ^ W W Y G _ d._ ^ W E W R H G _ I C W ' Q ` _ ` ( _ ^ u.Q ^ ( ' 6.E Q ^ ' F _ a.` Q Q _ ` 6.` _ R W ( 6.h.V.D H Q ",
"R _ G W ^ E ( ^ ^ W R C ^ V.' ` Q R Q Y C ] ` W C w { ` ] ` ( ( _ ^ ] E ` ` ^ _ R I _ a.t.6._ D j._ ( _ ,.` E E ( ` t.a.] Q ( Q ",
"' { Q D ( ( ( a.R _ Y C ` _ ' ( W W R Y D j._ W R 0 <.] <.` Q ( _ ` ( W _ Q R u.H E ` a.j.( ] D M._ ^ _ _ _ R ^ _ 6.t.^ <._ <.6.",
"u.^ W Q ( ` ^ ( Q ` I Y E Q ' ' E ( W R D j.h._ H n <.j.6.] ^ _ _ ' ^ Q ( R ,.g.E E Q ' v._ <._ _ W ^ ( _ _ W E Q t.^ A <.a.` d.",
"{ _ R ( v.7.I N _ ^ W R ' F Q W _ ` ] E Y Q d.6.Q W ' h.C.6.( _ ' ] R ` ^ Q ' h._ _ F ( V.' _ ' Q Q ( ( _ ` ( F Q u.' Y t.] { h.",
"{ ( ^ E V.d.E n _ _ W E _ R W R ` ( t.W _ ^ C ` ` ' 7.<.g.g.9.p.s.' ( t.Q Q <.] { <.E ( t.( ( <.( ^ ` ( ` _ ( R ' 7.<.' E _ 6.d.",
"( 6.( H _ 6.( Y ' ] ' ( E E Q R _ ' ' Q I _ Q ^ E ' p.a.X.| #.%.#.@.O.z.' ,.t._ <.I u.( ` { ' ( ` ` _ ` ` W ( p.Q 6.{ ' _ ] ] ,.",
"<._ ' ( ( E W Q ( ,.` _ Q Q I I ^ d.Q D Q R ( W R g.+.%.G._. XXXXXOX].`.#.x.{ ( ( ` ' W a.6.` ` { ' ` ` ' R a.H H <.u.] ` ,.' ] ",
"h.H _ _ _ W E Q ( ` ' ` W R H Q a.j.` Y n ^ W ^ l.@.E.[.}..XXXXXoXoXXXXXXX'.$.' ^ ` _ ` ' a.] _ ' <.` u.( Q { N Q ( a.j.( ` Q t.",
"a.R ^ Q ` ( R W ( { ' _ H E R Q M.v._ ^ 0 j.( } O.R.^.)..XXXXX+X+X+XoXXX.X}.E.D.H ` 6.] ] a.` _ ' u.d.{ Q ( W N ^ ( d.t._ { _ 6.",
"] ^ ( Q a.` E Q ( ` { ' H Y 6.( W d._ I Q d.s...Z.Q.(.}.|.XX+X@X#X@X@X XoXoX[.F.o.` u.p.6.6.,.j.( 6.h.^ G ^ I _ _ ] d.] <.] ' ' ",
"^ _ ^ R u.7.^ { _ Q ( a.R <.d.( E ^ E ` p.<.X.h.I.!.[.(..XXX+X$X%X$X@XoXXXoX.X(.$.] a.h.j.6.6.V.,.<._ R E Q W u.<.( E ( <.V.u.( ",
"^ ^ ( Q ` ] ^ M._ D ( ] I <.d._ Q ( D ^ 6.,.K N.I.~.(.}.XXoX@X&X&X%X#X#XXX.X}.[.Q.o.p.Z.M.t.v.h.W W { ^ Q ^ ( { <.I E ` u.h.6.( ",
"( E W ( ` Q W d.' I ( _ Y ( 6.' ' W H 6.( ! ) N.P.Q.!.[.}..X@X%X%X$X$X@XoX}.}.(.!.S.h.L.a.a.<.C._ { 6.( Q ^ _ ' <.I R a.p.' ` ( ",
"W H F D ` _ ( ( 6._ ( ( Q Q ` _ _ I Q t.` L >.n.K.W.!.[.{..X@X@X$X%X@X+XoX}.[.(.Q.J.j.V.` ( d.V.a.u.` W ' ' Q ' ' Q R 6.{ D ( E ",
"Q R F N H <.` { 6.` ^ E ^ Y W ' Q Q { ,.2.F ) N.J.P.!.(.{.}.|. X+X+XXXXX.X[.^.(.Q.K.q.s.<.Q 6.V.v.A.R D ( V.( _ _ ' ' ] N n ^ E ",
"^ ( R M n ' ` ' ,.7._ ( W H E ( _ ] ' n.;.Z R 2.N.C.T.^.^.^.^.{..X}.}.}.[.^.~.!.Q.L.w.H.n.,.t.j.V.V.t.M _ v.( _ 6.7.` ] 8 D W Q ",
"{ <.H s s ` t.Q ' Q <.( Y s Q ^ { ' n.T.e.l V E 9.n.N.L.I.W.(.[.[.(.[.(.~.Q.!.T.I.J.r.[.L.c.v.<.V.j.d._ ] F _ h.6.t.( ( < N Q ( ",
"Q W H N n 6._ ` ^ Q a.( W F I I ` ]  .P.0.c a V ^ 2.s.c.P.Q.!.^.~.(.^.!.W.I.I.C.n.c.3.(.F.b.h.j.d.j.j.' 6.R ' a.6.^ _ ^ s n Q ^ ",
"E Y C H F t.^ ^ ( ' ] ' _ G H n ^ p.K g.-.x 9 s C ) 9.m.C.I.T.Q.!.I.I.I.I.J.N.N.s.=.4.W...g.a.V.p.a.V.{ ,.' _ _ ( ^ I E E M W ^ ",
"Y I D E R _ W ^ ` h.t.Q g.W Y N F p.^ J :.z 6 q s C ~ 2.m.n.n.N.C.C.J.C.J.N.c.p.^ &.*.L.! p.M.j.u.Z.a._ ` W ' Q W M F ( W { Q _ ",
"W H D _ _ R ^ E 6.W ' ^ Q ^ I H n a.d.G k e 6 q 9 a V E ^ 2.9.9.9.m.n.9.9.9.` E F b v E ] <.d.u.V.V._ Q ( ` { ^ H w H ( W ` 6.<.",
"H F ^ _ W H E R ^ ` _ ^ Q E F H F ,.g.9.~ f p 9 9 9 w M I ^ ^ ^ ) ` >.) ~ T F M s p U g.a.,.d.' p.` Q ' _ u.` Q n s D ^ _ _ ( ] ",
"R E ^ W E Y H G D ( _ ^ ^ W I F _ 6.,.` ^ 2.F s 9 q 9 q s s m C F F F F C h q q n c.Z.t.u.6.` D a.` ] 6.] j.` ( < < F Q ( ( ^ _ ",
"E Q W W W W H C M R _ ( ( _ ( Q ( ' _ W ` { ' M 9 9 9 9 9 5 8 9 a q 9 w 9 9 9 h ` Z./.V.u.' Y I b.` t.6.,.6._ W w 8 Y Q ^ ( _ ( ",
"E ^ ^ ^ _ ` Y n n ^ ] Q _ ( _ ( ( ` _ ( W ' ` ) q 9 9 9 9 9 9 9 5 5 8 9 9 9 9 I M.M.U./.h.` H Q M.{ <.,.' ' Q E R n I ^ ( ^ Q _ ",
"Q Q Q Q E W H D N <._ _ _ _ _ ` ' ` ^ ( ^ ,.n.J.4 9 8 5 8 9 9 9 5 5 8 8 9 9 3 ~ N.g.d.U.A.u.` ( u.u.6.6.{ ,.Y ^ W ' Q ` ] ^ ` _ ",
"t.E ( R E W H Y I p._ Q ` ( ^ ^ u.' ( ^ ' c.>.d * @ 5 5 3 5 3 3 3 3 3 5 5 & O d ( p.A.V.A.M.7.' ,.p.a.7.,.6.^ ' ( ` t._ ` <._ _ ",
"h.Q ^ _ ( ( Q ( Q ] ` Q <.^ ^ _ v.d.6.' N.~ a a ; % @ 4 3 = = > > > > , # X ; a j T b.6.Z.V.d.t.` 7.p.t.7.<.{ ] _ _ t.` ' d.Q ,.",
"' <.] W ( ' ( ' ' ` _ ^ ^ ' Q _ V.Z.( N.P a a a 6 i < 9 9 9 8 8 9 q 9 C D 8 u h a s I g.Z.h.<.{ ^ 6.h.{ u.' ' ' _ ' 6.` 7._ ^ ' ",
"u.' Q H ` 6.' ,.` ' _ _ W a.Q D b.b.m.F s a a a a i C I M a a j C ~ J.[.C.s i h a a j I 2.C.6.` ' 6.{ { M._ ` ` ( Q W ] Z.' ' ( ",
"j._ _ F E ( t.d.] ' _ _ Q a.R E C.R + 5 s a s a a i T !.^.^.(.(.).[.[.[.s.m j m s a a s : I b.( ,.6.' t.,.<.u.( ` 0 ^ ` Y.u.W I ",
"<.` ` E _ G W 7.{ ` _ _ ( _ Q E c.$ . 4 s s a M T M m D A D D F F F F G W V n.C h s s s o > t.,.t.6.6.,.' ` u.t.,.w R { Y.u.F ^ ",
"6.( ` _ ^ R I ' ] _ _ _ ( ( _ 2.a X . @ a s j m V a w 2 w w w s s s w 2 B F c.' G m s : X @ s M.` j.] ] ' _ ` d.6.N ' ] R.Q A ` ",
"( ^ ' { W W D Q 7.` ` ` ^ ` ` P . . . . o 5 s w a 9 s 9 w s s s s s s s n m g.7.7.W : . . @ $ Q ` j._ t.' _ _ d.a.B h.V.a.D H R ",
"B g <.' ^ Y D R 6.{ ( _ ` Y F 9 .   . . > w q a 9 9 s s s s h h n n s s M s >.' ,.p.E : @ . o s b.{ ' j._ _ ' u.u.] ` ' _ C ( 8 ",
"G H u.] _ Q F F ' <.{ ^ M 0 m & . . > 9 w w 0 a 9 q s s h s h s s h h m S s E 7.' ] ,.2.Y $ X s c.] v.' E Q E ( j.V._ ' Q F <.n ",
"( ' h.Q _ _ H g ^ u.Q n , 0 w > . $ q 8 w w 9 a 9 a s s h m m m m m m m V a C 7.` ` _ ` g.E @ A p.] ` Y Y ' H _ Z.u.] M.Q I E _ ",
"` ( 6.` 6._ H F Y G s q q w 9 8 + 5 9 0 q w 8 a q a s h j m m m m m m m j a m >.,.' ' ` u.g.N _ p.{ R H W ' Q ` V.Y._ d.' Y C ( ",
"` ] a._ _ ' Q R w h s w h q 0 q s 8 w 0 w q 8 a a a q s n h n h h h s h w s s ` ' ] ] ' ] u.7.a.h._ H R ^ _ { t.A.V.t.d.` ^ R Q ",
"a.V.u.] Q E D D h w w s w 9 q w 9 w w q h 9 0 a a a s s s s s s s a s s s a s ~ ' a.<.' ` ,._ ' u.^ C E _ ,._ u.j.V._ t.j._ ' ' ",
"A.A.{ ' Q ^ N 0 h w w w w w n q < : s 0 q q 9 a a s s a a 9 9 a a 9 q a a s a I ~ 7.` h.( _ ] ` ,._ D Y _ ` { ] j.V.^ a.j.] t.a.",
"j.v.u.( _ W N < n w w h 9 M h q 0 $ 0 s q 9 0 6 a a a a a 6 q a a 9 a a a a a F M P / ' c.p.{ g.7.^ Q G _ _ { u.g.a.{ { ] a.] 6.",
"a.H 7.` ` W w : n q h w q n n w < : w 8 w 9 9 6 t a s s a 7 a w q 6 a s a s 6 Z n 0 > h V P I p.p.6.<.H ' ' ,.d.V.6.u.( ] u.6.H ",
"u.` ' ' _ n : < n w w q 0 0 n w < q 0 0 < w 9 3 r y t u - u 9 9 q u - u u t y k h w < q n w 0 P ,.] ] _ u.] { V.a.{ ,.Q { ' u.Q ",
"] j.u.] M 9 9 0 w w 0 0 0 0 w 0 w w 0 9 8 8 h > u r r y y 6 8 8 w 5 r y y y t N M w 9 w s 9 w F 2.' ' { 7.a.u.t.( ( _ R W ` ` j.",
"H F d.t.w 0 5 h w w q 0 0 q q 0 0 q 0 0 0 n n 5 5 a i i i 5 < 8 w 5 i i i a h F s 0 0 0 0 0 w A ,.` ' <.<.a.a._ Q Q I H E ' ] a.",
"R s D 6.B 0 0 n w s w q q w w 8 8 9 9 q q C n h @ : 5 4 % 9 < < 0 a # 4 9 4 w w n 8 w 8 9 w q C ,.6.' { u.a.a.W I I C R ^ _ ' t.",
"F H w _ ` Q s h 9 n 8 0 q q s 9 q 5 8 q n n N n 9 @ . o > q < , 8 q , X . @ w 0 w 9 h s F P P W 7.<.' { ,.u.6.^ A M H W ^ _ _ ' ",
"E C n H _ ] ( A w n 8 0 q w 0 w q 8 3 0 h N n n 8 < 3 h h 0 3 1 < 8 a 9 9 q s w w I ) >.` ' 2.,.g.' <.` <.6.6.` < D W Q ^ 6.( _ ",
"Q G n F ' t.( R G A s 0 q q 8 q 0 q 8 5 8 N n n w 0 0 w q 0 < < 8 8 s h w s s I >.' ' ' Y I { ' _ ( _ ] ] ] 7.<.q N W Q ( ' { Q ",
"Q D w ^ ` { ' R E ^ R n 9 q 9 8 0 0 3 8 q n n n n q w q q 8 , 0 0 w w 0 w N ) 7.^ ` F ` ( E W ^ ' ( Q ] ' <.,.t.D n Y W ^ _ _ ^ ",
"Q C q R ] ` _ Q ] W Y n F s w 0 8 0 3 8 q M n n s h q q 0 < < w s w h w Y ' 2.` H Q 6.( R Q W ( ( ^ _ ] W t.' ] N C H W Q Q ( ^ ",
"I G F R ( ' _ Q u.Q Q w D ( G q 3 8 8 0 0 0 h w h h w 0 0 8 < 0 h n < ^ M._ ` <.H ' ` W _ ^ W _ ^ W ^ ` ( <.Q _ N Q N R ^ W _ _ ",
"H M Q Q ` ^ _ W u.( Q w E ( Q I n q 9 0 9 w 8 q n w w q q 8 w w 0 n 9 s.Z.W _ t.( _ W E ' ( Q ( _ I _ ^ { ^ ] W W Y G Y Q _ ( ^ ",
"R E ( Q ^ ^ Q R ( { C C E E Q Y Y R M 9 0 q 0 0 w 0 w s 0 0 0 w 0 w V p._ ' 6.t.] Q ^ ( R ` ( E Q Y W ` ' ' ` _ W ^ H I I { { _ ",
"( W R R ( ^ R W W ( W Y F ( W n H ` E s 8 0 0 9 0 0 8 s w 9 w s s h V ,.' ] t.' t.( Q M G _ W Y a.Q R ( <.{ ^ ( ^ Q Q W W _ ] ] ",
"( W E W W C ^ G E E Y I G ' Q N R ^ I F B D Y Y R Y F E Q H _ W _ B j.^ _ { { Q ' ^ H w Y Q ] ( _ E W W Q ( { Q W Q E R ` t.` W ",
"( R I _ W A ^ F I R I E G ` Y G G ( H R M N F Q E I I N W W ` Q Q I ` Q ^ ] ] D ` ] G s Y Q 6.] R R E Q W ' ^ R Y Q Q R ' _ ' R "
};
