/* XPM */
static char *result[] = {
/* columns rows colors chars-per-pixel */
"64 64 213 2 ",
"   c #0A0B0C",
".  c #07080A",
"X  c #100E0F",
"o  c #0D0E11",
"O  c #0A0F18",
"+  c #0E1113",
"@  c #0D1219",
"#  c #121415",
"$  c #1C1411",
"%  c #13151A",
"&  c #16191C",
"*  c #1B1B1D",
"=  c #1B1816",
"-  c #2E1C10",
";  c #382912",
":  c #0B0C2D",
">  c #0F1228",
",  c #1A1C23",
"<  c #1B1D2C",
"1  c #141826",
"2  c #0A0A34",
"3  c #0B0C3A",
"4  c #0C1B3A",
"5  c #0C1135",
"6  c #111334",
"7  c #131D3B",
"8  c #151B38",
"9  c #231E21",
"0  c #1C2124",
"q  c #1D252D",
"w  c #162232",
"e  c #1B2634",
"r  c #1C263D",
"t  c #1A2938",
"y  c #0E243F",
"u  c #232325",
"i  c #2C2A24",
"p  c #23252A",
"a  c #25282D",
"s  c #2B2C2D",
"d  c #282627",
"f  c #383023",
"g  c #252A33",
"h  c #2B2E32",
"j  c #2C2F3A",
"k  c #232936",
"l  c #2F3132",
"z  c #2D323B",
"x  c #20303A",
"c  c #333435",
"v  c #34363A",
"b  c #36383B",
"n  c #3A3B3D",
"m  c #3A3636",
"M  c #3A2C20",
"N  c #40391D",
"B  c #4C4418",
"V  c #404138",
"C  c #7C7735",
"Z  c #0B0C4B",
"A  c #0A0B45",
"S  c #141C46",
"D  c #0A0C53",
"F  c #0C0E5D",
"G  c #0F1351",
"H  c #10155B",
"J  c #121554",
"K  c #0C1A43",
"L  c #132342",
"P  c #182943",
"I  c #1D3244",
"U  c #1C2D57",
"Y  c #16304B",
"T  c #232B42",
"R  c #2C2F45",
"E  c #2C3440",
"W  c #2E3A43",
"Q  c #243244",
"!  c #323741",
"~  c #353A42",
"^  c #3B3E42",
"/  c #373B48",
"(  c #0C0E64",
")  c #0E126C",
"_  c #0E1167",
"`  c #131968",
"'  c #0E1072",
"]  c #141978",
"[  c #1C227A",
"{  c #283075",
"}  c #413F42",
"|  c #3E4144",
" . c #3C424A",
".. c #364045",
"X. c #2E5876",
"o. c #424344",
"O. c #45464A",
"+. c #46494C",
"@. c #4A4B4D",
"#. c #474948",
"$. c #4D4E51",
"%. c #484F5C",
"&. c #4E5053",
"*. c #4D535C",
"=. c #525355",
"-. c #555659",
";. c #57595B",
":. c #5A5B5E",
">. c #5A5D54",
",. c #5F634E",
"<. c #5A6357",
"1. c #72704E",
"2. c #666657",
"3. c #726F5E",
"4. c #6F6E4A",
"5. c #5C5E61",
"6. c #555F69",
"7. c #515970",
"8. c #5E6163",
"9. c #616466",
"0. c #646669",
"q. c #66696B",
"w. c #696C6E",
"e. c #6C6E71",
"r. c #6D6C7A",
"t. c #626A76",
"y. c #6E7173",
"u. c #6D717C",
"i. c #717476",
"p. c #747679",
"a. c #76797B",
"s. c #797C7E",
"d. c #81793D",
"f. c #95841B",
"g. c #8D8228",
"h. c #BFAF38",
"j. c #C1B337",
"k. c #958E44",
"l. c #BEB24B",
"z. c #B7B15E",
"x. c #868168",
"c. c #9B9774",
"v. c #A19E75",
"b. c #ABA76E",
"n. c #C7BF49",
"m. c #CCC453",
"M. c #D2CC6A",
"N. c #D5CF74",
"B. c #151983",
"V. c #1C2284",
"C. c #1E268A",
"Z. c #222987",
"A. c #213089",
"S. c #215D85",
"D. c #506F86",
"F. c #547A98",
"G. c #6E6F80",
"H. c #7C7E80",
"J. c #727A87",
"K. c #677087",
"L. c #5F869F",
"P. c #7E8183",
"I. c #798595",
"U. c #618A87",
"Y. c #6C91A8",
"T. c #5189AB",
"R. c #828486",
"E. c #848688",
"W. c #86898A",
"Q. c #8A8C8D",
"!. c #868994",
"~. c #8D8F91",
"^. c #8E9192",
"/. c #8C9299",
"(. c #83919D",
"). c #929496",
"_. c #94969A",
"`. c #97999A",
"'. c #9A9B9C",
"]. c #908F88",
"[. c #B6B695",
"{. c #8998A4",
"}. c #969BA3",
"|. c #9B9DA3",
" X c #9597A0",
".X c #9DA4A8",
"XX c #9CA3B2",
"oX c #A1A2A4",
"OX c #A3A5AB",
"+X c #A6ABB3",
"@X c #AAADB5",
"#X c #ACB1BA",
"$X c #ACB0B7",
"%X c #B1B5BE",
"&X c #B2B5B5",
"*X c #BEC0AF",
"=X c #DAD489",
"-X c #D0CD8A",
";X c #C6C9AB",
":X c #D1D3BD",
">X c #B5BAC2",
",X c #BABEC5",
"<X c #BDC2C9",
"1X c #BDC0C7",
"2X c #C1C5CC",
"3X c #C4C8CE",
"4X c #C9CDC7",
"5X c #C6CAD2",
"6X c #CACDD3",
"7X c #CED1D7",
"8X c #D1D4DA",
"9X c #D6D9DD",
"0X c #D6D9C7",
/* pixels */
"w.q.9.9.`.w.d w.y.0.<.p.q.Q.q.:.w.e.9.y.5.-.5.8.e.w.w.5.i.P.:.q.w.e.y.:.w.y.E.~.s.w.e.w.w.p.i.e.9.y.W.s.e.s.w.q.w.9.5.w.a.9.R.H.",
"q.5.q.9.~.e.n e.i.q.9.y.i.s.p.q.q.q.0.0.8.-.&.@.w.e.0.q.y.s.w.q.y.i.q.;.5.w.p.).e.y.w.s.a.9.q.w.q.e.R.R.w.i.q.w.w.i.w.i.x.t.p.H.",
"w.n -.y.i.q.5.p.y.w.9.9.E.E.w.q.e.q.y.q.8.;.O.c i.p.e.i.i.w.e.q.i.y.9.&.8.i.p.^.R.i.5.e.e.w.i.w.p.p.E.s.s.i.0.8.i.e.a.p.s.s.w.H.",
"q.$.&.p.p.q.0.i.y.0.5.0.W.E.i.y.e.q.i.e.0.5.+.^ e.e.w.i.y.y.w.0.p.i.9.:.@.W.s.Q.Q.q.9.q.y.i.H.$.W.s.s.s.p.p.w.9.e.p.e.W.p.p.q.y.",
"8.;.:.0.y.w.e.y.y.0.:.q.0.E.e.i.e.e.q.9.8.;.-.8.5.i.w.i.s.=.y.w.p.i.y.8.:.P.s.P.R.w.q.e.&.w.W.p.w.i.i.p.a.i.i.9.0.i.p.^.Q.:.9.w.",
"8.8.0.0.q.q.w.e.q.q.8.;.i.E.i.w.q.q.q.5.:.;.p.5.$.q.s.e.p.i.p.y.y.e.P.w.w.y.p.P.9.w.e.p.-.i.E.p.w.q.i.p.P.i.i.9.q.y.P.W.).=.;.w.",
"9.i.;.q.w.q.y.e.e.q.9.&.e.).p.p.q.9.e.9.$.s.p.q.$.n s.p.s.p.e.y.i.y.s.q.i.a.y.i.9.5.p.E.R.H.p.$.Q.i.w.p.s.p.0.0.y.a.R.E.s.w.e.e.",
"p.s.e.=.y.y.y.E.9.y.8.$.p.y.s.i.q.w.8.8.&.~.i.q.0.m H.H.H.p.e.e.y.p.y.w.i.w.9.E.;.q.p.E.Q.i.s.-.).i.e.p.p.i.9.w.i.P.R.e.P.i.H.P.",
"E.y.q.w.y.a.y.y.q.i.8.8.9.w.a.a.0.e.q.8.&.~.Q.y.5.| H.Q.P.s.e.i.y.a.y.w.i.0.s.Q.0.0.w.p.~.i.H.i.i.q.e.i.i.p.e.9.w.P.y.$.H.E.p.W.",
"s.y.9.y.~.P.:.+.i.y.q.9.s.&.w.w.i.p.H.0.5.e.W.H.q.q.s.Q._.P.y.i.a.P.8.p.w.w.a.W.i.i.-.i.^.s.i.p.e.e.e.e.i.p.e.-.w.R.a.8.R.s.s.Q.",
"s.y.y.0.).W.q.O.i.i.w.9.p.8.w.8.p.e.R.q.p.e.$.p.p.s.P.H.W.W.s.H.E.w.q.P.q.w.H.s.a.P.9.i.R.y.y.P.y.e.p.y.p.i.e.9.a.R.s.a.0.y.P.E.",
"p.P.y.:.y.P.y.8.p.s.s.y.q.q.w.8.p.p.a.e.5.i.e.e.0.s.E.s.s.P.p.E.Q.w.s.W.w.a.R.i.P.:.E.y.p.s.p.y.p.p.i.p.p.q.e.E.w.P.s.s.p.H.H.H.",
"P.i.p.i.y.8.w.w.y.a.a.y.w.y.8.8.e.W.e.=.w.9.y.q.;.E.E.H.p.R.W.E.E.R.s.s.i.p.p.e.y.p.s.q.E.H.p.p.s.s.p.i.a.9.E.:.:.H.E.s.p.H.p.s.",
"W.:.i.i.i.w.q.q.y.a.a.a.q.8.;.q.E.Q.p.5.o.e.q.q.p.W.W._.OX@X>X>X1X>X$XoX`.E.i.i.w.p.i.i.s.E.s.i.a.H.p.E.e.w.s.@.w.y.E.].y.p.w.R.",
"E.9.w.w.a.y.8.q.y.a.a.y.:.q.8.w.~.~.i.e.m ~.y.5.H.~..X%X>X,X<X2X2X2X2X2X%X'.E.i.=.p.R.s.s.E.p.i.a.E.W.s.w.e.w.@.e.y.E.R.p.s.p.H.",
"R.w.i.w.P.a.q.w.y.a.a.a.5.8.P.y.w.E.i.5.e.E.s.q._.|.+X%X,X<X3X5X5X5X5X2X2X,XOXQ.:.p.E.E.P.H.H.Q.e.H.W.e.:.w.5.i.i.s.E.s.H.s.a.a.",
"p.i.e.9.E.R.e.s.p.e.e.E.8.H.W.y.q.w.0.p.E.s.|.R._.+X#X#X<X<X2X6X7X7X7X6X5X<X<X.Xs.p.E.W.~.P.P.^.H.H.i.9.q.w.q.P.P.y.q.e.H.).R.y.",
"p.w.i.w.p.s.e.^.y.-.e.H.8.H.E.i.w.y.=.e.H.i.|.Q.|.$X>X>X,X2X5X5X8X8X7X5X<X<X1X#X).i.E.`.^.P.^.W.w.0.s.e.w.e.y.s.H.5.q.p.R.Q.P.y.",
"i.0.w.e.p.w.q.W.a.5.y.i.8.r.P.p.a.0.:.P.y.s.W./.}.@X&X%X,X2X5X8X9X8X7X5X5X<X1X1X@XE.W..XE.E.P._.i.s.H.e.q.e.p.s.H.5.8.E.E.s.p.i.",
"0.:.-.=.p.i.y.y.H.p.e.y.e.w.p.p.p.:.w.P.a.R.r./. XXX@X%X,X<X5X8X9X9X8X7X5X<X1X#X+X'.Q.).i.y.E._.E.R.p.w.a.s.w.p.s.q.0.H.s.=.e.q.",
"w.0.-.@.:.H.p.s.H.p.e.q.e.5.w.a.w.w.H.H.E.5.r.!.{.XX@X&X&X;X;X:X0X0X0X4X<X<X1X+X@X}.^.a.x.r.P.^.~.'.0.=.e.).y.i.i.s.p.H.@.o.e.q.",
"w.e.9.O.O.p.p.p.H.H.p.e.w.5.9.y.i.H.R.~.L./ G.E.v.l.l.j.m.m.N.=X=X=XN.M.M.M.-X[.oX}.Y./.R.s.P./.)._.R.O.p.~.y.i.H.R.p.s.l $.q.w.",
"s.H.:.o.n a.E.w.a.e.H.y.8.} w.e.s.H.].OXF.@.C g.f.d.d.1.,.&.-.<.,.2.3.x.c.b.z.j.l.b.T.XXW.R.~.s.).~.E.y.s.=.i.W.H.R.y.i.s @.q.e.",
"w.q.:.@.O.P.y.p.e.e.W.y.9.-.5.8.p.H.x.).X.B B N i s / =.a.Q._. X`.}.(.U.w.*... .4.k.U.{.a.p.Q.Q.E.Q.Q.s.P.9.s.E.H.e.i.e.} O.e.e.",
"q.8.=.:.-.R.e.e.y.s.s.p.y.:.5.} e.P.3.G.I f a z z / 7.t.t.r.r.p.K.J.I.I.{.{.I.%...x X.Y.s.s.E.`.E.E.~.s.H.a.i.i.y.e.5.q.9.O.0.e.",
"8.:.=.9.9.i.q.e.i.W.R.e.W.q.5.O.-.E.2.o.P x z b k q S J F _ [ ] [ A.{ { U U P k x b S.D.w.s.^.Q.R.`.W.i.p.w.a.w.q.O.;.y.w.a.w.y.",
"q.:.=.i.i.9.w.0.P.q.p.e.w.e.5.:.O.R.~.a.Y y h > : A ' B.B.B.V.B.V.V.Z.Z.C.V.A.] < t U 6.E.s.W.E.).).i.e.e.p.s.e.:.n :.y.w.p.P.H.",
":.-.e.i.q.;.q.9.e.p.p.e.e.9.-.:.-.H.W.E.H.I p : 3 ( D ( ' B.] B.C.] { B.] B.] ] P ~ y.Q.R.a.W.a.E.a.w.a.i.E.p.e.} ^ &.e.y.i.y.s.",
"9.9.e.q.0.8.:.:.&.y.p.e.e.q.5.;.y.P.H.u.p.w.g 2 : 2 3 D D ( ' ( ` ) ) ) ` H _ G r 9.'.P.R.H.p.=.E.p.s.P.s.Q.p.y.s s -.w.e.y.e.p.",
"q.w.q.q.q.q.:.$.O.9.y.y.e.i.e.w.y.p.i.q.i.).@.6 : : 2 2 A Z D Z ( _ F F F Z K 5 v Q.&X^.R.H.5.5.~.u.P.P.H.P.i.w.} c 5.q.e.y.i.e.",
"9.e.e.e.p.p.8.| O.e.s.w.i.e.i.i.y.p.y.y.0.E.Q.R 2 2 2 2 2 2 2 2 3 3 A Z Z 3 5 1 0.'.'.&X!.p.;.w.^.p.P.H.a.a.w.q.9.} 5.e.e.e.w.i.",
"w.w.w.w.0.q.:.=.@.H.i.i.i.i.i.p.s.p.e.y.e.W.).$.2 3 2 2 2 2 2 2 : 2 2 2 5 2 : j R.).Q..X'.E.p.y.E.E.P.P.a.s.8.e.0.a.w.p.s.e.p.p.",
"R.9.e.9.0.q.5.8.5.E.i.w.p.y.e.w.E.a.y.e.i.P. .W > 3 2 2 3 2 2 2 3 2 2 2 2 : 1 s  .p.|._.'.).P.p.H.E.W.P.H.P.e.a.y.p.R.i.i.P.i.i.",
"~.e.e.i.e.e.w.y.w.H.p.w.H.y.w.i.~.E.P.i.s...~ b 1 % 8 3 3 3 3 3 3 3 2 2 6 1 O j ~ / e.Q.'.).E.R.p.P.E.P.P.H.a.H.u.y.E.p.p.Q.w.H.",
"a.H.H.9.y.a.i.a.p.p.i.e.e.a.w.i.).`.w.Q. .^ ~ / T c , < 8 6 2 2 3 3 8 k k g e ^ ^ ^ / a.'.E.s.s.y.P.Q.a.E.a.p.s.i.p.P.p.P.y.y.p.",
"R.p.w.5.a.P.a.H.p.a.i.i.q.E.w.=.Q.W.E.$.~ / | ~ ^ v * 0 , g k k k k v ~ } Q ^ ~ ^ / ^ $.E.`.R.p.p.P.a.s.^.y.a.p.y.w.q.H.'.a.a.y.",
"Q.p.y.-.0.i.x.W.s.p.i.i.q.R.9.0.).9.# u | / ~ ~ s.%.q $ & z z z j } V ; f v `./ ~ v ~ ^ h e.).y.H.P.p.E.s.P.E.y.p.m w.p..XR.q.5.",
"H.p.p.0.i.-.t.R.s.p.i.i.i.i.w.9.@.+     g b z 0.H.-.K 3 6 k 0 & < ~ ; ; m ^ ~.s.~ ! ~ * o a @.s.W.P.P.H.p.i.E.P.H.V 0.s.oXR.-.e.",
"P.y.p.p.w.0.:.a.s.i.i.i.y.y.e.s.= $   . . , e p.s.@.T r 8 z 0 0 a } ; M ^ ^ s.i.@.j * X @ 9 N s.s.~.s.s.s.y.p.W.H.@.a.s.oXq.=.i.",
"y.e.a.a.w.q.=.w.R.p.p.a.w.i.i.Q.#           * e.i.c n ~ b z u 1 u ! v j % v p.a.-.o & # 9 i $ p.s.Q.i.E.p.p.p.W.E.@.Q.).W.=.:.9.",
"O.} H.a.e.8.=.9.P.s.y.y.p.a.s.a.    . o % X ^ -.:.l g v n v b b ! b = X O s 5.e.H.* % 1 o @ % -.^.a.a.Q.i.y.a.E.R.s.p.a.i.$.y.l ",
";.:.R.s.i.w.-.-.a.P.s.y.w.q.s.:.        , c c m b h 4 4 4 z ~ b b ! X @ # a  .p.s.a.v g     @ =.~.H.~.a.9.e.0.y.Q._.p.a.w.=.H.O.",
"y.a.Q.w.i.i.5.} y.P.s.p.&.q.i.b       . # n c v b z 4 4 5 h ..v ^ ! X   $ z ~ s.p.a.w.#     X } W.s.p.8.9.a.:.i.`.R.s.^.w.5.0.i.",
"a.y.P.p.P.y.:.-.8.P.a.y.y.y.&.u   i u . = n h c c z z Q v z ..n ^ ^ ~ v ~ ~ b E.a.a.a.l :.:.= } Q.s.9.5.0.a.w.p.`.oXi.W.a.8.$.y.",
"a.s.E.p.p.a.e.0.q.s.s.y.y.@.b c u n V s c n s c z z ~ ~ W b v v v ! ^ / / v W E.a.H.s.p.H.R.w.w.Q.i.:.9.e.y.s.R.`.).R.W.p.e.9.w.",
"W.).R.s.w.0.=.y.s.p.y.w.#.c b V n n n m n b c n z ~ W W ....~ V n ! ^ | W ~ v P.a.R.H.a.p.H.p.a.R.e.$.9.i.H.i.R.Q.).i.R.].i.a.a.",
"'.'.a.a.w.e.$.8.s.y.=.n m b | b s u n c c b c n v ~ ~ / W E n } n ! ! /  .~ | y.W.p.w.W.e.y.s.p.H.p.=.8.p.p.s.H.Q.).e.W.Q.s.P.E.",
"Q.^.E.e.p.0.5.=.y.-.n } c o.n b l * b n c c b n P z | ^ ^ z n b c v ~ } | ~ I %.E.s.:.e.P.p.e.E.P.w.w.;.i.i.a.R.Q.E.s.s.s.E.H.P.",
"W.:.P.p.p.w.8.s @.b n n b o.V n s u b c n c b ^ L L y L r r } b b j r P L K L T i.0.O.9.y.i.q.P.H.H.H.;.a.s.s.W.).P.E.y.s.R.R.:.",
"R.p.a.a.p.y.l s n n n b c c n n i b c c s v m V t P r r 4 r b c b v 4 L I I P W n n s n O.o.$.y.a.s.H.i.R.s.s.).W.a.s.w.s.a.R.w.",
"H.Q.R.q.o.c c c n b c c c c n c b n b c s c n n k p q q w h c c n n w w e q a c m b c n n c n :.i.p.p.a.P.W.R.P.y.i.p.9.0.a.a.Q.",
":.-.W.9.n m l n n n b c c b b c c b c c c o.o.^ ~ v v z g a s s v b g h z v ~ ..n b b c b c n @.r.i.a.P.H.W.R.p.q.q.:.:.0.a.s.E.",
"9.} -.H.8.} m } n n n c b m b c c c c b b @.V | ^ ^ ~ ~ z h h s c c g j ~ / +. .n s n c m m v =.w.P.a.s.R.R.R.w.5.5.$.9.w.y.a.P.",
"-.;.V i.p.y.l } c V c c b b n c b s l c V | } z / } ~ ~ a c s d c c a v n  .8.8.n c n l m c } q.s.H.a.a.P.R.P.w.&.#.:.w.y.p.p.a.",
"0.$.O.5.p.a.o.s c } c c b b c b c c s c | @.} @ h v ^ z & n c u s s h g ..+.*.l @.} } n m #.9.i.R.a.H.p.P.P.P.p.s =.0.w.e.P.y.p.",
"w.;.} -.a.P.=.m s l n c c c c b c b l s c #.| c o + # # c v s s c c n # @ & + b E.w.0.y.5.:.s.a.p.y.p.s.s.s.R.P.m $.q.w.y.a.s.0.",
"w.=.n y.p.s.w.b c c c c c m c l l c s l m V | n V b c n n s a l c m n n V :.p.s.0.p.-.p.y.0.w.e.a.e.e.s.a.P.H.P.=.} 8.q.e.p.i.w.",
"w.$.n 9.s.p.y.$.} c l u l c b c l c s l b #.V n n V b c c s s n n b | &.a.i.p.e.:.w.P.y.9.w.0.y.y.e.i.H.q.P.a.s.@.$.:.0.w.w.y.y.",
"<.;.=.9.e.s.i.9.=.c b * d b c c s c c c c c n n ^ n n c c l i c n n d 9.'.0.i.H.5.p.p.0.i.w.q.i.y.q.e.i.y.H.e.i.$.q.$.0.e.q.i.y.",
":.O.w.w.p.e.y.q.H.$.b * c V c l l c c c c b c b n n n b b l n b v o.s E.`.0.p.R.e.p.0.0.a.i.w.y.i.5.i.e.s.e.s.w.q.8.-.8.w.i.y.e.",
"0.0.e.w.w.y.w.9.y.p.| h c l c l l b b c c b c b b c n n c l b b m @.w.P.y.a.s.R.s.w.w.y.9.i.i.0.e.2.0.p.a.p.p.i.0.e.:.5.5.s.a.i.",
"i.0.9.9.y.w.9.q.0.e.q.:.| | c u s n c s c c c c b c c n m l c } :.w.e.p.a.s.R.a.R.i.w.@.-.i.0.5.E.q.9.r.H.a.e.y.e.w.e.q.w.i.s.s.",
"y.q.0.0.q.&.w.:.0.0.<.8.;.e.&.s c b s s d s c c c l s c c c @.9.i.O.Q.y.i.s.s.w.a.w.:.m 9.w.s.i.i.9.w.0.e.y.s.e.0.w.0.0.i.R.p.q.",
"y.9.5.i.q.&.e.-.8.9.5.0.;.a.<.=.$.=.| o.s c b o.| n n c @.-.p.w.w.:.a.w.w.s.H.=.p.H.;.} 5.w.H.s.9.9.0.w.0.a.w.9.8.w.w.2.s.i.s.9."
};
