/* XPM */
static char *result[] = {
/* columns rows colors chars-per-pixel */
"64 64 210 2 ",
"   c #07090B",
".  c #090A0C",
"X  c #18140C",
"o  c #070B16",
"O  c #0B0D13",
"+  c #0E1014",
"@  c #0C141A",
"#  c #121315",
"$  c #13151A",
"%  c #151A1D",
"&  c #1B1C1E",
"*  c #1A1815",
"=  c #291D13",
"-  c #202319",
";  c #372E17",
":  c #0A0C29",
">  c #080C24",
",  c #0B1321",
"<  c #161B22",
"1  c #1C1D23",
"2  c #15182C",
"3  c #171727",
"4  c #0B0B33",
"5  c #0B0B3B",
"6  c #161A3B",
"7  c #1E222B",
"8  c #1F2125",
"9  c #112332",
"0  c #1F2A32",
"q  c #1D293D",
"w  c #232325",
"e  c #242529",
"r  c #26292D",
"t  c #2C2C2D",
"y  c #272825",
"u  c #252B33",
"i  c #2C2E32",
"p  c #2A2F39",
"a  c #202838",
"s  c #2E3033",
"d  c #2E323B",
"f  c #333435",
"g  c #34363A",
"h  c #36393B",
"j  c #3A3C3D",
"k  c #3A3835",
"l  c #483822",
"z  c #403D32",
"x  c #554E15",
"c  c #4C4829",
"v  c #7E763C",
"b  c #101A41",
"n  c #0B0C58",
"m  c #090A42",
"M  c #1B3C58",
"N  c #192E43",
"B  c #242441",
"V  c #243141",
"C  c #2E3642",
"Z  c #2F3A43",
"A  c #353A42",
"S  c #3C3E41",
"D  c #323B4C",
"F  c #223D55",
"G  c #0A0B6C",
"H  c #090A67",
"J  c #0E1562",
"K  c #0D0E7D",
"L  c #11147B",
"P  c #2D3566",
"I  c #413F42",
"U  c #3E4042",
"Y  c #3D4756",
"T  c #13517D",
"R  c #424344",
"E  c #454649",
"W  c #47494B",
"Q  c #4A4B4C",
"!  c #48474B",
"~  c #4D4E51",
"^  c #454A57",
"/  c #4F5052",
"(  c #4E515A",
")  c #525355",
"_  c #555659",
"`  c #57595B",
"'  c #5A5B5E",
"]  c #525649",
"[  c #6F6C52",
"{  c #6E6846",
"}  c #5C5E61",
"|  c #555861",
" . c #4A4A61",
".. c #5E6163",
"X. c #5C6068",
"o. c #5D6A7F",
"O. c #616466",
"+. c #646669",
"@. c #66696B",
"#. c #696C6E",
"$. c #6C6E71",
"%. c #666A73",
"&. c #6E7173",
"*. c #6B737C",
"=. c #717476",
"-. c #747679",
";. c #76797B",
":. c #797C7E",
">. c #93851A",
",. c #948A27",
"<. c #A79A30",
"1. c #B1A628",
"2. c #C0B13A",
"3. c #918B4B",
"4. c #95905A",
"5. c #B8AF57",
"6. c #898A7C",
"7. c #A29971",
"8. c #A8A57A",
"9. c #D0C65A",
"0. c #CEC452",
"q. c #D3CB67",
"w. c #D8D16C",
"e. c #0C0D84",
"r. c #151A8A",
"t. c #181C9F",
"y. c #191E93",
"u. c #1D2188",
"i. c #1F259A",
"p. c #2E3381",
"a. c #2E3491",
"s. c #1B598B",
"d. c #1E6289",
"f. c #31719A",
"g. c #2878A2",
"h. c #4A4C80",
"j. c #4F5083",
"k. c #585988",
"l. c #5C5F97",
"z. c #446489",
"x. c #696B8B",
"c. c #626382",
"v. c #6A7482",
"b. c #767982",
"n. c #7C7E81",
"m. c #737781",
"M. c #6E7294",
"N. c #727393",
"B. c #6B76A3",
"V. c #7E8183",
"C. c #7C828B",
"Z. c #7D8192",
"A. c #5F87A8",
"S. c #7493A1",
"D. c #818485",
"F. c #848689",
"G. c #86898A",
"H. c #8A8C8D",
"J. c #858993",
"K. c #8C8E91",
"L. c #85899A",
"P. c #8E9092",
"I. c #8D929B",
"U. c #929496",
"Y. c #93969C",
"T. c #97999B",
"R. c #9A9B9D",
"E. c #A09F91",
"W. c #BEBE81",
"Q. c #B0AF90",
"!. c #B6B59B",
"~. c #B0B291",
"^. c #AEAC8F",
"/. c #9397A3",
"(. c #9499A3",
"). c #9A9CA4",
"_. c #989EAC",
"`. c #8C95AA",
"'. c #9EA2AB",
"]. c #9DA0A4",
"[. c #92A5B9",
"{. c #A2A2A4",
"}. c #A2A6AD",
"|. c #A2A6B1",
" X c #A6AAB4",
".X c #AAAEB8",
"XX c #A7ACB8",
"oX c #AEB3BC",
"OX c #A3B4BE",
"+X c #B2B5BD",
"@X c #BABDBF",
"#X c #D2CE85",
"$X c #D4D5B9",
"%X c #CFCFAD",
"&X c #AFB5C1",
"*X c #B4B9C2",
"=X c #B9BDC5",
"-X c #BBBFC8",
";X c #BCC0C7",
":X c #BDC2C9",
">X c #C1C6CD",
",X c #C7CCCC",
"<X c #CCD0CB",
"1X c #C6CAD1",
"2X c #CBCED4",
"3X c #CDD0D6",
"4X c #CED2D8",
"5X c #D2D5DA",
"6X c #D4D8DC",
"7X c #D7D8C6",
/* pixels */
"#.@.O.O.T.#.y #.&.O...-.+.H.+.' #.$.+.&..._ } ..$.$.@...=.D.' @.#.$.&.' #.&.D.P.:.#.$.#.+.;.=.#.O.&.F.:.$.:.#.@.#.O.[ %.;...D.n.",
"@.} @.O.H.$.j $.=.#.O.$.=.n.-.#.@.@.+.+...) / W @.&.+.@.=.-.#.@.&.&.@.` } #.;.U.#.=.#.:.:.O.+.#.@.=.D.D.$.=.@.#.#.=.#.&.n.@.-.n.",
"#.j _ &.=.#...-.&.@.O.O.F.F.#.+.#.@.&.@..._ E f =.-.$.&.=.#.$.@.=.=.O./ ..=.-.P.D.=...#.&.#.&.#.-.-.G.:.:.=.+.O.&.$.-.-.:.;.#.n.",
"@.Q ) -.-.@.+.&.=.+.} +.G.D.=.&.$.@.-.@.+...W U &.$.$.=.&.&.#.+.-.=.O.' Q G.:.H.H.@...@.&.=.n./ G.:.:.:.=.-.#.O.$.-.&.G.-.;.@.&.",
"..` ' +.&.@.&.&.&.+.' #.+.D.&.=.&.@.@.+...` ) ..' =.$.=.:.) &.@.-.=.&...` :.:.D.D.#.@.&.~ #.F.;.#.=.=.-.:.=.=.O.#.=.=.P.H.` O.$.",
"....@.+.@.@.@.$.#.+.} ` =.G.=.#.@.+.@.O.' ` -.} ~ @.-.#.-.-.;.&.&.&.V.#.&.&.-.V.O.#.$.;._ =.F.-.#.@.=.-.n.-.=.O.#.&.V.H.U.) ` #.",
"..-.` @.&.+.&.&.#.@.O./ $.P.;.-.@.+.$...~ :.;.+.~ S :.;.:.=.&.&.=.&.V.+.-.-.&.=.O.} -.F.D.n.-./ H.&.$.=.:.-.+.+.#.-.D.D.:.$.&.#.",
";.:.#./ &.&.&.F...=.../ -.=.;.=.@.@.O.O.) H.=.@.+.k :.n.n.;.#.$.&.-.&.@.=.#.O.D.' O.-.F.H.=.:._ U.=.$.=.-.=.O.#.=.V.D.#.V.=.n.V.",
"D.$.@.$.&.-.&.&.#.=.} ..+.#.-.;.O.&.@...) H.H.=.' E n.K.n.n.$.=.&.:.&.@.&.O.n.G.@.@.#.-.H.=.n.=.-.+.#.&.=.=.#.O.#.V.#./ :.H.-.H.",
";.-...&.H.V.} Q =.$.+.O.;._ #.#.=.=.:.@...#.G.V.@.@.-.G.Y.V.&.&.:.:...;.$.#.;.G.-.&._ &.U.:.=.-.#.#.&.&.-.;.$._ $.D.:...D.:.:.H.",
":.&.$.+.U.G.+.R =.=.#.+.=...#...=.=.D.@.-.$.~ -.-.;.V.n.G.F.n.n.F.#.@.V.#.#.n.n.:.n.+.&.D.&.=.:.=.&.-.&.-.=.$.O.:.V.:.;.+.-.:.G.",
"&.V.$.} =.V.=...;.:.;.&.@.@.#...;.-.-.#...=.#.#.@.;.F.:.:.D.;.G.K.#.:.G.#.;.V.&.n.} F.$.;.;.-.=.;.=.=.-.-.@.=.F.#.V.:.:.-.:.:.:.",
"n.=.;.&.&...#.#.&.n.-.=.$.#...} #.G.#._ #.O.&.#.} F.F.D.n.K.R.).{.U.D.;.$.=.;.&.&.;.;.@.F.n.;.=.;.;.-.-.;.O.F.` ' n.G.:.-.:.:.:.",
"H.` &.-.=.@.@.@.&.-.;.-.#...` #.F.H.-...R $.#.+.n.8.W.@X-X:X>X>X=X=X*X|.G.-.&.&.%.-.=.;.;.F.:.=.;.V.-.D.&.#.:.Q #.=.D.H.=.-.#.V.",
"G...$.$.-.=...@.&.;.;.=.} +...#.P.P.=.&.k H.&.#.E.0.%X>X1X1X1X1X>X:X-XoXXXR.&.&.) ;.n.:.:.F.;.=.:.D.F.:.#.&.+.Q $.=.D.V.=.:.-.:.",
":.$.&.#.F.;.+.#.&.-.;.-.} ..V.&.@.G.=.' #.G.n.H.Q.9.,X2X2X1X2X2X1X:X:X=X=XXXP.&.' -.D.F.D.n.:.H.&.V.H.#.` &.' =.=.:.H.:.:.:.:.:.",
"$.-.&.+.V.V.&.;.=.#.=.F.O.n.G.&.+.$.+.-.D.V.R.L.!.q.<X2X2X4X5X2X3X>X:X*X&X|./.F.@.;.F.H.K.V.V.P.n.:.=.O.@.#.@.D.n.&.+.&.V.P.D.=.",
"$.$.&.$.-.n.&.P.=.) $.:...n.G.&.#.&.) $.V.F.l.B.~.w.$X4X4X6X6X5X2X>X=X+X*X.X|./.;.-.D.U.P.V.P.H.#.+.:.#.#.$.$.:.n...+.-.D.H.V.&.",
"&.+.#.&.-.#.#.F.;.} =.&...&.V.;.;.+.' V.:.J.i.N.Q.w.7X5X5X6X6X4X1X>X-X*X&X|.'./.n.D.F.{.D.F.V.U.=.:.V.=.#.$.=.;.n.} O.F.D.;.;.&.",
"+.' _ / -.=.&.&.V.=.$.&.#.#.-.=.=.} #.D.H.a.i.x.}.9.$X4X4X4X5X2X>X>X-X*X.X|.).I.b.;.H.U.-.&.F.U.D.D.;.+.;.:.#.;.;.#...V.:.) =.+.",
"#.O.` Q ' n.;.;.V.-.$.@.$...@.;.#.#.:.V.K.u.i.h.{.9.%X4X>X,X3X3X>X*X+X+X.X'./.K.%.` K.=.n.#.V.U.P.E.+.) &.U.=.=.-.;.;.:.Q I $.+.",
"&.$.O.E R ;.-.;.:.D.=.&.+.' +.=.-.:.;.D.N.y.t.p.(.5.#X>X;X;X>X>X*X+X|.|.'./.L.V.} ^ n.-.n.n.D.H.Y.Y.V.! =.P.&.=.V.V.-.V.f / @.#.",
";.n.' U U -.V.$.;.#.n.=.O.I #.#.:.;.F.P.k.r.t.u.`.4.9.!.&X+X+X+X+X.X}._./.I.n.*._ I $.V.;.V.K.V.P.K.F.=.:._ =.G.V.V.&.&.t Q #.&.",
"#.@.' Q E V.&.;.$.#.F.&.@._ ' ..;.;.P.P.j.L y.y.M.G.1.^.XXoXoX+X|.|.{.(.I.J.v.X.S S :.:.} ;.G.K.F.H.H.;.V...;.F.V.$.=.$.I E #.$.",
"@...) ` _ V.$.#.&.:.:.-.=.` ' R #.:.P.U.k.e.e.r.P Z.<.5._.|.|.XX}.).Y.Y.L.b.| E g g D.#.@.-.F.U.F.D.U.:.n.:.=.=.&.$.} @.@.! +.#.",
"..' _ O.O.;.@.$.-.G.D.$.G.@...! _ V.D.H.c.L e.r.J %.{ 1.6.'.(.(.Y.I.L.J.%.W S A g A S %.$.;.P.H.F.T.F.=.;.@.;.#.+.! _ &.@.;.@.=.",
"@.` ) =.&.O.$.+.V.@.-.$.#.$.} ' E D.F.D.n.n H K e.P  .>.3.I.L.I.C.C.J.m.( E h h g g d ~ D.;.G.D.U.U.=.$.&.-.m.&.` j ' $.+.;.V.V.",
"` _ &.=.@.' +.O.&.-.=.$.%.+._ ` _ V.F.:.H.5 n n G G  .c ,.&.C.m.b.b.*.} ^ g h g g f d ^ V.V.G.;.D.;.@.;.=.D.-.$.I I ) $.=.&.&.:.",
"O.O.#.#.O...' ` / &.=.$.$.@.} _ =.V.V.&.&. .4 m G G 6 i x v v.v.*.*.} h d h g d g d g S ;.H.=.) F.=.:.n.n.G.-.&.t t ) #.&.&.$.=.",
"@.#.#.@.@.@.' ~ ! O.=.$.&.=.&.$.&.-.=.+.;.P.6 5 4 m 5 a t ] z.f.g.g.d.M g g h h A d g S +.G.} } K.;.D.D.n.V.=.@.z f } #.$.&.&.&.",
"O.$.&.#.-.-...R E $.:.#.=.&.=.&.=.-.=.=.@.V.V.5 5 4 : 3 i M f.[.*XOXA.T N g h g g g A A ' D.' #.K.:.n.n.;.;.@.+.@.I } $.$.$.$.=.",
"#.#.#.#.+.@.' ) Q n.=.=.=.&.=.-.;.=.#.&.$.;.D.C.B 4 4 3 u s.S. X&X|.J.Y V h g 7 A S A g } H.-.=.D.F.n.n.:.n...$.@.m.#.-.:.#.-.-.",
"D.+.&.O.O.+.} } } F.-.#.-.=.$.#.D.;.&.&.=.&.#.=.F.^ 3 i p F F.7.3.{ [ U C s # & j S R I } K.n.;.n.F.F.D.n.V.$.-.&.;.D.-.;.n.=.-.",
"H.#.#.=.=.&.#.=.#.:.-.#.V.$.#.=.P.G.n.&.$.+./ #.:.D._ g U A A x = - ; g 8 O   8 f j I R } P.F.D.;.n.F.V.V.n.b.:.=.=.D.-.;.F.#.n.",
"-.n.n.@.&.;.=.;.;.-.=.#.#.;.#.=.P.R.+.&.&.@.R @.H.@.#.< 1 u r y * # # o o @ 7 w f k k z ' F.n.:.$.V.H.;.D.;.;.;.=.-.V.-.D.=.$.;.",
"D.;.@.' -.V.;.n.-.-.=.-.@.F.#.) H.F.:.;.&.} E @.D.:.;.$ @ o o o . O O 1 g h 0 e A S I R ~ H.n.;.;.V.;.:.P.=.;.;.&.#.@.:.R.-.-.&.",
"H.-.=._ O.=.V.F.:.;.=.=.#.F.O.O.U.&.n.=.@.O._ &.;.D.%.3 7 < , > : : a S S A i e g g A S ~ D.G.#.:.V.;.D.n.n.D.&.;.g #.;.].D.@...",
"n.-.-.+.=.' #.V.:.-.=.=.=.=.#...V.;.n.-.-.-.&.-.$.:.%.b y A 9 N C V C q S A u r j A S S E n.V.&.D.n.n.n.-.-.D.D.n.z O.:.{.D._ #.",
"n.=.-.=.#.O.} ;.:.=.=.=.$.$.$.#.@.&.#.&.-.-.=.&.=.;.n.| d A Z h A A U A A A p e f A A A S $.6.D.&.H.:.n.;.&.;.G.V.Q ;.:.{.#.) =.",
"&.$.-.:.@.@.) #.V.-.;.-.$.=.=.V.&.+.' ' -.-.-.$.-.=.:.^ S A U C A A A S R A s 7 g S S I I ;.:.G.@.H.=.D.;.-.=.G.F.Q H.U.F.) ' O.",
"I I n.;.$...) O.V.;.$.=.-.;.V.D.&.$.} Q -.&.$.#.$.#.:.^ j A A U C A A A j g A g g I I R ! #.+.$.=.:.-.H.=.=.;.F.D.n.;.;.=.~ =.s ",
"' } D.:.=.#._ _ ;.n.:.&.#.@.:.D.$.+.@.j -.=.@.+.&.$.:.D 2 f A D A A Z A A j j A A I c I I ) E R U Q &.=.@.#.@.&.H.U.=.;.#.) V.I ",
"&.;.H.#.=.-.' I $.D.n.-.~ #.=.D.$.@.@._ =.$.+.$.=.=.=.^ > 0 h A U A D A j A j A A I S ^ ) ) j Q j j j s R #.' =.R.D.:.P.#.} @.=.",
";.&.V.-.V.=.' _ O.n.;.$.$.=.@.:.n.` O.#.$.-...@.=.$.%.@.7 u h U D S S j j S S E Q E S j D c R E U j f t f j R =.U.{.=.H.:...~ $.",
"-.;.F.=.=.;.$.+.#.:.;.=.:.&.#.#.:._ $.$.;.$.O.@.+.@.+.! A 7 < p h A S A S Q ^ j k S j j U c j S R j t f g g S ~ T.U.V.H.=.$.O.#.",
"F.U.D.n.#.+.~ =.:.;.=.;.&.+.$.=.@.&.=.$.;.@.@.#.=.' S A g + # $ . # $ A Q j A c f R j j A D j j R f y f k S j I ` U.=.D.H.=.:.;.",
"E.R.;.;.#.$.~ ..;.=.&.=.=.&.V.$.' ! ;.#.$.$.$.;.O.g S C p 2 1 $ .   . g ) E R W I j f E j k A j j j e f j j I I ! ..&.F.H.:.D.D.",
"K.P.F.$.-.@.} ) :.=.;.;.@.H.:.$.O.f #.;.$.@.) I ! 1 p u i 1 e % $ . . g Q j U E I j t h I j k R R f f t j k I z E I ) :.:.F.:.V.",
"F.' D.-.-.#.O.I F.#.b.;.$.D.D.=.` E &.O.=.Q k h j E + % w % l l ; . . h Q j U W j k y g U S f U S U z i j j U R Q U R ) :.V.V.' ",
"D.-.;.-.n.=.I ' n.-.;.#.#.#.:.=._ &.#.#.) ~ f j E f R t % . + r = .   d W j R U h j y g U h k S j j S j R j j Q c j U W :.:.D.$.",
":.H.D.:.;.+.#.#.=.=.@.#.O.#.-.@.&.-.$.@...E j R j f j W t # O .     . y Q k U U k h f j j f k k j j j S U R R U A h j Q #.-.-.H.",
"} _ G.D.-.+.' n.-.-.#.#.#.$.$.@.O.&.#.@.@.' R j E k f k t w + O . . % q E j j A k g f g k g j h h j j S U R R h d g i Q @.-.:.G.",
"O.I _ F.;.+.#.V.=.;.=.$.#.=.=.O...@.@.&.&.&.c U f f g E d 1 O O . + @ N c A j f S i h f f h k h h U j U R R R f s t t ' #.&.-.D.",
"_ ' z -.-.;.} ;.@.:.O.#.=.#.;.@.&.' ..&.V.+.Y U t U E A A 1 3 O @ 9 9 Z U E j f j f j s h s f j U j j j U U U k y w s @.&.=.-.-.",
"+.~ I } =.n.$.' +.V.O.#.$.=.#.&.&.O.` +.:.:.U U U s U U U A p i p d Z r f W j g g k j k f f k h R j j j U R U j * t R #.#.D.&.-.",
"#._ I ' ;.D.=.O.` +.=.@.$.$.O.#.X.*.[ ' O.V.R U Q w u A S S p u u s % % U U j j j f g h t s j j j k j j j j U U & w ` #.=.;.:.#.",
"#.) j $.-.;.;.O.+.#.@...@.$.@.+...@.' ..&.G...U R R + % u d e + @ % s W W j z j s j r j h f f h j h f R j I j I t f ..@.#.-.-.#.",
"#./ j O.:.;.=.#.V.+...! ..@.$.+...@.' ..&.G.:.' U j E y 8 y s U Q W U f j h j h t k U h f f f h j f j j f R j S s Q ' @.#.#.$.=.",
"' ` ) O.&.;.=.@.D.#.#.S ) &.$.+.` ....+...@.:.-...R h k s s t f j U - j Q f h U t j j f k f f k f f f j j j f R Q @.Q O.#.+.=.=.",
"' ! #.#.;.$.&.@.D.&.#.z +.=.%.} ..#.@.#.@.=...&.n.&./ h k f h h f U 8 R Q f h U h h f s j h f h k s j f j j I ..O.O.` O.#.=.=.#.",
"O.O.$.#.$.$.$...$.:./ Q O.+.#.O...#.&.@.#.&.+.#.&.#.=.#.j f g h f g h U h j U U U f k h s j k f f s f j j j ..=.@.$.' } O.;.:.=.",
"=.@.O.O.&.$.O.@.@.$.@.O.` &.@.R } -.+.....#.+.#.$.$.O.;.&.U f h f k h j j U c j U h f w t h s s E f s k I } $.&.$.#.#.@.@.=.:.:.",
"=.@.O.@.@.~ %.| +.+.O.' _ ;.@.Q ..$..._ ) ' +.+.#...` +.#._ j s h y R h j j A g j k s & s k U k h k E ` @.&.;.%.@.@.+.O.=.D.-.@.",
"$.O.' -.@.~ $._ [ O.} O.` -.O.` ` =.' ..W ~ _ &.+.} } Q @.@.W f k t j k f U U r j j t & s f R _ ) ..+.#.@.;.$.+.[ #.#.O.;.=.:.+."
};
