/* XPM */
static char *result[] = {
/* columns rows colors chars-per-pixel */
"64 64 210 2 ",
"   c #020101",
".  c #0B0403",
"X  c #060708",
"o  c #0D0D0E",
"O  c #080909",
"+  c #120605",
"@  c #140905",
"#  c #1C0B0A",
"$  c #180908",
"%  c #1E110E",
"&  c #0D0F11",
"*  c #0E1012",
"=  c #121313",
"-  c #1B1717",
";  c #1D1817",
":  c #1D1A1A",
">  c #13161A",
",  c #200F0E",
"<  c #21120D",
"1  c #231413",
"2  c #251916",
"3  c #2C1C17",
"4  c #231B1B",
"5  c #2C1C1B",
"6  c #331C17",
"7  c #3C1D16",
"8  c #311E19",
"9  c #3B221B",
"0  c #34221B",
"q  c #151B20",
"w  c #2C1923",
"e  c #242424",
"r  c #2A2321",
"t  c #2C2C2C",
"y  c #38292B",
"u  c #36312B",
"i  c #2E2B3D",
"p  c #372A34",
"a  c #343333",
"s  c #3A3A3A",
"d  c #32343B",
"f  c #4D160E",
"g  c #451A0F",
"h  c #551B0C",
"j  c #461711",
"k  c #6B1D11",
"l  c #60190E",
"z  c #53210F",
"x  c #442014",
"c  c #4B2012",
"v  c #40241B",
"b  c #562312",
"n  c #5C2411",
"m  c #592718",
"M  c #612412",
"N  c #662814",
"B  c #6B2915",
"V  c #792415",
"C  c #72281C",
"Z  c #772B17",
"A  c #753518",
"S  c #7F3219",
"D  c #6C270E",
"F  c #492B2A",
"G  c #52322B",
"H  c #643428",
"J  c #4D473D",
"K  c #734131",
"L  c #74593B",
"P  c #262A41",
"I  c #282B41",
"U  c #3A4D5C",
"Y  c #394654",
"T  c #434343",
"R  c gray30",
"E  c #5F4D52",
"W  c #4E5050",
"Q  c #535353",
"!  c #5A5A5A",
"~  c #5A4848",
"^  c #604E53",
"/  c #655156",
"(  c #6A4D46",
")  c #5E6262",
"_  c #636363",
"`  c gray42",
"'  c #6B7170",
"]  c #757575",
"[  c #7C7C7C",
"{  c #7D7761",
"}  c #705875",
"|  c #9B311D",
" . c #8A2F1A",
".. c #A3341F",
"X. c #812929",
"o. c #892D29",
"O. c #9D3329",
"+. c #AC3B21",
"@. c #A73726",
"#. c #B23A23",
"$. c #B23A29",
"%. c #BA3C25",
"&. c #C03F28",
"*. c #D93B2D",
"=. c #95441B",
"-. c #B7561B",
";. c #894722",
":. c #9A5529",
">. c #9E5A30",
",. c #934B25",
"<. c #A45C2A",
"1. c #AE5520",
"2. c #A74C31",
"3. c #B0532D",
"4. c #9F6137",
"5. c #B26A34",
"6. c #CE641F",
"7. c #D7681E",
"8. c #C44127",
"9. c #CE4429",
"0. c #C64328",
"q. c #D34D2B",
"w. c #D24B28",
"e. c #D95626",
"r. c #DC5B25",
"t. c #D7552A",
"y. c #CF5B26",
"u. c #DD6327",
"i. c #CF702C",
"p. c #DC6534",
"a. c #D06F2D",
"s. c #E26525",
"d. c #E66B24",
"f. c #EB7522",
"g. c #ED7D29",
"h. c #EC7827",
"j. c #E26E31",
"k. c #E97C34",
"l. c #E67B3A",
"z. c #E47836",
"x. c #835950",
"c. c #A67144",
"v. c #866E67",
"b. c #827F7E",
"n. c #947E76",
"m. c #907268",
"M. c #CB7F4B",
"N. c #DE8B3E",
"B. c #EE822D",
"V. c #E7802F",
"C. c #ED8433",
"Z. c #EB843B",
"A. c #ED8B3F",
"S. c #F18C36",
"D. c #F18F39",
"F. c #F08731",
"G. c #EF923D",
"H. c #F2923C",
"J. c #8D866D",
"K. c #8F8478",
"L. c #97847D",
"P. c #D78C44",
"I. c #C48F5D",
"U. c #ED8D40",
"Y. c #E58D41",
"T. c #F08E42",
"R. c #F29641",
"E. c #F49C45",
"W. c #ED9643",
"Q. c #527091",
"!. c #7F8080",
"~. c #7B838D",
"^. c #818282",
"/. c #8B8A8A",
"(. c #888887",
"). c #939494",
"_. c #9C9C9C",
"`. c #949799",
"'. c #968681",
"]. c #AD9A94",
"[. c #B6A29B",
"{. c #9A9FA8",
"}. c #99A2A7",
"|. c #A3A3A3",
" X c #ACACAC",
".X c #A0ABAD",
"XX c #A3B0AF",
"oX c #B4B4B4",
"OX c #BBBBBB",
"+X c #B6BABA",
"@X c #B4AAA6",
"#X c #C1BBB8",
"$X c #E5DBAF",
"%X c #C7C7C7",
"&X c #CBCBCB",
"*X c #C0C7CB",
"=X c #D1CFCD",
"-X c #CBCFD0",
";X c #CCD1D2",
":X c #CFD5D8",
">X c #D4D4D4",
",X c #DEDEDE",
"<X c #D0D7D8",
"1X c #FEF4C2",
"2X c #DEE5E5",
"3X c #E2E2E2",
"4X c #E4EAEB",
"5X c #E9EAEA",
"6X c #F3F3F3",
"7X c #FEFEFE",
/* pixels */
",X,X,X,X,X,X,X,X,X,X,X3X,X,X,X,X,X,X,X,X,X,X,X,X,X,X,X,X,X,X,X,X,X,X,X,X,X,X,X,X,X,X,X,X,X,X,X,X,X,X,X,X,X,X,X,X,X,X,X,X,X,X,X,X",
",X,X,X,X,X,X,X,X,X,X,X,X,X,X,X,X,X,X,X,X,X,X,X,X,X,X,X,X,X,X,X,X,X,X,X,X,X,X,X,X,X,X,X,X,X,X,X,X,X,X,X,X,X,X>X,X,X,X,X,X,X,X,X,X",
",X,X,X,X,X,X,X,X,X,X,X,X,X,X,X,X,X,X,X,X,X,X,X3X,X,X,X,X,X,X,X,X,X,X,X,X,X,X,X,X,X,X,X,X,X,X,X,X,XoXoXoXoXoX|.|._.|.&X,X,X,X,X,X",
",X,X,X,X3X,X,X,X,X,X,X,X,X,X,X,X,X,X,X,X,X,X,X,X,X,X,X,X3X,X,X,X,X,X,X,X,X,X,X,X,X,X,X,X,X,X,X XoXoXoXoXoXoXoX|.|.|.|.|.&X,X,X,X",
",X,X,X3X3X,X%X>X,X,X,X,X,X,X,X,X,X,X,X,X,X,X,X,X,X,X,X,X,X,X,X,X,X,X,X,X,X,X,X,X,X,X,X,X,X,XoXoXoXoXoXoXoXoXoX|.|.|.|.|.%X,X,X,X",
",X,X,X3X&X%X%X,X,X,X,X,X,X,X,X,X,X,X,X,X,X,X,X5X,X,X)._ t e e e t a a s T ] ,X,X,X,X,X,X,X7X6X|.oXoXoXoXoXoXoX|.|.|.|.|.|.|.,X,X",
",X,X,X3X%X%X%X3X3X,X,X,X,X,X,X,X,X,X,X,X,X3X5X7X,X/.  X O @ O . O . . X O   ] >X,X,X,X,X,X7X7X|.oXoXoXoXoXoXoXoXoXoX|.|.|. X,X,X",
",X,X,X,X%X%X%XoX,X,X,X,X,X,X,X,X,X,X,X,X3X7X7X7X X  O 5 c b b b c c x x x <   W ,X,X,X,X6X7X7XoXoXoXoXoXoXoXoXoXoXoXoXoXoXoX,X,X",
",X,X,X,X&X%X%XoX,X,X,X,X,X,X,X,X,X,X,X,X7X7X7XoX    0 ].[.[.[.[.[.[.[.[.[.n.#   ! ,X,X7X7X7X7X%XoXoXoXoXoX|.oXoXoXoXoXoXoXoX,X,X",
",X,X,X,X3X%X%X X,X,X,X,X,X,X,X,X,X,X%X=X7X7XoX    y K OX;X-X-X-X-X;X-X-X;X@XH ;   Q %X7X7X7X7X7X3XoXoXoXoX X|._.|.oXoXoXoXoX,X,X",
",X,X,X,X,X+XoX|.oX,X,X,X,X,X,X&X%X%X&X,X7X7X]   3 m.4Xa ; - - - ; ; ; ; ; W 5X( 2 X T ,X7X6X6X7X7X6X%X%XoXoXoX|.|.oXoXoXoX|.,X,X",
",X,X,X,X,X=X+XoXOX,X,X,X,X>X%X&X,X%X%X,X,X!   3 L.L.!.J.J.J.r ; - ; ; ; 2 a ^.L.v.2   _ ,X,X5X7X7X,X%X%X%XoXoXoX|.oXoXoX X|.>X,X",
",X,X,X,X,X,X,X,X,X,X>X%X%X%X,X,X%X&X,X,X,Xe . b =X).; $X1X1Xu ; ; - - - - ; ; +X#Xh   t ,X,X,X7X7X%X%X%X%XoXoXoXoXoXoXoX|.|.,X,X",
",X,X,X,X,X,X,X,X,X,X%X,X,X,X,X%X>X,X,X,X,X- @ n 2 ; : $X1X1Xt ; - - ; > - - ; ; 3 n X : ,X,X,X6X6X>X%X%X%XoXoXoXoXoXoX X|.>X,X,X",
",X,X,X,X,X,X,X,X>X%X>X,X,X3X%X%X,X,X,X,X,X& @ n 2 ; ; { J.J.e - - - - - - ; - > 3 n   : ,X,X,X,X,X,X%X%X%X|.oXoXoXoXoX|.,X,X,X,X",
",X,X,X,X,X,X,X,X%X>X,X,X,X&X%X3X,X,X,X,X,X& @ n 2 ; ; ; - - ; - ; - - ; - - - - 3 n . : ,X,X,X,X,X,X,X%X%X|._.|.|._.|.%X,X,X,X,X",
",X,X,X,X,X,X,X>X>X,X,X,X,X%X,X,X,X,X,X,X,X= + n ; ; ; - - ; - - - - - - - - - - 3 n X : ,X,X,X,X,X,X,X,X%X=X|.|.|.|.|.,X,X,X,X,X",
",X,X,X,X,X,X,X,X,X,X,X,X,X,X,X,X,X,X,X,X,Xo @ n 2 ; ; - - - - - - - - ; - - - ; 3 b   4 7X,X,X,X,X,X,X,X,X%X%X%X%X%X,X,X,X,X,X,X",
",X,X,X,X,X,X,X,X,X,X,X,X,X,X,X,X,X,X,X,X,X= @ n 4 ; ; ; - - - - - - ; ; - - ; ; 3 n   e ,X,X,X,X,X,X,X,X,X%X%X%X%X,X,X,X,X,X,X,X",
",X,X,X,X,X,X,X,X,X,X,X,X,X,X,X,X,X,X,X,X,Xo # M ; - ; ; - - - - - - ; > - - > - 3 n O > &X,X,X,X,X,X,X,X,X,X%X%X%X,X,X,X,X,X,X,X",
",X,X,X,X,X,X,X,X,X,X,X,X,X,X,X,X,X,XOX%X,X= @ 9 ! T ; ; - - - - - ; ; ; ; ; - W ~ 0 X - ,X,X,X,X,X,X,X,X,X,X,X,X,X,X,X,X,X,X,X,X",
",X,X,X,X,X,X,X,X,X,X,X,X,X,X,X,X,X-XoXoX,Xe . < `.' ; : - ; - - > ; - - ; ; - (.K.#   a ,X,X,X,X,X,X,X,X,X,X,X,X,X,X,X,X,X,X,X,X",
",X,X,X,X,X,X,X,X,X,X,X,X,X,X,X,X,X>X+XOX%XQ   > 4 E XX2X4X4X4X4X4X4X4X2X4X<X.XF 5 >   ` ,X,X,X,X,X,X,X,X,X,X,X,X,X,X,X,X,X,X,X,X",
",X,X,X,X,X,X,X,X,X,X,X,X,X,X,X,X,X%X%X%X%X%XT O 4 G ) [ !.^.!.^.!.^.^.^.^.[ _ F 2   W ,X,X,X,X,X,X,X,X,X,X,X,X,X,X,X,X,X,X,X,X,X",
",X,X,X,X,X,X,X,X,X,X,X,X,X,X,X,X,X%X%X%X%X(.  o c v ; ; ; ; ; - : - : > ; - - b v O   |.,X,X,X,X,X,X,X,X,X,X,X,X,X,X,X,X,X,X,X,X",
",X>X,X,X,X&X>X,X,X,X,X,X,X,X,X,X,X%X&X>XoXQ   3 N.D.f.f.C.E.E.E.E.E.E.E.B.f.f.G.5.2   ' ,X,X,X,X,X,X,X,X,X,X,X,X,X,X,X,X,X,X,X,X",
">X%X,X,X,X%X%X,X,X,X,X,X,X,X,X,X,X&X=X%X)   0 <.R.S.f.F.R.E.E.E.E.E.E.E.S.B.f.G.N.:.4   K.,X,X,X,X,X,X,X,X,X,X3X,X,X,X,X,X,X3X,X",
"%X,X,X,X&X%X%X,X,X&X,X,X,X,X,X3X,X,X,X,Xa X L E.E.S.f.E.E.E.E.E.E.E.E.E.E.H.f.H.E.E.J   R ,X,X,X,X,X,X,X,X,X,X,X,X,X,X,X,X,X,X,X",
">X,X,X,X%X%X%X,X,X,X,X,X,X,X,X,X,X,X,X).  # :.E.E.l.q.R.E.E.E.E.E.E.E.E.E.Z.w.A.I.Q.G $ ; ,X,X,X,X,X,X,X,X,X,X,X,X,X,X,X,X,X,X,X",
",X,X,X,X=X%X=X7X7X6X,X,X,X,X,X,X,X,X,X!   8 <.E.S.j.9.C.H.E.E.E.E.E.E.E.H.k.9.V.M.} H 2   ] ,X,X,X,X,X,X,X,X,X,X,X,X,X,X,X,X,X,X",
",X,X,X,X,X%X>X7X7X7X6X,X,X,X,X,X,X,X[   * b <.E.f.s.9.f.B.E.E.E.E.E.E.E.h.s.9.d.s.*.Z y O T ,X,X,X,X,X,X,X,X,X,X,X,X,X,X,X,X,X,X",
",X,X,X,X>X%X&X5X7X7X,X,X,X,X,X,X,X,XR   9 6.V.E.g.-.Z 0.q.q.q.t.q.q.q.q.w.-.B u.g.G.d.-.2   ' ,X,X,X,X,X,X,X,X,X,X,X,X,X,X,X,X,X",
",X,X,X,X>X&X%X%X%X XoX,X,X,X,X,X,X,X: + b :.4.c.>.;.B &.w.t.p.p.p.p.p.e.9.#.N :.4.c.<.,.c   s ,X,X,X,X,X,X,X,X,X,X,X,X,X,X,X,X,X",
",X,X,X,X,X%X%X%X%XoXoX,X,X,X,X,X,X,X: . b I P P P F B 9.r.h.E.E.E.E.D.f.w.#.N p P P I p c   s ,X,X,X,X,X,X,X,X,X,X,X,X,X,X,X,X,X",
",X,X,X,X7X7X7X>XOX+X>X,X,X,X,X,X,X,X; . m %X:X;X.Xv.B &.e.f.t.q.q.q.p.f.q.+.N /.}.{.*X].c   a ,X,X,X,X,X,X,X,X,X,X,X,X,X,X,X,X,X",
",X,X,X,X7X7X7X>X|.>X,X,X,X,X,X,X,X,X> + n `.}.}.n.x.C &.t.s.9.9.9.9.q.s.w.#.C m.(.~.}.K.c   t ,X,X,X,X,X,X,X,X,X,X,X,X,X,X,X,X,X",
",X,X,X,X7X7X5X|.|.,X,X,X,X,X,X,X,X,X> @ b i I i m C X.&.9.9.9.9.9.9.9.9.9.$.X.B F i P p b   t ,X,X,X,X,X,X,X,X,X,X,X,X,X,X,X,X,X",
",X,X,X3X7X7X7XOX,X,X,X,X,X3X,X,X,X,X= . : 6.z.P.A C X.o.@.9.9.9.9.9.9.9.O.o.X.B ;.P.i.1.z   e ,X,X,X,X,X,X,X,XoX+X,X,X,X,X,X,X,X",
",X,X,X,X7X7X7X%X,X,X,X,X,X,X,X,X,X,X= . 4 u.z.l.N V O.O.O.$.$.$.$.$.$.$.O.O.O.k  .Z.h.-.7   e ,X,X,X,X,X,X,X,XoXoX%X,X,X,X,X,X,X",
",X,X,X,X7X7X,X,X,X,X,X,X,X,X,X,X,X,Xr   2 7.r.&.6 V 9.9.$.X.S X.X.C X.X.8.9.9.f l 9.d.-.#   a ,X,X,X,X,X,X,X,X+XoXoX,X,X,X,X,X,X",
",X,X,X6X7X6X3X,X,X,X,X,X,X,X,X,X,X,X!   = 8 7 6 : Z w.A.V.u.o.X.X.o.2.Y.G.z.9.f 4 7 f 0 *   ` ,X,X,X,X,X,X,X,X,XoX,X,X,X,X,X,X,X",
",X,X,X,X6X,X,X,X,X,X,X,X,X,X,X,X,X,X,X!   . + # -  .p.R.G.B.3.2.O.2.M.E.E.Z.e.f - $ + .   _ ,X,X,X,X,X,X,X,X,XOXoX,X,X,X,X,X,X,X",
",X,X,X,X,X,X,X,X,X,X,X,X,X,X,X,X,X,X,X,XQ :     # ;.E.E.E.E.E.l.9.U.R.R.E.H.f.h #   O t _ ,X,X,X,X,X,X,X,X,X%XoXoX+X,X,X,X,X,X,X",
",X,X,X,X,X,X,X,X,X,X,X,X,X,X,X,X,X,X,X,X,X,X_   2 <.E.E.E.E.B.d.9.U.E.E.E.E.R.A 2   ] ,X,X,X,X,X,X,X,X,X,X,XoX+XoXoX#X,X,X,X,X,X",
",X,X,X,X,X,X,X,X,X,X,X,X,X,X,X,X,X,X,X,X>X%X^.  1 <.E.E.E.R.d.r.9.Z.H.E.E.E.E.=.m O   (.,X,X,X,X,X,X,X,X,X,X,X,XoXoXoX,X,X,X,X,X",
",X,X,X,X,X,X,X,X,X,X,X,X,X,X,X,X,X,X,X&X%X` X O 9 <.E.E.E.E.w.9.9.d.F.H.E.E.E.t.+.8   Q ,X,X,X,X,X,X,X,X,X,X,X,X&XoXOX,X,X,X,X,X",
",X,X,X,X,X,X,X,X,X,X,X,X,X,X,X,X,X,X,X=X XR   0 @.y.g.R.D.g.9.@.l M =.B.H.H.g.q.+.x   s ,X,X,X,X,X,X,X,X,X,X,X,X,X,X,X,X,X,X,X,X",
",X,X,X,X,X,X,X,X,X,X,X,X,X,X,X,X,X,X,X+XoX- + n 8.t.d.Z.k.s.#.V , : V d.A.C.d.w.@.7   s ,X,X,X,X,X,X,X,X,X,X,X,X,X,X,X,X,X,X,X,X",
",X,X,X,X,X,X,X,X,X,X,X,X,X,X,X,X,X,X%XoXoX* + n 0.9.9.9.9.&.6 , O 2 k 9.9.9.9.9.| ,   t ,X,X,X,X,X,X,X,X,X,X,X,X,X,X,X,X,X,X,X,X",
",X,X,X,X,X,X,X,X,X,X,X,X,X,X,X,XoXoXoXoX#X* + 8 %.9.9.9.9.&.6 # X 2 k 9.9.9.9.9.| -   e =X,X,X,X,X,X3X,X,X,X,X,X,X3X,X,X,X,X,X,X",
",X,X,X,X,X,X,X,X,X,X,X,X,X,X,X%XoXoX,X,X,Xo + : O.%.9.9.%...5 $   2 l @.0.9.9.#. .#   r %X,X,X,X,X,X,X,X,X,X,X,X,X,X,X,X,X,X,X,X",
",X,X,X3X,X,X,X,X3X,X,X,X,X,X3XoX+XoX,X,X,X& + - 2 V 9.9. .: : $ X 5 4 4 #.9.9.f : #   t &X>X,X,X,X,X,X,X,X,X,X,X,X,X,X,X,X,X,X,X",
",X,X,X,X,X,X,X,X,X,X,X,X,X,X,X+XoX,X,X,X,Xt & d 4 F E E F : + .   . 1 4 ~ / / w 4 -   ! %X>X,X,X,X,X,X,X,X,X,X,X,X,X,X,X,X,X,X,X",
",X,X,X,X,X,X,X,X,X,X,X,X,X,X,X,X,X,X,X,X_.  = d 4 t U Y p : $ . . . 1 4 U U U 5 5 q   Q %X+XoX,X,X,X,X,X,X,X,X,X,X,X,X,X,X,X,X,X",
",X,X,X,X,X,X,X,X,X,X,X,X,X,X,X,X,X,X,X,X_ X 1 : : p U P w : : : : : : 4 Y Y P 4 : , &   ` oXoX,X,X,X,X,X,X,X,X,X3X,X,X,X,X,X,X,X",
",X,X,X,X,X,X,X,X,X,X,X,X,X,X,X,X,X,X,X_.  # 4 ; : 4 8 5 4 : : : : : : : 8 w 4 : : : 1 . s +X+X,X,X,X,X,X,X,X,X,X,X,X,X,X,X,X,X,X",
",X,X,X,X,X,X,X,X,X,X&X&X,X,X,X,X,X,X,X`   # 4 4 : : : ; : : ; ; 4 : ; : : : : 4 - 4 2 . 4 oXOX,X,X,X,X,X,X,X,X,X,X,X,X,X,X,X,X,X",
",X,X,X,X,X,X%X%X%X%X&X>X,X,X,X,X,X,X,X_.  X - - ; ; ; - : ; ; - : : ; - ; ; - : - - >   R +X,X,X,X,X,X,X,X,X,X,X,X,X,X,X,X,X,X,X",
",X,X,X,X,X=X%X+X|.+X%X,X,X,X,X,X,X,X,X3X_.                                            ! >X%X,X,X,X,X,X,X,X,X,X,X,X,X,X,X,X,X,X,X",
",X,X,X,X&X%XoX X X>X,X,X,X,X,X,X,X,X,X,X,X`._ = o & o o o & = o & & o o o o & & o e ! ,X=X%X>X3X,X,X,X,X,X,X,X,X,X,X,X,X,X,X,X,X",
",X,X,X,X%XoXoX%X,X,X,X,X,X,X,X,X,X,X,X,X,X,X,X,X,X,X,X,X,X,X3X,X,X,X,X,X,X,X,X,X,X,X,X,X,X,X,X,X,X,X,X,X,X,X,X,X,X,X,X,X,X,X,X,X",
",X,X,X,X,X,X,X,X,X,X,X,X,X,X,X,X,X,X,X,X,X,X,X,X,X,X,X,X,X,X,X,X,X,X,X,X,X,X,X,X,X,X,X,X,X,X,X,X,X3X,X,X,X,X,X,X,X,X3X,X,X,X,X,X",
",X,X,X,X,X,X,X,X,X,X,X,X,X,X,X,X,X,X,X,X,X,X,X,X,X,X,X,X,X,X,X,X,X,X,X,X,X,X,X,X,X,X,X,X,X,X,X,X,X,X,X,X,X,X,X,X,X,X,X,X,X,X,X,X",
",X,X,X,X,X,X,X,X,X,X,X,X,X,X,X,X,X,X,X,X,X,X,X,X,X,X,X,X,X,X,X,X,X,X,X,X,X,X,X,X,X,X,X,X,X,X,X,X,X,X,X,X,X,X,X,X,X,X,X,X,X,X,X,X"
};
