/* XPM */
static char *result[] = {
/* columns rows colors chars-per-pixel */
"32 32 166 2 ",
"   c #010101",
".  c #0C0504",
"X  c #0A0A0A",
"o  c #130503",
"O  c #1C0502",
"+  c #140907",
"@  c #130B0A",
"#  c #1B0D0A",
"$  c #190A05",
"%  c #151515",
"&  c #1B1717",
"*  c #1D1C1C",
"=  c #220B06",
"-  c #240C09",
";  c #2D0B09",
":  c #330804",
">  c #340A08",
",  c #25100A",
"<  c #2A1109",
"1  c #34120E",
"2  c #32180F",
"3  c #2A1918",
"4  c #321710",
"5  c #321C16",
"6  c #361B1D",
"7  c #2F1B23",
"8  c #232323",
"9  c #2D2524",
"0  c gray16",
"q  c #362727",
"w  c #3E2A24",
"e  c #352B2E",
"r  c #31232C",
"t  c #313131",
"y  c #383636",
"u  c #3B3A3A",
"i  c #410E09",
"p  c #491009",
"a  c #43110B",
"s  c #55170E",
"d  c #471F11",
"f  c #481E12",
"g  c #611A0F",
"h  c #611D11",
"j  c #492113",
"k  c #462414",
"l  c #552B1A",
"z  c #58291A",
"x  c #6A2014",
"c  c #712C13",
"v  c #792819",
"b  c #713011",
"n  c #73301C",
"m  c #4F342E",
"M  c #5D3D33",
"N  c #553936",
"B  c #613325",
"V  c #7D412F",
"C  c #63463C",
"Z  c #373D4A",
"A  c #503F40",
"S  c #3C414D",
"D  c #364655",
"F  c #444444",
"G  c #4A4A4A",
"H  c #5E4740",
"J  c #565656",
"K  c #595250",
"L  c #5C5C5C",
"P  c #60424C",
"I  c #744E41",
"U  c #645858",
"Y  c #666050",
"T  c #636363",
"R  c gray42",
"E  c #717272",
"W  c #7D7D7D",
"Q  c #797675",
"!  c #932D1B",
"~  c #81381B",
"^  c #9D3B1A",
"/  c #9B301D",
"(  c #A2351F",
")  c #832A29",
"_  c #842C25",
"`  c #933024",
"'  c #A63A20",
"]  c #A53629",
"[  c #A33B29",
"{  c #AD3829",
"}  c #AA3A21",
"|  c #BF3E26",
" . c #B53F24",
".. c #C03F29",
"X. c #A04D1D",
"o. c #B15B1F",
"O. c #8C4921",
"+. c #9E5B2A",
"@. c #815D3C",
"#. c #B24620",
"$. c #BE5528",
"%. c #BB5D2B",
"&. c #B45F22",
"*. c #B64631",
"=. c #A95133",
"-. c #B16125",
";. c #B67638",
":. c #B67335",
">. c #D76A1F",
",. c #CE4429",
"<. c #C44925",
"1. c #D24D27",
"2. c #C65820",
"3. c #CA5D2B",
"4. c #D25326",
"5. c #D4522D",
"6. c #D95A2C",
"7. c #C56828",
"8. c #DD622D",
"9. c #D6762C",
"0. c #DD6532",
"q. c #D16033",
"w. c #DB7138",
"e. c #DE7C3B",
"r. c #E26626",
"t. c #E56C25",
"y. c #E9742C",
"u. c #E9772D",
"i. c #E16E34",
"p. c #E27136",
"a. c #896F66",
"s. c #826962",
"d. c #907870",
"f. c #DC853A",
"g. c #ED8536",
"h. c #EF8937",
"j. c #E9833D",
"k. c #EE8938",
"l. c #F2923D",
"z. c #948878",
"x. c #A0987B",
"c. c #C58150",
"v. c #ED9845",
"b. c #F29641",
"n. c #F49B44",
"m. c #8E8E8E",
"M. c gray59",
"N. c #9B9B9B",
"B. c #A89E9A",
"V. c #97A0A5",
"C. c #A2A2A2",
"Z. c #ADADAD",
"A. c #BCB0AB",
"S. c #ADB5BA",
"D. c gray71",
"F. c #BDBBBD",
"G. c #C1B3AE",
"H. c #EEE4B6",
"J. c #BCC3C7",
"K. c #C7C7C7",
"L. c #CACACA",
"P. c #D3D3D3",
"I. c #DEDEDE",
"U. c #E2E2E2",
"Y. c #EBEBEB",
"T. c #FEFEFE",
/* pixels */
"I.I.I.I.I.I.I.I.I.I.I.I.I.I.U.I.I.I.I.I.I.I.I.I.I.I.I.I.I.I.I.I.",
"I.I.I.I.I.I.I.I.I.I.I.L.G %         X R V.I.I.I.I.I.I.T.T.I.I.I.",
"I.I.I.I.I.I.I.U.I.I.P.G   + < < , , $     C.I.I.I.I.T.T.U.I.I.I.",
"I.I.I.I.I.I.I.I.I.I.R   # d.G.A.G.G.A.w     M.I.I.I.I.K.L.I.I.I.",
"I.I.Z.D.I.P.K.K.K.R   @ a.Q y y y y u B.5   L I.I.I.K.K.I.I.I.I.",
"I.F.N.N.I.K.K.K.K.t   M R x.H.8 & & & t z.=   I.I.I.K.I.I.I.I.I.",
"I.P.C.D.K.K.K.K.K.*   k * Y z.3 & & & & 5 ,   I.I.I.I.I.I.I.I.I.",
"I.K.K.K.K.K.K.K.K.*   d & & & & & & & & 5 ; X I.I.I.I.I.I.I.I.I.",
"P.K.K.K.K.K.N.N.N.%   d & & & & & & & & 5 < X K.L.I.I.I.I.I.I.I.",
"I.K.P.L.N.N.N.N.N.%   j 0 & & & & & & & w ,   L.K.I.I.I.I.I.I.I.",
"I.L.P.D.N.N.N.K.N.t   q Y L T T T T T J U . X K.K.I.I.I.I.I.I.I.",
"I.I.I.I.Z.C.P.I.K.m.  @ m R E E E E E K 1   G P.I.I.I.I.I.I.I.I.",
"I.I.I.I.I.I.I.I.I.L   l :.o.;.;.;.;.-.-.+.+   E I.I.I.I.I.I.I.I.",
"I.I.I.I.I.I.I.I.W   & v.g.h.n.n.n.n.n.u.v.@.  u I.I.I.I.I.I.I.I.",
"I.I.I.I.I.I.I.I.G   d b.y.y.b.n.n.n.l.8.c.P .   M.I.I.I.I.I.I.I.",
"I.I.I.I.I.I.I.I.X @ X.l.2.<.w.i.p.p.8.#.y.3.k   T I.I.I.I.I.I.I.",
"I.I.U.I.I.I.I.I.  < M H B ( r.j.j.y.1.n C C z   8 I.I.I.I.I.I.I.",
"I.I.I.I.I.I.I.I.  < F.J.a.( t.5.5.r.1.V V.S.I   * T.I.I.I.I.I.I.",
"I.I.I.I.Y.T.Y.I.  < N M n ] ,.,.,.,.*._ B A z   * Y.I.I.I.I.I.I.",
"I.I.I.I.T.U.I.I.  O 8.%.v ] { { { { ] ` n y.b   % I.I.I.I.I.I.I.",
"I.I.I.I.I.I.I.I.8 . b h v 0.<.) ) =.w.#.p v 2   T I.I.U.I.I.I.I.",
"I.I.I.I.I.I.I.I.J     + O.b.b.e.q.b.n.7.= .     N.I.I.I.I.I.I.I.",
"I.I.I.I.I.I.I.I.I.J 8   +.n.b.t.0.l.n.f.f   K M.I.I.I.I.I.I.I.I.",
"I.I.I.I.I.I.I.I.I.L   5 %.b.k.,.( 9.n.g.( O X I.I.I.I.I.I.I.I.I.",
"I.I.I.I.I.I.I.I.I.0   c 1.r.4.h - ^ 8.6.( o   I.I.I.I.I.I.I.I.I.",
"I.I.I.I.I.I.I.I.I.* X s ,.,...; # ! ,.,./ o   I.I.I.I.I.I.I.I.I.",
"I.I.U.I.I.I.I.I.I.*   1 _ *.s = @ i ` *.a o X I.I.I.I.I.I.I.I.I.",
"I.I.I.I.I.I.K.K.K.0   r e D 1 o . ; Z Z 1 X   W I.I.I.I.I.I.I.I.",
"I.I.I.I.P.K.K.L.K.  X : 6 r >     : e 7 :     F I.I.I.I.I.I.I.I.",
"I.I.I.L.K.K.P.I.I.X   : : : :     O : : :     G I.I.I.I.I.I.I.I.",
"I.I.I.P.P.I.U.I.I.u                           W I.I.I.I.I.I.I.I.",
"I.I.I.I.I.I.I.I.I.K.F X X X X X X X X X X G W I.I.I.I.I.I.I.I.U."
};
