/* XPM */
static char *_480310bd0ed4bbab9d6d4c5184e4969Tqseby42lDm321xU[] = {
/* columns rows colors chars-per-pixel */
"64 64 209 2 ",
"   c #07090E",
".  c #0A0A0B",
"X  c #1D130C",
"o  c #0C0E13",
"O  c #090B1C",
"+  c #070A14",
"@  c #0E1116",
"#  c #0D161F",
"$  c #121315",
"%  c #13151A",
"&  c #151A1E",
"*  c #1C1C1D",
"=  c #191717",
"-  c #28150B",
";  c #32190F",
":  c #342E1A",
">  c #0A0C24",
",  c #0B0D2C",
"<  c #0E1323",
"1  c #141621",
"2  c #1B1D22",
"3  c #171C24",
"4  c #0C0D32",
"5  c #0F1038",
"6  c #161A37",
"7  c #1C232B",
"8  c #192027",
"9  c #1A2539",
"0  c #1E303D",
"q  c #232324",
"w  c #22252A",
"e  c #25282D",
"r  c #2C2C2D",
"t  c #242C35",
"y  c #2C2E33",
"u  c #232735",
"i  c #2F3133",
"p  c #2D323A",
"a  c #26333B",
"s  c #333435",
"d  c #393935",
"f  c #353639",
"g  c #36383B",
"h  c #3B3C3D",
"j  c #393737",
"k  c #393728",
"l  c #41381F",
"z  c #463D29",
"x  c #504B1C",
"c  c #766B1F",
"v  c #41412F",
"b  c #464532",
"n  c #7E7228",
"m  c #0C0D48",
"M  c #0E135F",
"N  c #141857",
"B  c #1B2B41",
"V  c #172E51",
"C  c #253142",
"Z  c #2B3341",
"A  c #2E3B49",
"S  c #313642",
"D  c #363B42",
"F  c #3C3E41",
"G  c #24275B",
"H  c #292A4C",
"J  c #0C0F60",
"K  c #131761",
"L  c #282A6B",
"P  c #413F42",
"I  c #3E4043",
"U  c #3E4249",
"Y  c #1C527D",
"T  c #224462",
"R  c #3E627A",
"E  c #424344",
"W  c #464649",
"Q  c #47484B",
"!  c #4A4B4D",
"~  c #48474B",
"^  c #4D4E51",
"/  c #474956",
"(  c #4E5053",
")  c #4E535A",
"_  c #525355",
"`  c #555659",
"'  c #56585B",
"]  c #5A5B5D",
"[  c #5E5850",
"{  c #6C6A4F",
"}  c #5C5E61",
"|  c #505662",
" . c #5E6163",
".. c #5B626D",
"X. c #616466",
"o. c #646669",
"O. c #66696B",
"+. c #696C6E",
"@. c #656971",
"#. c #6C6E71",
"$. c #636772",
"%. c #6E7173",
"&. c #6E737D",
"*. c #707375",
"=. c #717376",
"-. c #717476",
";. c #727577",
":. c #737677",
">. c #717476",
",. c #737678",
"<. c #737578",
"1. c #747779",
"2. c #75777A",
"3. c #747679",
"4. c #76797B",
"5. c #75787A",
"6. c #777A7C",
"7. c #76797B",
"8. c #787B7D",
"9. c #7A7B7D",
"0. c #7B7D7F",
"q. c #797C7E",
"w. c #797C7E",
"e. c #717468",
"r. c #7F8150",
"t. c #9F953A",
"y. c #A49627",
"u. c #958D4E",
"i. c #ABA244",
"p. c #BCB345",
"a. c #B2AD5F",
"s. c #B8B253",
"d. c #979263",
"f. c #938E79",
"g. c #BCB875",
"h. c #C2BB4B",
"j. c #C1BB5A",
"k. c #C1BF7A",
"l. c #CAC45D",
"z. c #C8C679",
"x. c #3E5F8A",
"c. c #347E9E",
"v. c #2D77A3",
"b. c #767A84",
"n. c #7C7F80",
"m. c #7C7E81",
"M. c #78798A",
"N. c #6E7C86",
"B. c #338FB1",
"V. c #7E8183",
"C. c #7D8082",
"Z. c #7F8284",
"A. c #7E8183",
"S. c #7D828B",
"D. c #438DAF",
"F. c #4188B1",
"G. c #818284",
"H. c #828586",
"J. c #828485",
"K. c #858789",
"L. c #848689",
"P. c #86898A",
"I. c #86898B",
"U. c #888A8C",
"Y. c #8A8C8E",
"T. c #8A8C8D",
"R. c #8C8E91",
"E. c #888D99",
"W. c #8E9092",
"Q. c #8D929B",
"!. c #81909C",
"~. c #929495",
"^. c #94969A",
"/. c #97999A",
"(. c #9A9B9C",
"). c #ACAD8D",
"_. c #9C9EA4",
"`. c #979CA5",
"'. c #8E9AA9",
"]. c #9DA2A9",
"[. c #A2A3A4",
"{. c #A1A6AE",
"}. c #A9AAAE",
"|. c #B8B9A8",
" X c #A1A7B0",
".X c #A5AAB2",
"XX c #A9ADB5",
"oX c #ADB1BA",
"OX c #ACB0B7",
"+X c #B2B6BE",
"@X c #B4B8BF",
"#X c #BEC09A",
"$X c #BDC0BF",
"%X c #C1C193",
"&X c #82ABC1",
"*X c #B6BBC4",
"=X c #BABDC5",
"-X c #B7BBC4",
";X c #A7BACA",
":X c #BCC0C7",
">X c #BEC2CA",
",X c #C2C6CD",
"<X c #C4C8CE",
"1X c #C6CAD1",
"2X c #C9CDD3",
"3X c #C1C6D0",
"4X c #CDD1D7",
"5X c #CFD3D9",
"6X c #D3D6DB",
/* pixels */
"#.+.O.O.T.#.E %.=.+.O.4.+.H.#.X.#.+.o.=. .` } X.#.+.+.} ;.G.] O.+.#.%.] +.%.G.W.6.+.#.+.O.1.=.#. .%.I.8.#.8.+.O.+.X. .+.8. .J.0.",
"+.} O.X.Y.#.h #.=.O.X.%.=.0.1.+.O.O.o.o. .` _ ! +.%.X.O.%.4.+.O.%.%.O.' } +.4.^.#.%.+.8.6.X.O.+.O.%.J.C.#.;.O.+.#.=.+.=.n.O.,.n.",
"+.h ` %.;.+.} ;.%.+.o. .K.L.+.O.+.O.%.O.X.' ~ s ;.,.#.=.;.+.#.O.=.%.X.^  .;.4.R.J.;. .#.%.+.%.+.1.;.I.n.8.;.O. .%.%.1.;.8.4.+.C.",
"+.^ _ 4.;.O.O.;.=.o.} o.I.J.%.%.+.O.;.+.X.} ~ F %.#.+.;.%.%.+.X.1.;.X.] ! K.8.T.T.o. .o.#.=.C.^ I.0.8.0.;.,.+.X.%.,.%.I.1.,.O.%.",
"O.' ] o.%.+.#.%.%.O.] +.o.J.%.=.%.O.O.X. .' `  .] ;.#.=.6.` %.+.,.;.#. .] n.8.Z.Z.+.O.%.^ +.I.4.#.%.=.4.6.=.=.X.O.;.;.W.T.] X.+.",
"O. .o.o.O.O.+.#.O.O. .' =.I.;.#.O.o.O.X.] ' ;.} ^ O.6.+.1.;.1.%.;.#.J.+.#.%.4.C.o.+.#.4.` =.K.,.+.+.;.,.C.,.=.X.O.%.C.U.^._ ] +.",
"+.;.' O.#.o.%.#.#.O.X.^ #.~.4.1.+.X.+. .^ 0.1.O.^ h 8.1.0.,.%.%.=.#.0.o.1.1.#.;.X.} ;.K.G.C.;._ T.=.%.;.m.1.o.o.%.1.G.K.0.+.%.+.",
"4.8.+._ %.%.%.K.X.=. .^ 1.=.6.%.O.O.X. ._ T.=.O.X.j n.0.n.1.+.%.=.,.%.O.;.+.X.J.] o.,.K.Y.%.0._ W.=.#.=.;.=.X.#.=.C.G.#.n.=.n.G.",
"J.#.O.+.%.,.#.%.+.,.}  .o.+.4.6.o.%.O.X._ T.U.=.] E n.T.C.0.#.=.=.6.#.+.%.X.m.U.o.o.+.4.R.;.n.;.;.O.#.%.;.;.O.o.+.G.#.( n.K.,.U.",
"8.=.X.%.R.Z.} ! ;.#.O.X.4.` +.O.=.,.0.o. .+.I.C.+.O.4.U.^.C.%.=.6.0.X.,.#.+.6.U.;.=.` %.~.6.=.4.+.+.%.%.;.1.%.` +.J.4. .G.0.8.T.",
"8.%.#.o.~.I.o.E ;.;.O.o.;.X.O.X.,.%.G.O.;.#.^ 1.1.4.Z.m.I.K.0.n.L.+.o.G.+.+.n.0.8.n.o.%.G.%.%.n.%.#.1.%.,.=.%.X.6.Z.n.4.o.=.C.U.",
"%.C.%.] =.C.%. .4.0.4.%.o.o.+.X.;.4.4.+.} ;.+.#.o.6.L.8.m.C.4.I.R.+.4.I.+.4.G.=.n.} J.%.,.8.4.%.1.,.;.1.1.O.%.L.+.C.8.6.;.0.0.J.",
"n.=.4.%.%.o.O.+.%.m.1.=.+.+.} } #.I.+._ +.X.%.O.X.U.I.C.4.T.(.(.(.~.Y.H.#.;.1.%.%.1.4.O.K.C.1.,.8.6.1.,.6.X.K.] ] n.J.0.1.m.4.J.",
"U.] =.;.;.O.o.+.%.1.4.,.O.X.] +.K.T.,. .E %.+.+.f.s.OXoX@X=X:X:X:X,X=X}.~.4.%.%.#.1.;.1.4.K.0.=.4.n.:.J.%.+.8.! +.%.K.T.%.,.+.I.",
"K.X.#.+.1.%.X.O.%.8.4.=.] o.X.+.W.R.;.#.j Y.%.8.i.k.*X*X:X,X>X1X1X,X,X,X*X(.%.#._ 1.C.0.0.K.1.;.4.J.I.8.+.%.O.! #.%.I.G.;.8.;.K.",
"0.#.%.+.K.1.o.+.%.1.8.4.]  .C.%.O.I.;.} +.I.G.G.p.).:X:X:X:X1X2X2X2X,X,X,X*X(.4.] 1.J.L.C.C.m.T.%.C.U.#.' #.} =.=.0.I.0.n.0.4.G.",
";.;.#.X.J.Z.#.8.;.+.%.K.X.n.I.%.o.#.o.,.L.C.M.o.j.#X:X:X,X<X2X4X4X2X2X1X>X:X@X(.8.1.K.U.T.C.C.~.m.n.=.X.o.+.O.J.n.%.o.%.n.~.J.1.",
"4.#.%.+.1.0.#.W.=._ %.0.} n.I.=.+.%._ #.J.M.G X.h.%X:X=X:X1X4X5X6X6X2X2X1X*X=XXX(.1.L./.W.G.R.U.O.O.8.#.+.#.%.8.n.} o.,.J.U.C.%.",
"8.o.O.%.,.+.O.I.4.} %.=. .%.C.4.4.O.] C.J.L G } p.z.:X=X:X,X2X5X6X6X1X3X,X*X=X@X_.G.I._.K.K.n.^.=.8.C.%.+.#.;.4.n.} X.K.L.4.1.%.",
";.] ` _ 1.;.%.%.C.;.%.%.+.+.,.;.;.} +.G.$.J G ..i.z.:X-X-X:X1X2X2X4X1X3X:X=X@X@X].~.I.~.,.%.I.~.K.J.1.O.6.4.+.4.4.+.X.C.8._ %.o.",
"4.X.` ! ] n.1.8.C.,.#.o.#. .O.4.+.+.8.G.H K N | u.l.$X@X@X=X:X2X2X,X:X,X,X=XOX@X].(.U.=.n.+.C.~.R.(.X._ %.~.%.;.;.6.4.0.! E #.o.",
"1.%.X.~ E 4.1.4.m.Z.;.%.O.] o.%.;.0.4.H.6 N K D { h.|.@XoX@X@X=X:X:X=X=X=X@X XXX].(.8.,.m.m.G.T.~.~.G.~ ;.R.%.;.C.Z.,.0.s _ O.+.",
"8.n.] F F ,.G.+.4.+.n.%. .F +.#.8.4.I.I.5 N M 7 F i.g..X.XXX@XoX@X*XoXoXoX{. X{.`.^.#.C.1.Z.R.n.~.T.I.=.0.` ;.U.C.G.%.%.r ! +.%.",
"+.O.] ! E C.=.1.#.+.K.%.O.` } } 1.4.R.G., m J < g n s.[.`.].oXoXXXoXoXXXXX{.{.`.Q.W.0.0.] 6.U.T.I.T.T.4.C.X.4.K.C.#.;.#.F E +.#.",
"o. .^ ] ` G.#.#.%.6.0.4.=.' ] E #.6.R.L., , m , 7 b y.).Q.`.`.{. X.XXX].].`.^.E.L.T.Y.+.o.1.K.~.L.K.~.8.m.6.=.;.%.#.} o.o.~ O.#.",
" .} _ o.X.;.O.#.,.U.G.+.U.O. .! ` Z.G.n., > m 4 < p n a.J.Q.Q.Q.{.].`.Q.Q.E.S.M.#.`.OXI.#.4.W.T.J./.K.;.1.O.6.+.O.~ ` %.O.8.+.4.",
"O.] _ ;.;.X.#.o.C.O.4.#.+.#.} ] E J.I.1.B , , , > 7 v y.d.b.S.L.E.Q.L.L.U.S.<.@.^ oX*X_.C.4.I.J.~.~.;.+.%.,.8.#.] h ] %.O.1.C.U.",
"] ` #.;.O.] o.X.#.1.;.#.+.o.` ] ` m.K.8./ , , > > O y x t.e.&.b.M.M.S.b.&.@.} ( Q *X=X~.K.4.I.4.L.1.+.4.=.J.,.+.E F _ #.=.=.%.U.",
"X.o.#.O.o. .] ' _ %.;.#.#.O.} ` =.C.m.;.m.4 > > , , 1 p c r.&.b.N.b.b.@.} / W g ^ @X*XU.K.C.,._ K.,.0.C.0.T.1.%.r r ` +.%.%.#.J.",
"o.+.O.O.O.O.] ^ ~ X.=.%.%.;.%.+.%.4.=.O.G./ , , > > + e k { x.v.F.D.c.R U g s s ' oX*XI.K.6. .} R.,.G.C.m.C.=.O.h s  .+.#.%.=.G.",
"o.#.#.#.;.,. .E E #.0.+.=.%.;.%.%.,.=.%.+.R.t > > > O & 0 V v.&X;X&XB.Y S g g f b.oX=XU.R.,.] +.W.8.n.m.4.4.+.o.X.E } #.%.#.+.J.",
"+.+.+.+.o.O.] _ ! n.=.=.=.=.;.,.4.1.#.%.#.4.0.) < > > 8 B Y !.XX+XXX'.T g f y F oX:X*XL.R.J.,.%.J.J.C.C.8.m. .#.O.4.+.,.0.#.,.J.",
"G.o.%.X.o.O.]  .} L.;.+.1.%.#.#.J.4.%.#.=.#.+.=.;.& 1 p B A b.f.u.d.*.D g w $ g ` ' O.6.K.~.C.4.m.L.K.Z.m.C.#.4.%.,.G.;.1.n.;.J.",
"U.+.#.=.%.%.+.%.+.0.,.+.n.#.#.=.R.I.C.%.%.O._ +.0.G.g h F A v : - x j e $   % p g D I } U.^.I.G.1.Z.L.G.Z.n.8.0.;.=.G.1.4.I.+.T.",
"4.n.0.O.%.4.%.6.4.,.=.#.#.4.+.=.~./.O.%.%.O.E o.I.=.f 2 s y r : = % o   & e 2 i j j d ` U.I.n.8.#.C.U.8.J.4.6.6.;.4.C.1.Z.;.#.I.",
"J.4.+.] 1.C.6.m.,.4.;.;.O.K.+._ T.K.0.,.%.} E +.C.H.l *         + O 3 s F s w p F D F } Z.~.0.,.4.C.8.8.W.=.1.,.%.+.O.0.(.4.4.G.",
"T.;.;.` o.%.G.I.0.4.=.;.+.K.X.o.~.*.m.;.O. .` #.4.R.z ; 8 @ o > > 6 S I g s e p g D F ( Z.I.K.+.m.C.6.G.m.n.J.%.1.s #.1.[.J.O.1.",
"n.,.,.o.=.' O.Z.8.1.;.=.%.=.+. .G.6.n.;.;.#.X. .` ' [ - k Z 9 B Z C 9 Z g s w p g D D I Z.0.8.=.G.C.C.m.4.,.J.G.m.h X.8.[.J.` G.",
"C.%.,.;.#.X.} 4.0.;.;.;.%.%.#.+.O.%.+.#.O.} ( E E E g j j D D g S D D a s s t y g D D I 8.#.4.J.%.T.0.0.4.=.1.I.C.! 4.0.[.+.( K.",
"%.#.4.8.O.O._ +.Z.,.1.1.#.=.%.n.O.' ! Q ' ! E g g h $ w F F D g D D D g g s y e D ^ ' O.K.J.,.I.o.T.;.G.4.;.;.I.K.~ U.~.K._ ] 8.",
"~ P n.4.#. ._ X.C.8.%.=.;.#.+.+.` ! h i E g f s f h & @ g D D Z D D D g g g g s o.W.6.;.4.K.X.U.G.8.6.T.=.=.6.J.J.0.1.4.;.^ %.' ",
"' ] J.0.=.+.` ` 4.n.8.+.} ^ ` ` I f s * h g s s g F $ o p g D D S D D g f g h D #.0.=.%.0.L.=.I.C.0.R.4.o.+.o.%.T.^.;.4.+.` n.o.",
"%.4.U.+.;.;.] P #.G.;. .g I F E g s s e g g s g g h q . w f D D F ^ / g f h h I 0.1.;.#.m.T.8.~.4.0.1. . .4.] ;.(.J.0.W.+.} o.H.",
"1.%.C.1.C.=.] ` } #.] Q h g s h h r s s f h y s f g E h p f D D F $.) f ^ %.%.0.0.4.8.;.C.C.J.T.0.8.X.] O.4.+.1.^.[.=.I.4. .^ G.",
",.0.K.;.;.4.+. .' ' Q F h f s f h r g s h g i s s s I F t 2 y D Q o.U } J.m.1.0.%.8.0.4.0.C.8.C.K.=.] X.#.=.8.G.(.~.G.I.,.#.X.C.",
"K.~.J.0.+.o.! } _ E g h g s g g s g g f h s s s y F D D * . . . 1 u p o.4.8.8.G.o.J.m.4.4.m.;.6.J.#.^ o.=.m.;.J.T.~.=.G.T.=.6.U.",
"(.(.8.4.+.O.E I E g g g g g I f r q h s f f s s s F D g 8 . . . % 3 y Q ` +.*.4.+.X.] 8.+.;.0.1.m.;._  .;.1.8.0.T.~.#.K.T.0.G.~.",
"T.R.J.%.;.] E r h h h h s E h f s = s h s s s f s i t t 2 . o . 3 u p g E E ! ] ` _ h ` ;.,.#.J.C.#.+.' =.;.8.J.U.K.8.8.0.K.0.R.",
"K.] Z.,.%.` h q E f h h f E E g r q g s g s f f E s % & o X * = $ o s i g h E E h s q ! +.0.O.C.n.m.n.] 4.6.m.I.~.C.J.%.0.J.C.1.",
"J.1.4.4.#.` e r F g h f s s h g r g s s e g s I ~ h s * . . . X . $ y i g h E E g g e ~ #.1.+.6.4.6.0.=.J.0.8.~.K.8.m.+.8.6.J.G.",
"0.T.J.0.o.~ f s g g s s s s g s g h s s i s h I h s E r . . . . . . y h h f I F f g s ( o.O.;.;.1.,.4.8.Z.K.J.G.%.%.;.X.O.1.1.^.",
"] ` I.J.X.E r h h h f s s f g s s f s s s E E h E g E 2 . . . . . % 0 I g h h h g s s Q ] +.1.=.;.,.4.n.n.K.K.=.O.O.} ] o.4.0.~.",
"X.F _ K.X.E s I g h g f f g g s s s s f j ! E I f f D p * o o . . # B ~ g g h s h y h E ' ;.#.=.%.C.4.8.J.K.K.O.} } ^ X.#.=.4.W.",
"` ] h =.O.` s h s F s s f f h s f r i f E E Q F r F I F w 3 @ o 9 8 C Q h g h s h s h E  . .+.4.0.n.6.8.m.J.C.#.( ~ ] O.#.=.;.U.",
"o.^ E ] +. .E r s h s s g g s g f s r s h ! F E g F I F g r a C C S f s h g h g s g F ! ` X.#.=.L.4.n.1.n.C.C.1.r _ O.+.#.C.%.K.",
"+.' E ` 4.*.( f r s g s g s s f s g i r s ~ E E h 7 D D F F s y p w o E E ! ! ^ ( ~ ! } ` } 8.4.;.%.=.0.0.0.Z.n.g ! O.+.%.4.8.C.",
"+._ h #.,.=.X.E g f s s s f s s s s r s f E F F ~ $ & w e w * @ % q F E ' X.X.X._  .! +.#.o.O.#.4.%.+.0.4.n.m.G._ E  .O.#.;.;.G.",
"+.^ g X.0.1.+.` _ g i q y s g s i s r i g E F h F E r q q e s E E E ~ ] ,.%.1.%.] +.C.%.X.+.O.%.%.#.=.0.O.G.4.0.! ^ ] O.+.+.%.G.",
"} ' ` X.%.4.%.X.+.Q h * e g s s r i s s s s h h h h I E h s r g E ! _ %.(.o.%.n.] 4.,.O.=.#.O.=.#.O.#.1.%.n.+.=.! +.! X.#.O.=.H.",
"] Q +.+.1.#.=.O.0. .( q g g s i y s s s s g s f h g g f f s h E _ ;.E G./.o.;.G.%.;.O.o.4.%.+.%.=.} ;.#.8.#.0.O.O. .'  .+.=.%.G.",
"X.X.%.+.#.#.+.X.%.:.~ h ~ h g i i f g s s s s s g s g h s s h `  .%.;.C.%.4.C.G.0.+.#.%.X.,.%.o.+. .O.1.4.4.1.;.O.#.] } } 8.8.H.",
"%.O.X.X.%.#.X.O.O.%.o.] ! ` ! r s F s y s s s s s s s h g s I ] O.#.%.,.4.0.G.4.G.%.+.Q ' =.O. .K.+.X.%.n.8.#.%.#.+.+.O.O.=.0.T.",
"%.O.o.O.O.^ #.' o.o. .} ` %.] h ! ! F s r y s s s s r s s r E ! O.~ T.#.=.8.8.+.4.#.] h  .+.0.%.=.o.O.O.+.%.8.+.O.+.o.X.1.G.1.C.",
";.X.} ;.O.] n.%.%.O.} o.' 1.X.' _  .! ^ g s s h h g g s h F _ ' X.} 1.+.1.T.Y.*.I.Y.;.X.4.C.R.T.0.8.0.C.n.U.G.0.4.C.G.8.U.K.U.U."
};
