/* XPM */
static char *result[] = {
/* columns rows colors chars-per-pixel */
"64 64 208 2 ",
"   c #07090B",
".  c #090A0C",
"X  c #18140C",
"o  c #070B16",
"O  c #0B0D13",
"+  c #0E1014",
"@  c #0C141A",
"#  c #111315",
"$  c #13151A",
"%  c #151A1D",
"&  c #1B1B1D",
"*  c #1A1815",
"=  c #291D13",
"-  c #202319",
";  c #372E17",
":  c #0A0C29",
">  c #080C24",
",  c #0B1321",
"<  c #161B22",
"1  c #1B1D23",
"2  c #15182C",
"3  c #171727",
"4  c #0B0B33",
"5  c #0B0B3B",
"6  c #161A3B",
"7  c #1F2125",
"8  c #1E222B",
"9  c #112332",
"0  c #1F2A32",
"q  c #1D293D",
"w  c #222324",
"e  c #242529",
"r  c #262A2E",
"t  c #2C2C2D",
"y  c #262A24",
"u  c #252B33",
"i  c #2C2E32",
"p  c #2A2F39",
"a  c #202838",
"s  c #2F3033",
"d  c #2E323B",
"f  c #333435",
"g  c #343639",
"h  c #36393B",
"j  c #3A3B3D",
"k  c #3A3835",
"l  c #483822",
"z  c #403D32",
"x  c #554E15",
"c  c #4C4829",
"v  c #7E763C",
"b  c #101B42",
"n  c #0B0C58",
"m  c #090A42",
"M  c #1B3C58",
"N  c #192E43",
"B  c #232341",
"V  c #243141",
"C  c #2E3642",
"Z  c #2F3A43",
"A  c #353A42",
"S  c #3B3D42",
"D  c #223D55",
"F  c #0A0B6C",
"G  c #090A67",
"H  c #0E1562",
"J  c #0D0E7D",
"K  c #11147B",
"L  c #2D3566",
"P  c #413F42",
"I  c #3E4042",
"U  c #3A4455",
"Y  c #13517D",
"T  c #424344",
"R  c #444649",
"E  c #47494B",
"W  c #4A4B4C",
"Q  c #48474B",
"!  c #4D4E51",
"~  c #464958",
"^  c #4F5154",
"/  c #4E515A",
"(  c #525255",
")  c #555659",
"_  c #57595B",
"`  c #5A5B5E",
"'  c #525649",
"]  c #6F6C52",
"[  c #6E6846",
"{  c #5C5E61",
"}  c #575A65",
"|  c #4A4A61",
" . c #5F6163",
".. c #5C6068",
"X. c #5D6A7F",
"o. c #616466",
"O. c #646669",
"+. c #66696B",
"@. c #696C6E",
"#. c #6C6E71",
"$. c #646975",
"%. c #6E7173",
"&. c #6B737C",
"*. c #717476",
"=. c #747679",
"-. c #76797B",
";. c #797C7E",
":. c #93851A",
">. c #938925",
",. c #A79A30",
"<. c #B1A628",
"1. c #C0B13A",
"2. c #928B4B",
"3. c #95905A",
"4. c #B8AF57",
"5. c #8B8B7D",
"6. c #A29C73",
"7. c #D0C65A",
"8. c #CEC452",
"9. c #D3CB67",
"0. c #D8D16C",
"q. c #0C0D84",
"w. c #151A8A",
"e. c #181C9F",
"r. c #191E93",
"t. c #1D2188",
"y. c #1F259A",
"u. c #2E3381",
"i. c #2E3491",
"p. c #1B598B",
"a. c #1E6289",
"s. c #31719A",
"d. c #2878A2",
"f. c #4A4C80",
"g. c #4F5083",
"h. c #585988",
"j. c #5B5E97",
"k. c #446489",
"l. c #696B8B",
"z. c #626382",
"x. c #6A7482",
"c. c #767982",
"v. c #7C7E81",
"b. c #797B85",
"n. c #6E7294",
"m. c #727393",
"M. c #6B76A3",
"N. c #7E8183",
"B. c #7C828B",
"V. c #7D8192",
"C. c #5F87A8",
"Z. c #7493A1",
"A. c #828485",
"S. c #848689",
"D. c #86898A",
"F. c #898B8D",
"G. c #9E9D8F",
"H. c #858993",
"J. c #8C8E91",
"K. c #86899B",
"L. c #8E9192",
"P. c #8D929B",
"I. c #929395",
"U. c #93969B",
"Y. c #97999A",
"T. c #9A9B9D",
"R. c #BDBD80",
"E. c #ACAD95",
"W. c #B6B59B",
"Q. c #B0B291",
"!. c #B3AD84",
"~. c #9397A3",
"^. c #9499A3",
"/. c #9B9DA3",
"(. c #989EAC",
"). c #8C95AA",
"_. c #9EA0A3",
"`. c #9EA2AB",
"'. c #92A5B9",
"]. c #A2A2A4",
"[. c #A2A6AD",
"{. c #A2A6B1",
"}. c #A6AAB4",
"|. c #AAAEB8",
" X c #A7ACB8",
".X c #AEB3BC",
"XX c #A3B4BE",
"oX c #B2B5BD",
"OX c #B5B7B8",
"+X c #D2CE85",
"@X c #D4D5B9",
"#X c #CFCFAD",
"$X c #AFB5C1",
"%X c #B4B9C2",
"&X c #B9BDC5",
"*X c #BBBFC8",
"=X c #BCC0C7",
"-X c #BDC2C9",
";X c #C1C6CD",
":X c #C7CCCC",
">X c #CCD0CB",
",X c #C6CAD1",
"<X c #CBCED4",
"1X c #CDD0D6",
"2X c #CED2D8",
"3X c #D2D5DA",
"4X c #D4D8DC",
"5X c #D7D8C6",
/* pixels */
"#.@.+.+.F.#.T #.*.@.+.-.#.A.#.O.%.%.#.=.+.o.O.+.=.*.%.+.-.N.+.*.*.*.*.` @.*.A.L.;.#.#.+.+.;.*.%.o.%.S.;.*.;.*.*.*.+.@.%.;.+.A.;.",
"@.{ +.O.F.%.j #.*.+.o.%.*.;.=.@.+.+.+.O. .) ( W +.*.O.+.%.;.@.+.%.#.+._  .@.-.I.#.%.@.;.;.o.+.@.+.%.A.A.#.*.+.@.@.*.@.*.5.O.=.;.",
"#.j ) *.*.@. .=.*.+.o.o.S.S.@.+.@.+.%.+.o.) E f =.-.@.*.*.@.#.+.*.*.o.!  .*.-.L.S.*.{ #.#.@.%.@.=.*.S.N.;.*.+. .*.#.-.*.-.-.@.A.",
"#.W ( =.*.O.+.*.*.o. .o.S.S.%.%.@.+.=.@. . .E S %.@.@.*.%.%.@.o.=.*.o._ W S.;.F.F.O.o.O.#.*.N.! D.;.;.;.*.-.@.o.#.-.#.S.=.=.O.*.",
"+._ ` O.%.#.@.%.%.+.` +.O.5.@.*.%.@.+.O. ._ )  .` *.@.*.;.( %.@.*.*.%. ._ v.;.A.N.+.+.%.! #.S.=.@.*.*.-.-.*.*.o.@.=.*.L.F._ O.@.",
"O.] O.O.+.+.@.%.+.+. ._ *.D.=.@.+.O.+. .` _ *.{ ! +.;.#.=.*.=.%.*.#.A.#.#.%.-.v.O.+.#.;.) *.S.=.@.@.*.=.N.*.%.o.O.#.N.F.Y.^ _ @.",
"$.*._ +.@.O.%.#.@.+.o.! @.I.-.-.+.O.#. .! ;.-.+.! z v.=.;.=.%.%.*.%.;.o.-.-.#.*.o.{ *.D.A.N.=.! F.%.#.*.v.-.O.o.#.=.A.A.;.#.%.@.",
";.;.@.( %.%.%.S.o.%.o.W -.*.-.%.O.+.o.o.( F.*.+.O.k b.;.v.=.@.%.*.*.%.+.*.@.o.A.` O.=.D.F.%.;.) I.*.#.*.*.*. .%.*.N.A.#.N.*.;.A.",
"N.%.+.@.%.*.#.%.+.=. . .O.+.-.;.O.%.+. ./ F.F.%.} T v.F.N.;.%.*.%.-.%.@.%.O.v.F. .+.#.-.L.=.v.%.=.O.#.#.*.*.+.+.@.A.#.( N.A.=.D.",
";.*.o.%.L.N.{ W *.#.+. .-.) @.+.%.=.;.+. .@.S.N.+.+.;.F.Y.N.%.*.;.v. .*.#.+.-.F.*.%.) %.L.;.%.;.@.@.*.*.=.-.#.( @.A.=. .5.-.-.F.",
";.*.%.O.I.F.+.T *.*.+.O.-...+. .=.%.N.+.*.%.W =.-.-.N.v.S.S.;.;.A.@.+.A.@.@.N.v.-.N. .%.N.%.%.N.*.@.-.#.=.*.#.O.;.A.;.=.O.*.N.D.",
"%.v.%.` %.N.%. .;.;.-.%.+.+.@. .*.=.;.#. .*.@.%.+.-.A.;.N.N.-.S.L.@.;.S.@.-.N.%.N. .D.%.=.-.-.%.=.=.*.-.*.+.#.S.@.N.;.;.=.v.b.N.",
"v.*.-.%.%.+.+.@.%.;.-.%.@.#. . .#.S.#.( @.o.%.+.` A.A.N.=.S.Y.`._.U.F.N.-.;.-.&.%.*.-.+.S.N.-.=.;.-.=.=.-.O.S._ ` N.A.;.=.v.-.A.",
"F._ *.*.*.+.O.+.%.-.-.-.+. ._ +.S.F.=. .T %.+.+.*.F.N.L.[.%X=X&X-X;X-X-X$X9.6.-.#.=.*.-.-.D.v.%.=.N.=.S.*.@.;.W @.%.S.F.#.=.@.D.",
"S. .#.@.-.%. .+.%.-.-.%.` +. .@.L.L.=.#.k J.%.{ N.S.^.|.oX&X-X;X,X,X,X,X-X#X8.G. .-.N.;.;.S.=.*.=.A.D.-.@.#.+.! #.#.D.A.*.;.=.S.",
";.%.%.@.B.-.+.+.%.-.;.-.`  .N.%.+.S.*.{ +.D.-.o.I.U.|.%X&X-X-X,X1X1X,X,X2X,X7.E.D.;.A.S.N.v.;.F.*.A.F.#.) #.` *.*.;.S.;.N.;.-.A.",
"#.*.%.O.A.N.%.;.*.#.#.D...v.D.%.O.#.O.=.A.-._.*.v.~.'..X%X=X;X1X1X3X3X1X<X:X9.W.K.I.D.D.F.v.v.I.;.N.*. .O.@.+.B.v.%.o.*.v.I.A.v.",
"#.%.%.#.*.v.%.L.*.( #.v. .v.D.*.+.#.( #.N.=.].A.^.`..X&XoX&X;X<X3X3X4X1X<X5X9.Q.M.j.I.U.I.S.F.D.+.+.;.@.@.#.%.;.;. .O.-.A.F.A.v.",
"%.O.+.%.-.@.+.D.-.{ *.#.{ %.A.-.;.O._ N.#.=._.b.~.`.}..X%X=X;X,X1X4X4X3X3X5X0.E.n.y.K.E.S.S.v.Y.*.;.N.#.@.#.*.-.v.` o.S.A.-.-.=.",
"+.` ) ^ -.%.%.%.v.-.#.*.#.+.=.*.=.{ +.A.-.;.=.b.P./.{..X%X=X-X;X1X3X1X1X1X@X9.[.l.y.i.Y.=.*.D.I.S.A.-.+.;.-.#.-.-.@.o.N.-.( *.O.",
"@.o.) W ` N.*.;.v.-.#.+.#.{ #.-.#.+.;.v.-.I.) @.J.^.`.|.oX.XoX;X1X1X:X;X2X#X7.].| y.r.K.A.@.N.I.F.T.o.( %.I.%.*.*.-.-.b.W c $.$.",
"#.%.o.Q T -.-.-.v.v.*.#.+.{ o.%.*.v.=.;.;.;.Q } B.K.~.`.{. X.X&X;X;X=X=X;X+X4.^.i.e.r.m.S.;.A.F.I.Y.N.Q =.J.%.*.N.A.=.v.f ( +.+.",
"A.;.` S S -.N.@.-.#.v.#.{ S #.#.;.-.D.D.v.v.S ) *.b.P.^.`.[.|..X$XoXoX$XW.7.3.).t.e.w.h.A.A.F.N.I.F.D.*.;.( *.F.v.A.*.#.t W #.#.",
"-.+.` ! T N.%.=.#.#.D.*.+.) } } =.-.J.A.#.N.A S ..&.H.P.U.`.{.}.oXoX|. X!.1.5.l.r.r.K g.*.-.F.F.D.F.F.;.N.o.-.S.A.@.*.#.S R #.#.",
"=. .! _ ) A.@.@.%.;.;.-.*._ ` c #.;.J.S.v.F.h g I } c.J.P.^./.`.}.[.}.(.4.,.V.L w.q.q.h.A.=.A.Y.A.S.I.;.v.;.*.*.#.@. .O.O.R +.@.",
"*.` ( O.o.*.+.%.=.S.A.@.F.+.o.Q ) N.N.;.$.S g A A S W $.B.P.P.~./.^.(.5.<.[ z.H w.K K z.D.-.L.F.S.T.S.*.=.+.;.+.+.Q ) #.+.;.+.*.",
"=.` ( =.*.o.@.O.N.+.-.#.@.@.{ ` Q S.D.v.Q g g h g A R / c.S.B.S.P.K.P.2.:./ L q.J G G b.D.=.F.S.I.I.*.@.#.=.v.#._ j ` *.+.=.N.;.",
"@.) #.*.+.` +.o.#.=.*.#.$.O.) ` ( v.D.;.R p d g g g g ~ } x.c.c.c.b.;.>.c | F F n n 5 I.A.;.D.-.S.-.$.-.%.S.=.#.T j ( #.*.*.*.;.",
"=.O.*.+.O.o.` ` ( %.*.#.#.O.{ ) %.N.S.#.I g p h g d h g A } $.x.x.x.v x d 6 F G m 5 | I.A.v.*.) S.=.;.B.v.F.=.%.t t ) +.#.*.#.=.",
"=.@.+.+.O.+.` W Q o.*.*.%.*.#.#.%.-.A.` S g g A h g g g M a.d.d.s.k.' t u 5 5 4 5 6 T.I.B.;. .{ F.=.N.N.v.v.*.+.z f  .@.#.#.*.#.",
"=.@.*.@.*.*.o.T R @.;.+.*.%.*.%.%.=.N./ A h g g g A g N Y C.XX&X'.s.M u 2 > 4 5 5 v.E.OXF.*.` @.L.-.v.v.-.-.@.O.+.P { #.%.#.+.=.",
";.@.+.@.O.+.` ( W v.*.*.*.*.*.=.;.=.;.^ A A A A 8 g g V U J.}.oX XZ.p.0 2 4 4 B S./.H.].T.S.-.%.A.A.N.N.;.b.{ #.+.-.+.=.;.@.=.=.",
"F.+.#.O.O.O.`  . .S.=.+.=.*.#.@.A.-.-.! S Q S h < + g h S ] v 2.6.V.M s s , Q ].T.S.Y.I.T.I.N.=.;.A.S.A.v.N.#.-.%.*.B.*.-.v.*.*.",
"J.@.@.*.%.*.+.*.@.;.=.@.;.%.@.*.J.D.A.! T T h f -   O 1 j ; - X x I A I d _ /.].J.*.S.;.Y.I.D.A.-.A.A.A.N.v.;.c.=.%.N.-.-.S.@.v.",
"S.;.v.+.*.=.*.-.-.=.*.@.#.-.@.*.I.Y.*.! z k k f w 1 $ o O + # * - 0 u 7 < #.Y.;.Y.O.-.v.Y.S.;.;.#.v.F.;.S.-.-.;.%.-.N.-.A.*.#.A.",
"F.-.+.` =.v.-.;.=.=.=.*.+.D.+.( F.D.v.! T S S h e a A g 1 o o o o o o @ * %.T.T.D.o.*.S.;.I.;.=.=.N.;.;.L.%.=.=.%.@.+.v.Y.-.-.A.",
"I.=.*.) O.*.N.S.;.-.*.*.+.S.O.O.I.=.N.W S S h g r u S S U q : > > < 3 1 2 } /.I.v.*.=.-.;.D.D.+.v.N.;.N.v.v.S.%.=.f #.*.E.S.+.=.",
"S.=.=.O.*._ +.A.;.=.*.*.%.*.+.o.A.v.v.T S S A h r u A S B Z p V q 6 A y b $.I.v.=.=.%.v.v.;.;.*.N.N.N.v.-.=.S.N.b.z O.;./.B.( A.",
"D.*.=.*.#.O.` -.;.*.*.=.%.%.#.@.+.;.#.S S S A g e u S S A S A A Z A A i } I.v.#.+.A.+.v.D.@.=.S.%.J.;.;.-.*.=.D.A.! -.v.].@.^ D.",
"N.#.=.;.+.+.( +.A.=.=.=.@.*.*.N.*.@.+.T S S j d 8 i S S S S Z A A S S S / N.v.-.*.=.#.;.A.D.*.S.O.F.*.A.-.%.=.D.A.Q F.I.D.^ { -.",
"o.z ;.-.#. .( O.N.;.%.*.*.-.;.-.` #.o.Q I P S h g A h h S Z Z A A A I A | D.;.#.-.=.*.*.-.D.o.D.A.-.;.F.*.*.;.A.S.;.=.-.*.! %.` ",
"%.` S.;.*.@.( ) -.v.;.%.+.( R T j S ~ c T T T h h S A S A Z A A A A d 2 S b.v.%.;.=.*.#.v.A.*.D.N.;.J.=.O.@.O.*.F.I.*.-.@.) v.O.",
"A.-.F.@.*.*.` P @.A.%.^ r f j T g k T T ~ c T S h h A j S S S A S d 0 @ P H.A.%.=.=.*.#.;.J.;.I.=.b.=. . .-.` *.T.A.v.I.#.{ O.S.",
"A.%.A.*.N.*.` )  .! j g k j f j j t s f g j j Q Q I j j A A S A I A u 8 O.F.v.=.=.=.;.=.A.v.D.F.v.-.o.{ +.=.@.=.I.].%.D.-.{ ! A.",
"S.-.S.*.*.-.@.+.T I j j j g f k j r g k h g i f f I R j S S S h p < 8 C Q O.A.A.=.;.;.-.v.N.-.N.A.*.` O.#.*.;.N.G.I.N.F.=.#.o.N.",
"L.I.A.;.#.+.^ Q j j k j h f g j k h h g S f f f i f t W C $ O . % + + C A S ` A.=.D.;.-.=.v.*.;.A.#.! O.*.v.*.A.F.I.*.A.F.*.-.F.",
"T.T.-.-.@.@.f s j j j h j g I g t w j k g g f f f f f W g .     @ 8 1 g d A g O.A.N.@.D.#.*.;.=.v.*.( { *.=.;.;.F.U.#.D.F.;.A.L.",
"I.L.S.*.*.Q t t j h j j k T j k f % g h k f f f t j g Q g . . # < 8 3 i u p 7 ( W _ ` #.A.*.#.A.A.#.@._ *.*.;.S.D.S.;.;.;.S.;.L.",
"J.` N.=.) k s w I k j j g I T h t w j i j f g g j h k T h   . ; l l $ w % + Q R P g f #.N.;.+.N.v.v.v.` -.-.;.D.I.N.S.#.;.S.;.=.",
"F.=.-.-.( j w r j h j h k f j j r j f k e g g S Q k f R d   . - r # . % t W T T f A z #.S.*.#.;.-.-.;.*.S.;.;.I.D.-.v.+.;.;.S.A.",
"D.F.A.;.` k f g j g k f f f j f h h g f f p S P j g h R r . . .   + # s W k P S g k Q =.=.+.*.*.=.=.=.;.N.D.S.N.#.*.*.O.+.=.=.I.",
"*.) D.A.O.f t S j j g f g g g f s g k f f c P S T k g R q % . . . . w r j j S h k g W @.#.@.=.*.*.=.=.v.v.S.S.*.@.+. ._ O.-.;.I.",
"-.z ) D.%.f g P k j h k g k h f f f f g g W R I g f h T N , O . + + 7 d Q h S f P i (  .O.*.#.*.*.v.=.;.S.S.S.+.` ` ! o.#.%.-.L.",
"%.` z *.=.P s z f I s f g k j f g t i k T I Q S t y S z C 9 9 @ + < < S S R ! f S f ` o.%.o.@.=.;.v.-.;.;.S.N.#.( W ` +.#.*.=.D.",
"-.! Q ` *.! h t f I f g k h f k f f r f j W S R f - h f i S C p i p g S S S s Q f k ` #.o.o.#.%.S.=.v.=.v.N.N.=.t ) +.+.#.A.%.D.",
"v._ P ) -.*.h s t f h s h g s h k k s t f W I c j f h T # % i u u C S S A i w Q S f ` *.{ ` ;.;.*.*.*.;.;.;.N.N.z ! +.@.%.=.;.N.",
";.( z #.=.-._ f f f d s f g f f f f t s g T I j T g h T Q s % O # 8 p u % + W k f ) ) =.%.O.@.#.=.%.@.;.-.v.;.5.! P  .+.#.*.*.A.",
"v.^ h o.;.-.*.T I f s 7 s f g f s f t s j T I I j j h g k r k W P s e w e Q j j P #.N.%.o.@.O.%.*.#.*.;.+.A.=.v.Q ! ` +.@.@.%.A.",
"*.) ) o.*.-.*.O.W f k - t g f f t s s s f f j k j I h k f i r k S S w h W f T o.` =.=.+.*.#.+.*.#.+.%.=.%.v.@.%.! +.W o.#.+.*.A.",
"*.W +.@.-.@.*.+.-.j f - f k f f i f g k f g f g j j h k k s g k k P w P ! R @.A.%.*.O.O.;.#.@.%.*.{ *.@.;.#.v.@.O.o.`  .@.*.#.A.",
"=.O.#.@.@.*.+.o.*.O.y y s f f s i k g f g g f f k f j j f f f j f h j W o.-.5.v.;.@.@.=.o.=.%.O.@.{ +.=.=.=.=.*.O.#.` ` { ;.-.A.",
"N.+.o.o.@.*.O.+.O.#.W f t g g - i S f t f f f f g g f j h i f g f g W =.-.;.S.-.A.*.@.P ) *.O. .D.@.o.%.v.;.#.%.#.@.#.@.@.*.;.J.",
"N.+.O.O.+.W @._ O.O.o._ R ^ h y p A t r y i f f f s t f k i h f j w v.#.*.;.-.#.=.#.` z  .@.;.%.*.O.+.@.@.#.;.@.@.@.o.o.=.A.=.v.",
"D.=.*.A.;.@.N.*.=.-.#.*._ -. .W c j t f w y t f f i t y f k h f k j =.+.#.;.v.) v.F.*. .-.5.L.F.;.;.;.v.v.F.A.;.-.v.A.-.F.S.F.F."
};
