/* XPM */
static char *ad84c5583b1c4fcdf383c70f66667d8aMWTHaC0bZnlOsKVI[] = {
/* columns rows colors chars-per-pixel */
"64 64 165 2 ",
"   c #0D0D0E",
".  c #0F100F",
"X  c #0F1317",
"o  c #131414",
"O  c #171817",
"+  c #181817",
"@  c #161919",
"#  c #1B1C1C",
"$  c #1F201F",
"%  c #0E1E28",
"&  c #161D23",
"*  c #101F28",
"=  c #1F2021",
"-  c #142129",
";  c #132D3E",
":  c #232424",
">  c #282627",
",  c #272827",
"<  c #272729",
"1  c #272828",
"2  c #2B2C2C",
"3  c #2F302F",
"4  c #33302E",
"5  c #2C2E31",
"6  c #2F3031",
"7  c #333434",
"8  c #363837",
"9  c #363738",
"0  c #383738",
"q  c #373839",
"w  c #3A3C3C",
"e  c #3E403F",
"r  c #142F40",
"t  c #153144",
"y  c #353A41",
"u  c #3E3F40",
"i  c #403F41",
"p  c #3E4042",
"a  c #3D4248",
"s  c #35434B",
"d  c #3A4952",
"f  c #0B4565",
"g  c #0D4E6D",
"h  c #164764",
"j  c #0E597F",
"k  c #0B537D",
"l  c #17567D",
"z  c #155373",
"x  c #2C4F68",
"c  c #2B4D63",
"v  c #2E5066",
"b  c #3E5868",
"n  c #2C5371",
"m  c #3D5D72",
"M  c #3D657E",
"N  c #434345",
"B  c #464847",
"V  c #464649",
"C  c #48474B",
"Z  c #47494A",
"A  c #4B4C4D",
"S  c #4D4E51",
"D  c #494E59",
"F  c #4F5152",
"G  c #525355",
"H  c #565857",
"J  c #555659",
"K  c #56595B",
"L  c #5A5B5D",
"P  c #5D605F",
"I  c #555960",
"U  c #5C5E61",
"Y  c #5E6163",
"T  c #42647C",
"R  c #5E707C",
"E  c #626466",
"W  c #666867",
"Q  c #646669",
"!  c #66696B",
"~  c #696C6E",
"^  c #6C6E71",
"/  c #6E7173",
"(  c #727577",
")  c #717476",
"_  c #717476",
"`  c #757876",
"'  c #737678",
"]  c #737578",
"[  c #747779",
"{  c #75777A",
"}  c #747679",
"|  c #75787A",
" . c #76797B",
".. c #757879",
"X. c #777A7C",
"o. c #76797B",
"O. c #78797B",
"+. c #787B7D",
"@. c #7A7B7D",
"#. c #7B7D7F",
"$. c #797C7E",
"%. c #797C7E",
"&. c #7D807F",
"*. c #87837D",
"=. c #1A6188",
"-. c #0B6290",
";. c #2873A1",
":. c #2A79A7",
">. c #426F8A",
",. c #437591",
"<. c #637783",
"1. c #7B7E80",
"2. c #7C7F81",
"3. c #7E7F81",
"4. c #7C7E80",
"5. c #2681B2",
"6. c #7E8183",
"7. c #7D8082",
"8. c #7F8284",
"9. c #7E8183",
"0. c #688092",
"q. c #678698",
"w. c #4782A5",
"e. c #4A80A3",
"r. c #4685A9",
"t. c #4388AF",
"y. c #598EAD",
"u. c #538BA8",
"i. c #5A9ABF",
"p. c #5397C0",
"a. c #579BC2",
"s. c #5899C1",
"d. c #818385",
"f. c #818285",
"g. c #828587",
"h. c #828586",
"j. c #828385",
"k. c #848886",
"l. c #838688",
"z. c #858789",
"x. c #848688",
"c. c #86898A",
"v. c #868889",
"b. c #86898A",
"n. c #888B8C",
"m. c #8A8C8E",
"M. c #898C8E",
"N. c #8C8E8F",
"B. c #8A8C8D",
"V. c #8C8E90",
"C. c #8D8F90",
"Z. c #8E9092",
"A. c #8E9092",
"S. c #919294",
"D. c #949697",
"F. c #929395",
"G. c #969799",
"H. c #969798",
"J. c #97989A",
"K. c #9A9B9C",
"L. c #9E9FA1",
"P. c #9FA0A1",
"I. c #A2A3A3",
"U. c #AFAFAF",
"Y. c #B1B2B2",
/* pixels */
"~ ! E E H.~ > ~ / Q Y | ! n.! L ~ ~ Q _ Y J U E ^ ~ ~ U ( d.L ! ~ ^ / L ~ / d.Z.X.~ ^ ~ ! [ _ ^ Y / c.+.^ +.~ ! ~ E Y ~ +.Y g.#.",
"! U ! E N.^ w ^ _ ! E / _ #.[ ~ ! ! Q Q Y J G A ~ / E ! / O.~ ! / / ! K U ~ | D.^ / ~ +.X.E ! ~ ! / g.7.^ ( ! ~ ^ _ ~ _ 2.! ' 2.",
"! w J / ( ~ U ( / ~ Q Y z.l.~ ! ~ ! / ! E K C 7 ( ' ^ _ ( ~ ^ ! _ / E S Y ( | V.g.( Y ^ / ~ / ~ [ ( c.2.+.( ! Y / / [ ( +.O.~ 7.",
"! S G | ( ! ! ( _ Q U Q c.g./ / ~ ! ( ~ E U C u / ^ ~ ( / / ~ E [ ( E L A z.+.m.m.Q Y Q ^ _ 7.S c.#.+.#.( ' ~ E / ' / c.[ ' ! / ",
"U K L Q / ~ ^ / / ! L ~ Q g./ _ / ! ! E Y K J Y L ( ^ _ X.J / ~ ' ( ^ Y L 2.+.8.8.~ ! / S ~ c.| ^ / _ | X._ _ E ! ( ( Z.m.L E ~ ",
"U Y Q Q ! ! ~ ^ ! ! Y K _ c.( ^ ! Q ! E L K ( U S ! X.~ [ ( [ / ( ^ g.~ ^ / | 7.Q ~ ^ | J _ z.' ~ ~ ( ' 7.' _ E ! / 7.n.D.G L ~ ",
"E ( K ! ^ Q / ^ ^ ! E S ^ F.| [ ~ E ~ Y S #.[ ! S w +.[ #.' / / _ ^ #.Q [ [ ^ ( E U ( z.d.7.( G m._ / ( 1.[ Q Q / [ d.z.#.~ / ~ ",
"| +.~ G / / / z.E _ Y S [ _ X./ ! ! E Y G m._ ! E 0 2.#.2.[ ~ / _ ' / ! ( ~ E g.L Q ' z.N./ #.G Z._ ^ _ ( _ E ^ _ 7.d.^ 2._ 2.7.",
"g.^ ! ~ / ' ^ / ~ ' U Y Q ~ | X.Q / ! E G m.n._ L N 2.m.7.#.^ _ _ X.^ ~ / E 1.n.Q Q ~ | V.( 2.( ( ! ^ / ( ( ! Q ~ d.^ F 2.z.' c.",
"+._ E / V.8.U A ( ^ ! E | J ~ ! _ ' #.Q Y ~ c.7.~ ! | n.H.7./ _ X.#.E ' ^ ~ X.n.( _ J / F.X._ | ~ ~ / / ( [ / J ~ g.| Y d.#.+.n.",
"+./ ^ Q F.c.Q N ( ( ! Q ( E ! E ' / d.! ( ^ S [ [ | 8.1.c.z.#.2.l.~ Q d.~ ~ 2.#.+.2.Q / d./ / 2./ ^ [ / ' _ / E X.8.2.| Q _ 7.c.",
"/ 7./ L _ 7./ Y | #.| / Q Q ~ E ( | | ~ U ( ~ ^ Q X.l.+.1.7.| c.V.~ O.c.~ | d._ 2.U g./ ' +.| / [ ' ( [ [ ! / l.~ 7.+.X.( #.#.1.",
"2._ | / / Q ! ~ / 1.[ _ ~ ~ U U ^ c.~ G ~ E / ! U l.g.2./ #.l.7.2.1.| ' ~ ( [ / / [ | ! z.7.[ ' +.X.[ ' X.E z.L L 2.g.#.[ 1.| #.",
"n.L _ ( ( ! Q ~ / [ | ' ! E L ~ z.m.' Y N ^ ! ! ( n.1.7.d.| / / X.8.| g.^ / / / ^ [ ( [ | z.#._ | 2.] g./ ~ +.A ~ / z.m./ ' ~ d.",
"z.E ^ ~ [ / E ! / +.| _ L Q E ~ Z.V.( ^ 0 m./ U 7.g.z.7.c.X.^ / +.7.G [ g.n.! ^ G [ 7.#.#.z.[ ( | g.c.+.~ / ! A ^ / c.d.( +.( d.",
"#.^ / ~ z.[ Q ~ / [ +.| L Y 7./ ! c.( U ~ c.+.Q S.F.z.H.m.2.7.1.+.H ! ( g.I.! ^ L [ g.l.7.7.1.m./ 7.n.^ K ^ U _ _ #.c.#.2.#.| d.",
"^ ( ^ E g.8.^ +.( ~ / z.E 2.c./ Q ^ Q ' l.+.L.] W I.F.z.G Q 7.| O.~ K E A z.[ +.! [ z.n.m.7.7.F.1.2._ E Q ~ ! g.2./ Q / 2.F.g.2.",
"^ ^ / ~ [ #.^ Z._ G / #.U 2.c._ ~ / G ^ 7.[ I.c.K n.H.W 7 N g.#.#.c.O.C 8 L z.#._ | l.J.Z.d.V.n.W ! +.^ ~ ^ / +.2.U Q ' g.n.7.2.",
"/ Q ! / ' ~ ! c.| U / _ Y / 7.| | ! L 7.( d.S.^ 7.] [ A 2 7 ~ ~ ( &.| y 2 A #.{ d.[ c.L.z.z.1.H._ +.7./ ~ ^ ( | 2.U E z.l.| [ [ ",
"! L J G [ ( / / 7.( / / ~ ~ ' ( ( U ~ c.#.K I D a J : # 2 2 N W ] _ H 5 2 F W ! a D Q / [ / c.D.z.g.[ ! X.| ~ | | ~ E 7.+.G / Q ",
"~ E J A L 2.[ +.7.' ^ Q ^ Y ! #.^ ~ +.] p y w : : q : o o 7 H ~ _ ` L @ o A W 2 : , S J Z ~ 7.F.V.K.E G / D./ ( ( X.| #.A N ^ Q ",
"^ / E C N | [ | 1.8.( / ! L Q ( ( 2.K = 7 q q 2 0 N 7 Z F ! W _ ( 7.n.n.k.#.~ W A 8 Z q 7 0 U Z.D.D.d.C ( V./ ( 7.8.' #.7 G ! ~ ",
"+.2.L u u ' d.~ | ~ 2./ Y u ~ ^ X.9 7 : : 7 q 7 8 N w w 0 q q q 0 w 7 w w A C P L K Y p : : w w d.m.c._ #.H ( n.7.d./ / 2 A ~ / ",
"~ ! L A N 7._ [ ^ ~ z./ ! J U Y N : # # 7 q w q 0 7 0 7 7 7 0 7 7 w 7 0 5 q q w w q A N 6 : = : w c.m.| 7.E | z.7.^ ( ^ u N ~ ^ ",
"Q Y S L J d.^ ^ / X.#.| _ L U i , + : 8 q 7 7 7 3 6 1 1 , : 6 p q N 7 2 2 7 0 7 7 0 7 w N N 3 # : F F.+.1.X._ ( / ^ U Q Q C ! ^ ",
"Y U G Q E ( ! ^ ' n.d.~ n.~ U 6 + + 3 0 7 6 3 2 : 1 s >.u.a.n v 5 c x p.y.,.d 2 3 7 6 2 7 e B 7 # 6 [ ( [ ! X.~ ! C J / ! +.~ _ ",
"_ L G ( ( E ^ Q 7.! | ^ ~ / J # : q 7 6 2 2 2 2 W Q _ R >.5.z t = t h 5.,.<.#.D.N.Z 7 6 : 1 q w 7 # H ~ / ' +.^ L w L / ! [ 7.2.",
"~ J ^ ( ! L Q E ^ [ ( ^ ^ Q q # 7 7 3 6 2 6 N _ g.X.m.W # o g -.X k j @ # E I.K.Y.S.L 7 7 2 : 0 q 2 p | _ g.' ~ N u G ^ _ _ / #.",
"( Q ^ ! Q Y L K G / ( ^ ^ ! , 2 2 2 2 2 2 K [ ^ Q V.2.: o o   f & f   o o : 2.Z.H.U.K.^ 7 3 2 1 6 2 7 +.#.m.[ / 2 2 J ~ / / ^ ( ",
"[ ~ ! ! ! ! L S C E _ / / / 2 2 2 2 2 2 J +.! U U m.2 o o o o o q o . o o o : 7.m.J.Y.F.~ 2 2 2 2 2 2 ! 1.7._ ! w 7 Y ~ ^ / _ / ",
"[ ^ ^ ^ ( ' Y N N ^ #.~ _ ~ 7 : 2 N F K ~ | ~ Y _ H o o o o + o : @ o o o o o C m.Z.P.Y.m.U A N q 2 : U | | ~ Q E N U ^ / ^ ~ ( ",
"+.~ ~ ~ Q ! L G A 2._ _ _ E 2 2 q d.7.( ^ | / ! 2.0 o o o # 0 A E ( A : # o o # m.c.c.I.K.m.z.z.N 2 2 Y +.1.Y ^ ! | ~ ' #.^ ' ( ",
"n.Q / E Q ! L Y U l.( ~ [ G 2 2 Y d./ ^ _ ^ ~ _ z.2 + # : 7 Z L L P H e 2 + + + B.#.K.D.K.Z.7.c.! 2 2 E 1.7.^ | / ' d.( [ 2.( ( ",
"Z.~ ^ _ / / ~ / ~ #.' ~ 7.S 2 1 d.c.7./ / ! G ~ *.2 # 2 7 0 C A B F C N w 7 # : *.[ g.#.J.D.c.Z.#.2 1 E 8.2.+.#.( _ d.[ | c.~ 1.",
"g.2.#.! / | / X.| ' _ ^ ^ A : 2 K J.! / / ! N Q N.2 : 7 7 7 7 N N N w w 0 w 2 : D.~ | 7.J.c.g.Z.G , : Y g.| X.X.( | 7.[ 8.( ^ X.",
"m.| ~ L [ 7.X.1.' | ( ( ! G 2 2 2 l.1.| / U N ~ g.q : 2 7 6 1 q 0 7 w q 7 7 2 0 m.Q _ z.7.H.Z.d.: : : E Z._ [ ' / ~ ! #.K.| | / ",
"S.( ( J Q / d.c.#.| _ ( ~ K : 1   = q w ^ E K / | ~ 3 2 : 2 1 q C N 7 7 2 4 2 E n.' [ 7.z.A q #   1 , ! 1.2.g./ [ 0 ^ [ I.g.! U ",
"c.' ' Q _ K W 8.+.[ ( _ ( U 2 2 o   o o w | / | / | w 2 : : 7 N N C w 2 , 2 7 d.d.' [ m.C # o o o : 1 ! | ' g.d.1.w E +.I.g.J ^ ",
"n./ ' ( ^ E U | #.( ( ( / _ 0 2 #   o # : Z +./ ' ( [ w 2 = ] w N w ] 2 2 7 | d.[ n.d.A : # o . o # 7 +.| _ [ c.7.A O.#.I.~ F ' ",
"7.^ | +.! ! G ~ 8.' [ [ ^ | N 2 :   + : $ = 2 ~ | / | #.q 2 H 0 q 8 K 2 7 +.K.N.n.| 7 : # : : o : 2 A d.| ( ( c.z.C n.F.z.G L E ",
"W i 2.| ^ Y G E 7.+./ _ ' [ ~ 2 2 o o + : : o + w Y #.0.e.m 2 2 w 4 , b w.q.8.E N + o : : : # + 2 2 U m._ _ X.g.g.#.[ | ( S / 7 ",
"/ L g.#._ ~ J J | 2.+./ ~ ! +.A 2 2 o # : : 1 # o o l ;.t.s.M S 7 G T i.r.:.=.o o + : , : # o 2 2 N z.| Q ~ Q / m.D.( | ~ J 2.N ",
"7.| n.~ ( ( L i ^ g.1.' G ~ ( | 7 2 : o o = : : : o   % r - o o : o o & ; -   o : : : : # o : 2 7 L [ Y Y | L ( K.g.#.Z.~ U Q ( ",
"d./ 7.[ 7._ L J E 2.| ^ / _ Q #.U 3 7 :     @ : : @ o + o o           o o # # : : : + o o : 2 7 N +.E L ! | ~ [ D.I._ c.| Y S / ",
"| #.z.( ( | ~ ! ~ #.#.( #./ ~ ! [ q 0 7 : o   o # : : 2 : 2 2 : : : : : : : $ : : # o o : 7 7 w d._ L E ^ _ +.d.K.F.d.c.' ^ E ~ ",
"z.F.g.#.~ E A Y Q E Y E U J L L G S N 9 6 2 : o o o + : : # = # # : 2 : : # # + o o = : 7 p N ] | ~ S Q _ 1.( g.m.F._ d.m._ X.| ",
"K.K._ ~ K K w N F A A A A A J N 9 2 N w w 9 7 7 6 : # o o O # # # # # + o + = 2 q w q w w u N A E Y N G ~ ( +.#.m.D.^ z.m.#.d.z.",
"m.m._ J A N 0 2 w w w w 7 N w 9 7 + 0 w w q q w 7 w q 6 : = : # + o o + : 7 w Z N N 7 w N w q A G Z Z w L ~ +.g.n.z.+.+.#.z.#.7.",
"7.S L N w 0 7 : N 9 w w 9 N N q 2 : q 7 q 0 q q u w q 0 7 0 w q 6 0 2 7 q w N Z u 9 : q p w 7 p u u u 0 L / 1.c.D.7.g./ #.g.7.L ",
"#.Y A p w q : 2 u q w 9 0 0 w q 2 q 0 0 2 q 7 p N 7 7 7 7 0 q q w N N 7 w u N N q q 2 9 N w 0 w w w w C ! [ +.F.z.+.1.~ +.X.g.~ ",
"[ ( K N w 7 0 0 q q 0 0 7 7 q 7 q w 0 7 6 7 w p w 7 q 0 6 7 6 7 q w q q w w p u 9 q 0 w w 7 q q w w w A E 7.g.d./ / ( E ! [ [ m.",
"L G _ L C q 2 w w w 9 0 0 9 q 7 7 9 0 0 7 p p w N q 9 9 9 7 2 5 q w w w w w w w q 0 0 0 0 0 w q q w N J W 7.z._ ! ! U L Q | #.z.",
"E u S ( L Z C J A F A C Z A A N N C N C N G N p 9 7 0 0 9 9 < 2 0 0 u N N Z S N G u A N N A Z A A J J Y ( 7.z.! U U S E ^ _ | d.",
"J L w _ ^ ! S Q K ! G K L L E J L A F L E H F u 2 2 7 w w 9 2 < 6 7 N J K L E J E K E G U F K E Q ! ~ ( 1.g.7.^ F C L ! ^ _ ( | ",
"Q S N L ( #./ L ! #.E ~ / / ~ / ^ E L E / +.L F 9 : 2 N w 0 2 : 6 q J / ! ~ | / ~ ( ' ^ E E ^ _ l.| 2.[ 2.7.7.[ 2 G ! ~ ^ 7./ ( ",
"~ K N J X.d./ E K ! _ Q / ^ E ^ ! / Y L E n.( W S q 7 w q 0 2 5 N A ~ | _ | _ [ | ! ~ ( U U +.| ( / _ #.#.#.8.2.q A ! ~ / | +.~ ",
"~ G w ^ ' +.X.E Q ^ ! E ! ^ ! E Q Q L E ^ c.2.[ _ S A A Z N 0 A J ~ / ~ [ X.| [ E ( J [ / Q ! ^ | / ~ #.| 2.1.d.G N Y ! ^ ( ( ^ ",
"( S q E #.[ _ ~ #.! Y N U ! / Q Y ! L Y / c.2.#./ ~ L L L N Z Q / ( +.~ +./ [ / L ~ 7./ E ~ ! / / ^ _ #.! d.| #.A S L ! ~ ~ / ^ ",
"_ K J E / | _ ~ g.~ ~ w G / ~ Q K Y E ! Q ~ +.[ X.+.' ~ Q Y J ~ X.1.N ' K.Q / 2.L | ' ! _ ^ ! _ ^ ! ^ [ / 2.~ _ A ~ A E ^ ! _ _ ",
"/ Z ~ ~ [ ^ _ ! g./ ~ w Q / ~ Y U ~ ! ~ ! / E ^ #.( ( ^ ^ E _ _ ~ 7.N d.J.Q ( d./ ( ! Q | / ~ / _ U ( ^ +.^ #.! ! Y K Y ~ _ / ^ ",
"[ E / ~ ^ ^ ~ E / +.S S Q Q ~ Y Y ^ / ! ~ ~ Q ~ / ~ ( | E Q ~ _ ! / ( 7./ | 7.d.#.~ ^ / E ' / Q ~ Y ! [ | | [ ( ! ^ L U U +.+._ ",
"7.! E E / ^ E ! ! / ! Y J / ~ N L [ Q U E ~ Q ! ~ ~ E +./ E Q / ~ ^ / ' | #.d.| d./ ~ Z K _ ! Y z.~ E / 2.+.^ / ^ ~ ~ ! ! _ #.#.",
"2.! Q ! ! S ^ K Q Q Y U K | ~ A E ^ U J G L ! Q ! E K Q ~ L ( ! _ C m.^ _ +.+.~ | ^ L w Y ~ #./ _ Q ! ! ~ / +.~ ! ~ Q E [ d.[ ! ",
"n.[ ( d.+.~ 2./ [ O.] +._ z.| _ _ d.( +.! W ~ ' ~ Y U A ! ! [ ~ ~ Y 2.2.d.m.N._ c.N.( E O.7.V.m.( E Q ~ ! | ^ E Y ~ ~ E | ( O.~ "
};
