/* XPM */
static char *result[] = {
/* columns rows colors chars-per-pixel */
"32 32 141 2 ",
"   c gray87",
".  c #FDFDFD",
"X  c gray99",
"o  c #D7D7D7",
"O  c #D2D2D2",
"+  c gray84",
"@  c gainsboro",
"#  c white",
"$  c #E1E1E1",
"%  c gray83",
"&  c #C8C8C8",
"*  c gray78",
"=  c gray79",
"-  c gray80",
";  c #AAAAAA",
":  c #B4B4B4",
">  c gray82",
",  c gray72",
"<  c #343434",
"1  c black",
"2  c #2F2F2F",
"3  c #A5A5A5",
"4  c gray85",
"5  c gray76",
"6  c #9B9B9B",
"7  c #B6B6B6",
"8  c #DDDDDD",
"9  c #D0D0D0",
"0  c #A0A0A0",
"q  c #AFAFAF",
"w  c gray67",
"e  c #737070",
"r  c #7D7979",
"t  c #DADADA",
"y  c #BEBBBB",
"u  c #445D85",
"i  c #2E3E59",
"p  c #AFABAB",
"a  c #9D9D9D",
"s  c gray61",
"d  c #505254",
"f  c #66758D",
"g  c #444E5E",
"h  c #353638",
"j  c LightGray",
"k  c #CBCBCB",
"l  c #CECECE",
"z  c #626262",
"x  c gray35",
"c  c #9F9F9F",
"v  c gray69",
"b  c gray81",
"n  c #C6C6C6",
"m  c #868686",
"M  c gray74",
"N  c gray86",
"B  c #A7A7A7",
"V  c gray63",
"C  c #C0C0C0",
"Z  c #585858",
"A  c #575454",
"S  c #366442",
"D  c #24422C",
"F  c #393838",
"G  c gray57",
"H  c #908E90",
"J  c #4F715C",
"K  c #354B3D",
"L  c #B0ACAD",
"P  c #908C8C",
"I  c #A3A5A8",
"U  c #323232",
"Y  c #4C8B5C",
"T  c #447E54",
"R  c gray13",
"E  c #B3B4B5",
"W  c #605D5D",
"Q  c DimGray",
"!  c gray14",
"~  c #565454",
"^  c #D6D5D5",
"/  c #374D41",
"(  c #83BC99",
")  c #25332C",
"_  c #D8D7D7",
"`  c #3A3838",
"'  c #353535",
"]  c #BEBABA",
"[  c #2B4B38",
"{  c #76B48A",
"}  c #1C3225",
"|  c #AEABAB",
" . c #6E7F79",
".. c #3A6A46",
"X. c #76827F",
"o. c #3C3C3C",
"O. c gray88",
"+. c #858383",
"@. c #6D6D6D",
"#. c #95B0A5",
"$. c #8FA29C",
"%. c #646464",
"&. c #595757",
"*. c gray23",
"=. c #EAEAEA",
"-. c #124625",
";. c gray49",
":. c #596963",
">. c #476C53",
",. c #2F4837",
"<. c #56615E",
"1. c gray33",
"2. c #0C2F19",
"3. c #286E40",
"4. c #2C6B40",
"5. c #368951",
"6. c #4B4B4B",
"7. c #42925B",
"8. c #414243",
"9. c #626365",
"0. c #616365",
"q. c #8A3516",
"w. c #FF8F19",
"e. c #FFA116",
"r. c #5C230F",
"t. c #77797B",
"y. c #202122",
"u. c #F5841C",
"i. c #F06423",
"p. c #151616",
"a. c #2B5E3B",
"s. c #8D8D8D",
"d. c #371509",
"f. c #250E06",
"g. c #3A3A3A",
"h. c #3B764C",
"j. c gray97",
"k. c gray19",
"l. c #373737",
"z. c #CDCDCD",
"x. c #D8D8D8",
/* pixels */
"                                                                ",
"                                                      . X       ",
"                            o O O + @               # # $       ",
"                            % & * = * +               * -       ",
"    ; :   > & & & o       , < 1 1 2 3 &             * * 4       ",
"  5 6 6 @ * & * * * * & 7 < 1 1 1 1 2 3 4           & 8         ",
"  9 0 q * * * * * * * w 2 1 1 e r 1 1 2 q                       ",
"t * * * * * * * * = = 2 1 1 y u i p 1 1 2 4 8 t                 ",
"4 * * * * * a 6 6 s * 1 1 d > f g > h 1 1 & j * k               ",
"8 = l - 6 6 6 6 6 6 z x 1 d > c v > h 1 1 = * - * @             ",
"8 - b 7 6 6 6 n 6 z 1 1 1 d > m c > h 1 1 M * & * N             ",
"        B V O   C Z 1 1 A d > S D > h F 1 G   o 4               ",
"                  x 1 1 1 H c J K m L 1 1 <                     ",
"                  x 1 1 P I U Y T R E W 1 1 Q                   ",
"                , ! 1 ~ ^ I / ( ( ) E _ ` 1 ' ,                 ",
"              , < 1 1 ] > I [ { { } E > | 1 1 < ,               ",
"            , < 1 1 y > > R  .T ..X.U > > p 1 1 o.,             ",
"          O.< 1 1 +.> > @.h #.S D $.d %.> > &.1 1 *.            ",
"        =.# 1 1 -.;.> R > h :.>.,.<.d > U > 1.2.1 1             ",
"        # G 1 1 3.;.@.1.> h #.S D $.d > ;.%.1.4.1 1             ",
"          x 1 1 5.6.> 1.> h :.S D <.d > ;.> U 7.1 1             ",
"          x 1 1 5.;.> 8.h 1 1 1 1 1 1 h 9.> 1.7.1 1             ",
"          x 1 1 5.;.0.1 1 1 q.w.e.r.1 1 1 t.1.7.1 1             ",
"          x 1 1 5.y.1 1 1 1 1 u.i.1 1 1 1 1 p.7.1 1             ",
"          x 1 1 a.1 1 < , s.1 d.f.1 2 3 g.1 1 h.1 1             ",
"          s.1 1 1 1 < , j., k.1 1 < 3 * C *.1 1 1 <             ",
"            s.x 1 l.9 # #   * o     @ * b , < 1 < ,             ",
"          t * * * + # - = * * t       o >                       ",
"        o * & & & * * * * * b                                   ",
"      z.* * x.4 4 4 4 4                                         ",
"      O O                                                       ",
"                                                                "
};
