/* XPM */
static char *result[] = {
/* columns rows colors chars-per-pixel */
"64 64 231 2 ",
"   c gray87",
".  c LightGray",
"X  c gray84",
"o  c #B4B4B4",
"O  c gray65",
"+  c #A2A2A2",
"@  c gray64",
"#  c #CECECE",
"$  c gray86",
"%  c #DFDFDF",
"&  c #E1E1E1",
"*  c gainsboro",
"=  c #AEAEAE",
"-  c gray80",
";  c gray88",
":  c #CBCBCB",
">  c #D2D2D2",
",  c gray70",
"<  c gray69",
"1  c #C8C8C8",
"2  c gray78",
"3  c #DADADA",
"4  c gray91",
"5  c white",
"6  c gray96",
"7  c #A9A9A9",
"8  c #A5A5A5",
"9  c #A4A4A4",
"0  c gray92",
"q  c gray99",
"w  c gray68",
"e  c #FEFEFE",
"r  c gray89",
"t  c gray94",
"y  c #F8F8F8",
"u  c #CACACA",
"i  c #D5D5D5",
"p  c #DDDDDD",
"a  c gray98",
"s  c gray76",
"d  c #ACACAC",
"f  c #A7A7A7",
"g  c #B7B7B7",
"h  c #B2B2B2",
"j  c gray85",
"k  c #F9F9F9",
"l  c gray62",
"z  c #6A6A6A",
"x  c black",
"c  c #FBFBFB",
"v  c #F4F4F4",
"b  c gray72",
"n  c #BCBCBC",
"m  c #F3F3F3",
"M  c #E9E9E9",
"N  c #8E8E8E",
"B  c gray93",
"V  c #D8D8D8",
"C  c gray67",
"Z  c #D7D7D7",
"A  c gray79",
"S  c #CDCDCD",
"D  c #131313",
"F  c #302F2F",
"G  c #B1B1B1",
"H  c #6A6767",
"J  c #C0BABA",
"K  c gray95",
"L  c #F1F1F1",
"P  c gray83",
"I  c #7C7C82",
"U  c #171F2C",
"Y  c #AFAFAF",
"T  c #7A7777",
"R  c #8C8989",
"E  c #2E3E59",
"W  c #729BDE",
"Q  c #0A0B0B",
"!  c #6D6C6C",
"~  c #E0DDDD",
"^  c gray49",
"/  c #39465B",
"(  c #8EAFE5",
")  c gray81",
"_  c #353638",
"`  c #A3A5A8",
"'  c gray82",
"]  c #5B5E63",
"[  c #E3EBF8",
"{  c #FDFDFD",
"}  c #3E4B60",
"|  c #5B7CB2",
" . c #2A2A2A",
".. c gray",
"X. c gray77",
"o. c #7E7E7E",
"O. c gray32",
"+. c gray35",
"@. c #8D8D8D",
"#. c #5A665D",
"$. c #24422C",
"%. c #505050",
"&. c #272525",
"*. c #3A3838",
"=. c #5AA66E",
"-. c #494949",
";. c #7D7979",
":. c #5A595A",
">. c #838586",
",. c #484848",
"<. c #605D5D",
"1. c #A5A2A2",
"2. c #525354",
"3. c #9F9F9F",
"4. c #2F4837",
"5. c #76B48A",
"6. c #C5C5C5",
"7. c gray17",
"8. c #262525",
"9. c #959191",
"0. c #BEBCBE",
"q. c #505254",
"w. c gray33",
"e. c #354B3D",
"r. c #83BC99",
"t. c #353535",
"y. c #E4DFDF",
"u. c #B3B4B5",
"i. c #323232",
"p. c #3A6A46",
"a. c #848484",
"s. c #DCDADA",
"d. c #05130A",
"f. c #2B5E3B",
"g. c #1C3225",
"h. c #5A936F",
"j. c DimGray",
"k. c #E3DFDF",
"l. c #8FA29C",
"z. c #9FCAB5",
"x. c gray90",
"c. c #949191",
"v. c #DBD9D9",
"b. c #25332C",
"n. c #6C987E",
"m. c #AAAAAA",
"M. c #7C7C7C",
"N. c #AFABAB",
"B. c #D8D7D7",
"V. c #939394",
"C. c #404143",
"Z. c #35443C",
"A. c #76827F",
"S. c #486353",
"D. c gray75",
"F. c gray11",
"G. c #303132",
"H. c #5F796D",
"J. c #2C2C2C",
"K. c #646464",
"L. c #808283",
"P. c gray28",
"I. c #030E07",
"U. c #0E381E",
"Y. c #151616",
"T. c #39413F",
"R. c #26302B",
"E. c #06170C",
"W. c #185E32",
"Q. c #202122",
"!. c #56615E",
"~. c #394941",
"^. c #4B4B4B",
"/. c #0B140D",
"(. c #316741",
"). c gray97",
"_. c #122116",
"`. c #4E9C64",
"'. c #111111",
"]. c #191919",
"[. c #C0C0C0",
"{. c gray71",
"}. c #414243",
"|. c #77797B",
" X c #0E1B12",
".X c #B6B6B6",
"XX c #BFBFC0",
"oX c #626365",
"OX c #202121",
"+X c #371509",
"@X c #903C15",
"#X c #99600D",
"$X c #998805",
"%X c #B9BABB",
"&X c #646567",
"*X c #101011",
"=X c gray18",
"-X c #676767",
";X c #5C230F",
":X c #F06423",
">X c #FF7E1D",
",X c #FFBF0F",
"<X c #FFA116",
"1X c gray74",
"2X c #1E1E1F",
"3X c gray73",
"4X c #120703",
"5X c #7A3013",
"6X c #F38A1B",
"7X c #FFA515",
"8X c #F37020",
"9X c #050506",
"0X c #F06C21",
"qX c #767676",
"wX c #EB5E24",
"eX c gray46",
"rX c #49895A",
"tX c #05120A",
"yX c #585858",
"uX c #2E1207",
"iX c #D0D0D0",
"pX c #6F6F6F",
"aX c #343434",
"sX c #040604",
"dX c gray31",
"fX c #535353",
"gX c gray14",
"hX c #C6C6C6",
"jX c #B9B9B9",
"kX c #EAEAEA",
"lX c #C3C3C3",
/* pixels */
"                                                                                                                                ",
"                                                                                                            . X                 ",
"                                                                                                  o o o o o O + + @ # $         ",
"      % & %                                                                                 * = o o o o o o o + + + + + -       ",
"      & ;   : >                                                                             , < o o o o o o o + + + + + 1       ",
"      & # 2 2 3                             % 4                                           5 6 7 o o o o o o o 8 + + + + + 9     ",
"      & 2 2 2 % %                         ; 0 5                                           5 q 8 o o o o o o o o o , + + + w     ",
"        2 2 2 ,                         & 5 e 5 5                                     r t e 5 o o o o o o o o o o o o o o o     ",
"        : 2 2 o                         y e 5 5 5 2 2 2 2 2 2 2 u i p                 5 a e 5 s o o o o o 8 , o o o o o o o     ",
"          2 2 d                   $ : > 5 5 e q 5 i .                                 e q e 5 5 ; o o o o f + + O o o o o o     ",
"          g h O o             # 2 2 - j q 5 5 5 5 k 2 2 :   l z x z l                   c v v 5 5 6 2 2 o o o + + o o o o 8 *   ",
"          # b b n         > 2 u 3 2 2       m 5 M     p - N x x x x x l                     B 5 5 V 1 2 2 o o h + o o o C + Z   ",
"                    X 2 2 A Z $ 1 S       : > 5         l x x D F D x x l                     5 5 2 2 2 2 o o o o o o G + +     ",
"                  $ 2 $       1 .         p 2 M       l x x D H J H D x x l                   K L V 2 2 2 , o o o o o 7 + Z     ",
"                i 2 .       S 2             P #     l x x D H I U I H D x x l                       2 2 2 + G o o o Y O         ",
"              * 2 X       S 1                 j   l x x D T R E W E R T D x x l                     * 1 2 + + + + + + 2         ",
"            p . P       p 2                   p   z x Q ! ~ ^ / ( / ^ ~ ! Q x z                         A ) + + + + + $         ",
"                        j j                       x x _ ` ' ^ ] [ ] ^ ' ` _ x x       { q               $ 1 1 2 2 2             ",
"                                                  x x _ ` ' N } | } N ' ` _ x x     5 5 &                 2 2 2 2               ",
"                                                  x x _ ` ' ' N  .N ' ' ` _ x x       2 -                 V 2 2 2               ",
"                                    ..X.  ' 1 ) 3 x x _ ` ' ' ' ' ' ' ' ` _ x x     2 2 j                                       ",
"                                  S o o * 2 1 o.O.x x _ ` ' ' < ^ < ' ' ` _ x x +.@.1 p                                         ",
"                                  i g n 2 2 o.x x x x _ ` ' < #.$.#.< ' ` _ x x x x @.                                          ",
"    p                           3 2 2 2 2 2 %.x x &.*._ ` ' ^ $.=.$.^ ' ` _ *.&.x x +.                                          ",
"  *                             j 2 2 2 2 2 -.x x *.;.:.>.' ^ $.=.$.^ ' >.:.;.*.x x +.                                          ",
"  .       u '                   p A # . o o ,.x x x <.1.2.3.^ 4.5.4.^ 3.2.1.<.x x x +.                                          ",
"X u     p 2 2     $             p - ) 6.o o 7.x x 8.9.0.q.w.^ e.r.e.^ w.q.0.9.8.x x t.                                          ",
"2 3     - 2 2     #                     n b x x x <.y.u.q.i.#.p.=.p.#.i.q.u.y.<.x x x                                           ",
">       u 2 2                             a.x x 8.9.s.u.q.d.f.=.=.=.f.d.q.u.s.9.8.x x a.                                        ",
"        S 2 ' c 5 6                       %.x 8.9.s.' u.q.g.h.5.5.5.h.g.q.u.' s.9.8.x %.                                        ",
"        p 2 X { 5 5 v                   j.x x <.k.' ' u.q._ l.z.z.z.l._ q.u.' ' k.<.x x a.                                      ",
"        > A S x.5 5                   j.x x 8.c.v.' ' u.q.b.n.r.r.r.n.b.q.u.' ' v.c.8.x x j.                                    ",
"        P 1 1 2 u m.<               M.x x *.N.B.' ' ' V.C.Z.f.=.=.=.f.Z.C.V.' ' ' B.N.*.x x j.                                  ",
"        p 2 2 2 2 o h             M.x x *.N.B.' ' ' 3.i._ A.S.p.=.p.S.A._ i.3.' ' ' B.N.*.x x M.                                ",
"        e e 5 X D.o i           M.x x F.N.B.' ' ' 3.2.G._ l.H.$.=.$.H.l._ G.2.3.' ' ' B.N.F.x x M.                              ",
"        5 5 { Z + P           M.x x x J.B.' ' ' 3.K.L.q._ l.H.$.=.$.H.l._ q.L.K.3.' ' ' B.J.x x x M.                            ",
"        5 5 x.+ @             P.x I.U. .' ' ' 3.K.3.u.q.Y.T.R.e.r.e.R.T.Y.q.u.3.K.3.' ' '  .U.I.x P.                            ",
"        5 5 5 ..              x x E.W. .' ' 3.i.w.' u.q.Q.!.~.4.5.4.~.!.Q.q.u.' w.i.3.' '  .W.E.x x           o g               ",
"        5 5 5 u             M.x x E.W. .' 3.K.^.w.' u.q._ l.H.$.=.$.H.l._ q.u.' w.^.K.3.'  .W.E.x x M.        o o X.            ",
"      % 5 5                 P.x /.(.W. .3.K.3.^ w.' u.q._ l.H.$.=.$.H.l._ q.u.' w.^ 3.K.3. .W.(./.x P.        g o o             ",
"      K 5 ).                x x _.`.W.'.K.3.' ^ w.' u.q.Y.T.R.$.=.$.R.T.Y.q.u.' w.^ ' 3.K.'.W.`._.x x         * o               ",
"        K                   x x _.`.W.].3.' ' ^ w.' u.q.Q.!.~.$.=.$.~.!.Q.q.u.' w.^ ' ' 3.].W.`._.x x         [.{.              ",
"                            x x _.`.W. .' ' ' ^ }.` |.Q.Y.T.R. X$. XR.T.Y.Q.|.` }.^ ' ' '  .W.`._.x x       6..Xo .X            ",
"                            x x _.`.W. .' ' XXoXY._ OXx x x x x x x x x x x OX_ Y.oXXX' '  .W.`._.x x       o o o o ..          ",
"                            x x _.`.W. .' XX|.OXx x x x x +X@X#X$X#X@X+Xx x x x x OX|.XX'  .W.`._.x x           o o o           ",
"                            x x _.`.W. .%X&X*Xx x x =X-Xx ;X:X>X,X<X:X;Xx a.t.x x x *X&X%X .W.`._.x x           u o 1X          ",
"                            x x _.`.W.2X&X*Xx x K.o 3X  z 4X5X6X7X8X5X4Xz       j.x x *X&X2XW.`._.x x                           ",
"                            x x _.`.W.9X*Xx x K.{.o     l x ;X0X>X:X;Xx l         M.x x *X9XW.`._.x x                           ",
"                            x x _.`.W.x x x qX            z 4X5XwX5X4Xz         V ' eXx x x W.`._.x x                           ",
"                            x x _.rXtXx x yX              l x 4XuX4Xx l         2 S iXpXx x tXrX_.x x                           ",
"                            aXx sX Xx x yX$                 l z x z l           2 r t # dXx x  XsXx aX                          ",
"                            b  .x x x yX$                                       2 r x.iX1 fXx x x yXb                           ",
"                              b P.gXyX$                                           1 2 2 2 > yXgXyX$                             ",
"                                                                                  - 2 2 hXb o                                   ",
"                                                                                  2 1 # 1 o {.                                  ",
"                                                                                y x.c S s g jX                                  ",
"                    u u                                                       r 5 x.r 2 3Xo 3X                                  ",
"            A 2 2 2 2 Z                                                           kX: ) 2 g p                                   ",
"          S 1 g + {.2                                                                   3 2                                     ",
"        : 2 h o w i                                                                     # 2 Z                                   ",
"      3 s , o lX*                                                                                                               ",
"                                                                                                                                ",
"                                                                                                                                ",
"                                                                                                                                "
};
