/* XPM */
static char *result[] = {
/* columns rows colors chars-per-pixel */
"64 64 183 2 ",
"   c #000101",
".  c #030608",
"X  c #040A0E",
"o  c #0B0D0D",
"O  c #040D13",
"+  c #0C0E10",
"@  c #061017",
"#  c #0B1115",
"$  c #07121A",
"%  c #0B151C",
"&  c #131414",
"*  c #14191D",
"=  c #1B1C1D",
"-  c #12171B",
";  c #0E1920",
":  c #121C22",
">  c #1A1E20",
",  c #172127",
"<  c #1C2125",
"1  c #1E272D",
"2  c #1B2932",
"3  c #222425",
"4  c #242729",
"5  c #252A2D",
"6  c #2B2C2C",
"7  c #282D30",
"8  c #2B3338",
"9  c #333334",
"0  c #3A3A3B",
"q  c #333638",
"w  c #1E3441",
"e  c #213644",
"r  c #223946",
"t  c #273C48",
"y  c #313A40",
"u  c #3F4346",
"i  c #2A485A",
"p  c #344A57",
"a  c #3B5A6D",
"s  c #37596D",
"d  c #2C5772",
"f  c #3C5D70",
"g  c #3B627B",
"h  c #434343",
"j  c #4B4B4B",
"k  c #42494D",
"l  c #444D52",
"z  c #465158",
"x  c #555556",
"c  c #57595A",
"v  c #5C5C5D",
"b  c #545658",
"n  c #425E6F",
"m  c #4C5E6A",
"M  c #5B5F62",
"N  c #575F65",
"B  c #425E70",
"V  c #47606F",
"C  c #5F6061",
"Z  c #646464",
"A  c DimGray",
"S  c #616C72",
"D  c #707171",
"F  c #7B7B7B",
"G  c #0B6296",
"H  c #0C659A",
"J  c #0C699F",
"K  c #13699B",
"L  c #1C6C9B",
"P  c #0D6BA4",
"I  c #126DA2",
"U  c #0F72AC",
"Y  c #1B73A6",
"T  c #1374AD",
"R  c #1A76AD",
"E  c #1A75AB",
"W  c #1476B0",
"Q  c #1678B3",
"!  c #1C7BB3",
"~  c #1C7FBA",
"^  c #177DB9",
"/  c #2578A9",
"(  c #337BA5",
")  c #247CB1",
"_  c #607683",
"`  c #1D81BD",
"'  c #2B82B5",
"]  c #2382BB",
"[  c #2B85BA",
"{  c #2780B3",
"}  c #3289BE",
"|  c #3887B7",
" . c #6A8391",
".. c #738B98",
"X. c #4D84A5",
"o. c #458DB9",
"O. c #5093BC",
"+. c #7296AC",
"@. c #6798B5",
"#. c #1D84C1",
"$. c #2186C2",
"%. c #2389C6",
"&. c #2A8AC4",
"*. c #258CCB",
"=. c #298ECB",
"-. c #348DC3",
";. c #388FC5",
":. c #2A91CF",
">. c #3B90C3",
",. c #3593CC",
"<. c #3C96CC",
"1. c #238FD1",
"2. c #2692D3",
"3. c #2C95D4",
"4. c #2C96D8",
"5. c #3296D3",
"6. c #3399D6",
"7. c #399BD7",
"8. c #349CDB",
"9. c #389DDB",
"0. c #3DA1DE",
"q. c #349FE0",
"w. c #37A1E1",
"e. c #3DA5E3",
"r. c #4494C6",
"t. c #4497C9",
"y. c #499ACB",
"u. c #5D9EC5",
"i. c #519FCE",
"p. c #489ED4",
"a. c #5DA1CA",
"s. c #44A2DC",
"d. c #4AA4DB",
"f. c #4CA0D3",
"g. c #53AADE",
"h. c #58A7D6",
"j. c #61A1C9",
"k. c #6EA8CB",
"l. c #6CABD1",
"z. c #74AFD3",
"x. c #43A7E6",
"c. c #45A9E6",
"v. c #4BABE5",
"b. c #44ACEB",
"n. c #4CAEE9",
"m. c #52ABE1",
"M. c #4DB1EE",
"N. c #52B2EC",
"B. c #59B5ED",
"V. c #5BB0E4",
"C. c #4CB3F0",
"Z. c #52B6F4",
"A. c #55B9F6",
"S. c #5CBAF3",
"D. c #6AB6E4",
"F. c #65BAED",
"G. c #6BBAEB",
"H. c #65B6E7",
"J. c #72BCE8",
"K. c #62BCF3",
"L. c #838383",
"P. c #8A8A8A",
"I. c #8B9094",
"U. c #959595",
"Y. c gray61",
"T. c #9B9FA1",
"R. c #A3A3A3",
"E. c #ABABAB",
"W. c #A2A7AB",
"Q. c #A8AFB3",
"!. c #ADB0B2",
"~. c #B4B4B4",
"^. c #BBBBBB",
"/. c #B4B8BA",
"(. c #C6C6C6",
"). c #CBCBCB",
"_. c #CFD0D0",
"`. c gray83",
"'. c #DEDEDE",
"]. c #E2E2E2",
"[. c #EAEAEA",
"{. c #F3F3F3",
"}. c #FEFEFE",
/* pixels */
"'.'.'.'.'.'.'.'.'.'.'.'.'.'.'.'.'.'.'.'.'.'.'.'.'.'.'.'.'.'.'.'.'.'.'.'.'.'.'.'.'.'.'.'.'.'.'.'.'.'.'.'.'.'.'.'.'.'.'.'.'.'.'.'.",
"'.'.'.'.'.'.'.'.'.'.'.'.'.'.'.'.'.'.'.'.'.'.'.'.'.'.'.'.'.'.'.'.].'.'.'.'.'.'.'.'.'.'.'.'.'.'.'.'.'.'.'.'.].`.`.'.'.'.'.'.'.'.'.",
"'.'.'.'.'.'.'.'.'.'.'.'.'.'.'.'.'.'.'.'.'.'.'.'.].'.'.'.'.'.'.'.'.'.'.'.'.'.'.'.'.'.'.'.'.'.'.'.'.~.~.~.~.~.R.R.R.R.).'.'.'.'.'.",
"'.'.'.'.'.'.'.'.'.'.'.'.'.'.'.'.'.'.'.'.'.'.'.'.'.'.'.'.'.'.'.'.'.'.'.'.'.'.'.'.'.'.'.'.].'.'.E.~.~.~.~.~.~.~.R.R.R.R.R.).'.'.'.",
"'.'.'.].'.'.).`.'.'.'.'.'.'.'.'.'.'.'.'.'.'.'.'.'.'.'.'.'.'.'.'.'.'.'.'.'.'.'.'.'.'.'.'.'.'.~.~.~.~.~.~.~.~.~.R.Y.R.R.R.).'.'.'.",
"'.'.'.].).(.(.'.'.'.'.'.'.'.'.'.'.'.'.'.'.'.'.[.'.'.'.'.'.'.'.'.'.'.'.'.'.'.'.'.'.'.'.'.'.}.{.E.~.~.~.~.~.~.~.R.R.R.R.R.R.R.'.'.",
"'.'.'.].).).(.'.].'.'.'.'.'.'.'.'.'.'.'.'.].[.}.'.'.'.'.'.'.'.'.'.'.'.'.'.'.'.'.'.'.'.].'.}.}.R.~.~.~.~.~.~.~.~.~.~.R.R.R.E.'.'.",
"'.'.'.'.(.(.(.~.'.'.'.'.'.'.'.'.'.'.'.'.].}.}.}.}.'.'.'.'.'.'.'.'.'.'.'.'.'.'.'.'.'.'.].[.}.}.~.~.~.~.~.~.~.~.~.~.~.~.~.~.~.'.'.",
"'.'.'.'.).(.).~.'.'.'.'.'.'.'.'.'.'.'.'.{.}.}.}.}.(.(.(.(.(.(.(.).`.'.'.'.'.'.'.'.'.'.}.}.}.}.^.~.~.~.~.~.R.~.~.~.~.~.~.~.~.'.'.",
"'.'.'.'.'.(.(.E.'.'.'.'.'.'.'.'.'.'.(.`.}.}.}.}.}.`.`.'.'.'.'.'.'.'.'.'.'.'.'.'.'.'.'.}.}.}.}.}.'.~.~.^.~.R.R.R.R.~.~.~.~.~.'.'.",
"'.'.'.'.'.^.~.R.~.'.'.'.'.'.'.).(.(.).'.}.}.}.}.}.}.).(.).'.'.'.'.'.'.'.'.'.'.'.'.'.'.'.}.{.{.}.}.{.(.(.~.~.~.R.R.~.~.~.~.R.'.'.",
"'.'.'.'.'.).~.^.^.'.'.'.'.`.).).'.(.(.'.'.'.{.}.].'.'.'.).(.'.'.'.'.'.'.'.'.'.'.'.'.'.'.'.].[.}.}.'.(.(.(.~.~.!.R.~.~.~.E.R.`.'.",
"'.'.'.'.'.'.'.'.'.'.`.(.(.).`.'.(.).'.'.'.).`.}.].'.'.'.'.).(.`.'.'.'.'.'.'.'.'.'.'.].'.'.'.'.}.}.(.(.(.(.~.~.~.~.~.~.~.R.R.'.'.",
"'.'.'.'.'.'.'.'.'.'.(.'.'.'.'.(.`.'.'.'.'.'.(.[.'.'.'.'.'.'.'.(.`.'.'.'.'.'.'.'.'.'.'.'.'.'.'.{.{.`.(.(.(.~.~.~.~.~.~.E.R.'.'.'.",
"'.'.'.'.'.'.'.'.`.(.`.'.'.'.).(.'.'.'.'.'.'.`.).'.'.'.'.'.'.'.'.).'.'.'.'.'.'.'.'.'.'.'.'.'.'.'.'.'.(.(.(.R.!.~.~.~.E.R.'.'.'.'.",
"'.'.'.'.'.'.'.'.(.`.'.'.'.).).'.'.'.'.'.'.'.'.'.'.'.'.'.'.'.'.'.'.'.'.'.'.'.'.'.'.'.'.'.'.'.'.'.'.'.'.).(.R.R.R.R.R.R.(.'.'.'.'.",
"'.'.'.'.'.'.'.`.`.'.'.'.'.(.'.'.^.P.v j j h h j Y.'.'.'.'.'.'.'.'.'.'.'.'.'.'.'.'.'.'.'.'.'.'.'.'.'.'.'.(._.R.R.R.R.R.'.'.'.'.'.",
"'.].'.'.'.'.'.'.'.'.'.'.`.'.'.'.R.Z j h h 0 0 0 U.'.'.'.'.'.'.'.'.'.'.'.'.'.'.'.'.'.'.}.}.'.'.'.'.'.'.'.'.(.(.(.(.(.'.'.'.'.'.'.",
"'.'.'.'.'.'.'.'.'.'.'.'.'.'.'.'.F o 6 9 9 6 = o L.'.'.'.'.'.'.`._.`.'.'.'.'.'.'.'.'.}.}.].'.'.'.'.'.'.'.'.(.(.(.(.'.'.'.'.'.'.'.",
"'.'.'.'.'.'.'.'.'.'.'.'.'.'._.Y.j . * > = 3 =   F '.'.'.'.'.`.(.(.).).`.).`.'.'.'.'.'.(.).'.'.'.'.'.'.'.'.'.(.(.(.'.'.'.'.'.'.'.",
"'.'.'.'.'.'.'.'.'.'.'.'.'.).E.v 4 . O @ @ : %   v W.Q.Q.Q.!.Q.!.Q.T.T.T.!.T.!.!.!.~.Y.T.!.^.).'.'.'.'.'.'.'.'.'.'.'.'.'.'.'.'.'.",
"'.'.'.'.'.'.'.'.'.'.'.'.'.R.v > # @ @ @ & % O   + = , < , < , , < < > < < 3 < 3 3 3 3 3 6 j U.'.'.'.'.'.'.'.].'.'.'.'.'.'.'.'.'.",
"'.'.'.'.'.'.'.'.'.'.'.U.U.M 6 > # @ X . o @ O   - i s s s f f f a n a n n B n V V V V m l 3 A (.`.'.'.'.'.'.'.'.'.'.'.'.'.'.'.'.",
"'.'.'.'.'.'.'.'.'.'.'.h h = o 1 , @ & o   O O   w t.A.A.A.A.Z.Z.A.Z.Z.Z.Z.Z.A.A.A.S.S.J.+.4 x Y.(.`.'.'.'.'.'.'.'.'.'.'.'.'.'.'.",
"'.'.'.'.'.'.'.'.'.'.'.& & + @ ; - > D v   O O   8 t.Z.A.A.Z.M.b.b.b.b.b.b.b.C.Z.A.A.A.K.l. .z 0 P.R.'.'.'.'.'.'.'.'.'.'.'.'.'.'.",
"'.`.'.'.'.).`.'.'.'.'.    X @ O 9 C !.L.  X O   w <.N.M.v.x.e.0.q.q.q.q.q.w.e.b.b.N.S.S.F.z._ k j c '.'.'.'.'.'.'.'.'.'.'.'.'.'.",
"`.(.'.'.'.(.(.'.'.'.'.    X O . A ).).F   O @   8 r.m.s.5.3.2.2.2.2.2.1.1.1.2.2.7.g.F.K.S.S.z...4   '.'.'.'.'.'.'.'.'.'.'.'.'.'.",
"(.'.'.'.).(.(.'.'.).'.    O @   A '.'.P.  O O   w t.s.6.2.=.&.$.` ` ~ ~ ` #.&.*.3.7.d.D.G.K.G.@.4   '.'.'.'.'.'.'.'.'.'.'.'.'.'.",
"`.'.'.'.).(.(.'.'.'.'.    X @   A '.'.P.  X O   w ;.8.2.*.&.] ! Q W W W ! ! ` #.=.3.6.h.D.K.K.a.5   '.'.'.'.'.'.'.'.'.'.'.'.'.'.",
"'.'.'.'.).(.`.}.}.{.'.    X @   A '.'.P.  O O   w -.4.*.&.! T T U U U U U W T ! -.<.2.5.d.D.F.i.2   '.'.'.'.'.'.'.'.'.'.'.'.'.'.",
"'.'.'.'.'.(.`.}.}.}.{.    X O   A '.'.P.  X O   w } 3.=.&.! T T U P P P P P U T [ -.<.5.5.g.B.i.2   '.'.'.'.'.'.'.'.].'.'.'.'.'.",
"'.'.'.'.`.).).].}.}.'.    X O . Z `.'.L.  O O   w &.2.=.} ! I P P H H H P J P T ) | y.,.3.p.n.i.2   '.'.'.'.'.'.'.'.'.'.'.'.'.'.",
"'.'.'.'.`.(.).(.(.E.!.    O O   Z `.'.P.  O O   w } 4.*.[ R I H G G G G G G J Y ) { o.,.5.6.v.i.2   '.'.'.'.'.'.'.'.'.'.'.'.'.'.",
"'.'.'.'.'.(.(.).(.~.~.    O @ . Z `.'.P.  O O   w &.2.%.] T I G G G G G G G L / ) ' ' ,.5.5.c.i.2   '.'.'.'.'.'.'.'.'.'.'.'.'.'.",
"'.'.'.'.}.}.}.`.^.~.`.    X O . Z (.'.L.  O O   w -.2.%.{ R I H G G G G G G L ( ' ' { -.5.3.c.i.2   '.'.'.'.'.'.'.'.'.'.'.'.'.'.",
"'.'.'.'.}.}.}.`.R.`.'.    X O o 9 D ^.P.  X O   e -.4.%.] ! Y K G G G G G G K / ) ) ' =.3.4.s.O.1   '.'.'.'.'.'.'.'.'.'.'.'.'.'.",
"'.'.'.'.}.}.].Y.R.'.'.    X % % = 0 W.L.  O O   e t.8.*.#.! T K H H H H G G K Y R ! [ *.3.8.| g q 7 '.'.'.'.'.'.'.'.'.'.'.'.'.'.",
"'.'.'.'.}.}.}.(.'.'.'.    X @ % O = Y.F   O O   e t.x.3.*.] ! T P P H H J J P T T ` &.1.4.x.d % C F '.'.'.'.'.~./.'.'.'.].'.'.'.",
"'.'.'.'.}.}.}.).'.'.'.    + - % % : 0 6   O O   r t.V.p.2.&.$.^ W W W W W W Q ^ ` %.:.8.,.( r : I./.'.'.'.'.'.~.~.(.'.'.'.'.'.'.",
"'.'.'.].}.}.'.'.'.'.'.0 0 3 # % % % o . . O O   r i.G.v.6.3.*.%.#.#.#.#.#.%.#.%.2.4.9.e.>.i 8 l /.'.'.'.'.'.'./.~.~.'.'.'.'.'.'.",
"'.'.'.{.}.{.].'.'.'.'.(.(.c . > : @ % % @ $ O   r f.K.B.c.9.8.6.8.6.6.6.8.8.6.8.0.c.N.Z.o., p R.).'.'.'.'.'.'.'.~.'.'.'.'.'.'.'.",
"'.'.'.'.{.'.'.'.'.'.'.'.'.P.h = % ; % % $ ; O . t h.K.S.B.B.v.n.n.n.v.n.n.N.M.n.N.B.K.X.p - S _.'.'.'.'.'.'.'.(.~.'.'.'.'.].'.'.",
"'.'.'.'.'.'.'.'.'.'.'.'.'.(.P.6 = - % % $ ; O . 8 @.k.k.l.j.u.a.j.j.a.u.u.j.j.j.j.j.k.p & q P.'.'.'.'.'.'.'.(.~.~./.'.'.'.'.'.'.",
"'.'.'.'.'.'.'.'.'.'.'.'.'.`.(.P.h X - ; $ $ O . o 4 9 6 4 4 4 5 5 5 5 5 5 5 5 5 6 6 6 o 9 R.).'.'.'.'.'.'.'.~.~.~.~.^.'.'.'.'.'.",
"'.'.'.'.'.'.'.'.'.'.'.'.'.'.`.(.I.c 4 - ; ; O . 4 x x x c b c M C N C N N M C M C C C Z L._.'.'.'.'.'.'.'.'.'.'.~.~.~.'.'.'.'.'.",
"'.'.'.'.'.'.'.'.'.'.'.'.'.'.'.'.'.(.0 + : ; O   c ~.(.`.'.'.'.'.'.'.'.'.'.'.'.'.'.'.'.'.'.'.'.'.'.'.'.'.'.'.'.'.).~.^.'.'.'.'.'.",
"'.'.'.'.'.'.'.'.'.'.'.'.'.'.'.'.'.(.j * X .     x ~.^.'.'.'.'.'.'.'.'.'.'.'.'.'.'.'.'.'.'.'.'.'.'.'.'.'.].'.'.'.'.'.'.'.'.'.'.'.",
"'.'.'.'.'.'.'.'.'.'.'.'.'.'.'.'.'.).c &         Z ~.'.'.'.'.'.'.'.'.'.'.'.'.'.'.'.'.'.'.'.'.'.'.'.'.'.'.'.'.'.'.'.'.'.'.'.'.'.'.",
"'.'.'.'.'.'.'.'.'.'.'.'.].'.'.'.'.'.(.~.~.~.`.'.'.'.'.'.'.'.'.'.'.'.'.'.'.'.'.'.`.`.`.'.'.'.'.'.'.'.'.'.'.'.'.'.'.'.'.'.'.'.'.'.",
"'.'.'.'.'.'.'.'.'.'.'.'.'.'.'.'.~.~.~.~.^.'.'.'.'.'.'.'.'.].'.'.'.'.'.'.'.'.'.'.(.)._.(.`.'.'.'.'.'.'.'.'.'.'.'.'.'.'.'.'.'.'.'.",
"'.'.'.'.'.'.'.'.'.'.'.'.'.'.'.).~.~.'.'.'.'.'.'.'.'.'.'.'.'.'.'.'.'.'.'.'.'.'.'.(.].{._.(.'.'.'.'.'.'.'.'.'.'.'.'.'.'.'.'.'.'.'.",
"'.'.'.'.'.'.'.'.'.'.'.'.'.'.'.~.^.~.'.'.'.'.'.'.'.'.'.'.'.'.'.'.'.'.'.'.'.'.'.'.).].]._.(.`.'.'.'.'.'.'.'.'.'.'.'.'.'.'.'.'.'.'.",
"].'.'.'.'.'.'.'.'.'.'.'.'.'.'.^.~.'.'.'.'.'.'.'.'.'.'.'.'.'.'.'.'.'.'.'.'.'.'.'.'.).(.(.(.`.'.'.'.'.'.'.'.'.'.'.'.'.'.'.'.'.'.'.",
"'.'.'.'.'.'.'.'.'.'.'.'.'.'.'.'.'.'.'.'.'.'.'.'.'.'.'.'.'.'.'.'.'.'.'.'.'.'.'.'.'.).(.(.(.^.~.'.'.'.'.'.'.'.'.'.'.'.'.'.'.'.'.'.",
"'.'.'.'.'.'.'.'.'.'.'.'.'.'.'.'.'.'.'.'.'.'.'.'.'.'.'.'.'.'.'.'.'.'.'.'.'.'.'.'.'.(.(._.(.~.~.'.'.'.'.'.'.'.'.'.'.'.'.'.].'.'.'.",
"'.'.'.'.'.'.'.'.'.'.'.'.'.'.'.'.'.'.'.'.'.'.'.'.'.'.'.'.'.'.'.'.'.'.'.'.'.'.'.'.}.].}.).(.~.^.'.'.'.'.'.'.'.'.'.'.'.'.'.'.'.'.'.",
"'.'.'.'.'.'.'.'.'.'.).).'.'.'.'.'.'.'.'.'.'.'.'.'.'.'.'.'.'.'.'.'.'.'.'.'.'.'.].}.].].(.^.~.^.'.'.'.'.'.'.'.'.'.'.'.'.'.'.'.'.'.",
"'.'.'.'.'.'.).).(.(.).`.'.'.'.'.'.'.'.'.'.'.'.'.'.'.'.'.'.'.'.'.'.'.'.'.'.'.'.'.'.[.).`.).~.'.'.'.'.'.'.'.'.'.'.'.'.'.'.'.'.'.'.",
"'.'.'.'.'.).(.~.R.~.).'.'.'.'.'.'.'.'.'.].'.'.'.'.'.'.'.'.'.'.'.'.'.'.'.'.'.'.'.'.'.'.'.'.(.'.'.'.'.'.'.'.'.'.'.'.'.'.'.'.'.'.'.",
"'.'.'.'.).(.~.E.E.`.'.'.'.'.'.'.'.'.'.'.'.'.'.'.'.'.'.'.'.'.'.'.'.'.'.'.'.'.'.'.'.'.'.'.).(.`.'.'.].'.'.'.'.'.'.'.'.'.'.'.'.'.'.",
"'.'.'.'.(.~.~.(.'.'.'.'.'.'.'.'.'.'.'.'.'.'.'.'.'.'.].'.'.'.'.'.'.'.'.'.'.'.'.'.'.'.'.'.'.'.'.'.'.'.'.'.'.'.'.'.'.'.'.'.'.'.'.'.",
"'.'.'.'.'.'.'.'.'.'.'.'.'.'.'.'.'.'.'.'.'.'.'.'.'.'.'.'.'.'.'.'.'.'.'.].'.'.'.'.'.'.'.'.'.'.'.'.'.'.'.'.'.'.'.'.'.'.'.'.'.'.'.'.",
"'.'.'.'.'.'.'.'.'.'.'.'.'.'.'.'.'.'.'.'.'.'.'.'.'.'.'.'.'.'.'.'.'.'.'.'.'.'.'.'.'.'.'.'.'.'.'.'.'.'.'.'.'.'.'.'.'.'.'.'.].'.'.'.",
"'.'.'.'.'.'.'.'.'.'.'.'.'.'.'.'.'.'.'.'.'.'.'.'.'.'.'.'.'.'.'.'.'.'.'.'.'.'.'.'.'.'.'.'.'.'.'.'.'.'.'.'.'.'.'.'.'.'.'.'.'.'.'.'."
};
