/* XPM */
static char *result[] = {
/* columns rows colors chars-per-pixel */
"64 64 93 2 ",
"   c #090909",
".  c #121212",
"X  c #1D1D1E",
"o  c #232324",
"O  c #2D2D2E",
"+  c #2E2F30",
"@  c #2F3031",
"#  c #343435",
"$  c #363738",
"%  c #383738",
"&  c #373839",
"*  c #3A3B3D",
"=  c #3F3E40",
"-  c #413F42",
";  c #0F5C54",
":  c #105F57",
">  c #3F4042",
",  c #10665E",
"<  c #10685F",
"1  c #31635F",
"2  c #106A62",
"3  c #2C6661",
"4  c #2B6964",
"5  c #316A65",
"6  c #336D69",
"7  c #36716C",
"8  c #3B746F",
"9  c #3C7570",
"0  c #424344",
"q  c #464649",
"w  c #48474B",
"e  c #47484B",
"r  c #4A4B4D",
"t  c #4E4E51",
"y  c #4F5053",
"u  c #4E5D5C",
"i  c #525355",
"p  c #555659",
"a  c #56595B",
"s  c #5A5B5D",
"d  c #525F60",
"f  c #5C5E61",
"g  c #546362",
"h  c #5F6163",
"j  c #596867",
"k  c #5B6A6A",
"l  c #487572",
"z  c #616466",
"x  c #646669",
"c  c #66696B",
"v  c #696C6E",
"b  c #6C6E71",
"n  c #6E7173",
"m  c #6C7879",
"M  c #717476",
"N  c #747679",
"B  c #76797B",
"V  c #797C7E",
"C  c #7C7E80",
"Z  c #1E9B94",
"A  c #3C9C98",
"S  c #21AFA6",
"D  c #21B0A7",
"F  c #21B0A8",
"G  c #41928F",
"H  c #469794",
"J  c #479B97",
"K  c #489996",
"L  c #4E9F9B",
"P  c #7E8183",
"I  c #669D9B",
"U  c #4FA19E",
"Y  c #51A29F",
"T  c #53A4A1",
"R  c #59ABA7",
"E  c #5DAEAA",
"W  c #63B4B0",
"Q  c #818485",
"!  c #848688",
"~  c #86898A",
"^  c #898B8D",
"/  c #8D8F90",
"(  c #8F9192",
")  c #929395",
"_  c #959798",
"`  c #97999A",
"'  c #9A9B9D",
"]  c #9E9FA0",
"[  c #9FA0A2",
"{  c #A3A4A5",
"}  c #A6A7A8",
"|  c #A7A8A8",
" . c #A9A9A9",
/* pixels */
"b v c c ^ b 0 n n c z N c ^ c s v v x M f p f f b v v f M C f c b b n f v b Q ( C c b c x C M n f n ~ C n C c c v h f b C h Q C ",
"v f c x / b * n n c z n n V B c v x x x f i i r v n z c b C v c n n x d f v N _ n n b C C f x c v n Q C v M z b b M v n C x N C ",
"b * p M M v f M n c x z ~ ! c c v v M c h d w @ n C b M M v b v n n f t f M B / ! n f b b v n n M n ~ C C n c h n b N N C B v C ",
"b r i N M c c M M c f x ~ ! n n v c M v x f w = b b v M n n b f C n z f w Q C / / x f z b n C t ! C C C n C v h n N n ! M N v b ",
"x a s x b b b M n c s c x ! n n n v c x f p d f f M v n C t b c N N b f f C C C C v v b t c C C b n n C C b M z v M M / ^ f h v ",
"f h x x x c v b c c h p n ~ N b c x c f f f M f t x C c N M C n M b Q b b b C C x v b C p C C C v v M N C M M z v b Q ~ ) i a b ",
"x M a c b x b b b c z y b ) N N v z v h r C C h t = C n C N b n n b C x N N b M h f C ! C C M t / M n N C M x x b M Q ! C b b B ",
"B V v i M b M ! h n h t N n V n c v z h y ^ M x z = C C C N v b M N n c M v z Q d z n ! / M C i / n b n M M h n n Q Q b C M C Q ",
"Q b c v M N n n c B f h x v N B z n c f p ^ ^ M f > C ^ C C b M M N b v n z C ~ z x v C / C C v M c b n M M v x b Q b i C ! M ~ ",
"V M z n / P s r n b c z B p v v n N C x f b ~ C v x C ^ _ P n n C C h M b c C ~ N M p b ( C v C v b n n M N b i v Q B z Q C V ^ ",
"B n b c ) ~ x 0 N n c z M z c z N b C c N b t N N N P C ~ ! V C ! v c C v v C C C C f M C n n C b b B b B M b x B C C B x M Q ~ ",
"n P n s M P M f V V V n c x c z N N C b f N v b k C P C C P V ~ / b C ~ c C C M C f P n n C C b B B M N M v n ! v Q B B M V C P ",
"C M B n n x c b n C B M v v f f b ~ v p b h b v f ! Q C n C ! C C C N N v M N n M C C f ! C C b C C M M B x ! s s C ! V N C B V ",
"^ a M M M c x c n M B M c x a v ! / N f 0 n c x M ~ C C P B n n C C B ! b n n n v M b C C ! C M M C M ! n v V w v n ! ^ M M v Q ",
"~ h b v N n z c n B B M f x z v / / M b $ / b f C Q ! C ~ V b n C C y B Q ~ c n t C C C C P C M B Q ~ C v b v t b n ~ Q M V M Q ",
"P n n v ~ N x c n B V B s h P n c ! M f b ! C z ) ) ! ` ! B C V N i f b C { f b f M C ! C C C ~ b Q ^ v p b s n M V ~ V C V B N ",
"N M n z Q P b V N b b ~ f C ~ n x b x N ! C ] b p { / | ^ P N N C b - v C } f C j C C ^ ( C C ( C C n z c v c C C n x n C ) Q M ",
"B b n v B C n / b i b C h C ~ M v b i b C M [ C # ' ) ^ ) ^ B B C ! p C / C d C c C P ` ( C ( ^ v c B b v b n C C f c N Q ^ C n ",
"V c c n N v c ~ C f b M h b Q B C x f C b N { N a { { P V C Q N C C C C C p C C C C ^ ] P ^ C _ b C Q b c v M C C f f ~ C C C n ",
"M s p i N M n n C N b M b v N M n f c P N N ! C P ` ` P Q N V M C C C C v C C C C C C ^ C C ! _ ! Q N c C N v N C c z C C p n z ",
"B z p r s C B V C N b x b f v N b c C C C / C N M B ^ V ! V B N C C C C C C ( ^ ! / ^ C C c C ) ( ' x i n ) M M M C C C w - n z ",
"V n z q q N N N C C N b x f z M M C M C C n b C V n N B V Q B V C f C C ( / ` ^ C ) C C C C C / ) _ ! - N ( n M C C n C @ y v v ",
"C C s = = N P b B b C M h - v b C M ! ! C B - n B ^ M M V h C M x x C ! ` ] C / C ( p C C C / C ) ^ ^ b C p M ^ C C n n + t c N ",
"v c s t 0 P M N b v ! M x p f h M C / Q b N - f ^ ^ N v V c ^ n x x C ( [ C ` ! ! ( c C d C ^ ^ ! ^ ^ C C h N ! C n M b - - b C ",
"x h t p p Q v b n B V B M a f - b C / ! V M # v Q P V h B ( ^ n C C C ! _ ^ ( ` ] C j z z C C ] ! C ( C C C M M n n f z v - x C ",
"h f i x z N c b N ~ Q v ~ v f w p C ~ Q Q P N Q ) Q Q z n ( ^ N C C C ! Q ( ` } ' v k C x C ( ^ C ] ! M M x C v c w p n v C v P ",
"c p i N m z n x P x B b c b f s y b b c x x c x N h Q P V ^ ` ^ C C ~ C ~ [ { } [ / P P C ! ( ^ ] ( M v n M C v d = f b v B P ^ ",
"s i n N x s x h b N N b b z p v w . . . . . . . . X K L K K Y Y H U Y A Y E E E W E R R T Y I C C C c C M Q N v - = t v n n n ~ ",
"z x n c x h s p i n N b b x f b i . . . . . . . . . Z S S S D D F F F F S F F F F F F F F F A c ! n C C C ^ N n O O i v b n b ! ",
"x v c c x c h y w z M b n M b C r                   , < < , 2 2 2 2 2 2 2 2 2 2 2 2 2 2 2 2 4 C / C C C C P n v - # f v b n M P ",
"x n b n N N h > 0 b C c M b M Q t   O f f v h p X   ; , < 2 2 2 2 2 2 2 2 2 2 2 2 2 2 2 2 2 4 C ) C C C N N v z z - f b b b v Q ",
"v v c c x x s i r C M M M M M ! y   w N v N n v %   ; , < < 2 2 2 2 2 2 2 2 2 2 2 2 2 2 2 2 7 P C P C C C C h v v N v M C b N ! ",
"P c b z z c s h f ~ M v N n b C p   r M M b v M %   ; , < < < < 2 2 2 , 2 2 , 2 2 2 < 2 2 2 7 ! C ! ! P C P b N b N P N N C m Q ",
"^ v b M n n v n v V N v C v b Q a   # v b c a c o   ; , , , < , 2 2 , 2 , , , , < , , < , , 7 ( N P ! P P C C C M M P N V ~ b / ",
"B C V c n B n V N N M b b B b Q a                   ; , , , , , , , , , , , , , , , , , , , 6 ~ v P ^ V ! N V V M B P N C M b ! ",
"Q B v f N P B C N N M M c ~ v b a                   ; : , , , , : , , , , , , , , , , , , , 6 Q N P V V ( n N N b v c C ' B N Q ",
"^ N n p c b Q ~ V V M N n ^ c B n O O o .       . o 1 6 1 3 3 5 5 4 4 4 5 6 9 9 6 5 5 5 6 7 l V C P V P C C Q n N # b N [ ! c N ",
"C N N x M a c P V V B b i p y y h q > > & + O + % 0 u u g u g u d d j d f k c j g g g j k j m C P P C C B N ! P C * z V [ Q p Q ",
"P n N N b z s N V V z r & & % % % % % r 0 * * * 0 0 * % % % * * = # = w = = = = # > # 0 0 $ a Q n ^ C V B n B ~ P t N C } v i ! ",
"n b B B c v i b Q C i * $ % % > % @ O O * * * & & % * % * % * > # O = t = + = = $ * $ * - 0 * x x / m Q N N M ~ ! w ^ ) ! t f B ",
"q - C B b h i z C Q c r * * > > & $ O o * & & # % % * % * > * * $ + = - t = % $ = = $ $ = - - Q Q V V ^ M M V Q ! V N V M t M p ",
"s s Q V M v p p N Q Q b i y a i > # % X * & # # % i p i s x i y f - f c h t f y p p p i f f b ~ P V ^ N x v x M ^ ) M B v i C c ",
"V B ^ v N M s - b Q C N a N C ^ n i i q a p y u f b N b ! V N n C C Q C C n C n N N N b C / C ) N V N z h N s M ` ! V ( b f x Q ",
"Q n P N C M s p z C N b b M x V V a z v b N f v b v v b N N N N M C C C C C M v N N C N C C ! ~ V V z f x B v N ) { M ~ B h t Q ",
"Q C Q M N B b x v V N M B b v b V a n b N n h c x h b v M N M n N C C M C C M C b C C M C C C C ~ M s z v M V Q ' ) P ~ N b z Q ",
"/ ) Q C v x i n V N N B n c n n v b M b B c z c f v f v N V b B n ~ n z n C C P z Q C C N C n C Q v t x M C M Q ^ ) M Q ^ M B ~ ",
"' ] B B v b t h V M n M M n Q b a q B v b b z c x x v c b M n C C C f z M P ~ ( C N c ! b n C N C M i h M N V C ^ ) b ~ ^ V Q ( ",
") / Q n M c f i V N N V c ~ V v z # v B v c v b h n b v b v N M z v f h C C C / Q C f v C N b Q P v v s M M V Q ~ ~ V V V ~ C / ",
"/ s Q N N v z - Q n V N n Q Q n p q n z M c v b V M v z s c B n b V h s M B ! ^ V v w b C V c Q P V P s B V C ! ) C Q b C Q P N ",
"^ N B N B M q p C M M b v v V M p b v v i M c P ^ v v s s z z c n M V p n N ~ ! n n p v ! M v V B B V M Q V V ( ! V C v V B Q Q ",
"^ ^ Q V B v v v M M v v x c M c n V v v h z V P V v M c s s s z n N M b N b C C n M v B B c M M N N N V Q ! Q Q M b N z v N N _ ",
"M i ~ ! N x s V M N b v v n n c z v v v c Q Q V Q n v v v z i f n V N N M B V N n v v v v v M M M M B C C ! ! M v c f s z B V ) ",
"N - i ! N x v Q M B M n b n n z z v v n n _ Q Q b z v v v b t p v v C Q n n V x V s M z c M v M n P B V Q ! ! v f s t z b M N / ",
"b s - N N B h V v V z c n b B c n s s n Q Q ( C s p z C V b i r h x N ! N N N v B v V z M z v B V P B V C ! C b i w s c b M N ~ ",
"N r q s N V b s c V x v b n b n v z s z V _ C Q z - i ~ C v s r p s N ^ n n V n v M M b z z b M ! B C M C Q C N O i c v b P n ~ ",
"C s - p B Q b z a c n x n b z b x n z s z ) Q Q N z c N v v p p x h V C M B n N N v v N f s V B M n n C V V Q C % t c v n B V P ",
"C i * n N B B z x b c z c b c z z z s z v ~ C C ! b n b b z t x x n n v N N V N z M p N M z c b N n v C N C C P i - h v v M M Q ",
"V i % z C N M c V c z q f c n c z x s z b ~ C V B V b b v i p M V M V v V n N n s v Q b z v c b n b n C v Q N C w t s c v v n Q ",
"M a i z M B M c Q v v * i n v c s z z c z v V N V V N b x h p v N C q N ' x n C s B M c M v c M n c b N n C v M r c r z v c M Q ",
"n r v v N v M c Q n b % c n v f s v c v v n z v V M M b b z M M b P - Q _ x M Q b M c z B M v M M f M v V b C c c z s h v M n Q ",
"N z n v v n v z n V y r z c c f s b M v v b x v n v M B z x v M c n M C M N C Q V v v M x M n x b f c N N N N M v v s f h V V Q ",
"C c z z n n z x x n c h a n v 0 s B x s x v x c v b z V n z x b v b n N N C Q V Q M v w p M c h ! v h n C V n n v v v c c M C ^ ",
"C c c c c r n a x x h f a B v r z v s p i s c x x z p x v s M c M w ^ b n V V v M b s % h v V n M x v c v n V v c v z z M Q M P ",
"~ N M Q V v C n N B N B n Q B M M Q B V c v M P V B B v Q C ! C Q B ~ Q Q ^ ^ n ^ / M z B Q / ^ V V C C C ~ Q V V P Q V ^ ! ^ ^ "
};
