/* XPM */
static char *result[] = {
/* columns rows colors chars-per-pixel */
"32 32 246 2 ",
"   c gray87",
".  c #FDFDFD",
"X  c gray99",
"o  c #D7D7D7",
"O  c #D2D2D2",
"+  c gray84",
"@  c gainsboro",
"#  c white",
"$  c #E1E1E1",
"%  c gray83",
"&  c #C8C8C8",
"*  c gray78",
"=  c gray79",
"-  c gray80",
";  c #AAAAAA",
":  c #B4B4B4",
">  c gray82",
",  c gray85",
"<  c gray76",
"1  c #9B9B9B",
"2  c #DDDDDD",
"3  c #D0D0D0",
"4  c #A0A0A0",
"5  c #AFAFAF",
"6  c gray51",
"7  c #414141",
"8  c gray23",
"9  c gray27",
"0  c gray81",
"q  c #DADADA",
"w  c LightGray",
"e  c black",
"r  c #2D2D2D",
"t  c #1D1D1D",
"y  c #060606",
"u  c gray86",
"i  c #505050",
"p  c #06121A",
"a  c #141F26",
"s  c #CBCBCB",
"d  c #CECECE",
"f  c #000101",
"g  c #060F15",
"h  c #0C0F11",
"j  c #09151D",
"k  c gray17",
"l  c #1F2930",
"z  c #050F16",
"x  c #4597C9",
"c  c #53B9F7",
"v  c #54B9F7",
"b  c #54B9F6",
"n  c #55B9F6",
"m  c #53B7F4",
"M  c #54B7F3",
"N  c #58B8F3",
"B  c #5CB9F3",
"V  c #7BB5D7",
"C  c #0F1010",
"Z  c #4498CB",
"A  c #56BAF7",
"S  c #57B9F5",
"D  c #4CB1EE",
"F  c #41A9E9",
"G  c #3EA7E8",
"H  c #3DA7E7",
"J  c #44ACEA",
"K  c #4FB5F2",
"L  c #53B8F6",
"P  c #5DBBF4",
"I  c #7DA0B5",
"U  c gray54",
"Y  c #4898CB",
"T  c #5FB4E8",
"R  c #389BD8",
"E  c #2993D3",
"W  c #2591D2",
"Q  c #2491D3",
"!  c #2390D3",
"~  c #228ECF",
"^  c #2892D3",
"/  c #43A2DB",
"(  c #67BAEC",
")  c #5BBBF5",
"_  c #5CBBF5",
"`  c #82A2B6",
"'  c #4697CA",
"]  c #3098D6",
"[  c #228DCF",
"{  c #2D8BC4",
"}  c #217FB7",
"|  c #1677B1",
" . c #1978B1",
".. c #207EB6",
"X. c #2180B8",
"o. c #2489C6",
"O. c #228ED1",
"+. c #3E9BD3",
"@. c #83BEE2",
"#. c #5DBBF5",
"$. c #62BDF4",
"%. c #3B91C4",
"&. c #2190D2",
"*. c #2989C2",
"=. c #1676AE",
"-. c #0F72AD",
";. c #0E71AC",
":. c #0F72AC",
">. c #4799CB",
",. c #2390D2",
"<. c #3397D3",
"1. c #71BAE6",
"2. c #57BAF6",
"3. c #010101",
"4. c #D5D5D5",
"5. c #358CC1",
"6. c #218FD2",
"7. c #388EC1",
"8. c #1475AE",
"9. c #0E6EA7",
"0. c #0C699F",
"q. c #0B679E",
"w. c #0A679F",
"e. c #0C6BA4",
"r. c #0F71AC",
"t. c #297FB2",
"y. c #4B97C5",
"u. c #48A2D8",
"i. c #59BAF6",
"p. c #358DC2",
"a. c #2984BA",
"s. c #1271A8",
"d. c #0B6397",
"f. c #075F94",
"g. c #086095",
"h. c #096095",
"j. c #0B6297",
"k. c #2073A4",
"l. c #1776AE",
"z. c #3685B3",
"x. c #3196D3",
"c. c #349AD8",
"v. c #378EC4",
"b. c #2481B9",
"n. c #1772A8",
"m. c #0D6396",
"M. c #0B6296",
"N. c #0E6497",
"B. c #0F6497",
"V. c #2B739E",
"C. c #297EB0",
"Z. c #267DB0",
"A. c #3D9ED8",
"S. c #2F98D7",
"D. c #58BBF7",
"F. c #101213",
"G. c #3A3A3A",
"H. c #4198CB",
"J. c #2591D3",
"K. c #2484BF",
"L. c #1574AD",
"P. c #176D9F",
"I. c #0E6498",
"U. c #0C6397",
"Y. c #0B6195",
"T. c #1D6FA0",
"R. c #1876AE",
"E. c #2C82B5",
"W. c #2F9ADA",
"Q. c #52A6D9",
"!. c #0C1820",
"~. c #010406",
"^. c #499DD0",
"/. c #3B9DD9",
"(. c #228CCD",
"). c #237FB5",
"_. c #1171AA",
"`. c #0D6AA1",
"'. c #0B669C",
"]. c #0A659C",
"[. c #0C69A1",
"{. c #1071AB",
"}. c #1879B1",
"|. c #2288C5",
" X c #2490D3",
".X c #43A9E8",
"XX c #7B7D7E",
"oX c #15191B",
"OX c #08141C",
"+X c #111B23",
"@X c #4A9ED2",
"#X c #6FB8E5",
"$X c #2C94D2",
"%X c #1F8ACB",
"&X c #1980BE",
"*X c #147BB7",
"=X c #147AB7",
"-X c #157CB8",
";X c #187EBB",
":X c #1A82C0",
">X c #218CCD",
",X c #2C93D2",
"<X c #3CA4E3",
"1X c #264F68",
"2X c #020203",
"3X c #192228",
"4X c #0E1921",
"5X c #07131B",
"6X c #4B9FD3",
"7X c #60BCF4",
"8X c #4EADE7",
"9X c #349BD9",
"0X c #3198D6",
"qX c #369DDB",
"wX c #379EDC",
"eX c #43A8E4",
"rX c #53B5F1",
"tX c #ACADAD",
"yX c gray62",
"uX c #000001",
"iX c #161D23",
"pX c #0C181F",
"aX c #020506",
"sX c #66A7CF",
"dX c #63BDF4",
"fX c #64BDF4",
"gX c #62BCF4",
"hX c #61BCF4",
"jX c #62BDF5",
"kX c #63BFF8",
"lX c #72C1F1",
"zX c #070A0B",
"xX c #1C1E1F",
"cX c #000102",
"vX c #172026",
"bX c #020507",
"nX c #1A252C",
"mX c #09141C",
"MX c #F6F6F6",
"NX c #F8F8F8",
"BX c gray97",
"VX c #CACACA",
"CX c gray91",
"ZX c #FBFBFB",
"AX c #CDCDCD",
"SX c #D8D8D8",
/* pixels */
"                                                                ",
"                                                      . X       ",
"                            o O O + @               # # $       ",
"                            % & * = * +               * -       ",
"    ; :   > & & & o             @ * * &             * * ,       ",
"  < 1 1 @ * & * * * * & @         = * & ,           & 2         ",
"  3 4 5 * * 6 7 7 8 9 0 * 2       q - * w                       ",
"q * * * * * e r r t y & * u       2 O * & , 2 q                 ",
", * * * * i e p p a e               u = * & w * s               ",
"2 = d - 7 f p g h j e e e e e e e e e e e e e e k @             ",
"2 - 0 8 e l z e e p e x c c c v b n n m M N B V e 1             ",
"      e p p C   e p e Z A S D F G G H J K L n P I e U           ",
"      e p e     e p e Y T R E W Q Q ! ~ ^ / ( ) _ ` e           ",
"      e p e     e p e ' ] [ { } |  ...X.o.O.+.@.#.$.e           ",
"      e p e u   e p e %.&.*.=.-.;.;.:.:.=.>.,.<.1.2.e           ",
"      e p 3.4.  e p e 5.6.7.8.9.0.q.w.e.r.t.y.,.u.i.e           ",
"      e p 3.4.  e p e p.6.a.s.d.f.g.h.j.k.l.z.x.c.i.e           ",
"      e p 3.w   e p e v.6.b.n.m.M.m.N.B.V.C.Z.A.S.D.e           ",
"      e p F.G.  e p e H.J.K.L.P.M.I.U.Y.T.R.E.E W.Q.e           ",
"      e p !.~.* e p e ^./.(.)._.`.'.].[.{.}.|. X.Xe XX          ",
"      e oXOX+Xe e p e @X#X$X%X&X*X=X-X;X:X>X,X<X1X2X            ",
"        e 3Xp 4XOX5Xf 6X7X8X9X0X0X0X9XqXwXeXrXn e tX            ",
"        yXuXiXp p pXaXsXdXfXgX7X7XhXhXjXkXdXlXzXxX              ",
"          yXcXvXp j bXe e e e e e e e e e e e e                 ",
"              cXnXmXe             o * * MXNX                    ",
"              k e e e   BX  VX      * * CXX                     ",
"                  CXZX# #   * o     @ * 0                       ",
"          q * * * + # - = * * q       o >                       ",
"        o * & & & * * * * * 0                                   ",
"      AX* * SX, , , , ,                                         ",
"      O O                                                       ",
"                                                                "
};
